<svg xmlns="http://www.w3.org/2000/svg" viewBox="0 0 136.01 134.46"><defs><style>.cls-1{fill:#8f8b8b;}.cls-2{fill:#fff;}</style></defs><g id="图层_2" data-name="图层 2"><g id="图层_1-2" data-name="图层 1"><path class="cls-1" d="M.25,62.82c-1.1-7.52,1.62-15.33,4-23.2a5.56,5.56,0,0,0,.33-2.68c-.2-1.08.22-1.68,1.43-1.49a5.24,5.24,0,0,0,2.95-.62c.42-.19.89-.45,1-.91.69-3,3.21-4.5,5-6.62A43.08,43.08,0,0,0,18.73,22a7.64,7.64,0,0,1,1.51-1.85,15.3,15.3,0,0,0,3.71-4c.56-1,2-.76,2.79-1.71,1.7-2.15,4.26-3.17,6.42-4.73a2.61,2.61,0,0,1,2.29-.5A1.13,1.13,0,0,0,36.87,8c0-.23,0-.51.19-.49,2.22.16,2.8-2.66,5-2.66A5.24,5.24,0,0,0,45.21,3.4a12.14,12.14,0,0,1,5.24-2.34,31.26,31.26,0,0,1,8.74-1,49.71,49.71,0,0,0,7.09.16C68.72,0,71.1.68,73.49.11a2.69,2.69,0,0,1,2.58.55c.7.63,1.66.39,2.51.4a17.29,17.29,0,0,1,4.23,1c2.09.56,3.88,1.73,5.91,2.32a1.74,1.74,0,0,1,.72.22C91.5,6.4,94.26,7,96.34,8.81a5.46,5.46,0,0,0,3,1.48c.58.06,1,.53,1.39.89,1.41,1.16,2.74,2.47,4.64,2.84a2.1,2.1,0,0,1,1.13.76,3.14,3.14,0,0,0,.87.84c3.16,1.42,5.44,4.09,8.37,5.84A7,7,0,0,0,119,22.69c1.09.06,2.23,2,2,3.19s.06,1.5,1.24,1.15c.76-.23,1.08.15,1,.75-.11.84.34,1.21.83,1.78a6.23,6.23,0,0,1,1.52,3.73,7.49,7.49,0,0,0,2.29,5,10.82,10.82,0,0,1,3.25,6.92c.07,1.2,1.18,2,1.29,3.23.2,2.23.47,4.46.84,6.67.34,2,1.06,3.93,1.55,5.89.61,2.49,1.45,4.92,1.12,7.71-.36,3-.29,6.23-.72,9.24-.27,1.85.12,3.79-.67,5.58-.63,1.43-1.4,2.92-.15,4.45a.61.61,0,0,1,.06.57c-1.22,1.89-1.28,4.25-2.52,6.14a10.68,10.68,0,0,0-1.14,2.66c-.46,1.46-1,2.76-2.6,3.37a1.48,1.48,0,0,0-.84.84c-.44,1.68-1.75,2.86-2.38,4.43-.44,1.09-.88,2.19-2.46,2.07-.65,0-.82.68-.89,1.25A4.85,4.85,0,0,1,119.1,113c-2,1.15-3.53,3.14-6.09,3.23a1.4,1.4,0,0,0-1.1,1A2.84,2.84,0,0,1,109,119a3,3,0,0,0-2.78,1.52c-.62,1-1.28,1.73-2.73.9a1.48,1.48,0,0,0-2.39,1.15c-.12.85-.7.94-1.16.44-.61-.66-1.2-.8-1.85-.3s-1.71,1.11-1.6,2.25a2,2,0,0,1-1,2.24c-.76.39-1.42.06-1.87-.77-.21-.38-.8,0-1,.6-.58,2.38-1.47,3-3.71,2.37-1.33-.35-3.58.92-4.44,2.52s-1.22,1.71-2.6.56c-1-.85-1.64-.48-2.25.38-.83,1.17-1.62,1.86-3.29,1.11-1-.47-2.46-.08-3.7-.09a26,26,0,0,1-4.84-.14,10.4,10.4,0,0,1-2.76-1.28,2.41,2.41,0,0,0-3,.15,4,4,0,0,1-3.89.67,2.46,2.46,0,0,0-2.31.43c-1.54,1.23-2.93,1-4.14-.73-.26-.38-.41-.92-.89-1-2-.26-3.33-1.78-5.22-2.33s-3.87-1.21-5.85-1.71c-4.63-1.18-8.84-3.11-12.12-6.75-1.34-1.5-3.2-2.36-4.85-3.46-2.66-1.79-4.78-3.94-5.61-7.18a7.79,7.79,0,0,0-1.91-3.11,38.15,38.15,0,0,1-6-9.38C7.26,93.74,5,89.48,3.34,85,1.56,80.24,1.09,75.27.55,70.3A45.65,45.65,0,0,1,.25,62.82Z"/><path class="cls-2" d="M38.26,61.14c-.4-.11-1,.18-1.12-.49s.43-.86.93-1.07a7.51,7.51,0,0,1,2.29-.34c-.15-.6-1.25,0-1.06-.85.14-.66.8-.72,1.32-.87.86-.23,2.1.14,2.07-1.4,0-.06.17-.18.23-.17,1.66.48,2.81-1.17,4.43-1,1.85.16,3.57-.78,5.4-.9,2.89-.18,5.69-1.49,8.66-.7.39.1.67-.2,1-.41.94-.7,2.22-.6,3.1-1.08,1.76-1,3.53-.56,5.29-.8a17.53,17.53,0,0,1,6.77,0,14.5,14.5,0,0,0,3.36,0c2.43,0,4.93-.44,7.06,1.25.18.13.46.21.29.54-2-.38-3.82,1.1-5.86.72a1.82,1.82,0,0,0-.87.24c-.24.1-.48.24-.37.56s.36.31.63.24a3.47,3.47,0,0,1,3.43.82c.78.66,2.11,0,3.16-.36a6.86,6.86,0,0,1,4.92-.09c-3.62,1.91-7.28,1.74-10.93,1.65a7.93,7.93,0,0,0-2.43,0c-3.93,1.25-8.12.85-12,1.87-1.86.49-3.69.28-5.46.66a61.62,61.62,0,0,1-7.8,1.49c-2,.18-4,.63-6,.65-1.35,0-2.56.79-3.86,1.16-2.84.83-5.8,1.06-8.62,1.92a1.15,1.15,0,0,1-1.34-.51c-.34-.53,0-1,.26-1.41.79-1.18,2-.92,3.2-1a9.66,9.66,0,0,1,1.28-.33C39.14,61,38.72,61.44,38.26,61.14Z"/><path class="cls-2" d="M48.37,80.09c.36.25.73.5.16.9a.76.76,0,0,1-.43.16,30.43,30.43,0,0,1-5.72-.28c.07-.67.5-.64.78-.81s1.25-.14,1.06-.8-.89-.72-1.54-.44c-.06,0-.17-.07-.48-.19.67-.89,1.66-.73,2.45-.87s1.77-.07,2-1.23c0-.28.33-.37.59-.41,1.59-.27,3.15-1,4.67-1.14,4-.32,7.9-1.52,11.88-1.94,3.25-.35,6.4-1.47,9.74-1.18a5.71,5.71,0,0,0,2.09-.38c1.09-.33,2-.28,2.6.86s-.12,1.75-1,2.28c-.39.19-.69.21-.68-.37-.57-.93-1.37,0-2.07-.23-.9-.28-1.87.39-2.83,0-.15,0-.51.08-.54.18-.56,2.08-2.23,1.08-3.46,1.27-.2,0-.4,0-.76,0,.93.92,2,.33,3.36.78a27.19,27.19,0,0,1-5.72,1.36,5.84,5.84,0,0,0-2,.2A4.89,4.89,0,0,1,56.79,77c-.31-.3-1.07-.15-1.62-.18-.32,0-.66,0-.71.41s.22.41.49.47c.65.15,1.18,1,1.09,1.2-.22.67-1,.59-1.66.67a7.27,7.27,0,0,1-4.8-.6c-.85-.49-1.77.48-2.7.63a.88.88,0,0,1-.8.06A9,9,0,0,0,48.37,80.09Z"/><path class="cls-2" d="M75.92,25.58c-.51.06-1.31-.23-1.34.58s.79.59,1.3.67a7,7,0,0,0,.92,0c1.5,0,2.88.3,3.62,2.1-1.51-.29-2.94-.69-4.41-.83-1.94-.18-3.87-.07-5.81-.1-.41,0-.91,0-.9.58s.5.57.91.57c1.63,0,3.27,0,4.9,0a13.39,13.39,0,0,1,4.22.66c0,.86-.58.94-1.2,1s-1.39-.17-2.09-.11c-1.31.37-2.58-.3-3.88-.18a9,9,0,0,0-1.94.18,1.3,1.3,0,0,1-1-.27A7.82,7.82,0,0,0,65,30.36a5.9,5.9,0,0,1-1.52.07c-.5,0-.71-.33-.68-.81s.42-.44.77-.42a8.5,8.5,0,0,0,4.34-.95A26.25,26.25,0,0,1,59.49,28a2.43,2.43,0,0,1,2.18-.64c1.55,0,3.09.39,4.52-.93.73-.67,2.14-.27,3.24.05.38.11.94.61,1.13-.11.14-.52-.48-.68-.89-.86a7,7,0,0,0-2.42-.23c-.41,0-.92-.06-.88-.59s.57-.31.89-.32c1.67-.06,3.34,0,5-.18,1-.1,1.88,1,3.07.91a13.39,13.39,0,0,1,2.43.22C77.28,26.11,76.56,25.59,75.92,25.58Z"/><path class="cls-2" d="M26.73,22.62c-5.28,7.44-9.28,15.53-13.23,23.72-.06-1.58.41-3.07.31-4.6a9.94,9.94,0,0,0-.29-3,1.71,1.71,0,0,1,.27-1.6A16,16,0,0,1,16.2,34a14.6,14.6,0,0,0,2.15-2.91A30.64,30.64,0,0,1,26.73,22.62Z"/><path class="cls-2" d="M62.46,113.53a1.18,1.18,0,0,0-.9.52c-2,3.49-5.43,2.4-8,1.68A15.26,15.26,0,0,1,47.77,112h0c.44,0,.81-.06.94-.57.09-.31.37-.67.61-.58,1.94.69,3.37-1.27,5.22-.94.82.14,1.5-.52,2.28-.56.39.57-.6,1.27.29,1.65s1.18-.15,1.59-.74c.3-.44.66-.5.76.2a4.75,4.75,0,0,1,.18.88c-.12,2,.74,1.29,1.61.6a1.22,1.22,0,0,1,.89.16C62.55,112.51,62.81,113,62.46,113.53Z"/><path class="cls-2" d="M21.76,72.11c-1.31-1.27-1.35-3-1.53-4.69a19.34,19.34,0,0,0-.41-3.48,3.14,3.14,0,0,1,.11-2.37A4.42,4.42,0,0,0,20.09,59a6,6,0,0,1,.25-3.89,1.52,1.52,0,0,0,.08-1c-.6-1.92.12-3.63.8-5.33a35.3,35.3,0,0,0,1.44-6.35c.63-3.21,2.15-6,3.24-9a1.33,1.33,0,0,1,1.19-1A1.32,1.32,0,0,1,27,33.71c-1.28,2.71-1.82,5.65-2.72,8.47-1.26,4-1.63,8.06-2.62,12a21.75,21.75,0,0,0-.05,9.7C22.12,66.56,22.84,69.3,21.76,72.11Z"/><path class="cls-2" d="M118.62,93.81c-1.78,1.83-1.85,4.07-1.89,6.32,0,1.14-.14,1.94-1.69,1.94-1.05,0-2.13.12-3.19.06-.16,0-1.39.67-.67-.65.13-.24-1.18-.3-1.43.06a11.35,11.35,0,0,1-2.52,2,6.75,6.75,0,0,1-.54.53c-.78.51-1.72,1.57-2.49.5s.69-1.33,1.3-1.89c1-.92,2.27-1.55,2.76-3,.14-.41.27-.94,1.06-.52s1-.66,1.7-.83c1.39-.35,2.25-1.7,3.71-2,.46-.1.54-.71.62-1.16.19-1.07.37-2,1.89-1.45C117.55,93.9,118,93.53,118.62,93.81Z"/><path class="cls-2" d="M80,21.26c-1.7.7-3.46.37-5.2.31a.86.86,0,0,0-.63-.32,2.25,2.25,0,0,1-.91-.28c-2.27.13-4.48-.7-6.78-.44a1.92,1.92,0,0,1,1.76-.76c3.2.07,6.42-.38,9.58.47a7,7,0,0,0,1.37.12c1.18.08.28-.53.26-.84,2.06.16,2.56.35,3,1.16-.11.08-.21.18-.07.3a.25.25,0,0,0,.36,0c1.44-.63,2.78,0,3.67,1.52,1.13.34,2.36.43,3.29,1.3a.77.77,0,0,1,.09.86,2.09,2.09,0,0,1-2.94-.75c-.19-.29-.42-.54-.69-.44-2.27.84-3.7-1.18-5.6-1.6C80,22.05,80.24,21.37,80,21.26Z"/><path class="cls-2" d="M72.61,91.47c-1.57.1-3-.57-4.69-.17a19.78,19.78,0,0,0-4.59,1.44c-.62.32-1,.37-1.46,0a3.64,3.64,0,0,0-2.75-.65c-.07-.06-.1-.13-.07-.19s.05-.1.07-.1c1.28-.87,2.47-1.83,4.26-1.06.52.22,1.37-.59,2.19-.27.19.07.44-.16.36-.36-.62-1.69.82-1.3,1.51-1.38a4.91,4.91,0,0,1,3.23.48,4,4,0,0,0,2.54.21c.08.56-1.2.78-.32,1.45C73.08,91.22,72.76,91.3,72.61,91.47Z"/><path class="cls-2" d="M73.22,78.28c-.91.32-1.81.67-2.73,1-.7.2-1.44.64-2-.38-.2-.4-.74-.24-1.13-.16a3.1,3.1,0,0,1-1.86,0c5.46-2,10.74-3.33,16.38-2.22-2.34-.08-4.28,1.25-6.44,1.75a4,4,0,0,1-1.93-.34C73.18,77.81,73.29,78.13,73.22,78.28Z"/><path class="cls-2" d="M76,36.62a4.17,4.17,0,0,1,4.16-.46,5.68,5.68,0,0,0,2.68.44c.3,0,.66,0,.7-.42s-.29-.52-.61-.49c-1.25.12-2.34-.64-3.56-.67-.21-.08-.21-.16,0-.26a31.79,31.79,0,0,1,11.57.87,1.68,1.68,0,0,1-1.18.36c-.79-.38-1.43,0-2.09.37-1.47,1-1.12-.42-1.43-.86,0,.48.44,1.06.18,1.71a2.26,2.26,0,0,1-1.62,0l-8.2-.07C76.45,36.93,75.82,37.23,76,36.62Z"/><path class="cls-2" d="M57.92,70.39a33.49,33.49,0,0,1,6.24-1.74c1.94-.28,4,.3,5.89-.71.92-.49,2.08.17,3.14.24-.09.46-.6.16-.74.52.39.66,1.21.38,1.77.81a1.67,1.67,0,0,1-1.46.3c-1.57-.22-3.15-.39-4.59.56a1.05,1.05,0,0,1-1.4-.17c-1-1-2.2-.85-3.44-.62-1.6.29-3.08,1.13-4.76,1.07C58.29,70.74,58,71,57.92,70.39Z"/><path class="cls-2" d="M88.5,39.36a48.4,48.4,0,0,0-6.19-.25c-2.3.19-4.52-.58-6.89,0-1.47.33-3.44.89-5.17-.2-.56-.35-1.48-.13-2.23-.25a22.11,22.11,0,0,1,6.28-.49c4.74,0,9.49-.19,14.2.61a3.61,3.61,0,0,1,.69.26C89.2,39.56,88.9,39.55,88.5,39.36Z"/><path class="cls-2" d="M46.82,32.56c-.34.88-.8,1.61-1.88,1.67a1.1,1.1,0,0,0-.55.25c-3,2.29-3,2.29-6.57,2.5.68-1,2-.43,2.74-1.11,0-.68-1-.3-1-.63a6.88,6.88,0,0,1,7-3C46.77,32.2,46.93,32.25,46.82,32.56Z"/><path class="cls-2" d="M58.59,117.74c-.47-.42-.93.11-1.35-.11.72-1.4,1.36-1.54,2.47-.63a1.72,1.72,0,0,0,1.12.39,2.71,2.71,0,0,1,2.22,1.09c.29.3,1,.37.82,1s-.81.74-1.35.79c-1,.11-2.38.58-3,.11-1.08-.87-2.35-.47-3.37-1.07-.15-.09-.35-.3-.33-.44,0-.42.4-.36.69-.39C57.26,118.35,58.18,118.79,58.59,117.74Z"/><path class="cls-2" d="M98,112.3a14.35,14.35,0,0,0,1.22-1.11c.41-.44.55-.9-.29-1-.07-.06-.09-.11-.06-.17s0-.07.07-.07c1.27-.5,2.87-.5,3.33-2.23,0-.13.35-.28.52-.26,1.76.2,2.67-1,3.68-2.12a2.36,2.36,0,0,1,.76-.51,2.12,2.12,0,0,1,1.62,0c.07,0,.14.27.1.38-.23.57-.76.6-1.26.66s-.75,0-.94.38a8.11,8.11,0,0,1-5.34,4.06,1.72,1.72,0,0,0-1.43,1.64c0,.74-1.23.63-2,.72-.09-.08-.12-.15-.09-.23S98,112.3,98,112.3Z"/><path class="cls-2" d="M52.08,32.32c1.38-.3,2.61-1.23,4.23-1.14-.33.75-1.17.43-1.41,1.17,2.12-.14,4.1-.81,6.17-1.15,0,.69-.34.93-.57.92-1.69-.08-3,1-4.61,1.29a40.39,40.39,0,0,0-4.49,1.13c-1,.32-1.81-.08-2.71-.09a.17.17,0,0,1-.07-.2c0-.07.05-.1.07-.1l3-1C52,33,51.7,32.5,52.08,32.32Z"/><path class="cls-2" d="M118.61,87.19c-.62,1.73-.89,3.66-2.75,4.66a.69.69,0,0,1-.3-.55,1.37,1.37,0,0,1,.44-.93c-.38.25-.64,1-1.37.42a14.55,14.55,0,0,1,2.2-5.86,1.75,1.75,0,0,1,1.57-.77,5.34,5.34,0,0,1-.91,2.26c-.15.32-.29.71.14.91s.51-.21.68-.44C118.59,86.82,118.73,86.87,118.61,87.19Z"/><path class="cls-2" d="M98,112.3l0,.35a1.34,1.34,0,0,1-1.15.63.37.37,0,0,0-.35.54c.14.37.41.12.62,0l1.67-.62a3.34,3.34,0,0,1-3.78,1.67,27.3,27.3,0,0,0-4.44,0c.46-2,.93-2.35,2.74-2.31.9,0,1.16.39.91,1.36C95.27,112.48,96.94,113.09,98,112.3Z"/><path class="cls-2" d="M79.66,30.14c.85.35,1.53,1.11,2.66.79.69-.2.83.92,1.56.93-.14.81-1.75-.15-1.31,1.3.07.24-2.1-.24-2.24-1s-.46-.78-1-.79a61.39,61.39,0,0,0-9.87.33,7.28,7.28,0,0,1-.81,0c-.05-.53.58-.5.67-.86.48-.33,1-.23,1.58-.35,1.65-.12,3.3.16,4.95.15C77.1,30.43,78.47,31,79.66,30.14Z"/><path class="cls-2" d="M115.8,91.07l.06.77c-.39,1.44-1.88,2.07-2.43,3.39-.38.9-.84,1.73-1.91,2a6.09,6.09,0,0,1,1.35-5.38.78.78,0,0,1,1.1,0c.11.08.12.16,0,.24.2,0,.18-.19.3-.24l.6-.32C115.12,91.12,115.35,90.85,115.8,91.07Z"/><path class="cls-2" d="M78.06,89.3a6.39,6.39,0,0,1-4.43-.24c-.56-.3-1.4,0-2.11-.07-.24,0-.55,0-.63-.3s.19-.46.42-.53a23.74,23.74,0,0,1,6.74-1c.87,0,1.27.6.67,1.47-.88.47-1.43-.35-2.07-.33C76.85,88.79,78.09,88.25,78.06,89.3Z"/><path class="cls-2" d="M67.44,85.17c-3,.62-5.94,1.44-9.3,1.24,2-1.57,4-2.7,6.48-2.3C65.6,84.27,66.25,85.41,67.44,85.17Z"/><path class="cls-2" d="M77.19,46.69a6.6,6.6,0,0,1-1.57.22c-.69-.07.06-.32,0-.49.13-.51.62-.41.95-.58a10.89,10.89,0,0,1,2.28,0c.35.06,1.63-.72,1.07.76.24,0,.52.2.69.12a3.25,3.25,0,0,1,3.51.24c.31.22.88.08,1.5.12a2.7,2.7,0,0,1-2,.85c-2.1.07-4.22.15-6.14-.94.09-.07.12-.15.06-.23A.22.22,0,0,0,77.19,46.69Z"/><path class="cls-2" d="M72.33,36.75a30.49,30.49,0,0,0-3.52.44c-1.51.35-2.33-.61-3.26-1.44-.31-.27-.33-.57,0-.73,1-.48,2.33-1,3.17-.29a5.81,5.81,0,0,0,3.12,1.39C72.08,36.15,72.33,36.3,72.33,36.75Z"/><path class="cls-2" d="M74.43,111.06c-1.17-1-2.46-.7-3.8-.43-.79.16-1.94.83-2.26-.73,0-.07-.33-.16-.36-.12-1.37,1.47-.78-.61-1.3-.71.88.22,1.87-.49,2.63.41a.33.33,0,0,0,.6-.09c.59-1.54,2-.84,3.28-1.33-1,.91-.49,1.23.26,1.57a7.57,7.57,0,0,1,1.25.87C74.92,110.84,74.63,110.92,74.43,111.06Z"/><path class="cls-2" d="M126.86,97.79c-1.09,2-2.81,3.31-4.57,5,.09-1.53-.61-3,.79-3.74C124.2,98.48,125.06,96.8,126.86,97.79Z"/><path class="cls-2" d="M101.54,117.81c-2.86,1.47-5.78,2.65-9.05,2.48A14,14,0,0,1,101.54,117.81Z"/><path class="cls-2" d="M58.84,97.26a36.55,36.55,0,0,1-4,1.22,1.7,1.7,0,0,1-2-1,2.42,2.42,0,0,1,2.75,0c-.17-1.62-1.45-.81-2.17-1.24,1.34-1,2.8-.85,4.24-.68.33,0,.53.3.25.67C57.2,97.16,58.27,96.9,58.84,97.26Z"/><path class="cls-2" d="M52.34,28.83c1.9-1.17,3.87-1,5.77-1.12.17,0,.46,0,.43.28s.06,1-.43,1.22c-1.39.7-3,.68-4.43,1.14a.28.28,0,0,1-.33-.37C53.81,29.05,52.86,29.26,52.34,28.83Z"/><path class="cls-2" d="M76.57,45.84l-.95.58a2.27,2.27,0,0,0-2.84.59c-.49.61-1.33.21-2,.35-.65.32-.78-.22-1-.62-1.12-.32-2.25.68-3.77-.19a21.83,21.83,0,0,1,2.87-.42c1.19,0,1.16,0,1.85-1,.31-.45.85-.26,1.29-.22.79.09,1.59.41,2.36-.09a.3.3,0,0,1,.44,0c-.31.41-.62.82.24.89C75.56,45.82,76.07,45.82,76.57,45.84Z"/><path class="cls-2" d="M51.74,19.08a1.1,1.1,0,0,1-.66.59,33.09,33.09,0,0,0-9.4,4.59c-.18.13-.41.33-.87-.06a21.19,21.19,0,0,1,10.58-5.44C51.74,18.61,51.79,18.8,51.74,19.08Z"/><path class="cls-2" d="M74.82,44.89l-.43,0a.77.77,0,0,0-.73-.82c-.25,0-1,.24-.41-.46.22-.27-.34-1,.59-.86,1.35.19,2.72.24,4.08.39.53.07,1.18.1,1.07.94a1,1,0,0,1-1.3.95A17.28,17.28,0,0,0,74.82,44.89Z"/><path class="cls-2" d="M47.06,99.9c-.16.53-.34,1-.48,1.58a2.29,2.29,0,0,1-2.88,1.93c-1.37-.32-1.1-1.46-1.14-2.57,1.28.45,2.56,1.23,3.16-.75C45.9,99.52,46.54,99.64,47.06,99.9Z"/><path class="cls-2" d="M84,117.84c-.16-.56-.17-1,.64-.92a22.18,22.18,0,0,0,3,0c.4,0,1.32.56,1.09-.8-.1-.59.92-.54,1.46-.1s1,1.19,2.13,1.27c-.75.42-1.06,1.19-1.65.28a.18.18,0,0,0-.13,0c-1.94,1.49-4.07-.57-6,.31A.35.35,0,0,1,84,117.84Z"/><path class="cls-2" d="M77,34.48a7.84,7.84,0,0,1-6.48.59c-.3-.08-.59-.25-.57-.61s.23-.31.44-.31A31.16,31.16,0,0,1,77,34.48Z"/><path class="cls-2" d="M53.58,46.38c-.42.57-2,.23-1.32,1.69.14.29-.21.45-.48.39a9.44,9.44,0,0,0-5.24.23c-.15.05-.38-.12-.58-.18A.33.33,0,0,1,46,48a53.53,53.53,0,0,0,5.86-1.5c.58-.15,1.19-.21,1.78-.31.08,0,.11.11.08.16S53.61,46.38,53.58,46.38Z"/><path class="cls-2" d="M46.26,31.39c.73-.22,1.47-.38,2.17-.67.5-.21,1.17-.61.74-1.23s-.15-.76.34-.85,1-.3.74.57,1,.43,1,1.21c-1.32.59-2.09,2.49-4.08,1.89C46.87,32,46.21,32,46.26,31.39Z"/><path class="cls-2" d="M29.13,65.18C29.51,68,29,70.86,30,73.6a.69.69,0,0,1-.2.83.65.65,0,0,1-.72.06c-.35-.18-.27-.49-.16-.79a5.45,5.45,0,0,0-.21-3.15,11.86,11.86,0,0,1,.11-5.74C29.1,64.77,29.26,64.84,29.13,65.18Z"/><path class="cls-2" d="M75.68,93c.65-1,1.78-.72,2.72-1a19.26,19.26,0,0,1,4.74-.29c-2.5.36-4.68,2.7-7.48,1.22Z"/><path class="cls-2" d="M73.49,86.08c-2.49-.13-4.62,3-7.42.32l7.32-.87Z"/><path class="cls-2" d="M73,92.7c-.81,1.38-.81,1.37-2.35,1-.39-.08-.8,0-1.2-.11-.68-.11-.43-.7-.52-1.1-.14-.6.36-.49.67-.49A9.26,9.26,0,0,1,73,92.7Z"/><path class="cls-2" d="M47.88,29.48c-2.21.35-3.87,2.12-6.23,2.29C43.31,29.52,45.76,28.6,47.88,29.48Z"/><path class="cls-2" d="M72.41,81.39c-1.17.3-2.35,1.56-3.56.09a.63.63,0,0,0-.82-.07c-1,.5-1,.46-2.14,0C68.13,79.58,70.28,81.36,72.41,81.39Z"/><path class="cls-2" d="M99.89,101.59c-.15.25-.48.6-.41.74.24.46.6.09.89,0a2.4,2.4,0,0,1,2.2-.26c-1,.84-1.39,2.26-3.11,1.69-.5-.17-1.18.07-1.38-.65s.39-1,.85-1.29a3,3,0,0,1,.55-.24A.27.27,0,0,1,99.89,101.59Z"/><path class="cls-2" d="M123.58,80.47a5.31,5.31,0,0,1,.51,2.93,2,2,0,0,1-.4,1.42c-.33-.58-1.06-.24-1.46-.64a1.11,1.11,0,0,1-.07-1.39A7.61,7.61,0,0,1,123.58,80.47Z"/><path class="cls-2" d="M89.78,24.64l-.32-.6c0-.95-.89-.68-1.38-.92s-1.19-.25-1.33-1c1.8-.35,3.2.86,4.8,1.3a10.68,10.68,0,0,1,1.89.93c0,.56-.38.42-.71.32Z"/><path class="cls-2" d="M55.47,25c1.73-.42,3.41-1.1,5.24-1,.26,0,.68-.11.65.37,0,.25-.17.56-.45.54-1.67-.14-3.1,1.43-4.85.61C55.92,25.27,55.27,25.58,55.47,25Z"/><path class="cls-2" d="M33.05,74.61c.64,1,1.25.86,1.49-.2.18-.8.65-1.16,1.22-.92s0,.87,0,1.31C35.49,76,34.29,76.28,33.57,77c-.28.29-.46-.22-.58-.46a3.43,3.43,0,0,1-.2-1.93C32.87,74.46,33,74.46,33.05,74.61Z"/><path class="cls-2" d="M36.39,52.71a24.29,24.29,0,0,1,5-1.61c.58-.13.84.07.92.65s-.27.73-.7.75A2.55,2.55,0,0,1,40,52.37c-.38-.25-.94-.28-1.1.07C38.26,53.84,37.46,52.84,36.39,52.71Z"/><path class="cls-2" d="M38.26,25.72c-1.09,2-2.83,3.24-4.31,4.69C35.2,28.75,35.35,26.09,38.26,25.72Z"/><path class="cls-2" d="M47.77,112c-2-1-1.37-3.17-2.16-4.71-.13-.26.12-.59.45-.7s.47,0,.46.22c-.05,1.85,1.89,3.22,1.23,5.2Z"/><path class="cls-2" d="M88.23,52.8l-.29-.54c1-.07,2.07.21,2.91-.84.46-.57,1.61-.07,2.8,1.06C91.81,53.19,90,52.59,88.23,52.8Z"/><path class="cls-2" d="M27.72,49.35a7.16,7.16,0,0,1-.17-2.17c.09-.66.39-1.22-.67-1.13-.51,0-.56-.34-.51-.72s.41-.44.79-.38c1.65.26,2.09,1,1.48,2.54C28.39,48.13,28,48.73,27.72,49.35Z"/><path class="cls-2" d="M25.68,57.66c.55,1.34,0,4.75-1.11,6.61A9.42,9.42,0,0,1,25,59.92c.15-.6.59-1.22.12-1.87C25.22,57.81,25.56,57.89,25.68,57.66Z"/><path class="cls-2" d="M52.44,26a17.83,17.83,0,0,1-3.92,2.1c-.24.06-.51.15-.66-.13s.08-.39.22-.51A5.27,5.27,0,0,1,52.44,26Z"/><path class="cls-2" d="M56.33,92.64a10.86,10.86,0,0,0-2.58,1.27,5.12,5.12,0,0,1-1.39.58c-.45.1-1,0-1.1-.53s.59-.63.9-.57c1.3.29,2.07-1,3.23-1C55.75,92.29,56.19,91.94,56.33,92.64Z"/><path class="cls-2" d="M30.33,85.32c-.1-1-1.7-1.48-1.11-2.8.16-.35.06-.92.59-.94s.45.47.54.81c.22.85,1,1.63.31,2.58C30.75,85.28,30.6,85.36,30.33,85.32Z"/><path class="cls-2" d="M99.89,101.59l-.41,0a4.09,4.09,0,0,1,4.33-2.25C102.65,100.44,101.19,100.87,99.89,101.59Z"/><path class="cls-2" d="M84.8,37.23c.53-.1,1.11.12,1.59-.26s1.07-.15,1.58-.36c1.22-.61,1.83,0,2.23,1.23A36.56,36.56,0,0,1,84.8,37.23Z"/><path class="cls-2" d="M69.6,43.36c-1.06,1-2.53.3-3.67.92a2.26,2.26,0,0,1-1.62,0c-.17-.17-.64-.58-.23-.54a9,9,0,0,0,4.32-1c.21-.08.55.19.83.29C69.35,43.15,69.55,43.17,69.6,43.36Z"/><path class="cls-2" d="M74.58,9.35c2.21-1,3.43-.76,4.14.76A17.34,17.34,0,0,1,74.58,9.35Z"/><path class="cls-2" d="M83.91,12.18a4.57,4.57,0,0,1,3.9.94c.26.22.61.5.33.88s-.55,0-.79-.11C86.31,13.4,85.29,12.87,83.91,12.18Z"/><path class="cls-2" d="M56.32,82.14c1.3-1,2.2-.45,2.86.74C57.88,83.78,57.88,83.78,56.32,82.14Z"/><path class="cls-2" d="M94.05,22.22c-1.52,0-3.14.19-4.24-1.61a7.92,7.92,0,0,1,4.3,1.54Z"/><path class="cls-2" d="M55.36,38.06a1.18,1.18,0,0,1,1.16.56c.15.23.54.36.24.7s-.61.42-.8.2c-.6-.67-1.24-.46-1.93-.28-.23.06-.53.11-.64-.2s.16-.47.39-.54C54.3,38.32,54.83,38.21,55.36,38.06Z"/><path class="cls-2" d="M57.92,70.39l.65.26-.77.43c.6.87-.14.76-.6.78s-1.13,0-1.69,0c-.23,0-.55.05-.57-.31A.56.56,0,0,1,55.4,71C56.24,70.78,57.08,70.59,57.92,70.39Z"/><path class="cls-2" d="M84.25,75.25c1.38-.12,2.65-1.09,4.46-.62C87.15,76,85.68,75.44,84.25,75.25Z"/><path class="cls-2" d="M32.93,33.18c-.19.4-.17,1-.83.92s-.83.23-.92.77c-.06.35-.3.56-.64.4s-.14-.42-.06-.65a2.61,2.61,0,0,1,1.79-1.9C32.66,32.62,33,32.63,32.93,33.18Z"/><path class="cls-2" d="M64,87.15c-.46.14-.91.08-1.32.48A1.64,1.64,0,0,1,61,88c-.27-.11-.66-.21-.54-.6A.76.76,0,0,1,61,87C62,86.93,63,86.62,64,87.15Z"/><path class="cls-2" d="M29.65,77.38c.13,1,.74,2.1-.16,3.2a2.3,2.3,0,0,1-.38-2.91C29.24,77.48,29.32,77.2,29.65,77.38Z"/><path class="cls-2" d="M73.61,108.28a4.21,4.21,0,0,1,2.66-1.12c.24-.06.53,0,.58.33s-.17.46-.4.58A5.42,5.42,0,0,1,73.61,108.28Z"/><path class="cls-2" d="M67.32,106.6a15.9,15.9,0,0,1,3.33-.45c.42,0,.91.16.85.66s-.62.36-.87.26C69.67,106.67,68.62,107.29,67.32,106.6Z"/><path class="cls-2" d="M26,21.55a14.89,14.89,0,0,1,3.76-2.25c-.79,1.3-2.25,1.75-3.41,2.59C26,22,25.93,21.85,26,21.55Z"/><path class="cls-2" d="M53.6,87.79a5.68,5.68,0,0,1,3.68-1.39,9.19,9.19,0,0,1-3.69,1.65c-.11-.06-.15-.12-.11-.18A.17.17,0,0,1,53.6,87.79Z"/><path class="cls-2" d="M37.4,81.36c.45-.79.77-1.76,1.88-1.43.32.1.28.56.2.82C39.09,82,38.05,80.93,37.4,81.36Z"/><path class="cls-2" d="M59.46,37.41c-.6.22-1.32-.21-1.69.55-.18.35-.52.31-.76,0a1.1,1.1,0,0,1-.31-.65c0-.37.32-.46.63-.52A2,2,0,0,1,59.46,37.41Z"/><path class="cls-2" d="M75.66,93c-.08.67-.39,1.18-1.1,1.22-.5,0-1.31.39-1.44-.29s.71-.4,1.12-.54A3.31,3.31,0,0,1,75.68,93Z"/><path class="cls-2" d="M53.89,99.78H50.66c-.24,0-.56,0-.52-.36s.23-.55.49-.45C51.68,99.38,52.89,99,53.89,99.78Z"/><path class="cls-2" d="M82.71,14.85a11.8,11.8,0,0,1,3,1.1A2.37,2.37,0,0,1,82.71,14.85Z"/><path class="cls-2" d="M42.77,86.7a3.86,3.86,0,0,1,3-.81C44.71,87,44.22,87.17,42.77,86.7Z"/><path class="cls-2" d="M38,49.66a5.22,5.22,0,0,1,3.06-1.09C40.43,49.69,40,49.85,38,49.66Z"/><path class="cls-2" d="M86.75,22.12c.68.75,1.7.7,2.54,1.1.57.27.58.34.17.82-.88-.79-2.33-.47-3.06-1.56Z"/><path class="cls-2" d="M94,38.33c1-1.39,1.7-.69,2.47.25A3.72,3.72,0,0,1,94,38.33Z"/><path class="cls-2" d="M69.86,8.4c1-.35,2-1,3.09-.06A2.64,2.64,0,0,1,69.86,8.4Z"/><path class="cls-2" d="M41.38,25.55a4.88,4.88,0,0,1,3.24-1.84l-3,2A.23.23,0,0,1,41.38,25.55Z"/><path class="cls-2" d="M28,84.38a1.7,1.7,0,0,1-.51-2.2.44.44,0,0,1,.37-.11C28.45,82.8,27.94,83.61,28,84.38Z"/><path class="cls-2" d="M25.43,56.18s0-.11,0-.15c.29-.55-1.09-1.14-.12-1.48.7-.24,1.18.52,1.27,1.31C26.22,56.1,26,56.65,25.43,56.18Z"/><path class="cls-2" d="M56.33,92.64c-.26-.29-.61-.24-.94-.27,1.2-.49,2.5-.28,3.73-.56v.29A3.86,3.86,0,0,1,56.33,92.64Z"/><path class="cls-2" d="M34.85,32.36c.07.17.15.27.13.33-.21.7-.2,1.52-.9,2-.16.1-.39-.08-.39-.32A2.51,2.51,0,0,1,34.85,32.36Z"/><path class="cls-2" d="M61.9,112.31a.71.71,0,0,1-.67-.35c0-1.27.72-1.27,1.64-.9C63.16,112,62.6,112.18,61.9,112.31Z"/><path class="cls-2" d="M115.8,91.07l-.89.39c-.09-.22-.19-.44-.28-.67,1.07-.06,1.35-1.26,2.36-1.61C117.11,90.19,116.11,90.42,115.8,91.07Z"/><path class="cls-2" d="M36.3,57.76c.42,0,.71.11.7.49a.87.87,0,0,1-.85.9.57.57,0,0,1-.63-.68C35.57,58,36,57.85,36.3,57.76Z"/><path class="cls-2" d="M73.84,33c-1.41.43-2.49.66-3.61.06A9.17,9.17,0,0,1,73.84,33Z"/><path class="cls-2" d="M47.14,40.22c-.75.86-1.61.68-2.56.23.55-.59,1.24-.49,1.9-.51C46.8,39.81,47.13,39.64,47.14,40.22Z"/><path class="cls-2" d="M94.09,24.92a2.64,2.64,0,0,1,1.14,1.21A2.43,2.43,0,0,1,93,25.76l.75-.48C93.65,25,93.78,24.85,94.09,24.92Z"/><path class="cls-2" d="M121.84,87.51c.48-.58,1-.91,1.62-.49.25.18.44.61.18.8C123,88.3,122.5,87.38,121.84,87.51Z"/><path class="cls-2" d="M91.6,123.38c-1,1.17-2.17.78-3.23.89C89.42,124.12,90.28,123.36,91.6,123.38Z"/><path class="cls-2" d="M66.43,94.07c-.22.28-.27.4-.33.41a3.44,3.44,0,0,1-2.32-.23.42.42,0,0,1,0-.27A7.07,7.07,0,0,1,66.43,94.07Z"/><path class="cls-2" d="M74,68.41c1.25-.79,2-.1,2.83.22A3.9,3.9,0,0,1,74,68.41Z"/><path class="cls-2" d="M70.6,84.62a4.08,4.08,0,0,1-2.51.65A2.09,2.09,0,0,1,70.6,84.62Z"/><path class="cls-2" d="M101.74,106.88c.27-.73,1.32-.79,1.26-2.13C103.52,106.85,103.39,107,101.74,106.88Z"/><path class="cls-2" d="M89.88,45.61c-.35.32-.7.21-1,.2s-.74,0-.93-.33.23-.37.36-.55c.38-.57.65-.11.94.12Z"/><path class="cls-2" d="M69.86,8.4A3.53,3.53,0,0,0,73,8.34c.2.22.27.54-.07.56-1.11.07-2.23,0-3.34,0-.22,0-.44-.11-.22-.35S69.68,8.46,69.86,8.4Z"/><path class="cls-2" d="M40,21.28A3.94,3.94,0,0,1,37.87,23,3,3,0,0,1,40,21.28Z"/><path class="cls-2" d="M88,36.61a1.74,1.74,0,0,1-1.58.36c-.56-.43-.21-1.12-.63-1.65,1-.08.73,1.71,1.91,1Z"/><path class="cls-2" d="M25.08,78c-.54-.24-.61-.77-.76-1.25s-.19-1,.32-1,.47.55.48,1A1.48,1.48,0,0,1,25.08,78Z"/><path class="cls-2" d="M121.77,89.59a1.28,1.28,0,0,1,1.61-.83c.23,0,.27.28.15.47C123.1,89.92,122.48,89.5,121.77,89.59Z"/><path class="cls-2" d="M119.35,96.18c.12-.45-.48-1.3.57-1.16.27,0,.75-.19.77.19C120.75,96.07,119.81,95.82,119.35,96.18Z"/><path class="cls-2" d="M106.12,101.14a3.57,3.57,0,0,1-2.33,1.7C104.31,101.78,105,101.58,106.12,101.14Z"/><path class="cls-2" d="M86.4,19.18c-1.17.79-1.44-.75-2.27-.84.87-.3,1.51.33,2.26.5.09.07.12.14.09.22S86.43,19.18,86.4,19.18Z"/><path class="cls-2" d="M50.56,21a2.48,2.48,0,0,1-2,.71A2.06,2.06,0,0,1,50.56,21Z"/><path class="cls-2" d="M79.66,30.14c-.3,1-1.14.53-1.75.6a17.72,17.72,0,0,1-1.93,0c-.11-.06-.15-.13-.12-.2s.08-.1.11-.1c1.11-.25,2.4.55,3.36-.59Z"/><path class="cls-2" d="M46,48c0,.19,0,.37,0,.56-.72-.06-1.48.24-2.37-.32A4.82,4.82,0,0,1,46,48Z"/><path class="cls-2" d="M122.3,75.68a2.54,2.54,0,0,1-.15,2.47C122,77,121.82,76.35,122.3,75.68Z"/><path class="cls-2" d="M29.13,65.18l-.32-.37c.13-.66.25-1.33.43-2.25C30,63.66,29.42,64.41,29.13,65.18Z"/><path class="cls-2" d="M50.89,73.25a5.53,5.53,0,0,1,2.69-.1C52.59,73.71,51.9,74,50.89,73.25Z"/><path class="cls-2" d="M60.82,8.61a6.43,6.43,0,0,1-2.65.46A2.33,2.33,0,0,1,60.82,8.61Z"/><path class="cls-2" d="M78.06,89.3c-.36-.72-1.33-.35-1.87-1.12,1-.26,1.7.53,2.53.47A.83.83,0,0,1,78.06,89.3Z"/><path class="cls-2" d="M93.4,61.79c-.48.38-.75.12-1,.12s-.68.45-1.1.26a.79.79,0,0,1,.06-.39c.31-.64.87-.31,1.32-.3A2.25,2.25,0,0,1,93.4,61.79Z"/><path class="cls-2" d="M61.9,112.31c.36-.39.93-.61,1-1.25l.47.3c.35.7-.35,1-.54,1.55,0,.26,0,.52-.34.62A1.48,1.48,0,0,0,61.9,112.31Z"/><path class="cls-2" d="M118.84,86A3.67,3.67,0,0,1,120.07,84a1.86,1.86,0,0,1-.82,2A.26.26,0,0,1,118.84,86Z"/><path class="cls-2" d="M105.53,95.19a1.4,1.4,0,0,1,1.47-.65c.26,0,.52.15.48.45-.07.57-.33.2-.6.15A6.32,6.32,0,0,0,105.53,95.19Z"/><path class="cls-2" d="M62.8,112.91c-.12-.62.36-1,.54-1.55.25-.14.64-.43.59.15S63.64,112.83,62.8,112.91Z"/><path class="cls-2" d="M120.73,81.93a1.22,1.22,0,0,1,.15,1.52c-.13.19-.35.15-.49-.06C120,82.86,120.28,82.46,120.73,81.93Z"/><path class="cls-2" d="M80.48,17.07c1.27-.21,2,.32,3.14.62C82.32,18.15,81.61,17.42,80.48,17.07Z"/><path class="cls-2" d="M120.41,90.07a1.11,1.11,0,0,1-.86,1.27c-.27.08-.34-.19-.31-.37C119.36,90.41,119.8,90.24,120.41,90.07Z"/><path class="cls-2" d="M39.45,15.6a1.62,1.62,0,0,1-1.55.75C38.37,15.46,38.37,15.46,39.45,15.6Z"/><path class="cls-2" d="M30.65,86.4c.7.78,1.27-.14,1.75.43.15.19,0,.5-.3.58C31.51,87.58,31,87.44,30.65,86.4Z"/><path class="cls-2" d="M121,67.86c.1.75.32,1.46-.4,2A2,2,0,0,1,121,67.86Z"/><path class="cls-2" d="M96.33,117.47a1.17,1.17,0,0,1-1.4.61C95.41,117.37,95.41,117.37,96.33,117.47Z"/><path class="cls-2" d="M54.46,83.49c-1,.24-1.49-.27-2.17-.32C52.84,82.76,52.84,82.76,54.46,83.49Z"/><path class="cls-2" d="M35.44,81.31c.05.43-.13.59-.41.62s-.62,0-.7-.39.15-.47.42-.52A.62.62,0,0,1,35.44,81.31Z"/><path class="cls-2" d="M65.75,16.76a1.62,1.62,0,0,1,1.9-.17C67.11,17.2,66.58,17,65.75,16.76Z"/><path class="cls-2" d="M75.15,33.16a1.92,1.92,0,0,1,2.32,0Z"/><path class="cls-2" d="M99,109.92a1.93,1.93,0,0,1,0,.24,4.16,4.16,0,0,1-1.84,1A2.19,2.19,0,0,1,99,109.92Z"/><path class="cls-2" d="M48.37,80.09a8.1,8.1,0,0,1-2.89-.39c.5-.34,1-.14,1.4-.14C47.27,80,48,79.6,48.37,80.09Z"/><path class="cls-2" d="M25.32,79.53c0,.64.57,1.25.13,2.24a3,3,0,0,1-.3-2.24Z"/><path class="cls-2" d="M29.65,77.38l-.54.29a5.08,5.08,0,0,1,.27-2.1C29.8,76.26,29.58,76.84,29.65,77.38Z"/><path class="cls-2" d="M31.82,90.26c-.34-.6-1.07-1.07-.57-2.15L32,90A.33.33,0,0,1,31.82,90.26Z"/><path class="cls-2" d="M78.12,13.3l1.86.56a.28.28,0,0,1,0,.39,4.29,4.29,0,0,1-1.84-.66c-.11-.07-.15-.13-.11-.2S78.08,13.3,78.12,13.3Z"/><path class="cls-2" d="M51.17,39.51c-.8.16-1.28.3-1.81-.13C49.92,38.89,50.38,39.12,51.17,39.51Z"/><path class="cls-2" d="M63,81.94a2.07,2.07,0,0,1,1.77-.2A1.25,1.25,0,0,1,63,81.94Z"/><path class="cls-2" d="M93.8,40c-.71.49-1.17.22-1.82-.19A1.65,1.65,0,0,1,93.8,40Z"/><path class="cls-2" d="M61.69,26.22h2.36A2.64,2.64,0,0,1,61.69,26.22Z"/><path class="cls-2" d="M82.73,21c-.64.47-1.12.38-1.48-.39.48-.24.82.13,1.19.11Z"/><path class="cls-2" d="M75.92,25.58c.61-.16,1.3.17,1.86-.29.19,0,.43,0,.5.21s-.13.34-.34.33A3.89,3.89,0,0,1,75.92,25.58Z"/><path class="cls-2" d="M48.07,128.56a2.79,2.79,0,0,1-1.35.49c-.07-.62.33-.7.71-.81S48.09,128,48.07,128.56Z"/><path class="cls-2" d="M48.69,34.15v.3c-.32.54-.73.85-1.39.46A1.61,1.61,0,0,1,48.69,34.15Z"/><path class="cls-2" d="M33.05,74.61h-.26c0-.46-.19-1,.29-1.45C33.55,73.71,33.27,74.16,33.05,74.61Z"/><path class="cls-2" d="M83.15,127.24c.38-.77.89-.53,1.72-.56C84.22,127.26,83.81,127.43,83.15,127.24Z"/><path class="cls-2" d="M75.36,75.18c-.47,0-1,.27-1.43-.26.49-.52,1-.19,1.43,0,.11.06.15.13.11.19S75.4,75.18,75.36,75.18Z"/><path class="cls-2" d="M88.54,17a4,4,0,0,1,1.8,1,2.88,2.88,0,0,1-1.82-.7c-.1-.08-.13-.15-.09-.23S88.5,17,88.54,17Z"/><path class="cls-2" d="M30.33,85.32l.33-.35.73.64c-.15.1-.28.27-.45.3C30.5,86,30.34,85.72,30.33,85.32Z"/><path class="cls-2" d="M25.32,79.53h-.17c0-.51,0-1-.07-1.54s0-.86,0-1.3C25.59,77.61,25.29,78.58,25.32,79.53Z"/><path class="cls-2" d="M47.14,40.22l-.66-.28a3.63,3.63,0,0,1,2.24-.14Z"/><path class="cls-2" d="M55.1,36.25c-.63,0-1.21.45-1.92.22.44-.57,1.06-.46,1.62-.53C55.12,35.83,55.18,36,55.1,36.25Z"/><path class="cls-2" d="M58.92,26a1.26,1.26,0,0,1,1.54-.36C60,26.15,59.53,26.34,58.92,26Z"/><path class="cls-2" d="M65.22,45.29a4.9,4.9,0,0,1-2.53.12A4.39,4.39,0,0,1,65.22,45.29Z"/><path class="cls-2" d="M69.78,46.74l1,.62c-.44.3-1,.45-1.35.08S69.69,47,69.78,46.74Z"/><path class="cls-2" d="M55.1,36.25l-.3-.31a1.79,1.79,0,0,1,1.61-.19C56.09,36.29,55.6,36.27,55.1,36.25Z"/><path class="cls-2" d="M43,64.66a3.5,3.5,0,0,1,1.94-.1A1.69,1.69,0,0,1,43,64.66Z"/><path class="cls-2" d="M75.36,75.18v-.29l1.19-.64a.86.86,0,0,0,.68.37Z"/><path class="cls-2" d="M46.19,38.67a1.45,1.45,0,0,1,1.42-.18c.6.28.27.47-.17.53C47.08,38.69,46.51,39.12,46.19,38.67Z"/><path class="cls-2" d="M46.31,39.07a11.57,11.57,0,0,1-1.13.27c-.21,0-.57.09-.47-.3s.38-.26.63-.26C45.62,39,46.06,38.72,46.31,39.07Z"/><path class="cls-2" d="M46.26,31.39c.23.37.79.43.9.92l-.34.25-.31-.3C46.59,31.93,45.1,32,46.26,31.39Z"/><path class="cls-2" d="M91.37,37.87H93A1.54,1.54,0,0,1,91.37,37.87Z"/><path class="cls-2" d="M26,21.55l.35.34-1.47,1A2.2,2.2,0,0,1,26,21.55Z"/><path class="cls-2" d="M64.37,107.44c.63-.55,1.37-.27,2.07-.27,0,0,.07.07.07.11s0,.09-.05.13A3.47,3.47,0,0,1,64.37,107.44Z"/><path class="cls-2" d="M78.12,13.3a1.4,1.4,0,0,1,0,.29c-.46-.08-1,.13-1.45-.31C77.2,12.68,77.67,13.32,78.12,13.3Z"/><path class="cls-2" d="M79.37,34.76a1.13,1.13,0,0,0,0,.26c-.48,0-1,.21-1.42-.3C78.47,34.21,78.91,34.8,79.37,34.76Z"/><path class="cls-2" d="M25.09,57.12a.63.63,0,0,1,.27-.64.83.83,0,0,1,.94,0c-.1.86-.77.5-1.23.59Z"/><path class="cls-2" d="M86.4,19.18v-.34l1.3.55C87,19.76,86.72,19.42,86.4,19.18Z"/><path class="cls-2" d="M55.15,40.63a3.81,3.81,0,0,1,.57-.19c.25-.07.63-.37.72,0s-.36.39-.66.42S55.16,41.18,55.15,40.63Z"/><path class="cls-2" d="M48.07,128.56l-.64-.32a1.7,1.7,0,0,1,1.73-.13Z"/><path class="cls-2" d="M94.11,22.15a1.56,1.56,0,0,1,1.29.49,1,1,0,0,1-1.35-.42Z"/><path class="cls-2" d="M88.5,39.36a.78.78,0,0,0,.69-.37l1,.51A2,2,0,0,1,88.5,39.36Z"/><path class="cls-2" d="M46.31,39.07c-.34,0-.71,0-1-.29l.85-.11c.41.12.92-.09,1.25.35Z"/><path class="cls-2" d="M55.15,40.63l.63.26c-.48.41-1.05.27-1.67.31C54.37,40.7,54.83,40.8,55.15,40.63Z"/><path class="cls-2" d="M80,14.25l0-.39c.39,0,.81,0,1,.47C80.62,14.66,80.28,14.5,80,14.25Z"/><path class="cls-2" d="M52.08,32.32c-.06.32,0,.7-.37.87-.06-.28-.57-.32-.4-.67S51.8,32.31,52.08,32.32Z"/><path class="cls-2" d="M76,36.62l.59.54H75.05A1.38,1.38,0,0,1,76,36.62Z"/><path class="cls-2" d="M38.26,61.14c.43,0,.81-.37,1.36-.18-.35.6-.89.42-1.36.42Z"/><path class="cls-2" d="M64.37,107.44l2.09,0A1.58,1.58,0,0,1,64.37,107.44Z"/><path class="cls-2" d="M94.09,24.92l-.35.36-1-.61.71-.32Z"/><path class="cls-2" d="M53.6,87.79a2.26,2.26,0,0,0,0,.26A2.92,2.92,0,0,1,51.9,88C52.5,87.57,53.07,87.9,53.6,87.79Z"/><path class="cls-2" d="M55.47,25l.59.55c-.41,0-.93.24-1.18-.12S55.21,25,55.47,25Z"/><path class="cls-2" d="M73.21,21c.41-.31.82-.08,1.22,0,.13.81-.71.22-.88.6A.65.65,0,0,1,73.21,21Z"/><path class="cls-2" d="M118.84,86l.41,0c-.21.41-.43.81-.64,1.21l-.3-.3Z"/><path class="cls-2" d="M51.74,19.08l-.35-.32a1.94,1.94,0,0,1,1.26-.31c.31-.1.38,0,.3.32Z"/><path class="cls-2" d="M77.19,46.69a.68.68,0,0,1,.91-.11c.07.05.05.22.08.33l-.7.05Z"/><path class="cls-2" d="M88.54,17l0,.33a2.61,2.61,0,0,1-1.35-.56C87.71,16.43,88.09,17,88.54,17Z"/><path class="cls-2" d="M51.68,36.8c.24-.32.48-.48.88-.29C52.38,37,52.05,36.9,51.68,36.8Z"/><path class="cls-2" d="M41.38,25.55l.26.2c-.29.23-.59.45-1,.75C40.67,25.85,41,25.72,41.38,25.55Z"/><path class="cls-2" d="M53.58,46.38a1,1,0,0,1,0-.24.66.66,0,0,1,.94-.25C54.37,46.37,54,46.39,53.58,46.38Z"/><path class="cls-2" d="M70.48,42.79c.41,0,.8-.36,1.33,0-.44.4-.91.26-1.35.24q-.15-.09-.09-.15S70.44,42.79,70.48,42.79Z"/><path class="cls-2" d="M31.82,90.26,32,90c.13.24.47.55.11.74S31.85,90.47,31.82,90.26Z"/><path class="cls-2" d="M73.22,78.28l-.78-.45c.43-.36.77-.2,1.1.09Z"/><path class="cls-2" d="M74.43,111.06l.3-.56c.25.09.7.18.6.45S74.75,111.06,74.43,111.06Z"/><path class="cls-2" d="M89.76,36l1.18-.36C90.61,36,90.34,36.5,89.76,36Z"/><path class="cls-2" d="M58.27,35.49a1,1,0,0,1-.94.09C57.55,35.21,57.84,35.37,58.27,35.49Z"/><path class="cls-2" d="M53,18.77l-.3-.32c.29-.23.73-.45.92-.13S53.23,18.69,53,18.77Z"/><path class="cls-2" d="M27.61,31.29c-.14-.54,0-.92.27-.93s.16.34.07.52A2.39,2.39,0,0,1,27.61,31.29Z"/><path class="cls-2" d="M72.61,91.47c.09-.19.18-.39.28-.59.25.1.56.12.65.46Z"/><path class="cls-2" d="M80,21.26l.6.59c-.12.16-.31.46-.35.44C79.71,22.07,80.14,21.58,80,21.26Z"/><path class="cls-2" d="M25.68,57.66a.59.59,0,0,1-.58.39c-.15-.31-.4-.61,0-.93h0C25.12,57.46,25.39,57.58,25.68,57.66Z"/><path class="cls-2" d="M42.48,48.14l.45.5c-.11.07-.21.18-.32.19a1.09,1.09,0,0,1-.41-.11Z"/><path class="cls-2" d="M73.55,21.55l.88-.6a.68.68,0,0,1,.32.62Z"/><path class="cls-2" d="M79,16.49c.27-.19.68-.2.71.06.05.42-.31.08-.49.1S79.11,16.55,79,16.49Z"/><path class="cls-2" d="M70.73,30.74l-1.44.07-.09-.31,1-.07C70.49,30.26,70.77,30.2,70.73,30.74Z"/><path class="cls-2" d="M84,117.84h.55a.43.43,0,0,1-.59.44C83.66,118.19,83.82,118,84,117.84Z"/><path class="cls-2" d="M70.48,42.79c0,.08,0,.15,0,.22a1,1,0,0,1-.86.35L69.23,43Z"/><path class="cls-2" d="M64.31,44.26l1.62,0A1.23,1.23,0,0,1,64.31,44.26Z"/><path class="cls-2" d="M114.31,91.78a1.68,1.68,0,0,1-.46,1c-.39-.4.07-.69.12-1Z"/><path class="cls-2" d="M26.3,56.52l-.94,0c0-.1.05-.2.07-.3l1.13-.32C26.47,56.08,26.38,56.3,26.3,56.52Z"/><path class="cls-2" d="M70.73,30.74l-.58-.31a6.73,6.73,0,0,1,3.72-.18c.7.08,1.4.19,2.1.2,0,.1,0,.2,0,.3Z"/><path class="cls-2" d="M58.88,112.84c.23,0,.4.12.37.35s-.09.54-.38.6-.36-.14-.37-.36A.54.54,0,0,1,58.88,112.84Z"/></g></g></svg>