<svg xmlns="http://www.w3.org/2000/svg" viewBox="0 0 101.3 90.37"><defs><style>.cls-1{fill:#91c97b;}.cls-2{fill:#fff;}</style></defs><g id="图层_2" data-name="图层 2"><g id="图层_1-2" data-name="图层 1"><path class="cls-1" d="M97.67,31.18c.47,3.32,2.3,6.14,3.33,9.24a9.15,9.15,0,0,0,.11,5.87,2.65,2.65,0,0,1,.15,1.35c-1.3,5.2-1.53,10.78-4.15,15.49a30.25,30.25,0,0,1-7.26,8.36c-2.56,2.14-5.26,4.13-7.67,6.52-2.23,2.22-5.52,3.32-8.1,5.25-3,2.22-6.84,2.72-9.53,5.39a3.89,3.89,0,0,1-2.61.65c-4.17.14-8,1.89-12.61.61-3.51-1-6.88-2.45-10.35-3.2A38.93,38.93,0,0,1,29,83a5.4,5.4,0,0,1-3.18-3.47c-.2-.82-.76-1.16-1.61-1.58-5.26-2.58-10.63-5-14.76-9.43C6.29,65.12,4.65,61.16,3.3,56.91,2.75,55.17,3,53,1.08,51.73.66,51.44.71,50,1,49.27a4.26,4.26,0,0,0-.4-4,3.63,3.63,0,0,1-.1-3.89,4,4,0,0,0,.16-2.94,5,5,0,0,1,.66-4c1.72-3.4,2.76-7.16,5-10.29A19.52,19.52,0,0,0,9.11,18c.08-.26.33-.62.54-.66,5-.86,7.18-5.73,11.19-8A12,12,0,0,1,24,7.7c2.68-.48,4.24-2.13,5.68-4.12a2.37,2.37,0,0,1,1.57-.88c1.29-.28,2.69-.24,3.55-1.56A1,1,0,0,1,35.62,1c3.2,1.22,6.55-.4,9.74.53,2.32.68,4.58,0,6.86-.07.06,0,.18-.09.17-.12A2.08,2.08,0,0,0,52.27,1c-.08-.9.47-.64.95-.52,4.29.35,8.62-.31,12.89.77,6.22,1.58,11.19,5.22,16.15,9a63.76,63.76,0,0,1,8.6,8.3A28.58,28.58,0,0,1,97,29.78C97.47,30.1,97.27,30.8,97.67,31.18Z"/><path class="cls-2" d="M53.22.45c-.32.17-.79.07-.95.52-.5,0-1.2-.35-1-.58C51.8-.31,52.57.08,53.22.45Z"/><path class="cls-2" d="M97.67,31.18c-1.21,0-.12-1.12-.72-1.4a.3.3,0,0,1,.3,0A1.61,1.61,0,0,1,97.67,31.18Z"/><path class="cls-2" d="M61.54,7.6C56.36,8,51.24,6.49,46,7.23,51.27,4.38,56.39,6.56,61.54,7.6Z"/><path class="cls-2" d="M33.28,68.22a19.48,19.48,0,0,0,4,.43c2.87-.39,3.6,1.89,4.85,3.58.43.57.09,1-.37.86C38.91,71.94,35.82,71.19,33.28,68.22Z"/><path class="cls-2" d="M55.87,46.4c1.74-1.56,3.69-2.86,5.42-4.41.23-.21.46,0,1.48,1C60.55,44.2,58.49,45.74,55.87,46.4Z"/><path class="cls-2" d="M77.25,70.93l2.38-2.67c.79,0,.77.41.46.95-.57,1.19-1.77,1.64-2.78,2.31A.35.35,0,0,1,77.25,70.93Z"/><path class="cls-2" d="M65.31,40.57a3.58,3.58,0,0,1-2.57.74c.64-.52,1-1.4,2-1.39C65.28,39.8,65.44,40.05,65.31,40.57Z"/><path class="cls-2" d="M77.25,70.93l.06.59c-.34,1-1.1,1.54-2.48,2.07A7.3,7.3,0,0,1,77.25,70.93Z"/><path class="cls-2" d="M72.83,16.38c-1.23-.22-1.72-.67-1.93-1.61C72,14.58,72.34,15.29,72.83,16.38Z"/><path class="cls-2" d="M63.36,80.63c.94-.58,1.61-1.29,2.88-1.13C65.36,80.26,64.73,81.06,63.36,80.63Z"/><path class="cls-2" d="M80.09,69.21l-.46-.95A2.27,2.27,0,0,1,80.84,67C81.36,68,80.55,68.55,80.09,69.21Z"/><path class="cls-2" d="M28.35,39l.92.8a4,4,0,0,1-.87.59c-.19.08-.66.14-.52-.37A7.87,7.87,0,0,1,28.35,39Z"/><path class="cls-2" d="M65.31,40.57l-.6-.65c.39-.4,1-.9,1.36-.45S65.61,40.21,65.31,40.57Z"/></g></g></svg>