<svg xmlns="http://www.w3.org/2000/svg" viewBox="0 0 91.84 81.97"><defs><style>.cls-1{fill:#dd5778;}.cls-2{fill:#e5e2e3;}.cls-3{fill:#e5e4e4;}.cls-4{fill:#e5e1e2;}.cls-5{fill:#e5dbde;}.cls-6{fill:#e5d6d9;}.cls-7{fill:#e4cdd2;}.cls-8{fill:#e3c3ca;}.cls-9{fill:#e2b4bf;}.cls-10{fill:#e3b7c1;}.cls-11{fill:#e09aac;}.cls-12{fill:#e1b5c1;}.cls-13{fill:#e1a2b2;}.cls-14{fill:#e3bcc5;}.cls-15{fill:#e5e5e5;}.cls-16{fill:#df8a9f;}</style></defs><g id="图层_2" data-name="图层 2"><g id="图层_1-2" data-name="图层 1"><path class="cls-1" d="M47.68.93c0-.52-.6-.41-.67-.66C57-.83,66,1.39,73.74,8.13a74.33,74.33,0,0,1,9.18,8.8,23.29,23.29,0,0,1,5.25,10.58,13.83,13.83,0,0,0,1.5,4.09c1.16,2.18,2.45,4.34,1.59,7a.76.76,0,0,0,0,.47c1.49,3.55-.32,6.89-.68,10.32-.28,2.74-1.66,5.19-2.38,7.82-.22.81-1,1-1.43,1.6a40.78,40.78,0,0,1-5.94,6.25C78.9,66.77,76.31,67.81,75,70.2a2.17,2.17,0,0,1-1.25.92,2.42,2.42,0,0,0-1,.45c-2.31,2.47-5.85,3-8.24,5.35a4.11,4.11,0,0,1-1.86.84,11.42,11.42,0,0,0-3.56,1.89A8,8,0,0,1,54.25,81a7.19,7.19,0,0,0-2.88.51,7.4,7.4,0,0,1-5.67-.26,3.59,3.59,0,0,0-2.25-.55,6.7,6.7,0,0,1-5-1.1,10.49,10.49,0,0,0-6.07-1.89,5.21,5.21,0,0,1-2.78-1,21,21,0,0,0-4.18-2.18,2.73,2.73,0,0,1-1.65-1.82c-.16-2.33-2.1-2.49-3.53-3.16C14.69,66.9,9.46,63.82,6,58.42A8.58,8.58,0,0,1,4.56,55.3C4.37,54,3.33,53.1,3.23,51.71a13.31,13.31,0,0,0-1.17-4.07c-.42-1-1.67-1.9-1.09-3a4,4,0,0,0,0-3.31c-.08-.25-.1-.58-.27-.73C-.55,39.51.18,38.33.6,37.29a4.1,4.1,0,0,0,.18-3.07c-.61-1.31.13-2.12.5-3.09.6-1.59,1.47-3,1.94-4.73a20.67,20.67,0,0,1,2.26-4.1C6,21.4,7.29,20.19,7.21,20c-.5-1.6,1.38-2.3,1.14-3.66A.71.71,0,0,1,9,15.4c2.56-.22,4.11-2.19,5.77-3.7,2-1.81,3.93-3.8,6.39-4.76A14,14,0,0,0,25.9,4.33c.42-.38.92-.62,1.08-1.24a1.18,1.18,0,0,1,.88-.82C29.3,1.82,31,2,32,.49c.06-.09.38-.14.43-.08C34,2,35.78.6,37.43.76c1.35.13,2.86.09,4.17.33C43.7,1.47,45.65.93,47.68.93Z"/><path class="cls-2" d="M56,6.68c-4.63.1-9.2-.92-13.91-.19C43,4.7,44.8,4.12,47.17,4.92a8.86,8.86,0,0,0,3.41.41A9.61,9.61,0,0,1,56,6.68Z"/><path class="cls-3" d="M32.82,61.91c1.1.11,2.19.22,3.28.31a.84.84,0,0,1,.77.47,7.37,7.37,0,0,0,1.92,3c-1.18.72-1.86-.11-2.56-.39a21.92,21.92,0,0,1-4.74-2.44c-.35-.26-.8-.63-.54-1.15.06-.14.57-.06.87-.08C32.14,61.82,32.55,61.59,32.82,61.91Z"/><path class="cls-4" d="M60.4,35.17c-.64.9-1.16,1.86-2.44,2-.47.05-1.77.19-.93,1.41a1,1,0,0,1-.3.29c-2,1.18-4,2.37-6,3.52a1.5,1.5,0,0,1-1.07,0C53.22,39.93,56.3,36.79,60.4,35.17Z"/><path class="cls-4" d="M73.58,61.32C72.21,63.56,70,64.93,68,66.44c1.62-2.25,3.87-3.95,5.31-6.32C74.12,60.34,73.68,60.87,73.58,61.32Z"/><path class="cls-5" d="M61.38,70.91a11.42,11.42,0,0,1-5,2.84A15,15,0,0,1,61.38,70.91Z"/><path class="cls-6" d="M66.49,14.73A3.6,3.6,0,0,1,63.73,12,7.44,7.44,0,0,1,66.49,14.73Z"/><path class="cls-7" d="M25.3,36.48c0-.62,0-1.14.67-1.24.22,0,.71.32.69.41C26.52,36.33,25.91,36.34,25.3,36.48Z"/><path class="cls-8" d="M28.75,33.18c-.09.53-.32,1.17-.88,1.07s-.14-.67-.06-1A.75.75,0,0,1,28.75,33.18Z"/><path class="cls-9" d="M12,47.36c.77.28.51.91.83,1.37l-.39.14Z"/><path class="cls-10" d="M6.86,56.45c-.67-.27-.74-.75-.8-1.56A1.7,1.7,0,0,1,6.86,56.45Z"/><path class="cls-11" d="M73.58,61.32c-.1-.4.15-.89-.29-1.2.16-.23.31-.9.57-.1A1.26,1.26,0,0,1,73.58,61.32Z"/><path class="cls-9" d="M28.75,33.18l-.94,0c.39-.17.38-.84.94-.75A4.06,4.06,0,0,1,28.75,33.18Z"/><path class="cls-12" d="M4.7,50.25c-.52-.08-.71-.38-.56-1a1.17,1.17,0,0,1,.54,1Z"/><path class="cls-13" d="M4.68,50.26a.66.66,0,0,1,.21,1,.29.29,0,0,1-.26,0c-.44-.35,0-.65.07-1Z"/><path class="cls-14" d="M7.94,58.19a.53.53,0,0,1,.39.54c0,.07-.26.21-.28.2a1.9,1.9,0,0,1-.33-.47C7.62,58.27,7.77,58.22,7.94,58.19Z"/><path class="cls-15" d="M7.54,57.78A.63.63,0,0,1,7,57,.63.63,0,0,1,7.54,57.78Z"/><path class="cls-16" d="M32.82,61.91a1,1,0,0,1-1-.23C32.23,61.45,32.66,61.12,32.82,61.91Z"/></g></g></svg>