<svg xmlns="http://www.w3.org/2000/svg" viewBox="0 0 53.77 63.12"><defs><style>.cls-1{fill:#8f8b8b;}.cls-2{fill:#fff;}</style></defs><g id="图层_2" data-name="图层 2"><g id="图层_1-2" data-name="图层 1"><path class="cls-1" d="M22,60.23c-1.78-.23-3.16-1.75-5.06-1.58-.73-1.15-1.54-2.2-3-2.35-2.93-1.24-3.11-4.66-5.2-6.58-1-.63-2-1.93-2.93.07-2.28-1.13-2.93-3.15-3.59-5.51-2.47-8.92-3.93-17.5,2-25.92,2.5-3.57,4.2-7.64,7.41-10.84C16.6,2.46,23,.79,29.67,0c3.22-.36,6,2,8.82,3.41,1.13.59,3.62-.21,3.42,1.85s-1.7,3.52-4.32,3.75c4.59,1.54,7.73,4.52,10.68,7.94a13.57,13.57,0,0,1,2.28,3.64c5.46,12.92,4,25.13-4.74,36-2.47,3.07-6.5,4.84-10.28,6.46L35.06,63c-1.44-1.25-3.19-.85-4.85-.93A4.26,4.26,0,0,1,27,60.83a5.22,5.22,0,0,0-3.16-.5C23.21,60.21,22.58,60.61,22,60.23Z"/><path class="cls-2" d="M37.74,35.51c2.35,1.47.93,4.5,2.83,6-.94,1.12-1.91-.14-2.82.67-4.5,4-13.62,3.55-17.89-.74-.73-.72-1.51-1.4-.37-2.4s0-1.45-.44-2.09L19,37c.84.44,1.56-1,2.43-.15a7.77,7.77,0,0,1,1.45,1.63A19.16,19.16,0,0,0,36,35.77a1.92,1.92,0,0,1,1.75-.22Z"/><path class="cls-2" d="M22.86,38.52c-1.27.16-1.12-1-1.45-1.63,3.74-3.64,3.74-3.64,7-.37C26.55,37.4,23.78,35.65,22.86,38.52Z"/><path class="cls-2" d="M16.72,31.08C17.26,33.15,20,34.4,19,37l.07,0c-3.23-.87-4.11-3-3.13-6C16.25,30.57,16.52,30.61,16.72,31.08Z"/><path class="cls-2" d="M16.72,31.08l-.8-.12c-.18-3.42.24-3.89,4.46-4.81C20.09,28.57,17,28.8,16.72,31.08Z"/><path class="cls-2" d="M37.77,35.55c.18-.69.37-1.4,1.25-1.39.18,0,.55.57.49.75-.31.88-1.09.66-1.77.6Z"/></g></g></svg>