<svg xmlns="http://www.w3.org/2000/svg" viewBox="0 0 77.75 76.92"><defs><style>.cls-1{fill:#83cee9;}.cls-2{fill:#fff;}</style></defs><g id="图层_2" data-name="图层 2"><g id="图层_1-2" data-name="图层 1"><path class="cls-1" d="M4.28,54.58c-1.08-3.15-2.88-6-3.41-9.39-.34-.45-.23-1-.4-1.52C.36,39.19-.46,34.75.36,30.24c.56-3.09,2.09-5.94,2.18-9.13,0-.19.22-.55.34-.55C6.53,20.4,7.29,16.88,9,14.81c2.58-3.06,5-6.29,8.53-8.17C21.64,4.43,25.33,1.09,30.1.55,37.88-.33,45.68-.69,52.75,3.77a9.24,9.24,0,0,0,1.75.69c1-.13,1.31.55,1.69,1.21,2.8,2,5.91,3.45,8.53,5.7a7.65,7.65,0,0,0,2,1.29c2.81,1.17,4.15,3.64,5.1,6.21.49,1.34.79,2.68,1.87,3.65,1.36,1.22.87,3.29,2.14,4.55a43.65,43.65,0,0,0,1.07,6.71c1.5,4.68.74,9.32.24,14a20.49,20.49,0,0,1-1.78,7.46,63.61,63.61,0,0,0-5.21,7.11c-2.42,4-6.81,4.58-9.83,7.31-.65.58-1.52-.1-2.42.34-1.34.66-2.9.79-2.94,2.76-1.83-.79-2.29,2.5-4.25,1.44a1,1,0,0,0-.86.27c-2.86,2.81-6.5,2.66-10,2.24-2.19-.26-4.44-1.06-6.46-.17-2.28,1-3.76-.08-5.33-1.19a6,6,0,0,0-2.54-1.12c-5.2-.69-8.93-4-12.91-6.94a5.85,5.85,0,0,1-2.09-2.22C8.89,61.29,6,58.29,4.28,54.58Z"/><path class="cls-2" d="M56.19,5.67A2.54,2.54,0,0,1,54.5,4.46,1.07,1.07,0,0,1,56.22,4C56.81,4.47,56.55,5.12,56.19,5.67Z"/><path class="cls-2" d="M.47,43.67a1.72,1.72,0,0,1,.4,1.52c-1.24,0-.21-1.18-.78-1.53A.46.46,0,0,1,.47,43.67Z"/><path class="cls-2" d="M46.84,32.33c-8.41,1.62-17,2.17-25.3,4.46-.54.15-1.15.44-1.49-.16s.38-.85.72-1.25c3-3.56,7.15-4.15,11.42-4.47a.44.44,0,0,1,.2.49c0,.09-.12.22-.08.32s.14,0,.16-.2a2,2,0,0,1,1.25-1c2.7.13,5.11-1.47,7.83-1.27s5.39-.08,8.46.63C47.58,31,47.58,31,48.39,31.72,48.3,33,47.49,32.48,46.84,32.33Z"/><path class="cls-2" d="M25.2,45.56c-.06-.31-.82-.5.08-1,3-1.5,6.37-1.68,9.58-2.35,1-.2,2-.29,3-.44a4.71,4.71,0,0,0,1,.59,2.08,2.08,0,0,1,1,.79,1,1,0,0,1-.1,1.27,3.07,3.07,0,0,1-2.75.25c-3.34-.06-6.56,1.1-9.91.87C26.43,46.46,25.81,46.24,25.2,45.56Z"/><path class="cls-2" d="M27.47,64.06a8.08,8.08,0,0,1,6.26-.56c.72.17,1.26.94,2.32-.11-.41,1.5-.74,2.55-1.91,3-.68.6-1.4.32-2.11.07-2,.06-3.33-1.07-4.51-2.49Z"/><path class="cls-2" d="M8,25.61c.51-1.56-1-3.32.22-4.68,1.94-2.14,3-5,5.85-6.42C12.06,18.2,10,21.82,8,25.61Z"/><path class="cls-2" d="M66.38,53.71c.36.2,1.33-.28,1.05.54a21.11,21.11,0,0,0-.65,3.39c-.24,1.48-1.64,1.23-2.41.91-1.27-.54-2,.05-2.79.72-.18.62-.42,1.18-1.16,1.3-.73-.13-1.2-.42-.69-1.24,1.2-1.39,2.85-2.2,4.26-3.33a1.46,1.46,0,0,1,.33-.89C65,54.7,65.37,53.7,66.38,53.71Z"/><path class="cls-2" d="M36.48,15.79l1.45-.55c.39-.79,1.33-.5,1.88-1,.78-.13,1.57-.55,2.34,0,.19.15.48.17.57.45.11,1.22,1.08.84,1.73.85,1.23,0,1,.75.91,1.52a.74.74,0,0,1-.59.13A4.08,4.08,0,0,0,43,16.88h-3c-.82-.09-1.61.28-2.43.17C36.88,16.87,36.4,16.55,36.48,15.79Z"/><path class="cls-2" d="M47.35,18.92l-.9.93a1,1,0,0,1-.33.54,4,4,0,0,1-1.52.43,1.65,1.65,0,0,1-.58-.14,2.21,2.21,0,0,1-.47-.33c-.37-.37-.86-.24-1.31-.27a2.56,2.56,0,0,1-1.94-1c-.16-.58-1.56-.28-1-1.38a11.48,11.48,0,0,1,6.18.06A8.63,8.63,0,0,1,47.35,18.92Z"/><path class="cls-2" d="M32,66.51l2.11-.07c0,1.58,2.43.46,2.14,2.29A2.53,2.53,0,0,1,34,69c-.72-.28-2.52-.08-1.36-1.87C32.69,67.09,32.25,66.73,32,66.51Z"/><path class="cls-2" d="M44,19.89l.11.76c.83.44,1.69-.17,2.53.05a1.51,1.51,0,0,1,1.43.91,1.11,1.11,0,0,1-.1.74.4.4,0,0,1-.64,0l.06,0c-1.26-.28-2.54-.09-3.8-.25a8.31,8.31,0,0,1-2.33.22A9.44,9.44,0,0,1,39,21.9l-.62-.46c.55-.91,2-.33,2.42-1.38.53-.29,1.09-.07,1.63-.1S43.48,19.6,44,19.89Z"/><path class="cls-2" d="M45,25.63l1.51,1.07c0,1-1,.37-1.39.76a4.26,4.26,0,0,1-2.47-.87c-.8-.65-1.62.53-2.42,0,.17-1.14,1.57-.94,2-1.82C43,25.47,44.22,24.85,45,25.63Z"/><path class="cls-2" d="M40.7,52.75c-.55-.93-1.45-.21-2.15-.46-.57.23-.84-.12-1.07-.55.28-1.07,1.26-1,1.88-.82,1,.31,1.58-.33,2.35-.5.17.09.23.18.18.28s-.11.15-.16.15c-.19.72.31,1.85-1.09,1.86Z"/><path class="cls-2" d="M46,18.09c-2.2-.34-4.48.42-6.66-.4l.05-.13a.45.45,0,0,1,.07-.65,1.54,1.54,0,0,1,.71-.24c1,0,2,0,3.06,0a2.47,2.47,0,0,1,1.82.46,1.37,1.37,0,0,0,.35,0l.57.58c.16.07.21.15.17.24S46,18.09,46,18.09Z"/><path class="cls-2" d="M11.86,35.14a11.72,11.72,0,0,1,.67,6.41,9.92,9.92,0,0,1-1.09-6.41Q11.65,34.67,11.86,35.14Z"/><path class="cls-2" d="M46.43,11.52a17.33,17.33,0,0,1,4.28,1.87.54.54,0,0,1,0,.85,13.44,13.44,0,0,1-4.86-1.78A1.32,1.32,0,0,1,46.43,11.52Z"/><path class="cls-2" d="M26.64,19.06c-.37.27-.75.53-1.1.81-.64.5-1,1.51-2.12,1-.23-.11-.53-.54-.47-.67a3,3,0,0,1,2.15-1.61,5.74,5.74,0,0,1,.93,0C26.48,18.43,26.7,18.59,26.64,19.06Z"/><path class="cls-2" d="M46,43.57c.09.21,1,.29.35.48-1.66.45-3.29,1.27-5.1.94a1,1,0,0,1-.05-1.19C42.69,42.14,44.36,43.54,46,43.57Z"/><path class="cls-2" d="M46.43,11.52l-.58.94a14,14,0,0,1-5.56-.62v-.32C42.34,11,44.38,12.17,46.43,11.52Z"/><path class="cls-2" d="M39.85,41.34c1.17-.09,2.34-.21,3.51-.28s2,.17,1.13,1.6c-.92.59-1.92.2-2.89.25a2.83,2.83,0,0,1-.65-.17C40.47,42.37,39.58,42.31,39.85,41.34Z"/><path class="cls-2" d="M47.86,21.88c-.25-.78-.91-.52-1.44-.59-.28-.24-.61-.44-.69-.84a.67.67,0,0,1,.21-.49l.51-.11L49.3,20a1.24,1.24,0,0,1,.33,1A1.22,1.22,0,0,1,47.86,21.88Z"/><path class="cls-2" d="M12.41,28a8.13,8.13,0,0,1,1-4.61c.24-.12.45-.08.53.17s-.07.4-.33.42c-.38,1.31.12,2.82-.87,4Z"/><path class="cls-2" d="M38.39,61.21l.52-.44c.55.44,1.07,1,1.85.43.94.11,1.28.71,1.33,1.57-.75-.22-1.41.22-2.12.31a6.26,6.26,0,0,1-1.55-.37l-.53-.56C37.63,61.61,38.12,61.47,38.39,61.21Z"/><path class="cls-2" d="M59.73,59.33c-.13.73.2,1,.9.85a.72.72,0,0,1,.63.65l-.7,1a5.33,5.33,0,0,1-1.63.25,2.06,2.06,0,0,1-.56-.36C58,60.43,59.3,60.14,59.73,59.33Z"/><path class="cls-2" d="M40.67,20.44c-.1,1.86-1.58.56-2.3,1-.33-.4-1.15-.84-.7-1.28s1.46-.24,2.12.27A.59.59,0,0,1,40.67,20.44Z"/><path class="cls-2" d="M26.64,19.06,26,18.52c0-.28,0-.56,0-.83-.4-1,.68-.62.93-1,.71-.06,1.67.16,1.65.73C28.58,18.4,27.45,18.66,26.64,19.06Z"/><path class="cls-2" d="M64.48,55.47,64,56c-.52-2.25.17-3.29,1.88-2.84A2.65,2.65,0,0,1,64.48,55.47Z"/><path class="cls-2" d="M37.48,51.74l1.07.55c-1.36.54-2.7,1.72-4.21.28C35.14,51.07,36.69,53,37.48,51.74Z"/><path class="cls-2" d="M37.74,48.51c1.22,0,2.5-.43,3.56.62-.41,1.07-1.47.2-2,.72C38.34,49.88,37.93,49.32,37.74,48.51Z"/><path class="cls-2" d="M33.41,16.13c-.22,1.16-1,.87-1.53,1.14s-1,.49-1.44,0a2.59,2.59,0,0,1-.25-.88c.51-.08,1-.19,1.53-.23S32.77,16.13,33.41,16.13Z"/><path class="cls-2" d="M46,43.57c-1.58.22-3.22-.1-4.74.6a.48.48,0,0,1-.64,0,1.57,1.57,0,0,1-.35-1.35,1.38,1.38,0,0,1,.37-.61.42.42,0,0,1,.63,0h0c.93.68,2.19.21,3.12.89Z"/><path class="cls-2" d="M33.3,55.83c-.54.17-1.12.41-1.73.55-.4.09-.89-.1-.77-.57a1.45,1.45,0,0,1,1.55-1.11C32.92,54.69,33.14,55.08,33.3,55.83Z"/><path class="cls-2" d="M12.41,28a1.43,1.43,0,0,1,.29,0c.35,1.33-.38,2.53-.48,3.81a.37.37,0,0,1-.54,0C11.65,30.48,11.15,29.09,12.41,28Z"/><path class="cls-2" d="M37,39.5,41.14,39c.49.6.34.9-.43.91-1.25.31-2.5.66-3.7-.16Z"/><path class="cls-2" d="M70.16,58.85c-.39-2.22,1-2.37,2.12-2.8C72.1,57.21,71.23,57.84,70.16,58.85Z"/><path class="cls-2" d="M26.93,57.35c-.35.84-.11,1.91-1.44,2-.51.05-.93-.07-1.1-.59s-.13-1,.39-.76C25.74,58.44,26,57.14,26.93,57.35Z"/><path class="cls-2" d="M41.73,50.85c0-.14,0-.29,0-.43,1-.07,2-.56,3.33-.14A2.24,2.24,0,0,1,41.73,50.85Z"/><path class="cls-2" d="M40.67,20.44h-.88l.51-1.36,2.31.47c.31.29.32.57,0,.83Z"/><path class="cls-2" d="M65.88,51.25c.07-.84.08-2,1.19-1.8.65.1,1,1.09.29,1.85C66.87,51.48,66.34,52.6,65.88,51.25Z"/><path class="cls-2" d="M29.86,18.66c.87-.74,1.65-.81,2.39.43a3.66,3.66,0,0,1-2.39.44A.55.55,0,0,1,29.86,18.66Z"/><path class="cls-2" d="M46.84,32.33a1.94,1.94,0,0,0,1.55-.61l3,.16A6,6,0,0,1,46.84,32.33Z"/><path class="cls-2" d="M40.23,26.55c.81-.25,1.63-1,2.42,0a6,6,0,0,1-4.34.35C38.86,26.29,39.65,26.92,40.23,26.55Z"/><path class="cls-2" d="M55.4,65c-1.12,1.33-2.19,1-3.32.9C52.86,64.46,54.05,65.2,55.4,65Z"/><path class="cls-2" d="M48.06,67.41c0-.07.06-.2.1-.2,1-.09,2-.59,3-.11C50.28,68.16,49,67,48.06,67.41Z"/><path class="cls-2" d="M37,44.72l2.82-.62a.52.52,0,0,1,.14.37c0,.13,0,.2,0,.2-.3.22-1.18.09-.55.9C38.44,45.59,37.52,45.67,37,44.72Z"/><path class="cls-2" d="M47.86,21.88,49.31,21c.53-.46.87-.42.93.35l-.06,1c-.81.19-1.62.45-2.37-.16A.83.83,0,0,1,47.86,21.88Z"/><path class="cls-2" d="M43.57,22c1.29.05,2.66-.65,3.85.4-1.3.51-2.57.13-3.84-.1Z"/><path class="cls-2" d="M44.36,43.13c-1.12,0-2.33.27-3.12-.89,1.09.13,2.22-.1,3.25.42Z"/><path class="cls-2" d="M39.34,45.57c-.71-.69-.51-1,.42-1,.31-.24.49-.75,1-.49a1,1,0,0,1,.42.12V45A2,2,0,0,1,39.34,45.57Z"/><path class="cls-2" d="M25.2,45.56c.62.08,1.24.38,1.86,0l.62.76a3.82,3.82,0,0,1-3.09,0C24.3,46.19,25.16,46,25.2,45.56Z"/><path class="cls-2" d="M34.58,49.37c-.14-.19-1.07,0-.48-.37a3.4,3.4,0,0,1,3.28-.5c.28.92-.71.44-.92.82l-.18.08h-.2A1.15,1.15,0,0,1,34.58,49.37Z"/><path class="cls-2" d="M45.12,27.46l1.39-.76c.77-.28,1.33.14,2.26.76Z"/><path class="cls-2" d="M27,27.49l2.78-.24C28.91,28.32,27.92,27.52,27,27.49Z"/><path class="cls-2" d="M45,25.63c-1-.09-2.25.6-2.8-.9C43.14,25,44.53,23.9,45,25.63Z"/><path class="cls-2" d="M13.57,24c-.07-.19-.13-.39-.2-.59-.34-.91.46-1.35.93-2C14.16,22.35,14.66,23.38,13.57,24Z"/><path class="cls-2" d="M11.68,31.78l.54,0-.36,3.32h-.42C11.55,34,10.94,32.85,11.68,31.78Z"/><path class="cls-2" d="M50.71,14.24v-.85a2.55,2.55,0,0,1,2.67.85Z"/><path class="cls-2" d="M36.48,15.79l1,.81a.49.49,0,0,1-.1.65A1.42,1.42,0,0,1,36,17.12c0-.46,0-.94-.7-.85-.27,0-.68,0-.48-.46.06-.13.4-.14.62-.21a.93.93,0,0,1,1.07,0l.05.12Z"/><path class="cls-2" d="M35.06,40.33c-1.22.05-2.1,1.47-3.85.74L35,39.73a.43.43,0,0,1,.13.4C35.13,40.26,35.1,40.33,35.06,40.33Z"/><path class="cls-2" d="M65.88,51.25c.49.36,1,0,1.48,0,0,.77-.41,1.42-1.17,1.3S65.34,51.86,65.88,51.25Z"/><path class="cls-2" d="M40.64,52.71c.15.42,1.07.19.82.81-.11.25-.65.75-1.16.45-.34-.21-1.06-.26-.81-.91s.75-.41,1.21-.31Z"/><path class="cls-2" d="M64.48,55.47l1.39-2.31.51.55C66,54.52,65.85,55.68,64.48,55.47Z"/><path class="cls-2" d="M46,18.09a.5.5,0,0,1,0-.38c.51.36,2-.49,1.42,1.21C46.62,19.09,45.89,19.26,46,18.09Z"/><path class="cls-2" d="M43.57,22c0,.1,0,.2,0,.3a2.78,2.78,0,0,1-2.33.49.48.48,0,0,1,0-.81Z"/><path class="cls-2" d="M61.26,60.83l-.63-.65.95-.91C62.25,60,63.16,60.68,61.26,60.83Z"/><path class="cls-2" d="M41.23,42.25h-.57c-.59.8-1.5.34-2.24.57-.52-.15-.49-.6-.56-1l2-.48C40,42.09,41.12,41.42,41.23,42.25Z"/><path class="cls-2" d="M36.46,49.32l.92-.82a.63.63,0,0,1,.36,0l1.53,1.34C38.12,50.79,37.55,48.71,36.46,49.32Z"/><path class="cls-2" d="M53.43,69.35c.58-1.13,1.23-1.58,2.46-.76Z"/><path class="cls-2" d="M19.43,43c0,.42-.16.68-.48.7-.58,0-.46-.48-.48-.82s0-.67.4-.65S19.38,42.74,19.43,43Z"/><path class="cls-2" d="M38.42,62.71l1.84-.1c.44,0,.9.06,1.09.58A2,2,0,0,1,38.42,62.71Z"/><path class="cls-2" d="M39.81,14.27c-.25,1.07-1.23.7-1.88,1C38,13.83,38.83,13.91,39.81,14.27Z"/><path class="cls-2" d="M27,16.67l-.93,1c-.4-.11-.92.66-1.18-.05-.18-.48.42-.57.76-.68S26.52,16.77,27,16.67Z"/><path class="cls-2" d="M14.81,25.8c1.1.18,1.76.11,1.76,1,0,.2-.18.58-.26.58C15.58,27.32,15.52,26.62,14.81,25.8Z"/><path class="cls-2" d="M29.86,18.66v.88c-.52.77-1.26.35-2.23.35Z"/><path class="cls-2" d="M49.76,43.44c-.56.31-1.33.4-1.46,0s.45-.66.93-.43A3,3,0,0,1,49.76,43.44Z"/><path class="cls-2" d="M24.14,29.85c-.17.52-.57.5-1,.45s-.62-.36-.47-.63.55-.24.85-.27S24.21,29.4,24.14,29.85Z"/><path class="cls-2" d="M14,35.25c.27.28.52.43.51.56a1.11,1.11,0,0,1-.28.78c-.35.25-.53-.08-.52-.39A5,5,0,0,1,14,35.25Z"/><path class="cls-2" d="M41.25,21.94v.81L39,21.9Z"/><path class="cls-2" d="M50.24,21.35c-.17-.47-.55-.42-.93-.35V20a1,1,0,0,1,1.36.48C50.87,21,50.72,21.24,50.24,21.35Z"/><path class="cls-2" d="M41.35,63.19l-1.09-.58c.7-1,1.25-.16,1.83.16A.59.59,0,0,1,41.35,63.19Z"/><path class="cls-2" d="M17.38,48.69c-.64-.37-.87-.81-.71-1.39,0-.1.47-.22.54-.15A1.12,1.12,0,0,1,17.38,48.69Z"/><path class="cls-2" d="M57.87,63.26,57,64.54c-.18-.85-.51-1.75.79-1.85C58.16,62.86,58.17,63.05,57.87,63.26Z"/><path class="cls-2" d="M69.82,47.7c.16-.17.37-.54.67-.68a.39.39,0,0,1,.54.48,1.71,1.71,0,0,1-.65.88C70.17,48.49,69.78,48.29,69.82,47.7Z"/><path class="cls-2" d="M36,17.12h1.43a1.41,1.41,0,0,1,1.75,0,3.52,3.52,0,0,1,.13.43C38.28,17.2,37,18.25,36,17.12Z"/><path class="cls-2" d="M16.17,37.68A1.57,1.57,0,0,1,16.36,40C15.94,39.29,16.12,38.65,16.17,37.68Z"/><path class="cls-2" d="M40.71,40a.71.71,0,0,0,.43-.91.86.86,0,0,1,1,1.09C41.8,40.6,41.18,40.27,40.71,40Z"/><path class="cls-2" d="M45.7,53.28c-.07.4-.44.2-.66.25s-.66,0-.67-.37.37-.43.66-.45S45.55,53,45.7,53.28Z"/><path class="cls-2" d="M26.43,24c-.42-.57-.66-.78-.73-1s.14-.55.5-.53.77.13.7.62A3.85,3.85,0,0,1,26.43,24Z"/><path class="cls-2" d="M51.33,30.26a1.08,1.08,0,0,1,1.42-.73c.13,0,.3.45.24.52C52.53,30.63,51.93,30.35,51.33,30.26Z"/><path class="cls-2" d="M37.38,25.28c0,.46-.2.69-.54.73s-.47-.09-.44-.38.17-.64.52-.65C37.09,25,37.26,25.2,37.38,25.28Z"/><path class="cls-2" d="M16.84,46.08c-.62-.89-.21-1.59-.07-2.47A3,3,0,0,1,16.84,46.08Z"/><path class="cls-2" d="M37.83,54.14c-.28.16-.47.34-.62.33s-.32-.24-.48-.37c.15-.13.31-.36.47-.36S37.54,53.94,37.83,54.14Z"/><path class="cls-2" d="M40.76,61.2c-.76.49-1.5.86-1.85-.43Z"/><path class="cls-2" d="M38.39,61.21c-.17.31-.34.62-.5.94-.42-.06-1.1,0-.9-.63S37.91,61.31,38.39,61.21Z"/><path class="cls-2" d="M36.55,15.61H35.48L35,14.74l0,0C35.52,15,36.66,14.12,36.55,15.61Z"/><path class="cls-2" d="M27.52,64c-1-.14-1.24-.68-1-1.69.92.33.88,1.05.91,1.73Z"/><path class="cls-2" d="M35.06,40.33l0-.6c.6-.52,1.3-.31,2-.23a.94.94,0,0,1,0,.29Z"/><path class="cls-2" d="M34.58,49.37l1.5,0c0,.44.08,1-.61,1S34.7,49.87,34.58,49.37Z"/><path class="cls-2" d="M47.81,22.23l2.37.16a2.12,2.12,0,0,1-2.82-.06A1.4,1.4,0,0,0,47.81,22.23Z"/><path class="cls-2" d="M58.78,61.78a2.09,2.09,0,0,1,1.78,0l-1.25.85C58.48,62.77,58.45,62.38,58.78,61.78Z"/><path class="cls-2" d="M33.67,47.66a1.48,1.48,0,0,1-.48.26.56.56,0,0,1-.67-.48c-.14-.52.32-.46.55-.47S33.62,47.21,33.67,47.66Z"/><path class="cls-2" d="M42.72,14.76l-.57-.45h1.93C43.65,15,43.14,14.7,42.72,14.76Z"/><path class="cls-2" d="M35,14.74c-.42,0-.71.72-1.21.23a.41.41,0,0,1,0-.4.76.76,0,0,1,1.17.19Z"/><path class="cls-2" d="M58.78,61.78l.53.9c-.32.59-.93.47-1.44.58l0-.57a.91.91,0,0,0,.54-1A1.4,1.4,0,0,1,58.78,61.78Z"/><path class="cls-2" d="M40.3,11.52c0,.1,0,.21,0,.32-.67.05-1.35.29-2-.16A2.62,2.62,0,0,1,40.3,11.52Z"/><path class="cls-2" d="M44.85,5.51c-.6.5-1.17.31-1.81.07C43.66,4.9,44.23,5.13,44.85,5.51Z"/><path class="cls-2" d="M33.72,30.49l-1.07,1.35a.36.36,0,0,1-.42-.35l0-.58A1.46,1.46,0,0,1,33.72,30.49Z"/><path class="cls-2" d="M53.34,35.29a3.35,3.35,0,0,1-.64.45c-.22.08-.56.39-.63-.12,0-.13.28-.36.47-.42S53,35.24,53.34,35.29Z"/><path class="cls-2" d="M32.23,31.49l.42.35,1.07.38c-.74.4-1.41,1.6-2.3.48C30.92,32.07,31.51,31.6,32.23,31.49Z"/><path class="cls-2" d="M38.42,42.83c.52-1.07,1.5-.35,2.24-.57a.68.68,0,0,1,.05.42c-.28.58-.61,1-1.33.54Z"/><path class="cls-2" d="M39.38,43.22a1.53,1.53,0,0,0,1.33-.54l.09,1.37-1,.49a1.6,1.6,0,0,1,0-.44C39.66,43.8,39.52,43.51,39.38,43.22Z"/><path class="cls-2" d="M39.22,17.13l-1.75,0c0-.17,0-.34.05-.51l2.3-.42a.82.82,0,0,1,.26.47.78.78,0,0,1-.27.47Z"/><path class="cls-2" d="M45,17.11l-1.84,0a.51.51,0,0,1,0-.86C43.91,16.23,44.88,15.82,45,17.11Z"/><path class="cls-2" d="M43.16,16.21c0,.28,0,.57,0,.86l-3.36.05c0-.16,0-.31,0-.47.86-.59,1.92.08,2.79-.43Z"/><path class="cls-2" d="M42.59,16.22c-.82.87-1.86.29-2.79.43l0-.47Z"/><path class="cls-2" d="M46,20.44l.44.85c-.83,0-1.66.07-2.5.06-.13,0-.69.14-.34-.36.12-.17.37-.23.56-.34a.81.81,0,0,0,.4-.18C45,20.07,45.5,20.57,46,20.44Z"/><path class="cls-2" d="M42.57,20.37c0-.28,0-.55,0-.83.38-.22.58-.84,1.11-.65s.34.62.31,1A1.83,1.83,0,0,1,42.57,20.37Z"/><path class="cls-2" d="M46,20.44c-.46.79-1,.12-1.44,0a1.56,1.56,0,0,1,1.4-.51Z"/></g></g></svg>