<svg xmlns="http://www.w3.org/2000/svg" viewBox="0 0 97.65 96.73"><defs><style>.cls-1{fill:#e7e86c;}.cls-2{fill:#fff;}</style></defs><g id="图层_2" data-name="图层 2"><g id="图层_1-2" data-name="图层 1"><path class="cls-1" d="M.08,43.87c-.5-5,1.49-10.2,3-15.46.09-.31.33-.67.24-.92-.59-1.84.44-1.91,1.85-2,1.06,0,2.13-.45,2.08-1.9A.72.72,0,0,1,7.52,23a47,47,0,0,0,6.25-7.6,18.69,18.69,0,0,1,3.73-3.8c1-.8,1.8-2.38,3.45-2.4.43,0,.46-.52.77-.73,1.13-.79,2.1-2,3.73-1.6.11,0,.35-.06.37-.14C26.25,5.43,28,5.63,28.5,4.33c.12-.34.6-.37.95-.48A7.64,7.64,0,0,0,31.91,3C35.06.74,38.57.25,42.37.16c2.31-.06,4.64.17,7,.08,1.76-.07,3.86-.75,5.59.55A1.17,1.17,0,0,0,55.6.9C58.32.84,60.68,2,63.08,3.08s4.41,2.61,6.69,3.7,4,2.59,6.09,3.66a22.15,22.15,0,0,1,4.52,3.07,10.68,10.68,0,0,0,5.05,3,1.9,1.9,0,0,1,1.44,2.31c-.05.33-.13.9.15.79,1.68-.61,1.26,1,1.81,1.57a4.34,4.34,0,0,1,1.3,2.63,7,7,0,0,0,2.14,4.35c1.06,1.14,1.36,2.77,2,4.19,1.34,3.08.93,6.44,2,9.54a23.29,23.29,0,0,1,1.31,5A42.45,42.45,0,0,1,97.48,53c-.09,2-.7,3.93-.56,6a5.68,5.68,0,0,1-.56,2,2.91,2.91,0,0,0,0,2.26c.42,1-.4,1.84-.65,2.74-.52,1.81-1.68,3.38-2.19,5.22a1.16,1.16,0,0,1-.45.68c-2,1.07-2.46,3.21-3.54,4.93-.19.31-.42.84-.64.85-1.42,0-1.6,1.06-1.87,2.08A2.35,2.35,0,0,1,85.91,81c-1.54,1-3,2-4.68,2.78-1.4.72-2.65,1.82-4.3,2.22-.29.07-.52.5-.72.81-.49.73-.91,1.12-1.89.53a1.09,1.09,0,0,0-1.74.84c-.1.61-.6.58-.77.32a.84.84,0,0,0-1.39-.2c-.57.44-1.14.81-1.13,1.73,0,1.52-.69,1.84-2,1-.47-.3-.58,0-.69.33-.65,1.9-.79,1.94-2.82,1.7A3.12,3.12,0,0,0,60.72,95c-.53,1-1,1.06-1.66.44-.82-.78-1.37-.51-1.91.25a1.72,1.72,0,0,1-2.2.73,10.34,10.34,0,0,0-4.29-.17,5.85,5.85,0,0,1-3.85-.95,2,2,0,0,0-2.31.16,2.56,2.56,0,0,1-2.47.46,2,2,0,0,0-1.85.23c-1.2.85-2,.81-2.85-.33s-2.48-1.57-3.77-2.21c-2.74-1.35-5.87-1.55-8.66-2.8a10.55,10.55,0,0,1-3.5-2.2,30.19,30.19,0,0,0-5.35-4.15,8.23,8.23,0,0,1-3.63-4.73,7.83,7.83,0,0,0-1.57-2.59A57.2,57.2,0,0,1,1.43,57.7,50.3,50.3,0,0,1,.08,43.87Z"/><path class="cls-2" d="M26.75,43.86c.08-1.36,1.22-.92,2-1.17-.76-.45-.7-.81.11-1.14s1.88.17,1.89-1.21c1,.14,1.87-.69,2.79-.71,2.54-.07,4.92-1.08,7.45-1.16.32,0,.66-.21,1-.14,1.93.42,3.58-.83,5.43-.88.63,0,.76-1.09,1.58-.83a.43.43,0,0,1,.57,0c.69.89,1.9.31,2.19.09,1.09-.84,2.19-.24,3.1-.1a13.27,13.27,0,0,0,3.38.12,9.31,9.31,0,0,1,5.49,1q.3.1,0,.21l-5.48.83,0,.53c2-.83,3.62,1.54,5.74.17a3.79,3.79,0,0,1,3,0c-2.6,1.57-5.35,1.28-8,1.2a6.16,6.16,0,0,0-2.19.16c-2.22.76-4.56.64-6.83,1a4.65,4.65,0,0,0-2.49.69.74.74,0,0,1-.5.18c-2.66-.74-5,.83-7.57.94-1.41.07-2.81.38-4.21.41a8.36,8.36,0,0,0-2.74.77c-1.85.69-3.83.61-5.65,1.31-.59.22-1.37.49-1.71-.29s.27-1.18.87-1.5C26.08,44.07,26.84,44.64,26.75,43.86Z"/><path class="cls-2" d="M53.67,53.35c-.77,0-1.54,0-2.31,0s-.2.94-.73,1.13a7.92,7.92,0,0,1-1.94.08c-.5-.13-.31-.39-.37-.21a.11.11,0,0,0,0,.13c.58.44,1.51-.46,2,.5a11.52,11.52,0,0,1-4.49,1,2.86,2.86,0,0,0-1.34.3c-1.37.69-2.5.14-3.57-.65-.59-.43-1.16-.28-2-.12.6.51,1.19.74,1.39,1.45a4.32,4.32,0,0,1-3.36.4,3.74,3.74,0,0,0-3.23-.05,1.52,1.52,0,0,1-.73.08c.24,0,.51-.09.71.16l1.4.4c-1.54,1-3.08.24-4.67.5.21-1,1.46-.57,1.37-1.34-.07-.56-.91-.25-1.32-.54.36-.49.89-.4,1.37-.45.67-.08,1.41,0,1.66-.92.09-.33.49-.37.81-.44,2.1-.46,4.2-.84,6.32-1.16,3.43-.52,6.83-1.3,10.27-1.78A35.34,35.34,0,0,0,55,51.4c.78-.2,1.2.46,1.33,1.12.17.9-.56,1.15-1.23,1.4A1.94,1.94,0,0,1,53.67,53.35Z"/><path class="cls-2" d="M19,16.66c-1.11,1.79-2.27,3.56-3.31,5.38a77.82,77.82,0,0,0-5.17,10.23,1.83,1.83,0,0,1-.94,1.24c.14-1.14.28-2.21.39-3.28a2.68,2.68,0,0,0,0-1.23c-.6-1.48.08-2.54,1-3.61,2.37-2.86,4.39-6,7.23-8.47C18.33,16.62,18.55,16.34,19,16.66Z"/><path class="cls-2" d="M49.22,22a8.61,8.61,0,0,0-3.16,0c-.62,0-1.13,0-1-.88.52-.48,1.16-.25,1.74-.31h-.2c-.45,0-.91.11-1.28-.25-.76-.57-1.81.4-2.5-.49.73-.62,1.57-.17,2.37-.2,1.73-.07,3.31-1.57,5.18-.59,0,0,.21-.13.25-.24s-.07-.34-.23-.43a3,3,0,0,0-1.61-.3,1.14,1.14,0,0,1-1.34-.76c2,.55,3.89-.64,5.67.55.18.16.69-.07.54.46-.37,1.12.53.85,1,.88,1.08.07,2.22-.08,2.85,1.12.06.25,0,.4-.29.28a23.13,23.13,0,0,0-6.84-.56c-.33,0-.73,0-.72.42s.43.38.76.39a27.19,27.19,0,0,1,5.63.27c.31.08.6.21.9.31-.09.77-.67.63-1.15.58a13.29,13.29,0,0,0-2.89.08h-2A5.75,5.75,0,0,1,49.22,22Z"/><path class="cls-2" d="M41.26,83.69c-2.93.23-4.89-1.81-7.17-3.08h0c.44.23.64-.09.85-.38s.37-.52.75-.5c1.78.08,3.35-.88,5.26-.91.32.21-.7.8.09,1.13s.89-.81,1.65-.8l.18,1.67c-.07.05-.1.1-.08.15s0,.08.07.08c.35.15.59,0,.85-.23a.88.88,0,0,1,1-.25.91.91,0,0,1,.4.54l-2,2.25a3.14,3.14,0,0,1-1.32.58A.9.9,0,0,1,41.26,83.69Z"/><path class="cls-2" d="M15.71,51.87c-1-.47-.91-1.42-1-2.1-.17-1.89-.9-3.76-.35-5.7a4,4,0,0,0,.07-1.1,24.91,24.91,0,0,1,.95-8.51c.46-1.46.45-3.37,1-4.74.83-2.12,1-4.69,2.93-6.4.37.48.13.84,0,1.19a43.39,43.39,0,0,0-1.87,5.86c-.88,2.79-1.12,5.68-1.84,8.48a15.35,15.35,0,0,0-.08,7.26A11.66,11.66,0,0,1,15.71,51.87Z"/><path class="cls-2" d="M81.19,69.74c.94-.1,1.59-.38,1.71-1.53.16-1.5,1.42-.32,2.14-.76-1.39,1.33-1,3-1.21,4.59-.09.87-.1,1.56-1.32,1.47-.62-.05-1.29.12-1.92,0-.23,0-1.09.51-.73-.57.06-.17-1-.06-1.29.32-.64.93-1.72,1.25-2.46,2a.85.85,0,0,1-1.35,0c-.39-.51.2-.75.51-1s.49-.26.27-.49-.47,0-.74,0c.15-.38.52-.78.77-.55.65.58,1,.18,1.29-.29a5.86,5.86,0,0,1,2.92-2.15C80.15,70.29,80.43,69.69,81.19,69.74Z"/><path class="cls-2" d="M62.26,17a4.85,4.85,0,0,1-3.38-.7,4.45,4.45,0,0,0-3.51-.51c-.93-.24-2,0-2.81-.59-1.62.09-3.18-.53-4.87-.16a.75.75,0,0,1,.83-.62c2.24.07,4.48-.39,6.72.14.65.15,1.54.67,2.13-.36.08-.12.85.16,1.29.26a1.87,1.87,0,0,0,.25.41c.3.11.59.31.94.14a2.2,2.2,0,0,1,2.21,1.33.52.52,0,0,1,.35.37A.36.36,0,0,1,62.26,17Z"/><path class="cls-2" d="M42.33,66.17c1.16-1.49,2.88-.75,4.34-1,.47-.1.69.11.55-.62-.1-.57,1.93-1,2.94-.53a3.13,3.13,0,0,0,1.14.45h1.07c.32.26-.08.28-.07.38.11,1.74-1,.9-1.74.85a12.23,12.23,0,0,0-3.06.44c-1.18.24-2.46,1.54-3.85.31-.27-.24-.89-.08-1.35-.11Z"/><path class="cls-2" d="M51.73,56.63c-1.18,1-2.38.14-3.57.06-.3.09-.37,0-.31-.3,3.56-1.23,7.17-2,11-1.31a11.93,11.93,0,0,0-3,.77,3.89,3.89,0,0,1-3.18.26A3.65,3.65,0,0,0,51.73,56.63Z"/><path class="cls-2" d="M41.26,83.69l.43-.11c.39.19,1-.11,1.15.58a5.87,5.87,0,0,1,2.73,1.33c.49.52.34.78-.13.85-1,.14-2,.75-3.11-.14-.54-.43-1.62,0-2.31-.7.56-.61,1.51.14,2.06-.72C41.21,84.8,40.91,84.44,41.26,83.69Z"/><path class="cls-2" d="M42,50.55a14.49,14.49,0,0,1,6.85-1.15,2.45,2.45,0,0,0,.91-.28c.87-.3,1.7-.6,2.36.47.17.27.7.32,1.46.65h-2c-1.78,0-3.49.6-5.36-.13-1.14-.45-2.49.74-3.85.74C42,51,42,50.82,42,50.55Z"/><path class="cls-2" d="M33.66,23.52c-1.16,1.23-2.31,2.48-4.06,2.9-.34,0-.76.36-.9-.27.42-.44.42-.44-.43-.71a5.37,5.37,0,0,1,5.41-2.05Z"/><path class="cls-2" d="M71.5,79.41a1,1,0,0,0-.87.18.25.25,0,0,1,0-.38c1-.44,2.44-.2,2.74-1.75.33-.68.84-.59,1.39-.32s.79-.22,1-.58c.26-.54.8-.73,1.2-1.09s.79-.1,1.19-.08a.38.38,0,0,1,.18.29c-.16.43-.54.44-.91.46s-.57.29-.79.62a5.72,5.72,0,0,1-3.32,2.46,7.71,7.71,0,0,0-1.53.82C71.5,79.9,71.65,79.6,71.5,79.41Z"/><path class="cls-2" d="M40.91,23.05c.91.23,1.74-.62,3-.07-2.88.81-5.42,1.94-8.24,2a.29.29,0,0,1,0-.48c1.4-.31,2.29-1.75,3.83-1.75a.47.47,0,0,1,.48.07C40.22,23,40.48,23.35,40.91,23.05Z"/><path class="cls-2" d="M71.13,81.77c-1,.7-1.82,1.41-3.14.87a6.85,6.85,0,0,0-2.32-.09c-.57,0-.66-.16-.4-.75.44-1,1.25-.75,2-.8s.6.36.44.8c.56.11,1.34-1.73,1.71.24C69.45,82.28,70.26,81.47,71.13,81.77Z"/><path class="cls-2" d="M83.12,65.24c-.25-.09-.66.38-.77-.17-.22-1.15,1.51-4,2.72-4.46,0,.83-.81,1.42-.79,2.21.72.26.61-.76,1.19-.53v0l-1,2.4C84,64.76,83.7,65.37,83.12,65.24Z"/><path class="cls-2" d="M54.52,27.53a39.63,39.63,0,0,1,10,.68l0,.43L55.06,28C54.9,27.83,54.41,28,54.52,27.53Z"/><path class="cls-2" d="M50.83,63.91a11.77,11.77,0,0,1,5-1.18.72.72,0,0,1,.85.53c.1.41-.29.51-.51.72a1.84,1.84,0,0,1-1.23.48C53.56,64.59,52.31,63.65,50.83,63.91Z"/><path class="cls-2" d="M54.79,33.08c.82,0,1.92-.36,2.42,0,1.29,1,2.93-.39,4,1.15-.2.31-.83.3-1.35.34A10.92,10.92,0,0,1,56,34.15c-.23-.06-.35-.64-.84-.52-.21.1-.48.17-.62,0S54.56,33.19,54.79,33.08Z"/><path class="cls-2" d="M80,68.55c-.15-1,.82-1.46.94-2.33,0-.2.31-.33.55-.28.47.11,0,.58.35.83a1.19,1.19,0,0,1,.94-1c.32-.06.45.07.38.4-.14.92-1.14,1.21-1.47,2-.17.4-.56.71-.54,1.2-.31.41-.57.94-1.22.49A3.36,3.36,0,0,1,80,68.55Z"/><path class="cls-2" d="M52.22,26.64c-2-.22-4,1.23-5.36-1.21,1-.47,2.08-1,3,.15C50.44,26.26,51.38,25.78,52.22,26.64Z"/><path class="cls-2" d="M69.24,85a18,18,0,0,0,3.9-.7c-.9,1.34-4.56,2.48-7,2.29.5-.72,1.51-.4,2-1C68.38,85.13,68.69,84.82,69.24,85Z"/><path class="cls-2" d="M47.53,61.6c-1.82.22-3.58.84-5.39.6.7-1.29,3.17-2,4.87-1.39C47.08,61.15,47.66,61.14,47.53,61.6Z"/><path class="cls-2" d="M47.91,78.32c1.7,1,3-.42,4.54-.55-.65,1.34,1.12,1.15,1.18,2.35-1.25-1.32-2.54-.39-3.81-.38-.17,0-.44,0-.5-.12-.24-.42-.36-1.09-.84-.11A6.51,6.51,0,0,1,47.91,78.32Z"/><path class="cls-2" d="M53.5,32.57a.72.72,0,0,1-.11-.24c0-.59-1.3-.55-.68-1.29.44-.52,1.18-.16,1.79-.12s.91.12,1.36.19.88,0,.86.6-.46.74-.93.77c-.77.05-1.55,0-2.32.06Z"/><path class="cls-2" d="M57.9,22.17c.74.41,1.81,0,2.34,1.06,0,.46-1.22-.4-.88.63-.64,0-1.44.42-1.54-.72-.52-1-1.57-.19-2.26-.63l-3,.21a4.2,4.2,0,0,0-1.93,0l-.52.11c-.29.06-.64.2-.59-.33l.23-.29c.38-.25.8-.09,1.21-.14h2A45.07,45.07,0,0,1,57.9,22.17Z"/><path class="cls-2" d="M42,20.38a1,1,0,0,1-.81,1c-.76.17-1.54.31-2.29.52s-.27-1.31-1.2-.92c.09-.5.57-.58.91-.63,1-.17,2-.23,3-.32C41.93,20,42.14,20.05,42,20.38Z"/><path class="cls-2" d="M41.93,70.23c-1.31-.2-2.61,1.55-4,0,.67-.49,1.31-.25,2-.22-.5-.62-.5-.62-1.58-.65a4.11,4.11,0,0,1,2.43-.73C42.1,68.47,41.14,70,41.93,70.23Z"/><path class="cls-2" d="M91.21,70.24c-.75,1.48-2.08,2.39-3.2,3.63C87.57,71.52,88.91,70.06,91.21,70.24Z"/><path class="cls-2" d="M30.66,72.58c.85.28,1.76.85,2.16-.56a.49.49,0,0,1,.7-.26c.21.12.2.42.1.63-.28.56,0,1.35-.7,1.73a1.94,1.94,0,0,1-1.85.22C30.39,74,30.54,73.26,30.66,72.58Z"/><path class="cls-2" d="M59.8,26.45c.43-.45.2-.63-.29-.64A5.17,5.17,0,0,1,57,25h3.4c.56.18,1.27-.05,1.68.59a2.87,2.87,0,0,1,.19,1A.61.61,0,0,1,62,27l-2.21-.09A.25.25,0,0,1,59.8,26.45Z"/><path class="cls-2" d="M31.18,16.09a12.31,12.31,0,0,1,6.11-2.47v.17l-5.75,2.63C31.17,16.58,31.14,16.37,31.18,16.09Z"/><path class="cls-2" d="M62.26,17l0-.32c.18-.24.43-.21.68-.18s.71.22,1.09.13a.63.63,0,0,1,.52,0c1-.05,1.58.72,2.42.94A.29.29,0,0,1,67,18a6.14,6.14,0,0,0-2.83,0A1.34,1.34,0,0,1,62.26,17Z"/><path class="cls-2" d="M49.86,24.78a35.4,35.4,0,0,1,5.54,0A4.74,4.74,0,0,1,49.86,24.78Z"/><path class="cls-2" d="M54,33.28c-1.22-.16-2,1.35-3.32.87-.3-.21-.59-.41-.28-.82.81-1.25,2-.8,3.15-.76l0,0c-.19.5.2.49.49.55Z"/><path class="cls-2" d="M34.6,21a16.18,16.18,0,0,1-4.66,2,4.8,4.8,0,0,1,4.67-2C34.72,21.19,34.65,21.08,34.6,21Z"/><path class="cls-2" d="M52.53,66.67c-.17.39-.51.59-.52,1a.36.36,0,0,1-.66.23c-.26-.73-.84-.41-1.24-.41-.65,0-.59-.36-.61-.78,0-.58.33-.56.73-.49Z"/><path class="cls-2" d="M37.57,33.83c0,.94-.3,1.34-1.34,1a2.74,2.74,0,0,0-2.15.16c-.53.28-.93.12-1.52-.22l5-1.26a.2.2,0,0,1,.1.22C37.62,33.8,37.59,33.83,37.57,33.83Z"/><path class="cls-2" d="M34.61,21c.46.3,1.15-1,1.4.12.12.5,1.1.64.63.92-.7.42-1,1.64-2.12,1.27-.19-.33-.89-.11-.82-.74a9.25,9.25,0,0,0,1.16-.38c.29-.13.57-.35.49-.73S34.93,21,34.6,21Z"/><path class="cls-2" d="M88.85,58.06A4.12,4.12,0,0,1,88.92,61C87.18,60.34,87.16,59.64,88.85,58.06Z"/><path class="cls-2" d="M71.75,73.09c0,.26-.47.35-.3.74.73,0,1.25-.84,2.15-.44-.57.76-1,1.6-2.2,1.29-.39-.1-.87,0-1-.5s.27-.64.56-.87l.75-.59A.23.23,0,0,1,71.75,73.09Z"/><path class="cls-2" d="M39.66,18.15a14.15,14.15,0,0,1,3.82-.83c.26,0,.59,0,.64.33,0,.12-.21.37-.32.37C42.45,18,41.16,19.31,39.66,18.15Z"/><path class="cls-2" d="M54.52,27.53l.54.47c-1.56.32-3.13.72-4.69,0,.12-.73.8-.16,1.1-.48Z"/><path class="cls-2" d="M54.15,66.9a10.05,10.05,0,0,1,4.5-.84c.29-.12.34,0,.28.27-1.56.58-3.09,1.44-4.82.55Z"/><path class="cls-2" d="M61.72,25.82c-.33-.48-.94-.48-1.37-.78,1.69-.36,3.23.49,5,.53-.35.4-.63.64-1.08.52a9.48,9.48,0,0,0-1.27.65.81.81,0,0,1-.71,0C62,26.48,62,26.05,61.72,25.82Z"/><path class="cls-2" d="M51.91,58.64c-.82.36-1.56.92-2.5,0-.42-.39-1.28.61-2.11-.08C48.91,57.42,50.42,58.45,51.91,58.64Z"/><path class="cls-2" d="M51.73,62.16a2.4,2.4,0,0,0-.66.19c-1.2.76-2.39,1.13-3.58-.1a22.7,22.7,0,0,1,4.22-.43.22.22,0,0,1,.08.22Q51.76,62.16,51.73,62.16Z"/><path class="cls-2" d="M20.76,47.48c.18,1.57.38,2.85.43,4.13a5.91,5.91,0,0,0,.31,1.58c.09.27-.05.45-.33.47s-.57,0-.5-.29c.51-1.84-.72-3.57-.29-5.39C20.4,47.9,20.48,47.84,20.76,47.48Z"/><path class="cls-2" d="M24,54.13c.6.12.83-.16.83-.74s.53-.52.79-.47c.52.09.15.47.12.75-.12.93-.93,1.27-1.55,1.74-.31.23-.42-.17-.52-.4S23.28,54.2,24,54.13Z"/><path class="cls-2" d="M34.09,80.61c-1.11-.78-.73-2.24-1.45-3.2-.21-.29,0-.53.26-.68s.49-.12.47,0c-.18,1.36,1.65,2.35.7,3.84Z"/><path class="cls-2" d="M63.68,84.18c.58-.06-.38-1.07.57-.91.7.12,1,.75,1.5,1.14,0,0,0,.25-.07.36s-.22.11-.22.1c-.7-1.28-1.67,1.32-2.34-.16C62.94,84.16,63.51,84.38,63.68,84.18Z"/><path class="cls-2" d="M21.91,61.81c.1-1-1.21-1.26-1-2.24.06-.31,0-.71.38-.79s.39.37.51.63A2.41,2.41,0,0,1,21.91,61.81Z"/><path class="cls-2" d="M34,20.3a5.21,5.21,0,0,1,3.75-1.57C36.67,19.34,35.76,20.4,34,20.3Z"/><path class="cls-2" d="M19.86,35.26a6.24,6.24,0,0,1-.07-1.39c.1-.48.1-.73-.47-.63s-.36-.3-.36-.53c0-.47.28-.31.55-.26C21,32.69,21.16,33.56,19.86,35.26Z"/><path class="cls-2" d="M63.68,84.18l-.56.53a4,4,0,0,0-2.28.31c-.29.2-.58.25-.58-.34,0-.35-.12-.56.38-.55C61.65,84.17,62.66,84.17,63.68,84.18Z"/><path class="cls-2" d="M54.58,26.43c1.36-1,2.72-.41,4.08,0-.42.71-1.1.25-1.66.33a11.33,11.33,0,0,1-1.75,0C55,26.7,54.55,27,54.58,26.43Z"/><path class="cls-2" d="M25.06,20.8a2.88,2.88,0,0,1,2.3-2.17,7.31,7.31,0,0,1-2,2.49C25.1,21.2,25,21.08,25.06,20.8Z"/><path class="cls-2" d="M53.45,6.8c1.41-.58,2.4-.62,3.39.67C55.62,7.21,54.59,7.38,53.45,6.8Z"/><path class="cls-2" d="M71.75,73.09l0-.37c.46-1.38,1.79-.93,2.71-1.34C73.76,72.33,72.68,72.59,71.75,73.09Z"/><path class="cls-2" d="M52.69,6.55h-2.8C50.88,5.59,51.66,5.54,52.69,6.55Z"/><path class="cls-2" d="M21.34,58.15c-1.22-1.2-.29-2.32-.46-3.35A4.83,4.83,0,0,1,21.34,58.15Z"/><path class="cls-2" d="M18.45,43.41a5.43,5.43,0,0,1-.81,3,7.31,7.31,0,0,1,.52-3.94C18.82,42.62,18.46,43.07,18.45,43.41Z"/><path class="cls-2" d="M42.5,59.82c-.55-.18-1.22,1-1.61-.1-.07-.21-.68-.49,0-.82C41.84,58.39,42,59.3,42.5,59.82Z"/><path class="cls-2" d="M65,37.37c.94-1,1.49-.34,2.17.55a5.31,5.31,0,0,1-2.12.08A.58.58,0,0,1,65,37.37Z"/><path class="cls-2" d="M38.19,28.18a2.21,2.21,0,0,1,2-.67.68.68,0,0,1,.61.82c-.07.32-.5.39-.79.1C39.46,27.89,38.75,28.67,38.19,28.18Z"/><path class="cls-2" d="M63.33,10.45,60.39,8.94C61.88,8.75,62.87,9.07,63.33,10.45Z"/><path class="cls-2" d="M62.27,26.65l.58-.27c.49,0,.93-.46,1.44-.11.07.29.12.59.46.7-.07.67-.54.28-.84.32-.63-.15-1.32,0-1.91-.32a2.43,2.43,0,0,1,0-.27A.16.16,0,0,1,62.27,26.65Z"/><path class="cls-2" d="M42,50.55l.34.3c-.46.11-.83.31-.86.86-.68,0-1.45.47-2-.34Z"/><path class="cls-2" d="M28.15,37.28c.54-.13,1.07-.28,1.61-.39.27-.06.56-.06.6.34s0,.55-.39.58c-.54,0-1.15.45-1.53-.3C28.15,37.68,28.13,37.51,28.15,37.28Z"/><path class="cls-2" d="M30.51,62.51a3.27,3.27,0,0,1,2.58-.7A2.24,2.24,0,0,1,30.51,62.51Z"/><path class="cls-2" d="M50.35,33.33l.28.82a10.94,10.94,0,0,0-3.3-.25A4,4,0,0,1,50.35,33.33Z"/><path class="cls-2" d="M67.09,16.09a2.66,2.66,0,0,1-2.6-1A2.65,2.65,0,0,1,67.09,16.09Z"/><path class="cls-2" d="M55,26.69c1.22-.18,2.47.2,3.66-.25H59.8v.43H55.11q-.15,0-.15-.09C55,26.73,55,26.69,55,26.69Z"/><path class="cls-2" d="M71.5,79.41l.26.63c.27,1.59-1.08.71-1.61,1.1C70.47,80.44,71.43,80.29,71.5,79.41Z"/><path class="cls-2" d="M55.46,77.17A2.1,2.1,0,0,1,53,77.9C53.64,77.14,54.4,77.16,55.46,77.17Z"/><path class="cls-2" d="M57.9,22.17H52.83V22c1.38-.22,2.81.26,4.16-.3A.91.91,0,0,1,57.9,22.17Z"/><path class="cls-2" d="M83.18,66.19l-.38-.4.32-.55c.28-.6.68-.91,1.34-.55C84.35,65.45,83.66,65.73,83.18,66.19Z"/><path class="cls-2" d="M61.73,53.91a2.45,2.45,0,0,1,1.72-.24c-.59.84-.59.84-2.54.72C60.88,53.69,61.54,54.21,61.73,53.91Z"/><path class="cls-2" d="M26.67,58.57c.49-.09.38-.78.78-.91a1.42,1.42,0,0,1,.77-.11c.31.1.17.46.15.7,0,.4-.37.31-.62.32S27,58.57,26.67,58.57Z"/><path class="cls-2" d="M51.61,76.94h-3C49.52,76.62,50.46,75.91,51.61,76.94Z"/><path class="cls-2" d="M50.29,31c-.5.85-1.35.6-2.1.68-.29.15-.35,0-.33-.26.71-.77,1.59-.52,2.44-.39Z"/><path class="cls-2" d="M27.31,36a3,3,0,0,1,2.29-1C29,36.07,28.08,35.8,27.31,36Z"/><path class="cls-2" d="M21.89,25.57a1.7,1.7,0,0,1,.81-1.66.57.57,0,0,1,.75.15c.12.19,0,.61-.16.59C22.56,24.57,22.39,25.26,21.89,25.57Z"/><path class="cls-2" d="M50.4,24a2.22,2.22,0,0,1,2.29-.1A3.67,3.67,0,0,1,50.4,24Z"/><path class="cls-2" d="M47.86,31.43l.33.26c-1.51.67-1.51.67-2.28-.17C46.55,31.09,47.23,31.67,47.86,31.43Z"/><path class="cls-2" d="M38.68,67.49c-.62.42-1.25.94-2,.09.58-.6,1.32-.26,1.95-.43C38.8,67.25,38.81,67.36,38.68,67.49Z"/><path class="cls-2" d="M44.88,80.75l-1.19.07c.11-.63.41-1.11,1.11-1.08.44,0,.34.42.3.73S45.16,80.82,44.88,80.75Z"/><path class="cls-2" d="M34.21,28.66a1.49,1.49,0,0,1-2.14.57C32.71,28.53,33.55,28.92,34.21,28.66Z"/><path class="cls-2" d="M18.62,41a.43.43,0,0,1-.34-.51c.08-.42-.56-.68-.21-1.12.15-.19.29-.09.46,0a.92.92,0,0,1,.37,1.19C18.83,40.74,18.87,41,18.62,41Z"/><path class="cls-2" d="M28.15,37.28l.29.23c-.61.53-1.17,1.33-2.13.34Z"/><path class="cls-2" d="M54.11,66.88c.24.39.16.71-.27.87a1.31,1.31,0,0,1-1.17.06c-.3-.21-.16-.48.17-.57s.87-.22,1.31-.33Z"/><path class="cls-2" d="M67,18v-.48a6.55,6.55,0,0,0,.53.39c.39.23.87.42.78,1,0,.23-.37.13-.6.13C67,19,67,18.53,67,18Z"/><path class="cls-2" d="M53.67,53.35c.59-.11,1.2-.27,1.4.57a.58.58,0,0,1-.59.21,1.56,1.56,0,0,0-1.35,0C52.65,53.44,53.56,53.67,53.67,53.35Z"/><path class="cls-2" d="M38.35,71.6a3.17,3.17,0,0,1-2.09.27c-.21,0-.35-.17-.28-.37s.21-.26.3-.25C37,71.35,37.66,71.48,38.35,71.6Z"/><path class="cls-2" d="M47.62,20.85c-.81.45-1.69.18-2.54.28l.26-.56,1.69,0C47.2,20.74,47.49,20.6,47.62,20.85Z"/><path class="cls-2" d="M53.67,18.57l-.54-.46,3.06.24v.22Z"/><path class="cls-2" d="M52.56,15.21l2.81.59C54.42,15.64,53.28,16.42,52.56,15.21Z"/><path class="cls-2" d="M31.18,16.09l.36.33-.65.49c-.09.66-.63.72-1.12.84-.18,0-.58.06-.35-.27A3.34,3.34,0,0,1,31.18,16.09Z"/><path class="cls-2" d="M26.59,42.1c-.11.31-.3.58-.67.54s-.58-.21-.48-.54a.7.7,0,0,1,.77-.46A.37.37,0,0,1,26.59,42.1Z"/><path class="cls-2" d="M29.77,17.75c.19-.52.73-.58,1.12-.84.09.38.44.8,0,1.1A.8.8,0,0,1,29.77,17.75Z"/><path class="cls-2" d="M53.62,24a1.6,1.6,0,0,1,1.87-.13A2,2,0,0,1,53.62,24Z"/><path class="cls-2" d="M67.58,27.5c.79-.79,1.22-.28,1.9.57l-1.89-.32C67.38,27.67,67.38,27.59,67.58,27.5Z"/><path class="cls-2" d="M64.58,16.62,64.2,17c-.38,0-.69-.25-1.07-.23a1.09,1.09,0,0,1-.81-.69C63.24,15.58,63.84,16.37,64.58,16.62Z"/><path class="cls-2" d="M51.47,27.53l-1.1.48H48.6A5.62,5.62,0,0,1,51.47,27.53Z"/><path class="cls-2" d="M41.68,27.14c-.23.14-.27.65-.73.37a.52.52,0,0,1-.28-.57c.09-.33.4-.36.67-.36a7.32,7.32,0,0,1,.93.09C42.41,27.25,41.88,27,41.68,27.14Z"/><path class="cls-2" d="M24.87,23.77a1.36,1.36,0,0,1-.51,1.44C24,24.43,24.43,24.09,24.87,23.77Z"/><path class="cls-2" d="M64.81,33c-.79.14-1.25.26-1.59-.16,0,0,.12-.35.25-.43C64.07,32,64.18,32.7,64.81,33Z"/><path class="cls-2" d="M86.77,68.44c-.19.64-.66.64-1.06.82C85.49,68.29,86,68.26,86.77,68.44Z"/><path class="cls-2" d="M73.39,77.18c-.12-.24.36-1.21.67-1.36l.25.56C74.51,77.23,73.78,77,73.39,77.18Z"/><path class="cls-2" d="M28.7,26.15l.9.27a5.14,5.14,0,0,1-2.56.21A2.71,2.71,0,0,1,28.7,26.15Z"/><path class="cls-2" d="M45.05,63c-.38.48-.9.33-1.38.27-.18,0-.36-.18-.22-.37s.31-.12.47-.17C44.34,62.66,44.82,62.3,45.05,63Z"/><path class="cls-2" d="M50.31,55c-.69-.41-1.55,0-2.42-.47a10.11,10.11,0,0,1,2.74,0Z"/><path class="cls-2" d="M87.3,63.14c.67-.64,1-.91,1.46-.39.11.14.18.36,0,.49C88.28,63.58,88,63,87.3,63.14Z"/><path class="cls-2" d="M33.7,22.55c.31.21.77.25.82.74l-.86.23a.12.12,0,0,1,0-.13c0-.42-.64-.18-.62-.5S33.43,22.57,33.7,22.55Z"/><path class="cls-2" d="M80.07,70l1.1-.59,0,.34a1.79,1.79,0,0,1-1.41,1v-.48A.33.33,0,0,1,80.07,70Z"/><path class="cls-2" d="M35.63,24.47V25c-.58-.2-1,.66-1.76.25A3.1,3.1,0,0,1,35.63,24.47Z"/><path class="cls-2" d="M20,60.65c-.33-.56-.65-1.11,0-1.78A1.9,1.9,0,0,1,20,60.65Z"/><path class="cls-2" d="M26.75,43.86l1.12.09c-.68.73-1.36.43-2,.46C26.11,44.13,26.6,44.26,26.75,43.86Z"/><path class="cls-2" d="M18.45,43.41l-.29-.91c0-.33-.1-.68.3-1A2.29,2.29,0,0,1,18.45,43.41Z"/><path class="cls-2" d="M19.78,15.2l-.54.62c-.2.23-.35.6-.73.23,0-.78.75-.85,1.25-1.15.08.06.12.13.09.19S19.81,15.2,19.78,15.2Z"/><path class="cls-2" d="M42.84,84.16c-.27-.41-.92-.07-1.15-.58a2,2,0,0,1,1.46-.22Z"/><path class="cls-2" d="M38.58,60.19l-1.22-.28C38.15,59.35,38.15,59.35,38.58,60.19Z"/><path class="cls-2" d="M28.53,11.1c-.49.7-.85.86-1.39.71C27.33,11.16,27.81,11.21,28.53,11.1Z"/><path class="cls-2" d="M18.51,16.05l.73-.23a1.16,1.16,0,0,1-.28.84l-.84.26A1.16,1.16,0,0,1,18.51,16.05Z"/><path class="cls-2" d="M47.53,61.6a1.19,1.19,0,0,1-.52-.79c.4.38,1,.2,1.44.44C48.24,61.75,47.87,61.65,47.53,61.6Z"/><path class="cls-2" d="M64.29,26.27c-.48,0-.93.44-1.44.11.44-.21.78-.9,1.39-.29l.08.07Z"/><path class="cls-2" d="M85.47,62.29c-.28-.78.26-1.23.71-1.9.28,1-.36,1.38-.72,1.9Z"/><path class="cls-2" d="M63.91,27.29c.28-.1.64,0,.84-.32l1.39.28c.08.25,0,.37-.25.26C65.23,27.39,64.54,27.63,63.91,27.29Z"/><path class="cls-2" d="M86.55,50.26c-.16-.61-.21-1.09.35-1.44A1.1,1.1,0,0,1,86.55,50.26Z"/><path class="cls-2" d="M40.33,62.71l-1.44.64a1.19,1.19,0,0,1,1.1-.91C40.29,62.3,40.35,62.45,40.33,62.71Z"/><path class="cls-2" d="M55.56,22.51c.77.17,1.79-.58,2.26.63C57.29,22.15,56.22,23.07,55.56,22.51Z"/><path class="cls-2" d="M25.06,20.8l.33.32-1,1.21A1.62,1.62,0,0,1,25.06,20.8Z"/><path class="cls-2" d="M36.7,52.91a1,1,0,0,1,1.41,0A1.44,1.44,0,0,1,36.7,52.91Z"/><path class="cls-2" d="M24,54.13c-.41.18-.25.58-.33.88a1.58,1.58,0,0,1,0-1.65C24,53.53,23.89,53.89,24,54.13Z"/><path class="cls-2" d="M25.48,58.7c-.07.23-.21.39-.47.35s-.46-.15-.45-.4.23-.36.48-.37S25.44,58.44,25.48,58.7Z"/><path class="cls-2" d="M17.89,56.32c-.11-.45-.63-.83-.27-1.37a.49.49,0,0,1,.35-.08,2.32,2.32,0,0,1,.12,1.45l-.1.23Z"/><path class="cls-2" d="M54,33.28v-.19h.84c-.16.39.07.5.38.55C54.67,33.83,54.12,34.22,54,33.28Z"/><path class="cls-2" d="M44.88,80.75l.22-.28c.28-.1.41-.84.76-.32a.7.7,0,0,1-.73,1Z"/><path class="cls-2" d="M39.51,51.37c.6.52,1.35.13,2,.34-.59.4-1.25.14-1.87.17C39.23,51.9,39.22,51.62,39.51,51.37Z"/><path class="cls-2" d="M32.8,28a1.83,1.83,0,0,1,1.55-.14c-.18.53-.59.45-1,.43C33.22,28.11,32.89,28.29,32.8,28Z"/><path class="cls-2" d="M40.6,25.82c-.48.55-1.14.31-2,.6a2,2,0,0,1,2-.58Z"/><path class="cls-2" d="M38.43,63.35a1.1,1.1,0,0,1-1.34,0C37.58,62.83,37.92,63.18,38.43,63.35Z"/><path class="cls-2" d="M59.39,10.78c.57.17,1.08.1,1.24.63,0,.17-.19.1-.3.14C59.75,11.74,59.51,11.46,59.39,10.78Z"/><path class="cls-2" d="M40.91,23.05c-.34.37-.83.31-1.26.41-.15,0-.39-.07-.24-.31s.23-.11.35-.16.32-.51.61-.13Z"/><path class="cls-2" d="M87.82,54.32c.47.66-.07,1-.1,1.48A1.5,1.5,0,0,1,87.82,54.32Z"/><path class="cls-2" d="M80.07,70l-.29.3A2.82,2.82,0,0,1,80,68.55Z"/><path class="cls-2" d="M66.11,28.66a1,1,0,0,1,1.15.1s0,.32-.1.32A1,1,0,0,1,66.11,28.66Z"/><path class="cls-2" d="M64.83,44.86,66,44.24c0,.11.16.29.12.34A1,1,0,0,1,64.83,44.86Z"/><path class="cls-2" d="M87.52,64.4a.81.81,0,0,1,1.1-.42.35.35,0,0,1,0,.33C88.3,64.65,88,64.36,87.52,64.4Z"/><path class="cls-2" d="M86,65.78c-.22,0-.37,0-.34-.28a.73.73,0,0,1,.54-.57c.22-.09.35,0,.33.26S86.21,65.64,86,65.78Z"/><path class="cls-2" d="M69.24,85c-.26.41-.72.42-1.12.54L67.85,85a2.38,2.38,0,0,1,1.39-.26Z"/><path class="cls-2" d="M51.73,62.16l0-.34L53,61.46A1,1,0,0,1,51.73,62.16Z"/><path class="cls-2" d="M48.51,12c-.32.5-.68.41-1.1.18C47.71,11.6,48.17,12.11,48.51,12Z"/><path class="cls-2" d="M45.05,63c-.32-.3-.75-.19-1.13-.27.57-.4,1.2-.23,2.16-.27Z"/><path class="cls-2" d="M65.89,27.51l.25-.26,1.44.25a.25.25,0,0,0,0,.25A2.76,2.76,0,0,1,65.89,27.51Z"/><path class="cls-2" d="M73.39,77.18c.25-.33.94-.17.92-.8l.47.76-1.39.32Z"/><path class="cls-2" d="M53.91,49.48l-.72-.12c.53-.58,1.06-.25,1.57-.17C54.67,49.85,54.22,49.48,53.91,49.48Z"/><path class="cls-2" d="M41.68,27.14l.59-.47.58.23C42.56,27.47,42.07,27.06,41.68,27.14Z"/><path class="cls-2" d="M53.91,49.48c.28-.11.63,0,.85-.29.26,0,.52.14.53.3,0,.35-.32.22-.49.21A5.51,5.51,0,0,1,53.91,49.48Z"/><path class="cls-2" d="M18.36,57.78c0,.25.13.68-.23.62s-.22-.58-.26-.9C18.18,57.33,18.25,57.58,18.36,57.78Z"/><path class="cls-2" d="M86.6,60.26c-.21-.4-.28-.71-.06-1a.4.4,0,0,1,.33.05C87.08,59.63,87,59.9,86.6,60.26Z"/><path class="cls-2" d="M48.93,61.26c.47-.42.81-.5,1.1,0A1.1,1.1,0,0,1,48.93,61.26Z"/><path class="cls-2" d="M21.89,62.4c.53.14,1,0,1,.31s-.32.38-.6.17C22.21,62.8,22.14,62.69,21.89,62.4Z"/><path class="cls-2" d="M46,77.23h1.79C47.24,77.73,46.79,77.69,46,77.23Z"/><path class="cls-2" d="M58.93,66.33l-.28-.27a1,1,0,0,1,1-.11.37.37,0,0,1,0,.32A.8.8,0,0,1,58.93,66.33Z"/><path class="cls-2" d="M42.33,66.17l0,.12c-.14.21-.3.39-.59.32s-.65.06-.85-.28A2.47,2.47,0,0,1,42.33,66.17Z"/><path class="cls-2" d="M43.66,6.44c-.07.06-.17.19-.26.18S43,6.54,43,6.43s.1-.31.29-.32A.38.38,0,0,1,43.66,6.44Z"/><path class="cls-2" d="M42.84,81.05c-.29.23-.16.84-.77.85-.23-.73.46-.78.78-1.08A.6.6,0,0,1,42.84,81.05Z"/><path class="cls-2" d="M60.05,12.92c-.64.23-1,.18-1.35-.3C59.21,12.37,59.53,12.67,60.05,12.92Z"/><path class="cls-2" d="M40.86,66.33l.85.28-2,0,0,0C40,66.06,40.51,66.48,40.86,66.33Z"/><path class="cls-2" d="M61,13.48c.42,0,.78,0,.94.34,0,0-.16.23-.27.27C61.14,14.29,61.25,13.68,61,13.48Z"/><path class="cls-2" d="M69.24,84.71a1.84,1.84,0,0,1-1.39.26C68.23,84.46,68.64,84.1,69.24,84.71Z"/><path class="cls-2" d="M46,18.92a2.69,2.69,0,0,1-2,.18C44.69,18.72,45.21,19,46,18.92Z"/><path class="cls-2" d="M46.86,67.71c.25,0,.52-.14.76.27a4.18,4.18,0,0,1-1.69,0C46.08,67.34,46.53,67.72,46.86,67.71Z"/><path class="cls-2" d="M64.76,89.06a.75.75,0,0,1,.79-.35s.11.17.09.22a.86.86,0,0,1-.86.45C64.58,89.28,64.57,89.17,64.76,89.06Z"/><path class="cls-2" d="M59.7,91.5c.33-.57.69-.45,1.09-.3A.74.74,0,0,1,59.7,91.5Z"/><path class="cls-2" d="M49.52,22.5c.09.3.38.25.59.33-.42.3-.87.41-1.11-.14C48.92,22.49,49.31,22.48,49.52,22.5Z"/><path class="cls-2" d="M50.63,22.72a2,2,0,0,1,1.93,0Z"/><path class="cls-2" d="M46.82,32.61c-.19.37-.56.5-.75.23-.29-.43.2-.3.39-.33S46.69,32.57,46.82,32.61Z"/><path class="cls-2" d="M30.45,46.89c.58-.72.87-.14,1.52-.26A2.21,2.21,0,0,1,30.45,46.89Z"/><path class="cls-2" d="M49.51,36.66l-.57,0a1.54,1.54,0,0,1,1.5-.12C50.14,36.76,49.81,36.62,49.51,36.66Z"/><path class="cls-2" d="M50.3,31c.39-.26.78-.48,1.28-.15a1.16,1.16,0,0,1-1.29.13Z"/><path class="cls-2" d="M20.76,47.65A1.32,1.32,0,0,1,21,46.13C21.21,46.66,20.92,47,20.76,47.65Z"/><path class="cls-2" d="M55,26.69a1.28,1.28,0,0,1,.11.2c-.38.07-.85.24-1.08-.1s.29-.33.54-.36Z"/><path class="cls-2" d="M76,68.45c.46-.55.76-.51,1.11-.29C76.87,68.74,76.53,68.29,76,68.45Z"/><path class="cls-2" d="M38.68,67.49l0-.34c.25-.47.56-.76,1.12-.45l0,0Z"/><path class="cls-2" d="M61.73,53.91l-.82.48c-.12,0-.31,0-.35-.09a.26.26,0,0,1,.21-.4A6.15,6.15,0,0,1,61.73,53.91Z"/><path class="cls-2" d="M58.39,15c-.17-.31.21-.33.27-.52a.76.76,0,0,1,.77.5A.89.89,0,0,1,58.39,15Z"/><path class="cls-2" d="M65,37.37l0,.63h-1.4v-.21A2,2,0,0,0,65,37.37Z"/><path class="cls-2" d="M50.89,22.16l-1.14.05a.48.48,0,0,1-.53-.24h1.67Z"/><path class="cls-2" d="M57.26,20.85l.29-.28c.32,0,.78.15.61.44S57.54,21.1,57.26,20.85Z"/><path class="cls-2" d="M51.73,56.63c-.1-.83.4-.64.87-.52A.81.81,0,0,1,51.73,56.63Z"/><path class="cls-2" d="M18.36,57.78l-.49-.28,0-1.18h.2Z"/><path class="cls-2" d="M47.85,56.39l.31.3a.91.91,0,0,1-1,.13C47.23,56.43,47.51,56.35,47.85,56.39Z"/><path class="cls-2" d="M64.76,89.06l0,.32-1.49.2C63.79,88.94,64.35,89.23,64.76,89.06Z"/><path class="cls-2" d="M34.75,92.45c-.34-.09-.71.66-1,.08-.13-.3.41-.34.7-.4S34.86,92.19,34.75,92.45Z"/><path class="cls-2" d="M42.33,18.66l.94-.26C43.1,18.92,42.78,19,42.33,18.66Z"/><path class="cls-2" d="M38.84,29.49l1.32-.28C39.71,29.87,39.29,29.72,38.84,29.49Z"/><path class="cls-2" d="M56.74,10H55.25c.71-.43,1.1-.36,1.47,0Z"/><path class="cls-2" d="M62.32,16.07l.83.56a.34.34,0,0,1-.27.22l-.59-.16-.23-.34Z"/><path class="cls-2" d="M37.57,33.83l0-.33c.32-.27.66-.23,1.24-.07Z"/><path class="cls-2" d="M40.37,22.86l-.61.13-.3-.27C39.8,22.5,40.18,22.12,40.37,22.86Z"/><path class="cls-2" d="M46.86,67.71l-.93.27c-.21-.06-.36-.28-.22-.38C46.09,67.33,46.49,67.53,46.86,67.71Z"/><path class="cls-2" d="M53.13,54.15c.44-.53.89-.31,1.35,0Z"/><path class="cls-2" d="M37.29,13.79a.48.48,0,0,1,0-.17c.25-.42.62-.23,1-.14Z"/><path class="cls-2" d="M33.68,57.5a1.47,1.47,0,0,1-1.17-.16,1.64,1.64,0,0,1,1.19-.08A.4.4,0,0,1,33.68,57.5Z"/><path class="cls-2" d="M40.61,25.84c.32-.37.68-.38,1.32,0H40.6Z"/><path class="cls-2" d="M32.8,28l.57.29-1.21.07C32.25,27.9,32.59,28.07,32.8,28Z"/><path class="cls-2" d="M19.78,15.2l0-.3c.2-.27.52-.52.68-.1S20.1,15.21,19.78,15.2Z"/><path class="cls-2" d="M40.33,62.71,40,62.44a1,1,0,0,1,1-.19C41,62.66,40.58,62.59,40.33,62.71Z"/><path class="cls-2" d="M36.67,28.42a1.22,1.22,0,0,1-1.26.07C35.85,28.14,36.21,28.31,36.67,28.42Z"/><path class="cls-2" d="M70.65,79.21l0,.38c-.19.19-.58.44-.64.26C69.85,79.41,70.31,79.32,70.65,79.21Z"/><path class="cls-2" d="M37,26.56a1.32,1.32,0,0,1,1-.28C37.83,26.73,37.51,26.7,37,26.56Z"/><path class="cls-2" d="M34.75,92.45l-.26-.32c.23-.2.62-.33.73-.12S35,92.35,34.75,92.45Z"/><path class="cls-2" d="M56.72,10a.91.91,0,0,1,1.13.46c-.49-.07-.91,0-1.11-.48Z"/><path class="cls-2" d="M58.39,15l1,0,.42,0C59.35,15.32,58.86,15.61,58.39,15Z"/><path class="cls-2" d="M47.62,20.85,47,20.6c.55-.09,1.08-.47,1.74-.14C48.49,21,48,20.77,47.62,20.85Z"/><path class="cls-2" d="M50.89,22.16V22h1.94v.18Z"/><path class="cls-2" d="M55.74,63.71c-.31.26-.56.13-.87,0C55.25,63.21,55.45,63.8,55.74,63.71Z"/><path class="cls-2" d="M62.27,26.65,62,26.7c-.37-.2-.23-.57-.28-.88C62.32,25.82,62.18,26.31,62.27,26.65Z"/><path class="cls-2" d="M62.88,16.85l.27-.22A1.6,1.6,0,0,1,64.2,17C63.71,17.4,63.32,16.88,62.88,16.85Z"/></g></g></svg>