<svg xmlns="http://www.w3.org/2000/svg" viewBox="0 0 52.39 45.17"><defs><style>.cls-1{fill:#8fc31f;}.cls-2{fill:#231815;}</style></defs><g id="图层_2" data-name="图层 2"><g id="图层_1-2" data-name="图层 1"><path class="cls-1" d="M47.18,42.62c-5.73-2.91-4.71-11.44-1.93-17.23S51.77,12.91,48.8,7.21,37.07,1,32.49,5.36s-4.93,12-2,17.62l-.21,1.13c-2.76-4.89-5.7-10-10.43-13S8.07,7.92,4.55,12.29C1.73,15.78,2.07,21,4,25,7,31,13,35.1,19.33,37.21s13.12,2.49,19.8,2.85Z"/><path class="cls-2" d="M48.44,40.47A5.37,5.37,0,0,1,45.57,36a16.69,16.69,0,0,1,.8-6.6,73.67,73.67,0,0,1,3.45-7.78c1.35-3.08,2.57-6.32,2.57-9.73A11.59,11.59,0,0,0,42.67.22,13.73,13.73,0,0,0,29,5.68c-3.86,5.36-3.52,12.87-.6,18.56l-.25-1.93-.21,1.13,4.57-.59C28.84,16.41,24.52,9.3,17,7.08c-6.9-2-15.09.86-16.67,8.5S3.46,30.53,9.45,35c6.66,4.94,15.05,6.49,23.14,7.17,1.25.1,2.49.19,3.74.26.62,0,1.25.11,1.87.11,0,0,.82.07.27,0l.07,0a23.08,23.08,0,0,1,2.44.78L46.51,45c3.08,1,4.39-3.85,1.33-4.83-2.65-.84-5.33-1.93-8-2.56a41.89,41.89,0,0,0-6-.42c-1.87-.14-3.75-.3-5.61-.57a41.19,41.19,0,0,1-10.58-2.78C12.11,31.5,6.75,27.21,5.3,21.16c-.62-2.6-.42-5.73,1.57-7.72a8.15,8.15,0,0,1,6.75-2c7.29.79,11.31,8.2,14.53,13.9,1,1.76,4.18,1.56,4.57-.6a4.9,4.9,0,0,0-.2-3.37A15.71,15.71,0,0,1,31.38,18a13.29,13.29,0,0,1,.43-7A8.68,8.68,0,0,1,41.41,5,7.29,7.29,0,0,1,46,7.51c1.44,1.78,1.58,4.56,1.05,6.87C45.82,19.91,42.17,24.53,41,30.1c-1.12,5.37-.46,11.82,4.9,14.68C48.75,46.3,51.28,42,48.44,40.47Z"/></g></g></svg>