<?xml version="1.0" encoding="utf-8"?>
<!DOCTYPE svg PUBLIC "-//W3C//DTD SVG 20010904//EN" "http://www.w3.org/TR/2001/REC-SVG-20010904/DTD/svg10.dtd">
<svg version="1.0" xmlns="http://www.w3.org/2000/svg" width="339pt" height="521pt" viewBox="0 0 339 521" style="" preserveAspectRatio="xMidYMid meet">
<g fill="#FDD37DFF" stroke="#FDD37DFF">
<path d="M 141.655 2.060 C 132.040 3.527 122.297 8.882 114.816 16.812 C 111.242 20.600 106.913 26.156 105.196 29.158 C 101.873 34.965 95.000 54.325 95.000 57.877 C 95.000 59.044 94.627 60.000 94.171 60.000 C 93.715 60.000 89.804 57.984 85.481 55.521 C 68.415 45.795 50.298 39.879 37.166 39.744 C 18.482 39.551 7.683 48.995 3.319 69.343 C 0.881 80.710 2.549 125.533 6.599 157.500 C 14.040 216.229 35.078 252.009 73.833 271.848 C 98.854 284.657 126.620 290.637 166.004 291.700 C 188.387 292.303 199.164 291.295 213.000 287.304 C 236.703 280.466 260.857 262.870 277.335 240.437 C 297.642 212.793 311.621 174.838 315.985 135.500 C 317.309 123.569 317.263 99.705 315.896 88.500 C 312.201 58.231 300.243 35.884 283.773 28.470 C 270.383 22.442 254.075 25.719 235.761 38.116 C 232.605 40.252 229.777 42.000 229.478 42.000 C 229.178 42.000 224.785 38.365 219.716 33.923 C 192.188 9.798 164.640 -1.446 141.655 2.060 "/></g>
<g fill="#5EB082FF" stroke="#5EB082FF">
<path d="M 140.982 306.700 C 140.972 315.390 140.292 327.225 139.472 333.000 C 134.583 367.407 120.202 423.676 104.457 470.000 C 98.420 487.759 97.870 490.054 98.296 495.710 C 100.293 522.241 136.325 527.546 146.856 502.860 C 151.973 490.862 167.480 439.832 174.997 410.250 C 175.591 407.913 176.465 406.000 176.939 406.000 C 177.413 406.000 183.133 406.965 189.651 408.145 C 206.957 411.278 238.308 411.271 256.213 408.131 C 303.722 399.799 332.585 379.673 336.965 351.826 C 340.035 332.300 328.815 306.422 313.348 297.358 C 299.610 289.307 280.386 288.818 259.000 295.976 C 239.693 302.438 215.466 316.883 197.226 332.808 C 193.776 335.821 190.741 338.074 190.482 337.815 C 190.223 337.557 190.445 334.005 190.975 329.922 C 191.505 325.840 191.951 315.750 191.968 307.500 L 191.997 292.500 172.748 292.427 C 162.162 292.387 150.688 292.027 147.250 291.627 L 141.000 290.901 140.982 306.700 "/></g>
</svg>
