<?xml version="1.0" encoding="utf-8"?>
<!DOCTYPE svg PUBLIC "-//W3C//DTD SVG 20010904//EN" "http://www.w3.org/TR/2001/REC-SVG-20010904/DTD/svg10.dtd">
<svg version="1.0" xmlns="http://www.w3.org/2000/svg" width="438pt" height="430pt" viewBox="0 0 438 430" style="" preserveAspectRatio="xMidYMid meet">
<g fill="#FEE2DDFF" stroke="#FEE2DDFF">
<path d="M 133.109 3.514 C 125.232 5.731 120.180 8.199 114.110 12.794 C 99.695 23.708 92.185 39.994 93.262 58.000 C 93.899 68.640 95.377 72.529 110.891 104.410 C 117.558 118.111 122.799 129.534 122.538 129.796 C 122.276 130.057 108.661 127.182 92.281 123.406 C 53.142 114.383 46.178 114.300 29.947 122.664 C 13.735 131.018 3.233 147.459 2.234 166.049 C 1.370 182.135 6.412 195.597 17.428 206.613 C 27.283 216.468 33.015 218.737 68.000 226.627 C 84.225 230.287 97.846 233.587 98.270 233.960 C 98.693 234.334 84.005 246.604 65.628 261.227 C 32.600 287.509 32.179 287.891 28.942 294.467 C 26.143 300.151 25.667 302.188 25.667 308.459 C 25.667 318.234 28.846 324.777 38.086 334.017 C 53.205 349.136 74.570 357.191 95.500 355.663 C 114.359 354.285 125.219 349.237 147.695 331.399 C 156.938 324.063 164.838 318.048 165.250 318.031 C 165.663 318.014 166.000 332.305 166.000 349.790 C 166.000 384.683 166.416 388.101 172.081 399.743 C 175.922 407.638 185.529 417.457 193.581 421.719 C 224.640 438.158 261.769 421.655 270.478 387.540 C 271.684 382.819 272.000 374.970 272.000 349.790 C 272.000 332.305 272.338 318.003 272.750 318.006 C 273.163 318.010 284.208 326.564 297.296 337.015 C 310.383 347.466 323.766 357.368 327.035 359.018 C 339.016 365.066 350.487 366.328 363.415 363.022 C 374.036 360.305 380.345 356.702 388.118 348.913 C 396.004 341.011 400.350 332.819 402.661 321.500 C 405.841 305.917 400.975 288.302 390.350 276.943 C 387.728 274.140 375.098 263.470 362.283 253.231 C 349.468 242.993 339.325 234.316 339.742 233.949 C 340.159 233.581 353.775 230.287 370.000 226.627 C 402.725 219.246 409.830 216.620 418.661 208.639 C 429.653 198.705 436.000 184.549 436.000 169.968 C 436.000 154.610 431.837 144.105 421.342 132.980 C 413.116 124.260 402.485 118.614 391.070 116.903 C 381.592 115.483 379.419 115.801 345.233 123.604 C 329.589 127.175 316.397 129.962 315.916 129.798 C 315.435 129.634 320.877 117.425 328.009 102.667 C 343.086 71.469 344.005 69.059 344.733 58.798 C 346.580 32.750 330.050 10.015 304.540 3.518 C 286.896 -0.976 267.179 4.854 254.158 18.414 C 248.789 24.005 246.676 27.444 239.444 42.355 C 232.221 57.249 231.000 60.507 231.000 64.883 C 231.000 69.680 230.843 70.000 228.491 70.000 C 226.398 70.000 225.450 71.078 222.776 76.500 C 221.013 80.075 219.302 83.000 218.974 83.000 C 218.646 83.000 212.105 70.084 204.439 54.297 C 192.578 29.873 189.680 24.705 185.000 19.632 C 174.550 8.304 163.284 3.058 148.000 2.403 C 141.434 2.122 136.835 2.465 133.109 3.514 "/></g>
</svg>
