<?xml version="1.0" encoding="utf-8"?>
<!DOCTYPE svg PUBLIC "-//W3C//DTD SVG 20010904//EN" "http://www.w3.org/TR/2001/REC-SVG-20010904/DTD/svg10.dtd">
<svg version="1.0" xmlns="http://www.w3.org/2000/svg" width="602pt" height="516pt" viewBox="278 3 324 512" preserveAspectRatio="xMidYMid meet">
<g fill="#513736FF" stroke="#513736FF">
<path d="M 420.500 3.485 C 415.550 4.167 409.250 5.209 406.500 5.799 C 398.761 7.461 379.805 14.074 376.846 16.143 C 375.386 17.165 373.641 18.000 372.969 18.000 C 371.935 18.000 362.622 22.949 355.500 27.283 C 329.586 43.053 306.729 68.625 293.187 97.000 C 283.033 118.276 278.751 136.170 278.710 157.500 C 278.682 172.192 279.633 178.513 283.752 191.000 C 286.235 198.529 290.849 208.211 292.250 208.833 C 292.663 209.017 293.000 209.598 293.000 210.126 C 293.000 211.772 300.549 221.262 306.148 226.655 C 311.359 231.674 324.829 241.000 326.866 241.000 C 328.920 241.000 329.105 243.157 327.430 247.543 C 324.984 253.948 325.936 264.354 329.481 269.970 C 332.176 274.239 339.477 280.089 343.297 281.042 C 346.212 281.768 347.102 283.775 353.040 303.000 C 355.842 312.075 358.524 320.625 359.000 322.000 C 359.476 323.375 362.184 331.925 365.019 341.000 C 367.854 350.075 370.998 359.975 372.007 363.000 C 373.015 366.025 375.724 374.575 378.026 382.000 C 380.329 389.425 383.739 400.201 385.606 405.946 C 387.473 411.692 389.000 416.985 389.000 417.710 C 389.000 418.434 389.405 419.809 389.899 420.764 C 390.393 421.719 393.133 429.925 395.986 439.000 C 398.840 448.075 401.562 456.625 402.034 458.000 C 402.507 459.375 405.212 467.925 408.045 477.000 C 416.945 505.506 417.193 506.121 421.155 509.500 C 425.129 512.890 427.810 514.000 432.020 514.000 C 436.843 514.000 445.315 509.976 447.494 506.649 C 449.131 504.151 458.487 479.245 464.455 461.500 C 465.195 459.300 467.474 453.000 469.520 447.500 C 471.567 442.000 474.698 433.450 476.479 428.500 C 478.260 423.550 479.977 418.825 480.295 418.000 C 480.612 417.175 482.520 411.775 484.534 406.000 C 491.177 386.951 498.123 367.533 499.020 365.500 C 499.972 363.343 504.030 351.885 506.987 343.000 C 507.994 339.975 510.705 332.325 513.010 326.000 C 515.316 319.675 517.853 312.647 518.650 310.383 L 520.098 306.265 526.953 306.383 C 533.417 306.493 534.136 306.271 539.529 302.500 C 549.021 295.863 554.961 283.751 554.988 270.980 C 555.009 261.441 550.117 247.375 543.355 237.527 C 541.182 234.364 541.697 233.483 547.209 230.921 C 558.303 225.765 573.033 212.732 580.961 201.058 C 593.459 182.653 600.000 161.844 600.000 140.484 C 600.000 115.761 591.522 90.736 575.393 67.849 C 565.562 53.897 546.231 35.760 533.367 28.417 C 521.673 21.741 510.326 15.917 506.084 14.413 C 503.563 13.520 500.600 12.431 499.500 11.995 C 493.689 9.690 488.989 8.364 475.000 5.083 C 461.851 1.999 436.637 1.259 420.500 3.485 M 460.500 9.427 C 495.627 13.928 522.062 25.278 547.396 46.738 C 566.780 63.159 583.195 88.293 589.690 111.500 C 591.795 119.020 593.964 133.735 593.965 140.500 C 593.966 158.155 587.365 179.775 577.173 195.500 C 568.672 208.615 551.742 223.018 539.000 227.974 C 531.829 230.763 531.517 232.040 536.430 238.476 C 545.116 249.855 549.972 265.694 548.076 276.458 C 545.672 290.104 538.231 298.985 528.525 299.789 C 523.997 300.165 522.986 299.903 521.071 297.862 C 519.224 295.894 518.951 294.750 519.432 291.000 C 519.750 288.525 520.282 283.478 520.616 279.784 C 521.202 273.284 521.124 272.971 518.188 270.034 C 514.764 266.610 511.237 266.147 507.154 268.584 C 503.158 270.970 501.151 274.235 499.402 281.198 C 497.209 289.926 495.714 292.000 491.613 292.000 C 483.708 292.000 479.837 282.404 482.037 268.261 C 483.159 261.048 483.143 259.703 481.924 258.932 C 479.663 257.501 479.015 257.802 477.203 261.126 C 474.486 266.112 470.975 269.985 466.583 272.840 C 463.007 275.164 461.558 275.477 454.920 275.360 C 450.204 275.277 446.184 274.629 444.281 273.645 C 440.392 271.634 434.531 265.446 434.398 263.210 C 434.171 259.394 433.900 259.000 431.505 259.000 C 429.527 259.000 428.571 259.935 426.890 263.511 C 422.663 272.503 411.001 280.026 401.346 279.989 C 394.117 279.962 382.220 274.037 378.745 268.733 C 377.887 267.424 377.031 265.261 376.843 263.927 C 376.598 262.197 375.782 261.418 374.000 261.215 C 371.926 260.978 371.082 261.723 369.047 265.585 C 364.399 274.407 354.046 278.199 344.529 274.564 C 332.402 269.933 328.076 253.495 336.572 244.328 C 337.936 242.857 338.893 241.169 338.699 240.576 C 338.506 239.984 333.914 237.302 328.494 234.615 C 320.453 230.629 317.137 228.238 310.460 221.615 C 302.555 213.774 300.146 210.598 294.822 201.000 C 283.066 179.810 281.830 148.986 291.492 118.000 C 295.156 106.249 304.734 87.344 312.770 76.000 C 321.056 64.304 338.704 46.494 349.839 38.592 C 383.542 14.673 422.108 4.509 460.500 9.427 M 456.196 431.633 L 464.892 441.636 463.513 445.568 C 462.754 447.731 460.267 454.675 457.986 461.000 C 455.705 467.325 453.132 474.638 452.268 477.250 C 451.403 479.863 450.202 481.969 449.598 481.931 C 448.430 481.858 420.928 451.284 420.279 449.337 C 420.068 448.705 424.024 439.940 429.071 429.859 L 438.245 411.531 442.873 416.580 C 445.418 419.358 451.413 426.131 456.196 431.633 M 377.622 276.898 C 380.057 279.042 385.076 282.012 388.775 283.497 C 397.981 287.194 397.865 287.122 399.981 290.500 C 401.856 293.494 401.854 293.514 398.908 300.500 C 387.775 326.900 384.636 333.996 384.104 333.968 C 383.772 333.950 378.026 326.637 371.335 317.718 C 360.852 303.742 358.813 300.398 356.585 293.528 C 353.245 283.227 353.262 282.003 356.750 281.991 C 359.670 281.981 368.705 277.266 370.922 274.594 C 371.649 273.718 372.458 273.000 372.719 273.000 C 372.980 273.000 375.186 274.754 377.622 276.898 M 465.764 304.034 L 477.028 319.929 468.275 337.468 C 463.461 347.115 459.207 354.893 458.822 354.754 C 458.436 354.614 453.102 348.288 446.968 340.697 L 435.815 326.893 443.053 310.697 C 447.034 301.788 450.907 293.038 451.659 291.250 C 452.411 289.463 453.358 288.031 453.763 288.069 C 454.169 288.107 459.569 295.291 465.764 304.034 M 471.750 380.044 C 477.388 386.575 482.000 392.490 482.000 393.188 C 482.000 393.886 480.837 397.617 479.415 401.479 C 477.993 405.340 476.017 410.750 475.023 413.500 C 469.180 429.661 467.484 433.993 467.019 433.937 C 466.305 433.851 442.624 406.373 442.221 405.162 C 441.803 403.908 459.767 367.972 460.755 368.085 C 461.165 368.131 466.113 373.513 471.750 380.044 M 417.005 313.104 C 422.581 320.312 427.346 326.738 427.594 327.385 C 428.123 328.764 411.670 366.298 410.377 366.662 C 409.090 367.024 389.582 341.856 389.743 340.042 C 389.819 339.194 393.099 330.850 397.033 321.500 C 400.966 312.150 404.582 303.488 405.068 302.250 C 405.553 301.013 406.157 300.000 406.409 300.000 C 406.661 300.000 411.430 305.897 417.005 313.104 M 449.223 353.670 L 456.080 361.840 446.925 379.932 C 441.889 389.883 437.416 398.243 436.985 398.509 C 436.094 399.060 416.667 375.742 416.188 373.548 C 415.906 372.253 418.032 366.890 424.533 352.500 C 425.775 349.750 428.182 344.414 429.882 340.642 L 432.973 333.783 437.669 339.642 C 440.252 342.864 445.451 349.176 449.223 353.670 M 422.902 392.981 C 428.456 399.570 433.000 405.425 433.000 405.991 C 433.000 407.664 415.059 443.006 414.245 442.937 C 413.835 442.902 410.036 438.873 405.801 433.984 C 394.217 420.608 394.236 420.891 403.568 399.773 C 411.479 381.870 411.891 381.000 412.461 381.000 C 412.650 381.000 417.348 386.391 422.902 392.981 M 492.578 339.696 L 498.656 347.230 496.907 352.365 C 495.946 355.189 493.503 362.000 491.479 367.500 C 489.455 373.000 487.377 378.946 486.862 380.714 C 485.209 386.389 486.128 387.085 469.094 367.273 L 463.740 361.045 472.620 343.444 L 481.500 325.843 484.000 329.003 C 485.375 330.741 489.235 335.553 492.578 339.696 M 443.750 280.563 C 446.088 281.565 448.000 282.686 448.000 283.054 C 448.000 283.422 446.603 286.823 444.896 290.612 C 439.756 302.017 437.435 307.190 434.512 313.750 C 432.980 317.188 431.451 320.000 431.113 320.000 C 430.402 320.000 428.235 317.318 417.531 303.189 L 409.720 292.877 410.902 288.934 C 411.868 285.708 412.947 284.554 416.842 282.580 C 419.460 281.254 423.588 278.161 426.017 275.707 L 430.432 271.245 434.966 274.993 C 437.460 277.054 441.413 279.560 443.750 280.563 M 431.631 472.635 C 447.961 490.905 447.862 490.695 444.143 499.241 C 440.593 507.396 433.454 510.091 426.898 505.750 C 423.769 503.678 423.013 502.038 417.340 485.000 C 413.952 474.825 411.412 465.657 411.696 464.627 C 412.217 462.741 415.954 456.000 416.480 456.000 C 416.635 456.000 423.453 463.486 431.631 472.635 M 514.577 276.450 C 514.915 277.798 514.474 281.764 513.596 285.264 C 511.609 293.186 511.611 294.377 513.611 298.593 C 515.102 301.735 515.094 302.304 513.506 306.244 C 512.562 308.585 509.592 316.758 506.905 324.406 C 504.219 332.054 501.751 338.579 501.421 338.906 C 500.761 339.559 498.598 337.099 490.378 326.352 L 484.911 319.203 490.183 308.602 C 493.083 302.771 495.944 298.000 496.541 298.000 C 499.271 298.000 503.290 291.874 505.177 284.836 C 506.259 280.801 507.856 276.713 508.727 275.750 C 511.023 273.211 513.849 273.549 514.577 276.450 M 397.669 362.036 L 407.634 374.572 402.784 385.536 C 400.116 391.566 397.048 398.408 395.967 400.739 C 394.885 403.071 394.000 405.433 394.000 405.989 C 394.000 407.945 392.227 406.974 391.738 404.750 C 391.466 403.513 389.573 397.325 387.531 391.000 C 385.490 384.675 382.751 375.988 381.446 371.696 L 379.073 363.892 381.625 358.196 C 383.028 355.063 384.604 351.414 385.126 350.087 C 385.662 348.724 386.429 348.071 386.889 348.587 C 387.337 349.089 392.188 355.141 397.669 362.036 M 475.000 279.821 C 475.000 285.477 479.697 294.056 484.135 296.507 L 487.770 298.514 484.047 305.906 L 480.325 313.297 471.362 300.899 C 460.158 285.401 459.000 283.714 459.000 282.889 C 459.000 282.522 460.463 281.946 462.250 281.607 C 464.038 281.268 467.300 279.882 469.500 278.527 C 471.700 277.171 473.838 276.048 474.250 276.031 C 474.663 276.014 475.000 277.719 475.000 279.821 M 374.346 332.229 C 378.006 337.030 381.000 341.341 381.000 341.809 C 381.000 343.674 376.247 354.204 375.777 353.381 C 375.069 352.142 366.000 323.424 366.000 322.423 C 366.000 321.348 366.486 321.919 374.346 332.229 M 408.402 446.634 C 411.190 449.985 411.245 450.248 409.807 453.285 L 408.309 456.448 406.509 450.974 C 405.519 447.963 404.501 444.938 404.247 444.250 C 403.389 441.924 405.485 443.126 408.402 446.634 "/></g>
<g fill="#FEC2C2FF" stroke="#FEC2C2FF">
<path d="M 422.500 9.544 C 387.236 14.195 356.447 29.576 330.507 55.500 C 307.326 78.666 292.870 105.531 286.921 136.498 C 282.561 159.193 285.658 184.482 294.822 201.000 C 300.146 210.598 302.555 213.774 310.460 221.615 C 317.137 228.238 320.453 230.629 328.494 234.615 C 333.914 237.302 338.506 239.984 338.699 240.576 C 338.893 241.169 337.936 242.857 336.572 244.328 C 330.677 250.688 330.757 261.993 336.747 269.111 C 340.575 273.660 346.178 275.885 353.098 275.603 C 360.427 275.304 365.658 272.018 369.047 265.585 C 371.082 261.723 371.926 260.978 374.000 261.215 C 375.782 261.418 376.598 262.197 376.843 263.927 C 377.031 265.261 377.887 267.424 378.745 268.733 C 382.220 274.037 394.117 279.962 401.346 279.989 C 411.001 280.026 422.663 272.503 426.890 263.511 C 428.571 259.935 429.527 259.000 431.505 259.000 C 433.900 259.000 434.171 259.394 434.398 263.210 C 434.531 265.446 440.392 271.634 444.281 273.645 C 446.184 274.629 450.204 275.277 454.920 275.360 C 461.558 275.477 463.007 275.164 466.583 272.840 C 470.975 269.985 474.486 266.112 477.203 261.126 C 479.015 257.802 479.663 257.501 481.924 258.932 C 483.143 259.703 483.159 261.048 482.037 268.261 C 479.837 282.404 483.708 292.000 491.613 292.000 C 495.714 292.000 497.209 289.926 499.402 281.198 C 501.151 274.235 503.158 270.970 507.154 268.584 C 511.214 266.161 514.765 266.612 518.130 269.977 C 520.924 272.770 521.094 273.387 520.901 280.012 C 520.788 283.894 520.297 287.316 519.812 287.616 C 518.242 288.587 519.313 295.959 521.340 298.135 C 522.962 299.876 524.159 300.152 528.525 299.789 C 538.231 298.985 545.672 290.104 548.076 276.458 C 549.972 265.694 545.116 249.855 536.430 238.476 C 531.517 232.040 531.829 230.763 539.000 227.974 C 551.742 223.018 568.672 208.615 577.173 195.500 C 587.365 179.775 593.966 158.155 593.965 140.500 C 593.964 133.735 591.795 119.020 589.690 111.500 C 581.466 82.116 559.859 53.516 531.689 34.726 C 501.022 14.270 459.416 4.675 422.500 9.544 M 525.668 53.109 C 537.802 61.015 547.960 74.246 552.838 88.500 C 554.989 94.784 557.372 109.691 556.610 112.098 C 556.367 112.869 555.896 114.738 555.564 116.250 C 554.912 119.228 552.068 119.991 550.165 117.699 C 549.571 116.983 549.025 112.820 548.951 108.449 C 548.878 104.077 548.145 97.800 547.324 94.500 C 543.949 80.946 532.752 65.673 520.766 58.275 C 516.478 55.628 515.000 54.133 515.000 52.441 C 515.000 50.344 516.088 49.278 518.430 49.079 C 518.942 49.036 522.199 50.849 525.668 53.109 "/></g>
<g fill="#FBAE84FF" stroke="#FBAE84FF">
<path d="M 428.949 431.101 L 419.888 449.202 425.194 454.857 C 432.335 462.467 444.562 476.173 447.182 479.504 C 448.869 481.649 449.470 481.911 450.105 480.777 C 450.544 479.992 453.901 470.937 457.564 460.655 L 464.225 441.960 461.863 439.024 C 456.039 431.786 439.427 413.127 438.755 413.067 C 438.346 413.030 433.933 421.145 428.949 431.101 "/></g>
<g fill="#FBAE84FF" stroke="#FBAE84FF">
<path d="M 369.193 276.440 C 367.279 278.335 363.488 280.498 360.193 281.574 C 357.062 282.597 354.406 283.469 354.290 283.510 C 353.880 283.658 359.058 299.232 360.268 301.491 C 361.926 304.585 383.351 332.930 384.062 332.969 C 384.564 332.997 390.947 318.402 398.569 299.800 L 401.314 293.100 398.606 289.550 C 397.117 287.598 395.134 286.000 394.199 285.999 C 391.129 285.998 380.543 280.378 376.593 276.653 C 374.463 274.644 372.671 273.037 372.610 273.083 C 372.550 273.128 371.012 274.639 369.193 276.440 "/></g>
<g fill="#FBAE84FF" stroke="#FBAE84FF">
<path d="M 445.142 307.301 C 440.664 317.366 437.000 326.041 437.000 326.579 C 437.000 327.466 443.094 335.287 452.821 346.887 C 454.844 349.300 456.860 351.888 457.300 352.637 C 457.740 353.387 458.425 354.000 458.823 354.000 C 459.221 354.000 463.355 346.343 468.008 336.984 C 474.159 324.613 476.200 319.590 475.485 318.585 C 474.943 317.825 470.000 310.885 464.500 303.164 C 459.000 295.443 454.226 289.097 453.892 289.063 C 453.558 289.028 449.620 297.235 445.142 307.301 "/></g>
<g fill="#FBAE84FF" stroke="#FBAE84FF">
<path d="M 451.225 386.935 L 442.105 404.871 454.303 418.876 C 461.011 426.579 466.725 432.908 467.000 432.940 C 467.276 432.973 470.743 423.936 474.705 412.857 L 481.910 392.715 471.705 380.928 C 466.092 374.446 461.240 369.110 460.922 369.071 C 460.605 369.032 456.241 377.071 451.225 386.935 "/></g>
<g fill="#FBAE84FF" stroke="#FBAE84FF">
<path d="M 401.480 312.253 C 398.883 318.439 395.166 327.398 393.220 332.162 L 389.681 340.823 399.590 353.359 C 405.041 360.254 409.871 365.795 410.325 365.673 C 410.778 365.550 414.482 357.812 418.557 348.475 C 422.631 339.139 426.397 330.759 426.926 329.853 C 427.667 328.584 426.841 326.862 423.328 322.353 C 420.819 319.134 416.307 313.241 413.301 309.258 C 410.295 305.275 407.467 301.789 407.018 301.511 C 406.568 301.233 404.076 306.067 401.480 312.253 "/></g>
<g fill="#FBAE84FF" stroke="#FBAE84FF">
<path d="M 432.704 335.683 C 432.432 336.133 428.558 344.775 424.096 354.888 C 417.341 370.199 416.191 373.545 417.219 374.888 C 424.904 384.917 436.444 397.953 437.072 397.313 C 437.512 396.866 441.762 388.721 446.518 379.213 L 455.165 361.926 449.333 354.761 C 446.125 350.820 441.309 344.874 438.631 341.548 C 435.954 338.222 433.636 335.358 433.482 335.183 C 433.327 335.009 432.977 335.234 432.704 335.683 "/></g>
<g fill="#FBAE84FF" stroke="#FBAE84FF">
<path d="M 404.346 399.388 L 396.367 417.477 397.933 421.705 C 399.382 425.614 412.551 442.000 414.244 442.000 C 414.654 442.000 419.071 433.847 424.059 423.883 C 433.088 405.846 433.120 405.756 431.211 403.633 C 430.156 402.460 425.475 396.955 420.809 391.399 L 412.324 381.299 404.346 399.388 "/></g>
<g fill="#FBAE84FF" stroke="#FBAE84FF">
<path d="M 473.119 343.683 C 465.908 358.053 464.915 360.634 465.958 362.304 C 468.714 366.717 484.418 383.974 485.034 383.267 C 486.694 381.360 497.922 347.699 497.252 346.637 C 496.395 345.278 481.860 327.000 481.636 327.000 C 481.556 327.000 477.723 334.507 473.119 343.683 "/></g>
<g fill="#FBAE84FF" stroke="#FBAE84FF">
<path d="M 426.946 275.603 C 425.051 277.584 421.122 280.561 418.215 282.218 C 414.480 284.347 412.501 286.258 411.465 288.738 L 410.000 292.245 417.671 302.373 C 428.261 316.353 430.403 319.000 431.127 319.000 C 431.472 319.000 432.768 316.638 434.009 313.750 C 435.249 310.863 437.289 306.250 438.543 303.500 C 439.797 300.750 442.410 294.900 444.350 290.500 L 447.877 282.500 444.279 281.247 C 440.976 280.097 435.421 276.442 432.179 273.286 C 430.485 271.638 430.925 271.443 426.946 275.603 "/></g>
<g fill="#FBAE84FF" stroke="#FBAE84FF">
<path d="M 413.844 461.384 L 411.714 465.768 415.962 479.134 C 418.298 486.485 420.862 494.525 421.658 497.000 C 424.055 504.446 427.042 507.000 433.358 507.000 C 437.930 507.000 442.379 503.235 444.305 497.736 C 445.121 495.406 446.072 492.809 446.419 491.965 C 446.767 491.116 446.253 489.551 445.267 488.465 C 444.288 487.384 437.482 479.863 430.145 471.750 C 422.808 463.638 416.617 457.000 416.389 457.000 C 416.161 457.000 415.016 458.973 413.844 461.384 "/></g>
<g fill="#FBAE84FF" stroke="#FBAE84FF">
<path d="M 509.118 275.882 C 508.015 276.985 506.833 279.601 506.492 281.694 C 505.080 290.366 500.948 297.348 496.157 299.154 C 495.186 299.521 486.000 317.335 486.000 318.853 C 486.000 320.017 499.915 338.000 500.813 337.998 C 501.191 337.998 504.356 330.037 507.847 320.308 C 513.841 303.603 514.126 302.411 512.963 298.887 C 512.164 296.467 511.989 293.281 512.465 289.827 C 513.674 281.050 513.612 274.718 512.313 274.277 C 511.659 274.056 510.222 274.778 509.118 275.882 "/></g>
<g fill="#FBAE84FF" stroke="#FBAE84FF">
<path d="M 383.154 355.963 C 381.419 359.843 380.000 363.607 380.000 364.328 C 380.000 365.049 381.998 371.868 384.440 379.481 C 386.883 387.094 389.668 395.950 390.630 399.162 C 391.592 402.373 392.657 405.000 392.997 405.000 C 393.337 405.000 394.454 403.088 395.479 400.750 C 396.505 398.413 399.519 391.606 402.178 385.625 L 407.013 374.749 397.360 362.625 C 392.051 355.956 387.392 350.142 387.008 349.704 C 386.623 349.267 384.889 352.083 383.154 355.963 "/></g>
<g fill="#513736FF" stroke="#513736FF">
<path d="M 516.250 49.662 C 515.563 49.940 515.000 51.190 515.000 52.441 C 515.000 54.137 516.492 55.636 520.864 58.335 C 532.875 65.749 543.822 80.720 547.415 94.644 C 548.287 98.024 549.000 104.346 549.000 108.694 C 549.000 116.842 549.875 119.000 553.181 119.000 C 554.311 119.000 555.182 117.995 555.564 116.250 C 555.896 114.738 556.367 112.869 556.610 112.098 C 557.372 109.691 554.989 94.784 552.838 88.500 C 547.960 74.246 537.802 61.015 525.668 53.109 C 519.361 49.000 518.590 48.718 516.250 49.662 "/></g>
<g fill="#FBAE84FF" stroke="#FBAE84FF">
<path d="M 470.500 278.769 C 468.850 279.649 465.925 280.919 464.000 281.592 C 462.075 282.264 460.500 283.275 460.500 283.839 C 460.500 284.403 464.957 291.043 470.404 298.596 L 480.309 312.328 483.774 305.454 C 486.331 300.382 486.894 298.465 485.920 298.140 C 485.195 297.898 482.868 296.080 480.750 294.100 C 477.691 291.241 476.548 289.128 475.199 283.835 L 473.500 277.170 470.500 278.769 "/></g>
<g fill="#FBAE84FF" stroke="#FBAE84FF">
<path d="M 367.006 324.152 C 367.010 324.343 368.807 330.125 371.000 337.000 C 373.193 343.875 374.990 350.063 374.994 350.750 C 375.007 353.483 376.714 351.738 378.757 346.902 L 380.911 341.803 373.956 332.803 C 370.130 327.854 367.003 323.960 367.006 324.152 "/></g>
<g fill="#FBAE84FF" stroke="#FBAE84FF">
<path d="M 405.295 445.146 C 405.604 446.051 406.421 448.674 407.110 450.973 C 408.329 455.042 408.396 455.092 409.578 452.827 C 410.650 450.773 410.437 450.089 407.763 447.000 C 406.096 445.075 404.986 444.241 405.295 445.146 "/></g>
<g fill="#FEC2C2FF" stroke="#FEC2C2FF">
<path d="M 453.360 359.659 C 455.010 361.655 455.027 362.048 453.573 364.859 C 452.708 366.532 452.020 368.261 452.044 368.700 C 452.069 369.140 453.010 367.754 454.135 365.619 L 456.182 361.738 453.878 359.619 L 451.574 357.500 453.360 359.659 "/></g>
<g fill="#FEC2C2FF" stroke="#FEC2C2FF">
<path d="M 471.441 277.555 C 469.565 279.058 469.573 279.075 471.681 278.057 C 473.555 277.152 473.922 277.320 474.295 279.252 C 474.665 281.177 474.747 281.105 474.864 278.750 C 475.019 275.616 474.212 275.335 471.441 277.555 "/></g>
<g fill="#FEC2C2FF" stroke="#FEC2C2FF">
<path d="M 415.940 456.575 C 415.843 457.084 415.816 457.299 415.882 457.054 C 415.947 456.808 417.688 458.150 419.750 460.035 L 423.500 463.462 419.808 459.556 C 417.778 457.408 416.037 456.066 415.940 456.575 "/></g>
<g fill="#FEC2C2FF" stroke="#FEC2C2FF">
<path d="M 426.000 456.000 L 430.000 460.000 426.000 456.000 L 422.000 452.000 426.000 456.000 "/></g>
<g fill="#FEC2C2FF" stroke="#FEC2C2FF">
<path d="M 493.043 329.762 C 494.944 332.105 495.825 332.879 495.000 331.480 C 494.175 330.082 492.619 328.164 491.543 327.219 C 490.466 326.273 491.141 327.418 493.043 329.762 "/></g>
</svg>
