<?xml version="1.0" encoding="utf-8"?>
<!DOCTYPE svg PUBLIC "-//W3C//DTD SVG 20010904//EN" "http://www.w3.org/TR/2001/REC-SVG-20010904/DTD/svg10.dtd">
<svg version="1.0" xmlns="http://www.w3.org/2000/svg" width="602pt" height="602pt" viewBox="123 224 279 263" preserveAspectRatio="xMidYMid meet">
<g fill="#513736FF" stroke="#513736FF">
<path d="M 251.698 225.387 C 247.179 227.067 241.342 230.987 237.729 234.769 C 236.294 236.271 229.980 247.850 223.698 260.500 C 211.241 285.584 207.856 290.067 198.941 293.298 C 196.499 294.183 184.375 296.336 172.000 298.082 C 145.810 301.776 140.540 303.431 133.378 310.204 C 125.912 317.265 123.522 323.185 123.567 334.500 C 123.623 348.269 124.700 349.975 147.546 372.500 C 158.146 382.950 167.606 393.075 168.570 395.000 C 169.534 396.925 170.528 401.673 170.780 405.550 C 171.218 412.298 170.721 415.937 166.210 439.000 C 163.841 451.109 163.925 468.427 166.375 473.000 C 171.353 482.295 178.127 488.195 187.428 491.336 C 197.105 494.604 204.605 493.161 220.000 485.070 C 252.475 468.002 255.559 466.650 262.202 466.579 C 269.147 466.504 275.124 468.409 284.000 473.528 C 295.361 480.080 313.691 489.322 318.907 491.128 C 328.750 494.536 339.136 492.838 348.128 486.349 C 359.844 477.893 364.176 464.763 360.945 447.500 C 359.895 441.890 357.669 429.031 355.926 418.508 C 354.206 408.120 355.096 398.385 358.213 393.493 C 359.612 391.297 368.946 381.491 378.955 371.703 C 400.601 350.535 402.515 347.506 402.475 334.500 C 402.446 325.061 400.327 319.805 393.483 312.192 C 386.030 303.903 380.200 301.585 360.500 299.081 C 337.383 296.143 326.062 293.707 320.571 290.489 C 316.141 287.893 312.000 283.700 312.000 281.811 C 312.000 281.305 307.398 271.578 301.774 260.196 C 290.839 238.064 286.779 232.418 278.144 227.329 C 274.180 224.994 272.182 224.547 264.500 224.283 C 258.504 224.077 254.231 224.445 251.698 225.387 M 276.261 233.307 C 278.752 234.767 282.022 237.426 283.530 239.218 C 285.037 241.009 291.212 252.455 297.251 264.652 C 303.582 277.438 309.650 288.333 311.581 290.380 C 318.341 297.546 326.498 300.953 340.500 302.458 C 343.800 302.813 348.975 303.514 352.000 304.015 C 355.025 304.517 362.220 305.665 367.989 306.566 C 380.137 308.462 384.190 310.255 389.415 316.038 C 394.534 321.703 396.310 326.284 396.381 334.000 C 396.480 344.758 394.645 347.498 373.455 368.229 C 345.594 395.486 345.476 395.841 351.919 433.111 C 354.163 446.097 356.000 458.279 356.000 460.183 C 356.000 474.176 343.205 486.250 328.376 486.250 C 322.091 486.250 321.074 485.881 306.646 478.375 C 270.556 459.598 272.755 460.500 263.047 460.500 C 253.429 460.500 254.601 460.018 216.574 479.615 C 204.365 485.907 203.279 486.274 196.981 486.235 C 186.013 486.166 176.619 480.042 172.079 470.000 C 169.648 464.625 169.466 457.711 171.459 446.500 C 172.241 442.100 174.070 431.750 175.523 423.500 C 180.161 397.172 179.192 394.890 151.967 368.000 C 134.109 350.361 132.060 347.989 130.497 343.145 C 127.360 333.422 129.968 322.504 137.192 315.115 C 143.397 308.768 146.653 307.796 174.500 303.986 C 194.838 301.203 199.736 300.156 205.000 297.467 C 213.370 293.191 217.012 288.102 229.310 263.500 C 241.463 239.189 243.918 235.782 252.000 232.016 C 258.509 228.984 269.920 229.591 276.261 233.307 "/></g>
<g fill="#F8BA43FF" stroke="#F8BA43FF">
<path d="M 252.196 232.118 C 244.918 235.483 241.078 240.550 231.500 259.434 C 226.550 269.193 222.613 277.588 222.750 278.089 C 222.888 278.590 222.523 279.000 221.941 279.000 C 221.359 279.000 221.160 279.450 221.500 280.000 C 221.840 280.550 221.685 281.000 221.157 281.000 C 220.628 281.000 219.756 282.238 219.219 283.750 C 217.213 289.397 204.789 299.488 198.500 300.579 C 196.096 300.995 191.190 301.808 186.750 302.525 C 184.963 302.813 181.925 303.230 180.000 303.450 C 178.075 303.671 174.925 304.146 173.000 304.507 C 169.009 305.254 164.082 305.945 159.000 306.470 C 155.575 306.824 152.654 307.338 148.363 308.342 C 145.968 308.902 142.225 310.908 140.307 312.661 C 139.608 313.299 138.690 313.974 138.268 314.161 C 136.938 314.748 132.050 321.741 130.914 324.682 C 129.449 328.473 129.096 338.903 130.328 342.000 C 130.875 343.375 131.250 344.838 131.161 345.250 C 131.073 345.663 131.477 346.000 132.059 346.000 C 132.641 346.000 132.840 346.450 132.500 347.000 C 132.160 347.550 132.359 348.000 132.941 348.000 C 133.523 348.000 134.000 348.569 134.000 349.265 C 134.000 350.387 145.280 361.716 162.629 378.017 C 169.224 384.215 172.577 388.136 172.232 389.250 C 172.104 389.663 172.420 390.000 172.933 390.000 C 173.749 390.000 175.051 392.600 174.935 394.000 C 174.912 394.275 175.566 396.109 176.387 398.076 C 177.858 401.596 177.910 412.292 176.491 419.500 C 176.167 421.150 175.720 423.850 175.498 425.500 C 175.277 427.150 174.833 429.625 174.512 431.000 C 173.789 434.100 173.004 438.562 172.488 442.500 C 172.272 444.150 171.808 446.625 171.457 448.000 C 171.105 449.375 170.659 453.843 170.466 457.929 C 170.188 463.790 170.540 466.294 172.133 469.792 C 174.304 474.558 179.863 480.343 185.195 483.386 C 191.693 487.094 202.732 487.187 208.236 483.581 C 209.569 482.708 210.961 482.295 211.330 482.663 C 211.698 483.032 212.000 482.890 212.000 482.347 C 212.000 481.805 215.375 479.878 219.500 478.065 C 223.625 476.253 227.000 474.345 227.000 473.826 C 227.000 473.307 227.450 473.160 228.000 473.500 C 228.550 473.840 229.000 473.693 229.000 473.174 C 229.000 472.655 232.375 470.747 236.500 468.935 C 240.625 467.122 244.000 465.195 244.000 464.653 C 244.000 464.110 244.282 463.949 244.627 464.293 C 244.972 464.638 246.659 464.170 248.377 463.252 C 250.095 462.335 251.838 461.509 252.250 461.417 C 252.663 461.325 253.113 461.159 253.250 461.048 C 253.503 460.844 255.082 460.529 260.500 459.603 C 262.150 459.321 265.525 459.528 268.000 460.064 C 274.056 461.375 274.060 461.376 277.623 463.265 C 279.341 464.175 281.028 464.638 281.373 464.293 C 281.718 463.949 282.000 464.154 282.000 464.751 C 282.000 465.347 284.025 466.608 286.500 467.553 C 288.975 468.498 291.000 469.687 291.000 470.195 C 291.000 470.703 291.450 470.840 292.000 470.500 C 292.550 470.160 293.000 470.301 293.000 470.813 C 293.000 471.325 297.275 473.682 302.500 476.052 C 307.725 478.422 312.000 480.756 312.000 481.239 C 312.000 481.723 312.450 481.840 313.000 481.500 C 313.550 481.160 314.000 481.385 314.000 482.000 C 314.000 482.615 314.412 482.864 314.915 482.553 C 315.418 482.242 315.988 482.465 316.183 483.048 C 316.377 483.632 317.428 484.275 318.518 484.478 C 319.608 484.681 320.500 484.912 320.500 484.992 C 320.500 485.251 326.441 486.208 328.500 486.281 C 333.385 486.453 343.000 483.453 343.000 481.756 C 343.000 481.340 343.402 481.000 343.894 481.000 C 345.165 481.000 351.000 475.401 351.000 474.182 C 351.000 473.624 351.454 473.015 352.010 472.830 C 352.565 472.645 353.209 471.512 353.440 470.312 C 353.671 469.112 354.289 467.313 354.812 466.315 C 355.777 464.476 355.594 454.990 354.488 449.500 C 354.156 447.850 353.733 445.375 353.548 444.000 C 353.363 442.625 352.890 439.700 352.497 437.500 C 351.713 433.106 351.148 429.817 350.525 426.000 C 350.300 424.625 349.896 422.375 349.628 421.000 C 348.436 414.898 347.654 409.307 347.669 407.000 C 347.693 403.250 349.070 396.647 350.087 395.408 C 350.579 394.807 350.687 394.020 350.325 393.658 C 349.963 393.296 350.218 393.000 350.892 393.000 C 351.566 393.000 351.840 392.550 351.500 392.000 C 351.160 391.450 351.328 391.000 351.874 391.000 C 352.419 391.000 353.171 390.038 353.544 388.862 C 354.192 386.818 365.447 375.207 382.550 358.937 C 392.451 349.518 392.685 349.208 395.129 342.226 C 397.077 336.662 397.013 330.271 394.958 325.000 C 394.851 324.725 394.816 324.163 394.882 323.750 C 394.947 323.338 394.523 323.000 393.941 323.000 C 393.359 323.000 393.160 322.550 393.500 322.000 C 393.840 321.450 393.641 321.000 393.059 321.000 C 392.477 321.000 392.000 320.497 392.000 319.883 C 392.000 318.529 384.997 311.604 382.013 310.007 C 380.835 309.376 378.887 308.662 377.685 308.420 C 376.483 308.178 374.150 307.706 372.500 307.372 C 370.850 307.038 368.375 306.635 367.000 306.477 C 359.841 305.652 355.247 304.989 353.000 304.454 C 351.625 304.128 348.925 303.693 347.000 303.488 C 339.120 302.651 334.366 301.997 332.000 301.425 C 330.625 301.093 328.722 300.720 327.770 300.597 C 326.819 300.475 325.732 300.065 325.354 299.687 C 324.976 299.309 323.842 299.000 322.833 299.000 C 321.825 299.000 321.000 298.523 321.000 297.941 C 321.000 297.359 320.550 297.160 320.000 297.500 C 319.450 297.840 319.000 297.641 319.000 297.059 C 319.000 296.477 318.562 296.000 318.026 296.000 C 316.758 296.000 308.000 287.242 308.000 285.974 C 308.000 285.438 307.475 285.000 306.833 285.000 C 306.192 285.000 305.945 284.721 306.286 284.381 C 306.626 284.040 306.247 283.104 305.443 282.300 C 304.639 281.496 304.237 280.425 304.550 279.919 C 304.862 279.414 304.566 279.000 303.892 279.000 C 303.218 279.000 302.945 278.721 303.286 278.381 C 303.626 278.040 303.247 277.104 302.443 276.300 C 301.639 275.496 301.237 274.425 301.550 273.919 C 301.862 273.414 301.615 273.000 301.000 273.000 C 300.385 273.000 300.129 272.601 300.430 272.113 C 300.731 271.626 300.313 270.675 299.500 270.000 C 298.687 269.325 298.269 268.374 298.570 267.887 C 298.871 267.399 298.566 267.000 297.892 267.000 C 297.218 267.000 296.947 266.719 297.290 266.376 C 297.988 265.678 294.263 257.842 292.780 256.888 C 292.257 256.552 291.862 255.877 291.903 255.388 C 292.046 253.658 290.852 251.000 289.933 251.000 C 289.420 251.000 289.107 250.663 289.238 250.250 C 289.625 249.027 286.833 243.000 285.879 243.000 C 285.395 243.000 285.000 242.585 285.000 242.077 C 285.000 240.959 279.544 235.403 276.468 233.387 C 271.233 229.957 258.330 229.282 252.196 232.118 "/></g>
</svg>
