<?xml version="1.0" encoding="utf-8"?>
<!DOCTYPE svg PUBLIC "-//W3C//DTD SVG 20010904//EN" "http://www.w3.org/TR/2001/REC-SVG-20010904/DTD/svg10.dtd">
<svg version="1.0" xmlns="http://www.w3.org/2000/svg" width="602pt" height="543pt" viewBox="6 2 236 351" preserveAspectRatio="xMidYMid meet">
<g fill="#513736FF" stroke="#513736FF">
<path d="M 130.444 4.311 C 124.793 7.013 118.630 13.560 116.952 18.645 C 116.343 20.490 115.477 22.000 115.027 22.000 C 114.577 22.000 112.820 19.837 111.123 17.192 C 109.427 14.548 107.017 11.428 105.769 10.259 C 101.893 6.626 92.913 3.020 87.718 3.010 C 81.691 2.997 71.979 6.231 66.293 10.142 C 58.030 15.828 52.505 27.409 53.139 37.717 C 53.282 40.037 53.177 42.156 52.906 42.427 C 52.636 42.698 49.508 41.999 45.957 40.875 C 38.281 38.445 31.254 38.760 22.921 41.908 C 15.774 44.608 10.402 49.273 6.000 56.600 C 2.694 62.104 2.506 62.899 2.601 70.963 C 2.736 82.367 10.228 111.913 16.776 126.865 C 24.439 144.364 35.078 158.371 48.194 168.231 C 64.328 180.360 80.718 185.958 100.172 185.985 L 110.845 186.000 111.890 189.250 C 112.465 191.038 113.796 196.325 114.848 201.000 C 115.900 205.675 118.791 217.375 121.273 227.000 C 127.124 249.692 131.303 268.031 130.749 268.584 C 130.508 268.825 127.533 265.896 124.137 262.076 C 113.751 250.389 101.364 242.721 87.060 239.123 C 65.347 233.661 40.697 240.030 26.695 254.720 C 18.127 263.709 17.682 264.542 18.428 270.167 C 22.139 298.144 49.387 319.169 82.000 319.222 C 98.267 319.248 112.014 315.649 128.707 306.994 C 134.027 304.236 138.694 302.321 139.080 302.740 C 139.766 303.485 147.362 334.868 150.597 350.326 C 151.619 355.212 152.802 358.370 153.744 358.732 C 155.329 359.340 174.891 354.250 181.151 351.601 C 185.475 349.771 186.177 354.309 175.497 315.000 C 164.857 275.839 163.219 269.615 162.834 266.876 C 162.501 264.506 162.522 264.501 171.500 264.828 C 186.921 265.390 201.650 260.942 216.222 251.322 C 225.446 245.232 231.767 237.772 237.920 225.714 C 242.363 217.008 243.558 213.386 246.011 201.187 C 247.594 193.315 248.660 186.277 248.380 185.547 C 248.100 184.818 245.312 183.301 242.185 182.176 C 230.583 178.003 223.624 176.684 213.000 176.644 C 201.355 176.600 192.428 178.736 181.773 184.115 C 170.619 189.745 159.841 202.940 154.503 217.500 C 152.257 223.626 151.361 224.756 150.658 222.351 C 147.942 213.060 142.640 193.655 140.667 185.784 L 138.231 176.069 145.865 170.351 C 164.875 156.114 176.924 138.356 183.144 115.408 C 184.891 108.965 185.305 104.535 185.376 91.500 C 185.476 73.390 184.397 66.539 177.843 43.691 C 169.375 14.173 160.083 3.288 142.500 2.290 C 136.637 1.958 134.679 2.286 130.444 4.311 M 147.307 8.059 C 149.613 8.641 153.629 10.664 156.231 12.555 C 160.134 15.390 161.733 17.611 165.370 25.246 C 169.265 33.424 175.106 51.947 177.905 65.000 C 184.348 95.041 178.922 124.423 162.948 146.000 C 151.330 161.693 136.295 172.432 117.957 178.136 C 108.381 181.115 90.999 181.333 81.000 178.599 C 56.025 171.772 35.905 154.439 24.008 129.504 C 18.393 117.736 16.312 111.535 11.418 92.000 C 6.779 73.485 6.494 66.199 10.165 60.000 C 17.934 46.881 31.557 41.703 45.828 46.443 C 50.627 48.037 55.442 51.803 59.839 57.402 C 60.576 58.340 61.701 58.933 62.339 58.721 C 64.322 58.060 64.240 55.128 62.116 50.727 C 54.244 34.417 59.023 19.340 74.500 11.656 C 85.013 6.437 94.093 7.279 101.564 14.166 C 106.354 18.581 111.692 28.223 112.645 34.181 C 113.319 38.396 114.993 40.323 117.234 39.464 C 118.229 39.082 118.915 36.846 119.308 32.697 C 120.461 20.514 125.050 12.821 133.500 8.900 C 138.098 6.766 141.394 6.566 147.307 8.059 M 79.911 243.055 C 94.559 245.432 104.677 250.802 116.546 262.500 C 123.730 269.581 132.025 281.309 130.749 282.584 C 130.493 282.840 127.478 281.722 124.048 280.100 C 115.067 275.853 102.219 273.833 86.512 274.198 C 74.727 274.472 73.491 274.674 73.164 276.380 C 72.966 277.414 73.410 278.645 74.152 279.115 C 74.893 279.585 81.423 279.976 88.662 279.985 C 104.964 280.004 115.333 281.885 124.500 286.489 C 133.892 291.205 137.734 294.411 136.204 296.254 C 133.907 299.022 115.289 307.906 106.000 310.667 C 97.631 313.154 94.893 313.490 83.000 313.495 C 70.825 313.500 68.639 313.218 60.731 310.626 C 42.526 304.660 30.183 292.446 24.999 275.267 L 22.816 268.034 24.981 264.531 C 30.496 255.608 45.355 246.335 58.500 243.613 C 67.103 241.831 71.638 241.713 79.911 243.055 M 229.581 183.952 C 240.709 186.620 243.073 187.800 242.498 190.402 C 242.244 191.556 241.312 196.550 240.429 201.500 C 234.761 233.254 213.261 254.627 182.500 259.086 C 173.869 260.338 164.000 259.424 164.000 257.373 C 164.000 254.886 169.702 244.688 173.880 239.701 C 181.459 230.655 189.646 225.059 203.327 219.573 C 208.372 217.549 208.148 214.449 202.967 214.602 C 190.920 214.958 169.784 231.742 161.886 247.224 C 160.826 249.301 159.556 251.000 159.063 251.000 C 157.944 251.000 155.994 242.162 156.017 237.201 C 156.051 230.018 158.941 219.931 163.489 211.126 C 170.993 196.597 181.901 187.896 198.000 183.600 C 205.943 181.480 219.921 181.635 229.581 183.952 M 136.598 191.513 C 138.303 198.106 141.599 210.475 143.921 219.000 C 147.956 233.811 151.939 248.562 165.118 297.500 C 168.376 309.600 172.672 325.488 174.664 332.807 C 176.800 340.654 177.919 346.481 177.390 347.010 C 176.008 348.392 157.661 353.067 156.885 352.235 C 156.507 351.831 155.467 347.900 154.573 343.500 C 151.810 329.906 142.283 289.741 129.366 237.236 C 122.565 209.590 117.000 186.374 117.000 185.644 C 117.000 184.914 118.913 183.747 121.250 183.051 C 123.588 182.354 126.625 181.170 128.000 180.419 C 132.608 177.903 133.312 178.811 136.598 191.513 "/></g>
<g fill="#FED966FF" stroke="#FED966FF">
<path d="M 133.500 8.900 C 125.050 12.821 120.461 20.514 119.308 32.697 C 118.915 36.846 118.229 39.082 117.234 39.464 C 114.993 40.323 113.319 38.396 112.645 34.181 C 111.692 28.223 106.354 18.581 101.564 14.166 C 94.093 7.279 85.013 6.437 74.500 11.656 C 59.023 19.340 54.244 34.417 62.116 50.727 C 64.240 55.128 64.322 58.060 62.339 58.721 C 61.701 58.933 60.576 58.340 59.839 57.402 C 55.442 51.803 50.627 48.037 45.828 46.443 C 31.557 41.703 17.934 46.881 10.165 60.000 C 6.494 66.199 6.779 73.485 11.418 92.000 C 16.312 111.535 18.393 117.736 24.008 129.504 C 35.905 154.439 56.025 171.772 81.000 178.599 C 90.999 181.333 108.381 181.115 117.957 178.136 C 136.295 172.432 151.330 161.693 162.948 146.000 C 178.922 124.423 184.348 95.041 177.905 65.000 C 175.106 51.947 169.265 33.424 165.370 25.246 C 161.733 17.611 160.134 15.390 156.231 12.555 C 148.517 6.950 140.485 5.659 133.500 8.900 "/></g>
<g fill="#5CC199FF" stroke="#5CC199FF">
<path d="M 56.800 244.549 C 46.837 246.965 38.084 251.882 30.618 259.258 L 23.736 266.057 24.363 270.779 C 25.182 276.935 30.875 288.440 35.964 294.222 C 48.093 308.000 71.044 315.779 91.527 313.053 C 96.217 312.429 103.079 310.992 106.777 309.861 C 114.255 307.572 130.171 300.117 133.932 297.141 L 136.364 295.217 133.432 292.616 C 124.940 285.083 110.659 281.145 88.769 280.300 C 74.504 279.749 72.981 279.516 72.436 277.798 C 72.105 276.756 72.427 275.190 73.151 274.318 C 74.288 272.948 76.590 272.807 89.984 273.283 C 106.009 273.852 116.080 275.730 125.532 279.911 C 127.989 280.998 130.000 281.540 130.000 281.115 C 130.000 278.994 122.737 269.624 115.559 262.485 C 99.111 246.127 77.499 239.530 56.800 244.549 "/></g>
<g fill="#5CC199FF" stroke="#5CC199FF">
<path d="M 201.030 183.532 C 196.612 184.331 190.577 186.398 186.255 188.592 C 168.152 197.780 155.279 221.257 157.370 241.266 C 158.364 250.774 159.123 251.049 163.536 243.502 C 169.111 233.970 180.456 223.520 191.046 218.163 C 195.746 215.785 201.146 213.763 203.046 213.670 C 206.218 213.514 206.500 213.733 206.500 216.355 C 206.500 218.936 205.908 219.432 200.307 221.537 C 187.124 226.493 174.043 238.039 167.494 250.500 L 163.814 257.500 168.657 258.412 C 174.748 259.560 188.347 257.951 196.352 255.137 C 211.085 249.957 225.884 237.105 232.439 223.796 C 235.848 216.874 242.000 195.434 242.000 190.475 C 242.000 188.527 241.015 187.835 235.750 186.084 C 229.538 184.018 217.235 182.008 211.500 182.121 C 209.850 182.154 205.139 182.789 201.030 183.532 "/></g>
<g fill="#5CC199FF" stroke="#5CC199FF">
<path d="M 124.000 182.587 C 120.314 183.895 117.544 185.458 117.602 186.197 C 117.659 186.914 121.803 203.925 126.812 224.000 C 135.870 260.307 142.047 286.051 152.004 329.000 C 154.873 341.375 157.346 351.638 157.500 351.806 C 157.748 352.078 162.253 351.028 174.171 347.922 L 177.841 346.966 174.559 334.733 C 171.204 322.230 168.775 313.261 159.465 279.000 C 156.550 268.275 151.402 249.150 148.025 236.500 C 136.030 191.577 132.653 180.002 131.583 180.140 C 130.988 180.218 127.575 181.319 124.000 182.587 "/></g>
<g fill="#5D977CFF" stroke="#5D977CFF">
<path d="M 178.500 235.449 L 174.500 239.559 178.500 235.449 L 182.500 231.338 178.500 235.449 "/></g>
</svg>
