<?xml version="1.0" encoding="utf-8"?>
<!DOCTYPE svg PUBLIC "-//W3C//DTD SVG 20010904//EN" "http://www.w3.org/TR/2001/REC-SVG-20010904/DTD/svg10.dtd">
<svg version="1.0" xmlns="http://www.w3.org/2000/svg" width="434pt" height="602pt" viewBox="-5 17 158 485" preserveAspectRatio="xMidYMid meet">
<g fill="#513736FF" stroke="#513736FF">
<path d="M 65.500 17.419 C 39.711 24.726 23.082 39.872 14.320 64.036 C 11.862 70.814 11.613 72.787 11.613 85.500 C 11.613 98.174 11.867 100.198 14.288 106.871 C 22.028 128.198 35.977 142.874 55.780 150.527 C 59.784 152.074 62.709 153.658 62.280 154.047 C 61.851 154.436 59.025 155.552 56.000 156.526 C 33.501 163.776 15.344 183.972 10.462 207.179 C 3.653 239.548 18.839 270.793 48.212 284.852 C 53.554 287.408 57.941 289.817 57.962 290.205 C 57.983 290.592 56.313 291.205 54.250 291.566 C 42.065 293.698 26.803 303.687 16.924 315.998 C 3.624 332.570 -1.113 354.455 3.991 375.747 C 9.390 398.265 26.972 417.444 49.000 424.843 L 54.500 426.690 55.000 464.095 L 55.500 501.500 65.500 501.500 L 75.500 501.500 75.762 465.313 C 76.055 424.896 75.238 428.893 83.500 427.501 C 89.675 426.460 100.511 422.427 106.806 418.826 C 114.204 414.594 126.646 402.129 131.137 394.451 C 133.083 391.124 135.941 384.824 137.488 380.451 C 140.048 373.214 140.298 371.288 140.273 359.000 C 140.248 347.051 139.946 344.653 137.641 338.129 C 130.507 317.937 116.697 302.748 98.485 295.065 C 95.141 293.654 92.202 292.096 91.953 291.602 C 91.704 291.108 94.200 289.960 97.500 289.051 C 105.443 286.862 116.526 280.934 122.993 275.414 C 130.822 268.730 135.560 262.502 140.546 252.337 C 144.192 244.906 145.330 241.213 146.572 232.789 C 147.952 223.428 147.950 221.373 146.544 211.952 C 144.422 197.728 138.553 185.694 128.659 175.278 C 121.111 167.332 109.712 159.602 101.680 156.984 C 96.720 155.367 94.220 153.000 97.471 153.000 C 100.060 153.000 111.960 147.644 118.093 143.719 C 142.515 128.088 155.003 97.420 148.129 69.951 C 144.744 56.422 139.896 47.967 129.500 37.465 C 114.805 22.620 102.297 17.009 82.500 16.382 C 74.134 16.118 68.986 16.432 65.500 17.419 M 93.303 158.611 C 114.510 163.358 132.416 179.797 140.281 201.741 C 143.139 209.715 143.420 211.575 143.420 222.500 C 143.420 233.380 143.133 235.302 140.336 243.101 C 132.108 266.046 114.564 281.753 91.821 286.538 C 57.749 293.705 25.115 274.027 14.964 240.195 C 13.051 233.820 12.829 231.208 13.219 219.695 C 13.611 208.104 14.012 205.649 16.512 199.500 C 25.043 178.514 40.655 164.410 61.362 158.981 C 70.332 156.630 83.756 156.474 93.303 158.611 M 97.004 22.068 C 115.107 27.085 131.078 40.034 138.854 56.000 C 145.730 70.117 147.578 84.333 144.469 99.185 C 141.790 111.980 136.095 122.338 126.246 132.329 C 114.409 144.338 101.020 150.043 82.974 150.768 C 69.537 151.307 62.507 149.897 51.468 144.448 C 34.473 136.059 21.091 119.359 16.600 100.936 C 14.433 92.047 14.571 78.285 16.916 69.255 C 21.407 51.967 33.048 36.957 49.133 27.715 C 61.982 20.332 82.153 17.953 97.004 22.068 M 86.000 295.148 C 93.106 296.463 106.202 302.796 112.226 307.830 C 122.873 316.729 129.254 326.258 134.104 340.500 C 137.395 350.166 137.476 367.309 134.278 377.171 C 130.141 389.923 123.235 400.948 114.964 408.000 C 87.534 431.389 49.568 429.957 24.494 404.589 C -4.549 375.204 1.218 325.902 36.307 303.602 C 50.956 294.292 66.807 291.596 86.000 295.148 M 70.763 429.554 C 71.755 429.863 71.970 437.203 71.763 463.724 L 71.500 497.500 65.250 497.798 L 59.000 498.095 59.000 463.013 L 59.000 427.931 64.250 428.546 C 67.138 428.885 70.069 429.338 70.763 429.554 "/></g>
<g fill="#EAD048FF" stroke="#EAD048FF">
<path d="M 64.237 158.528 C 45.466 162.579 27.637 176.594 19.442 193.742 C 15.109 202.807 13.350 210.261 13.128 220.500 C 12.689 240.696 19.720 257.236 34.504 270.782 C 55.047 289.606 85.939 293.000 110.202 279.100 C 126.118 269.981 136.496 256.359 141.134 238.500 C 143.691 228.649 143.188 211.055 140.089 202.000 C 133.437 182.562 117.461 166.634 98.254 160.291 C 88.905 157.203 73.966 156.429 64.237 158.528 M 99.094 172.959 C 105.282 175.290 112.158 180.144 115.766 184.729 C 119.554 189.543 122.852 196.136 122.278 197.750 C 121.390 200.247 118.356 198.970 116.643 195.379 C 111.727 185.069 102.236 177.895 91.007 176.001 C 84.139 174.843 81.651 175.009 73.156 177.195 C 69.646 178.098 68.648 178.049 67.963 176.940 C 66.368 174.359 70.405 172.242 80.000 170.626 C 84.233 169.913 94.262 171.138 99.094 172.959 "/></g>
<g fill="#F99B9CFF" stroke="#F99B9CFF">
<path d="M 65.000 22.279 C 61.975 23.257 58.600 24.236 57.500 24.454 C 56.400 24.673 55.275 24.938 55.000 25.044 C 54.725 25.150 54.163 25.184 53.750 25.118 C 53.338 25.053 53.000 25.477 53.000 26.059 C 53.000 26.641 52.550 26.840 52.000 26.500 C 51.450 26.160 51.000 26.350 51.000 26.922 C 51.000 27.494 49.875 28.244 48.500 28.589 C 47.125 28.934 46.000 29.645 46.000 30.167 C 46.000 30.690 45.550 30.840 45.000 30.500 C 44.450 30.160 44.000 30.373 44.000 30.972 C 44.000 31.572 43.213 32.362 42.250 32.728 C 41.288 33.094 39.661 34.454 38.636 35.750 C 37.611 37.045 36.538 37.872 36.253 37.586 C 35.967 37.301 34.441 38.852 32.861 41.034 C 31.280 43.215 29.540 45.000 28.994 45.000 C 28.447 45.000 28.000 45.653 28.000 46.450 C 28.000 47.248 27.213 48.341 26.250 48.880 C 25.288 49.419 24.607 50.113 24.737 50.423 C 25.072 51.223 21.755 58.000 21.028 58.000 C 20.697 58.000 20.350 59.006 20.257 60.235 C 20.165 61.465 19.616 62.628 19.038 62.821 C 18.460 63.013 18.242 63.582 18.553 64.085 C 18.864 64.588 18.765 65.563 18.334 66.250 C 17.903 66.938 17.401 68.590 17.218 69.923 C 17.035 71.256 16.523 73.056 16.080 73.923 C 15.318 75.413 15.513 94.203 16.335 98.500 C 16.545 99.600 17.234 101.775 17.866 103.334 C 18.497 104.893 18.783 106.542 18.501 106.999 C 18.219 107.455 18.460 107.987 19.038 108.179 C 19.616 108.372 20.165 109.535 20.257 110.765 C 20.350 111.994 20.806 113.000 21.272 113.000 C 21.737 113.000 21.840 113.450 21.500 114.000 C 21.160 114.550 21.286 115.000 21.780 115.000 C 22.576 115.000 24.149 117.651 25.043 120.500 C 25.216 121.050 25.839 122.017 26.429 122.649 C 27.018 123.281 28.850 125.499 30.500 127.577 C 32.150 129.656 34.236 132.003 35.136 132.792 C 36.036 133.581 37.922 135.253 39.326 136.508 C 40.730 137.762 42.120 138.546 42.416 138.251 C 42.711 137.955 43.236 138.451 43.581 139.351 C 43.927 140.252 44.544 140.782 44.953 140.529 C 45.362 140.276 46.617 140.927 47.742 141.974 C 48.867 143.022 50.060 143.607 50.394 143.273 C 50.727 142.940 51.000 143.218 51.000 143.892 C 51.000 144.566 51.450 144.840 52.000 144.500 C 52.550 144.160 53.000 144.434 53.000 145.108 C 53.000 145.782 53.284 146.049 53.631 145.702 C 53.979 145.355 55.216 145.601 56.381 146.250 C 57.547 146.898 58.800 147.445 59.167 147.465 C 59.533 147.484 60.140 147.806 60.514 148.181 C 60.889 148.556 61.827 148.620 62.598 148.324 C 63.369 148.028 64.000 148.293 64.000 148.912 C 64.000 149.614 64.942 149.802 66.500 149.411 C 67.875 149.066 69.000 149.199 69.000 149.708 C 69.000 150.810 89.692 150.649 92.293 149.527 C 93.279 149.101 94.363 149.030 94.701 149.368 C 95.039 149.706 95.873 149.521 96.553 148.956 C 97.233 148.392 98.174 148.017 98.645 148.124 C 99.115 148.230 100.400 147.978 101.500 147.563 C 102.600 147.148 104.175 146.555 105.000 146.245 C 105.825 145.936 106.838 145.754 107.250 145.841 C 107.663 145.929 108.000 145.523 108.000 144.941 C 108.000 144.359 108.450 144.160 109.000 144.500 C 109.550 144.840 110.000 144.566 110.000 143.892 C 110.000 143.218 110.273 142.940 110.606 143.273 C 110.940 143.607 112.133 143.022 113.258 141.974 C 114.383 140.927 115.638 140.276 116.047 140.529 C 116.456 140.782 117.073 140.252 117.419 139.351 C 117.764 138.451 118.312 137.978 118.635 138.301 C 118.958 138.625 120.337 137.564 121.700 135.945 C 123.063 134.325 124.782 133.000 125.522 133.000 C 126.261 133.000 127.147 132.112 127.492 131.026 C 127.836 129.940 129.104 128.236 130.309 127.239 C 131.514 126.242 133.146 124.318 133.935 122.963 C 137.291 117.205 141.692 108.333 142.237 106.227 C 142.560 104.977 142.893 103.748 142.977 103.496 C 145.523 95.821 146.483 80.710 144.833 74.293 C 144.297 72.207 143.728 69.825 143.568 69.000 C 143.408 68.175 142.956 66.748 142.562 65.828 C 142.168 64.909 141.714 63.559 141.552 62.828 C 140.855 59.676 137.620 53.000 136.789 53.000 C 136.290 53.000 136.160 52.550 136.500 52.000 C 136.840 51.450 136.641 51.000 136.059 51.000 C 135.477 51.000 135.000 50.373 135.000 49.607 C 135.000 48.841 134.261 47.930 133.357 47.583 C 132.453 47.237 131.932 46.735 132.198 46.469 C 132.722 45.945 120.042 33.000 119.005 33.000 C 118.660 33.000 117.505 32.207 116.439 31.237 C 115.372 30.267 112.475 28.592 110.000 27.515 C 107.525 26.437 105.169 25.093 104.765 24.528 C 104.361 23.962 104.024 23.893 104.015 24.372 C 104.007 24.852 103.325 24.685 102.500 24.000 C 101.675 23.315 101.000 23.090 101.000 23.500 C 101.000 23.910 100.325 23.685 99.500 23.000 C 98.675 22.315 98.000 22.004 98.000 22.308 C 98.000 22.612 96.538 22.413 94.750 21.865 C 88.850 20.059 71.102 20.305 65.000 22.279 M 93.586 36.139 C 93.890 36.630 94.577 36.762 95.113 36.430 C 95.649 36.099 96.743 36.372 97.544 37.036 C 98.345 37.701 99.000 37.954 99.000 37.599 C 99.000 37.244 100.048 37.641 101.330 38.480 C 102.611 39.320 103.961 39.705 104.330 39.337 C 104.698 38.968 105.000 39.192 105.000 39.833 C 105.000 40.475 105.374 40.888 105.831 40.750 C 107.673 40.196 121.000 51.786 121.000 53.942 C 121.000 54.524 121.450 55.000 122.000 55.000 C 122.550 55.000 123.000 55.482 123.000 56.071 C 123.000 56.661 123.679 57.822 124.509 58.652 C 125.339 59.482 125.763 60.575 125.450 61.081 C 125.138 61.586 125.434 62.000 126.108 62.000 C 126.782 62.000 127.037 62.296 126.675 62.658 C 126.313 63.020 126.514 63.914 127.120 64.645 C 128.311 66.080 127.518 71.000 126.096 71.000 C 124.987 71.000 121.667 65.964 121.667 64.281 C 121.667 63.576 121.394 63.000 121.061 63.000 C 120.727 63.000 119.586 61.386 118.523 59.414 C 115.631 54.042 109.716 48.604 103.260 45.378 C 100.092 43.795 97.349 42.160 97.165 41.744 C 96.980 41.328 96.418 41.242 95.915 41.553 C 95.412 41.864 94.438 41.754 93.750 41.309 C 92.138 40.266 74.000 40.045 74.000 41.069 C 74.000 42.631 67.503 41.366 67.190 39.742 C 66.856 38.013 70.451 35.543 71.952 36.470 C 72.452 36.779 73.097 36.651 73.385 36.186 C 74.088 35.048 92.885 35.005 93.586 36.139 "/></g>
<g fill="#5FA9AAFF" stroke="#5FA9AAFF">
<path d="M 56.500 295.596 C 34.430 300.530 14.933 319.347 8.420 342.000 C 5.502 352.150 5.900 368.179 9.326 378.500 C 12.807 388.987 16.653 395.487 24.074 403.419 C 36.064 416.238 50.587 422.953 68.000 423.730 C 81.008 424.311 89.154 422.588 100.959 416.759 C 116.863 408.906 130.007 392.361 134.498 374.540 C 136.426 366.888 136.426 351.112 134.498 343.460 C 129.127 322.149 111.657 303.442 91.000 296.883 C 82.205 294.091 65.947 293.484 56.500 295.596 M 85.533 312.083 C 93.349 314.497 102.472 320.514 108.606 327.302 C 116.370 335.894 123.365 352.920 119.988 355.008 C 117.716 356.412 116.239 355.005 115.056 350.309 C 110.018 330.302 90.066 315.000 69.017 315.000 C 64.725 315.000 61.855 314.530 61.180 313.716 C 59.863 312.130 60.852 310.410 63.500 309.679 C 66.909 308.738 78.960 310.053 85.533 312.083 "/></g>
<g fill="#A97F67FF" stroke="#A97F67FF">
<path d="M 59.000 462.393 L 59.000 497.000 65.000 497.000 L 71.000 497.000 71.000 463.000 L 71.000 429.000 66.582 429.000 C 64.152 429.000 61.452 428.727 60.582 428.393 C 59.158 427.847 59.000 431.247 59.000 462.393 "/></g>
<g fill="#513736FF" stroke="#513736FF">
<path d="M 61.345 311.543 C 60.427 313.935 61.464 314.326 69.278 314.534 C 82.826 314.894 93.545 319.475 103.125 328.999 C 109.182 335.019 112.340 340.315 115.055 349.000 C 116.332 353.083 117.255 354.500 118.637 354.500 C 121.581 354.500 120.593 348.721 116.072 339.500 C 107.153 321.307 89.030 310.000 68.786 310.000 C 63.536 310.000 61.799 310.360 61.345 311.543 "/></g>
<g fill="#513736FF" stroke="#513736FF">
<path d="M 79.500 35.500 C 78.950 35.689 76.336 36.135 73.692 36.491 C 70.760 36.887 68.654 37.737 68.296 38.671 C 67.438 40.906 69.852 41.947 73.191 40.783 C 74.788 40.227 80.461 39.954 85.798 40.178 C 94.739 40.553 96.072 40.887 102.785 44.435 C 111.397 48.986 117.850 55.695 121.716 64.116 C 124.323 69.797 126.498 71.473 127.585 68.640 C 128.498 66.260 122.817 55.916 117.358 50.020 C 114.414 46.840 109.424 42.906 106.062 41.114 C 98.135 36.889 84.105 33.924 79.500 35.500 "/></g>
<g fill="#513736FF" stroke="#513736FF">
<path d="M 72.750 172.544 C 69.204 173.676 68.000 174.560 68.000 176.030 C 68.000 178.394 67.414 178.365 75.169 176.377 C 91.930 172.080 109.217 179.745 116.949 194.901 C 119.157 199.228 120.666 200.033 121.670 197.418 C 123.383 192.952 111.798 179.524 102.102 174.738 C 96.565 172.004 94.479 171.542 86.602 171.303 C 80.523 171.119 75.922 171.531 72.750 172.544 "/></g>
<g fill="#F99B9CFF" stroke="#F99B9CFF">
<path d="M 71.243 463.500 L 71.000 497.000 65.000 497.217 L 59.000 497.433 65.250 497.467 L 71.500 497.500 71.493 463.750 L 71.486 430.000 71.243 463.500 "/></g>
<g fill="#F99B9CFF" stroke="#F99B9CFF">
<path d="M 25.000 405.000 L 30.000 410.000 25.000 405.000 L 20.000 400.000 25.000 405.000 "/></g>
<g fill="#F99B9CFF" stroke="#F99B9CFF">
<path d="M 25.000 312.953 L 20.500 317.556 25.000 312.953 L 29.500 308.350 25.000 312.953 "/></g>
<g fill="#A97F67FF" stroke="#A97F67FF">
<path d="M 127.000 40.000 L 132.000 45.000 127.000 40.000 L 122.000 35.000 127.000 40.000 "/></g>
<g fill="#F99B9CFF" stroke="#F99B9CFF">
<path d="M 103.000 329.000 L 107.000 333.000 103.000 329.000 L 99.000 325.000 103.000 329.000 "/></g>
<g fill="#F99B9CFF" stroke="#F99B9CFF">
<path d="M 32.500 269.500 L 36.000 273.000 32.500 269.500 L 29.000 266.000 32.500 269.500 "/></g>
</svg>
