<?xml version="1.0" encoding="utf-8"?>
<!DOCTYPE svg PUBLIC "-//W3C//DTD SVG 20010904//EN" "http://www.w3.org/TR/2001/REC-SVG-20010904/DTD/svg10.dtd">
<svg version="1.0" xmlns="http://www.w3.org/2000/svg" width="313pt" height="311pt" viewBox="0 0 313 311" style="" preserveAspectRatio="xMidYMid meet">
<g fill="#F66F6CFF" stroke="#F66F6CFF">
<path d="M 103.037 2.163 C 97.825 3.675 94.402 6.538 92.086 11.323 C 90.018 15.595 90.000 16.409 90.000 107.932 L 90.000 200.233 87.750 199.594 C 76.599 196.427 71.839 195.830 61.000 196.237 C 51.952 196.577 47.936 197.223 42.165 199.264 C 25.867 205.029 13.985 215.144 7.096 229.117 C -9.113 261.995 9.930 297.878 49.000 308.079 C 55.029 309.653 71.077 309.669 78.500 308.108 C 81.800 307.414 88.724 304.816 93.888 302.334 C 115.503 291.944 128.523 270.500 126.565 248.517 C 125.818 240.133 125.804 115.863 126.550 115.117 C 127.640 114.027 260.489 101.173 261.063 102.103 C 261.787 103.273 264.365 138.968 263.769 139.564 C 263.532 139.801 260.675 139.496 257.419 138.886 C 239.346 135.500 216.046 143.103 202.111 156.932 C 191.136 167.823 185.982 179.999 186.024 194.932 C 186.071 211.214 190.306 221.356 201.960 233.094 C 215.403 246.634 231.677 252.679 252.000 251.681 C 269.469 250.823 283.229 244.867 294.939 233.095 C 311.948 215.997 315.625 193.582 305.155 170.816 C 302.457 164.949 302.134 162.900 300.610 142.000 C 299.708 129.625 297.145 96.100 294.915 67.500 C 290.311 8.448 290.445 9.110 282.154 4.236 L 277.500 1.500 192.000 1.329 C 137.171 1.220 105.258 1.519 103.037 2.163 M 257.396 51.271 C 257.889 58.294 258.012 64.321 257.669 64.664 C 257.080 65.254 134.586 77.892 128.750 77.965 L 126.000 78.000 126.000 57.993 L 126.000 37.986 191.250 38.243 L 256.500 38.500 257.396 51.271 "/></g>
</svg>
