<?xml version="1.0" encoding="utf-8"?>
<!DOCTYPE svg PUBLIC "-//W3C//DTD SVG 20010904//EN" "http://www.w3.org/TR/2001/REC-SVG-20010904/DTD/svg10.dtd">
<svg version="1.0" xmlns="http://www.w3.org/2000/svg" width="360pt" height="461pt" viewBox="0 0 360 461" style="" preserveAspectRatio="xMidYMid meet">
<g fill="#F66F6CFF" stroke="#F66F6CFF">
<path d="M 175.981 2.078 C 150.221 4.290 130.317 19.310 120.308 44.090 C 115.837 55.159 112.897 68.774 112.283 81.250 C 111.966 87.713 111.536 93.000 111.328 93.000 C 111.120 93.000 107.924 91.477 104.225 89.615 C 76.957 75.890 48.329 73.165 30.923 82.639 C 12.265 92.794 -1.387 122.369 2.947 143.246 C 6.670 161.178 24.267 179.303 49.342 191.032 C 53.829 193.131 58.738 195.156 60.250 195.533 C 61.763 195.909 63.000 196.526 63.000 196.903 C 63.000 197.280 60.863 199.221 58.250 201.215 C 51.175 206.616 37.930 220.629 33.045 227.881 C 27.469 236.160 21.529 249.004 19.957 256.181 C 15.873 274.828 30.897 297.404 55.500 309.589 C 66.828 315.199 76.646 317.351 88.000 316.714 C 98.306 316.136 105.649 313.793 121.500 306.027 C 137.445 298.214 147.197 291.617 158.001 281.337 L 166.944 272.826 174.222 278.769 C 209.379 307.476 222.997 314.316 245.000 314.316 C 257.403 314.316 264.992 312.553 276.612 306.973 C 291.441 299.850 309.633 284.261 315.112 273.980 C 317.255 269.959 317.496 268.271 317.465 257.500 C 317.432 246.344 317.201 244.927 314.179 237.345 C 310.351 227.743 302.476 214.875 294.121 204.569 L 288.140 197.192 296.619 194.548 C 319.265 187.488 337.380 175.734 347.524 161.518 C 363.673 138.888 361.899 103.571 343.640 84.192 C 336.934 77.075 332.907 74.613 321.728 70.797 C 313.647 68.039 310.826 67.592 299.037 67.202 C 280.788 66.597 264.210 69.832 250.783 76.617 C 248.189 77.927 245.602 79.000 245.033 79.000 C 244.433 79.000 243.998 76.381 243.996 72.750 C 243.987 58.146 239.028 38.172 232.504 26.463 C 228.350 19.007 220.061 10.574 213.735 7.367 C 204.397 2.633 191.140 0.776 175.981 2.078 M 199.793 106.566 C 228.895 116.336 247.743 145.054 245.679 176.481 C 244.473 194.837 238.008 209.112 225.026 222.088 C 211.832 235.275 198.456 241.000 180.839 241.000 C 169.486 241.000 163.298 239.641 153.500 234.998 C 136.257 226.825 124.539 213.284 118.005 193.978 C 114.873 184.724 114.136 166.983 116.451 156.578 C 120.827 136.905 135.060 118.359 152.056 110.183 C 168.095 102.466 183.991 101.262 199.793 106.566 "/></g>
<g fill="#5EB082FF" stroke="#5EB082FF">
<path d="M 161.958 278.598 C 159.506 281.126 153.849 286.066 149.386 289.574 L 141.272 295.953 140.630 309.227 C 140.276 316.527 139.905 332.963 139.805 345.750 C 139.705 358.538 139.430 369.000 139.193 369.000 C 138.956 369.000 136.188 367.436 133.041 365.525 C 118.415 356.640 103.800 351.104 89.421 349.001 C 80.070 347.634 72.663 348.629 64.606 352.333 C 57.320 355.683 53.502 359.274 50.326 365.766 C 44.885 376.887 47.253 390.201 56.966 403.102 C 62.701 410.717 68.159 415.564 83.500 426.663 C 89.550 431.040 96.975 436.503 100.000 438.802 C 108.091 444.953 114.923 448.300 130.000 453.501 C 146.592 459.225 160.377 460.749 173.080 458.266 C 179.784 456.955 181.518 456.956 188.080 458.272 C 200.286 460.722 214.355 459.197 230.693 453.654 C 237.949 451.192 246.499 447.779 249.693 446.069 C 259.228 440.964 290.964 417.151 298.685 409.308 C 323.166 384.441 316.770 354.372 285.855 348.988 C 269.630 346.163 241.482 355.360 221.280 370.088 C 217.575 372.790 214.289 375.000 213.979 375.000 C 213.126 375.000 210.970 335.359 210.986 319.966 L 211.000 306.431 207.927 304.616 C 204.253 302.446 184.312 287.552 174.500 279.649 C 170.650 276.548 167.256 274.009 166.958 274.006 C 166.660 274.003 164.410 276.069 161.958 278.598 "/></g>
<g fill="#FDD37DFF" stroke="#FDD37DFF">
<path d="M 167.500 104.575 C 148.411 108.790 131.638 121.954 122.762 139.688 C 116.421 152.357 114.594 161.193 115.275 175.890 C 116.037 192.350 119.807 202.894 129.578 215.891 C 135.716 224.057 143.451 230.235 153.500 234.998 C 163.298 239.641 169.486 241.000 180.839 241.000 C 191.370 241.000 199.008 239.187 208.966 234.323 C 218.966 229.439 232.056 216.545 237.211 206.500 C 252.031 177.619 247.403 144.366 225.519 122.481 C 210.194 107.157 187.512 100.156 167.500 104.575 "/></g>
<g fill="#FDD37DFF" stroke="#FDD37DFF">
<path d="M 159.971 279.750 L 153.500 286.500 160.196 280.083 C 166.263 274.267 167.061 273.798 168.696 275.083 C 170.343 276.377 170.380 276.348 169.128 274.750 C 168.373 273.788 167.460 273.000 167.099 273.000 C 166.738 273.000 163.530 276.038 159.971 279.750 "/></g>
</svg>
