<?xml version="1.0" encoding="utf-8"?>
<!DOCTYPE svg PUBLIC "-//W3C//DTD SVG 20010904//EN" "http://www.w3.org/TR/2001/REC-SVG-20010904/DTD/svg10.dtd">
<svg version="1.0" xmlns="http://www.w3.org/2000/svg" width="518pt" height="522pt" viewBox="0 0 518 522" style="" preserveAspectRatio="xMidYMid meet">
<g fill="#FDD37DFF" stroke="#FDD37DFF">
<path d="M 234.863 115.072 C 173.642 124.064 121.661 178.082 107.838 247.074 C 104.810 262.189 104.558 289.913 107.331 303.000 C 113.026 329.885 124.286 350.619 142.693 368.121 C 153.194 378.106 163.443 384.917 179.440 392.543 C 237.693 420.313 294.044 419.502 339.500 390.241 C 361.462 376.103 378.963 356.371 391.505 331.604 C 413.651 287.874 414.920 237.768 394.960 195.175 C 385.528 175.047 367.975 153.898 348.533 139.238 C 335.601 129.487 331.356 127.629 315.000 124.564 C 307.575 123.173 297.450 120.893 292.500 119.498 C 287.550 118.103 279.450 116.297 274.500 115.485 C 264.921 113.913 244.220 113.697 234.863 115.072 "/></g>
<g fill="#FDD37DFF" stroke="#FDD37DFF">
<path d="M 122.268 370.639 C 117.584 372.948 107.025 382.928 99.918 391.762 C 86.338 408.644 63.000 445.966 63.000 450.804 C 63.000 457.488 67.394 462.000 73.903 462.000 C 79.729 462.000 81.770 460.070 89.679 447.087 C 107.744 417.429 125.411 394.329 133.227 390.146 C 141.015 385.978 140.544 373.797 132.466 370.421 C 128.151 368.619 126.285 368.659 122.268 370.639 "/></g>
<g fill="#FDD37DFF" stroke="#FDD37DFF">
<path d="M 498.500 189.676 C 478.903 194.031 464.630 199.107 439.552 210.638 C 420.417 219.437 417.505 221.917 418.277 228.761 C 418.913 234.408 422.252 237.957 427.597 238.669 C 430.943 239.115 433.833 238.098 447.840 231.548 C 473.056 219.757 487.059 214.681 502.000 211.913 C 510.789 210.286 513.870 208.555 515.677 204.232 C 517.592 199.647 516.181 194.074 512.341 191.054 C 509.810 189.062 503.906 188.475 498.500 189.676 "/></g>
<g fill="#FDD37DFF" stroke="#FDD37DFF">
<path d="M 102.198 39.673 C 96.501 42.480 94.228 50.025 97.619 54.867 C 99.662 57.784 104.213 61.934 120.500 75.733 C 134.999 88.018 149.002 102.076 153.841 109.206 C 157.830 115.083 160.523 117.000 164.788 117.000 C 171.640 117.000 175.944 112.818 175.978 106.127 C 175.996 102.505 175.201 100.634 171.347 95.234 C 164.625 85.813 155.433 76.402 140.035 63.174 C 132.591 56.778 124.025 49.325 121.000 46.611 C 111.122 37.749 108.251 36.690 102.198 39.673 "/></g>
<g fill="#FDD37DFF" stroke="#FDD37DFF">
<path d="M 376.353 372.926 C 370.656 376.400 369.557 385.421 374.302 389.758 C 375.511 390.863 380.116 393.319 384.536 395.215 C 401.337 402.422 417.544 413.574 433.152 428.666 C 441.760 436.989 443.202 438.000 446.468 438.000 C 453.913 438.000 457.944 433.973 457.979 426.500 L 458.002 421.500 448.589 412.311 C 432.428 396.535 412.430 382.839 393.868 374.837 C 383.821 370.506 380.854 370.182 376.353 372.926 "/></g>
<g fill="#FDD37DFF" stroke="#FDD37DFF">
<path d="M 240.241 425.325 C 234.994 428.240 234.660 429.824 235.391 448.372 C 237.119 492.221 240.295 513.727 245.669 517.955 C 249.464 520.939 255.994 520.718 259.850 517.473 C 263.849 514.108 264.428 510.683 262.544 501.558 C 261.678 497.365 260.660 490.461 260.283 486.217 C 259.906 481.973 259.425 479.313 259.214 480.307 C 258.992 481.357 258.133 481.980 257.166 481.794 C 255.686 481.510 255.470 479.160 255.230 460.737 C 255.033 445.645 255.272 440.000 256.107 440.000 C 256.887 440.000 257.095 438.338 256.756 434.809 C 256.350 430.589 255.669 429.094 253.113 426.809 C 249.637 423.704 244.274 423.086 240.241 425.325 "/></g>
<g fill="#FDD37DFF" stroke="#FDD37DFF">
<path d="M 314.500 2.954 C 310.618 4.560 308.175 8.655 302.243 23.500 C 292.760 47.229 286.007 69.754 286.003 77.673 C 285.998 85.639 293.803 90.981 301.056 87.977 C 305.073 86.313 307.000 83.358 307.000 78.861 C 307.000 76.829 307.430 75.017 307.956 74.833 C 308.482 74.650 310.523 68.875 312.492 62.000 C 314.461 55.125 319.206 41.667 323.036 32.094 C 326.866 22.520 330.000 14.038 330.000 13.245 C 330.000 10.030 326.680 5.076 323.522 3.577 C 319.881 1.850 317.557 1.689 314.500 2.954 "/></g>
<g fill="#FDD37DFF" stroke="#FDD37DFF">
<path d="M 8.388 204.927 C 2.162 207.599 -0.074 216.963 4.255 222.233 C 6.057 224.426 9.166 225.737 20.000 228.875 C 27.425 231.025 38.900 234.362 45.500 236.291 C 60.348 240.631 71.000 242.020 71.000 239.616 C 71.000 238.343 72.062 238.000 76.000 238.000 C 80.333 238.000 81.000 238.267 81.000 240.000 C 81.000 242.830 82.414 242.485 85.411 238.923 C 88.925 234.747 88.926 229.254 85.413 225.079 C 82.644 221.788 76.802 219.677 67.054 218.446 C 64.059 218.068 51.909 214.865 40.054 211.329 C 17.371 204.563 11.841 203.445 8.388 204.927 "/></g>
<g fill="#FDD37DFF" stroke="#FDD37DFF">
<path d="M 409.356 111.319 C 388.211 128.853 383.553 135.086 386.016 142.548 C 388.039 148.679 396.112 151.869 401.621 148.715 C 402.788 148.047 406.045 144.967 408.860 141.871 C 411.676 138.776 419.091 132.123 425.339 127.087 C 439.217 115.901 441.423 112.341 438.623 105.640 C 436.931 101.591 432.651 99.000 427.655 99.000 C 424.720 99.000 422.016 100.820 409.356 111.319 "/></g>
<g fill="#FDD37DFF" stroke="#FDD37DFF">
<path d="M 170.055 420.267 C 166.524 422.054 164.304 426.427 158.846 442.347 C 152.925 459.619 152.735 462.935 157.400 467.600 C 160.140 470.340 161.581 471.000 164.823 471.000 C 170.975 471.000 174.475 467.485 177.089 458.679 C 178.261 454.731 180.814 447.234 182.763 442.021 C 186.554 431.880 186.980 427.425 184.517 423.666 C 181.656 419.299 175.040 417.744 170.055 420.267 "/></g>
<g fill="#FDD37DFF" stroke="#FDD37DFF">
<path d="M 331.315 411.425 C 327.219 413.256 324.624 418.190 325.273 422.913 C 325.876 427.301 338.259 453.582 341.197 456.710 C 343.930 459.619 349.148 460.596 353.135 458.944 C 356.703 457.466 359.991 452.671 359.996 448.937 C 360.002 445.111 345.659 414.831 342.864 412.768 C 339.507 410.291 335.018 409.768 331.315 411.425 "/></g>
<g fill="#FDD37DFF" stroke="#FDD37DFF">
<path d="M 78.315 132.464 C 72.943 134.800 70.386 142.520 73.285 147.648 C 73.953 148.829 77.875 152.399 82.000 155.581 C 86.125 158.763 91.386 163.068 93.691 165.149 C 95.996 167.230 99.095 169.237 100.578 169.609 C 109.547 171.860 117.318 163.227 114.053 154.640 C 112.175 149.700 88.021 130.959 83.636 131.039 C 82.461 131.061 80.067 131.702 78.315 132.464 "/></g>
<g fill="#FDD37DFF" stroke="#FDD37DFF">
<path d="M 430.000 298.752 C 426.556 300.472 426.492 300.619 426.000 307.945 C 425.414 316.678 425.995 317.561 434.212 320.413 C 437.120 321.422 442.797 323.992 446.827 326.124 C 458.196 332.138 465.574 330.825 467.908 322.369 C 470.322 313.630 462.896 307.063 442.190 299.626 C 433.520 296.511 434.364 296.572 430.000 298.752 "/></g>
<g fill="#FDD37DFF" stroke="#FDD37DFF">
<path d="M 216.420 45.145 C 212.168 47.208 210.667 51.575 211.354 59.887 C 212.904 78.660 217.701 88.000 225.793 88.000 C 231.749 88.000 234.000 85.803 234.000 79.993 C 234.000 76.727 234.489 74.826 235.470 74.277 C 236.739 73.566 236.757 72.840 235.596 68.977 C 234.856 66.515 233.918 61.575 233.511 58.000 C 232.678 50.683 231.714 48.268 228.633 45.772 C 226.274 43.861 219.755 43.526 216.420 45.145 "/></g>
<g fill="#FDD37DFF" stroke="#FDD37DFF">
<path d="M 76.000 319.054 C 63.032 321.459 61.053 322.149 58.535 325.141 C 54.803 329.576 54.973 336.127 58.923 340.077 C 61.261 342.415 62.712 342.997 66.173 342.984 C 73.705 342.955 90.805 339.487 92.941 337.554 C 96.099 334.695 97.365 329.635 95.974 325.423 C 93.810 318.866 87.633 316.896 76.000 319.054 "/></g>
</svg>
