<?xml version="1.0" encoding="utf-8"?>
<!DOCTYPE svg PUBLIC "-//W3C//DTD SVG 20010904//EN" "http://www.w3.org/TR/2001/REC-SVG-20010904/DTD/svg10.dtd">
<svg version="1.0" xmlns="http://www.w3.org/2000/svg" width="352pt" height="418pt" viewBox="0 0 352 418" style="" preserveAspectRatio="xMidYMid meet">
<g fill="#FEE2DDFF" stroke="#FEE2DDFF">
<path d="M 192.805 32.250 C 190.675 36.670 183.404 44.740 179.935 46.534 C 178.375 47.340 175.738 48.000 174.074 48.000 C 170.490 48.000 155.677 40.478 148.248 34.886 L 142.996 30.932 104.656 32.966 C 83.568 34.085 54.609 35.000 40.301 35.000 L 14.287 35.000 13.637 43.750 C 9.148 104.189 6.587 177.971 5.489 278.500 C 5.088 315.307 4.460 334.874 3.341 345.471 C 1.326 364.563 1.849 379.691 4.747 386.196 C 16.235 411.976 66.403 421.024 163.755 414.874 C 181.917 413.727 206.957 414.109 241.500 416.061 C 276.721 418.051 302.974 415.114 317.995 407.503 C 334.415 399.182 344.881 373.428 349.091 330.983 C 350.651 315.259 350.695 271.669 349.173 250.000 C 348.142 235.310 347.244 198.810 345.496 100.500 C 344.693 55.299 344.299 50.208 341.380 47.289 C 335.051 40.961 316.000 35.394 291.000 32.569 C 274.581 30.714 236.946 29.005 212.435 29.002 L 194.370 29.000 192.805 32.250 M 273.000 68.013 C 297.439 70.154 311.818 73.219 316.563 77.301 L 319.160 79.534 320.007 103.517 C 320.473 116.708 321.131 139.200 321.470 153.500 C 321.808 167.800 322.777 189.315 323.622 201.312 C 327.336 254.002 318.451 283.701 296.520 291.907 C 285.390 296.071 273.054 297.193 242.000 296.864 C 205.001 296.473 173.087 296.514 128.000 297.010 C 102.574 297.290 87.859 297.022 79.500 296.127 C 50.787 293.053 34.683 287.180 30.047 278.091 C 27.533 273.165 27.346 264.229 29.500 252.000 C 30.557 245.999 30.998 236.297 31.000 219.000 C 31.004 177.517 33.824 114.486 37.163 81.250 L 38.293 70.000 54.896 70.005 C 64.028 70.007 90.400 69.326 113.500 68.491 C 136.600 67.656 160.675 66.817 167.000 66.626 C 188.590 65.975 260.472 66.916 273.000 68.013 "/></g>
<g fill="#76A7DFFF" stroke="#76A7DFFF">
<path d="M 139.500 68.066 C 129.600 68.448 102.965 69.111 80.311 69.539 L 39.122 70.319 38.569 73.909 C 37.710 79.477 35.159 110.652 34.019 129.500 C 33.454 138.850 32.537 168.325 31.982 195.000 C 31.294 228.087 30.469 247.367 29.385 255.667 C 28.493 262.498 28.097 269.615 28.482 271.894 C 30.523 283.974 42.784 290.533 71.098 294.690 C 82.852 296.416 83.721 296.429 188.500 296.392 C 208.300 296.385 235.975 296.377 250.000 296.373 C 277.848 296.367 288.670 295.069 298.655 290.537 C 311.720 284.608 319.902 268.950 322.960 244.026 C 324.249 233.520 324.275 213.439 323.014 201.500 C 322.491 196.550 321.357 167.075 320.494 136.000 C 318.970 81.162 318.863 79.449 316.863 77.760 C 311.690 73.391 292.214 69.764 264.517 68.011 C 247.167 66.913 168.528 66.948 139.500 68.066 "/></g>
<g fill="#F66F6CFF" stroke="#F66F6CFF">
<path d="M 177.259 2.969 C 174.926 4.028 171.262 6.795 169.118 9.117 L 165.219 13.340 160.174 11.170 C 147.617 5.768 134.978 10.808 137.353 20.270 C 138.393 24.412 144.081 31.889 148.864 35.400 C 156.087 40.702 170.689 48.000 174.074 48.000 C 178.397 48.000 182.150 45.765 187.029 40.284 C 199.031 26.801 200.561 7.961 190.094 2.549 C 186.138 0.503 182.424 0.625 177.259 2.969 "/></g>
<g fill="#C1C8DEFF" stroke="#C1C8DEFF">
<path d="M 33.000 282.000 L 35.000 284.000 33.000 282.000 L 31.000 280.000 33.000 282.000 "/></g>
</svg>
