<?xml version="1.0" encoding="utf-8"?>
<!DOCTYPE svg PUBLIC "-//W3C//DTD SVG 20010904//EN" "http://www.w3.org/TR/2001/REC-SVG-20010904/DTD/svg10.dtd">
<svg version="1.0" xmlns="http://www.w3.org/2000/svg" width="339pt" height="541pt" viewBox="0 0 339 541" style="" preserveAspectRatio="xMidYMid meet">
<g fill="#76A7DFFF" stroke="#76A7DFFF">
<path d="M 157.112 82.523 C 140.589 87.144 120.279 102.487 108.586 119.181 C 107.416 120.851 106.609 121.207 105.623 120.488 C 104.877 119.945 100.719 116.915 96.383 113.755 C 86.344 106.438 64.442 95.466 56.000 93.525 C 47.703 91.616 37.731 91.594 31.416 93.469 C 20.717 96.646 10.638 109.507 6.148 125.710 C 0.977 144.368 0.634 178.045 5.385 200.533 C 12.401 233.745 29.296 267.966 53.997 299.000 C 67.638 316.138 98.214 346.246 109.280 353.435 C 111.514 354.887 126.782 358.289 136.994 359.611 L 142.488 360.322 132.119 349.411 C 94.124 309.426 75.281 275.046 72.415 240.476 C 71.857 233.744 72.012 232.235 73.375 231.104 C 75.562 229.289 77.998 231.271 78.006 234.872 C 78.021 241.500 81.294 258.126 84.428 267.493 C 92.727 292.291 106.854 313.359 136.803 345.599 L 150.829 360.697 157.079 361.350 C 160.517 361.710 163.446 361.887 163.589 361.744 C 163.731 361.602 163.224 354.642 162.461 346.279 C 159.120 309.641 158.765 297.566 160.425 276.955 C 161.291 266.206 162.053 247.756 162.118 235.955 C 162.258 210.568 162.551 208.500 166.010 208.500 L 168.500 208.500 168.185 234.000 C 168.012 248.025 167.234 267.628 166.457 277.562 C 164.958 296.712 165.382 310.585 168.511 344.766 C 169.330 353.713 170.000 361.313 170.000 361.655 C 170.000 361.998 172.806 362.023 176.236 361.712 C 183.691 361.036 184.127 360.595 191.958 345.785 C 194.949 340.128 202.133 327.850 207.923 318.500 C 227.845 286.326 235.027 270.139 247.968 228.250 C 251.434 217.028 252.367 215.000 254.062 215.000 C 255.162 215.000 256.340 215.721 256.678 216.603 C 257.311 218.254 249.749 244.438 243.277 263.000 C 238.418 276.939 226.854 299.531 213.637 320.909 C 203.223 337.754 190.600 360.011 191.204 360.463 C 191.367 360.585 195.538 360.084 200.474 359.351 C 211.332 357.738 222.986 354.792 229.414 352.037 C 232.027 350.917 234.626 350.000 235.189 350.000 C 237.009 350.000 252.719 337.159 260.862 329.017 C 290.720 299.159 318.460 249.236 330.050 204.500 C 335.285 184.295 336.389 176.531 336.446 159.500 C 336.505 141.895 335.361 136.010 330.390 128.364 C 327.404 123.771 318.821 117.704 308.649 112.996 C 288.391 103.619 263.530 103.583 244.778 112.902 L 237.539 116.500 227.019 105.999 C 215.570 94.568 206.895 88.888 193.806 84.250 C 184.565 80.975 165.804 80.092 157.112 82.523 "/></g>
<g fill="#76A7DFFF" stroke="#76A7DFFF">
<path d="M 223.607 366.680 C 200.465 373.447 169.566 375.358 139.000 371.913 C 131.389 371.055 117.040 368.586 112.952 367.431 C 111.963 367.151 109.405 369.429 105.862 373.747 C 82.746 401.913 67.408 438.150 63.938 472.801 C 61.439 497.759 66.799 519.253 76.802 524.387 C 81.244 526.667 90.881 528.245 95.830 527.503 C 102.867 526.447 109.962 523.425 115.770 519.008 C 118.669 516.804 121.272 515.000 121.556 515.000 C 121.839 515.000 122.924 516.989 123.966 519.420 C 126.396 525.089 132.246 531.553 137.432 534.299 C 140.538 535.944 143.274 536.458 149.000 536.474 C 155.661 536.491 157.206 536.111 162.813 533.074 C 166.285 531.193 171.134 527.420 173.590 524.688 C 176.046 521.957 178.172 519.897 178.315 520.111 C 184.854 529.926 186.901 531.877 195.000 536.006 C 201.156 539.144 211.469 539.856 217.485 537.559 C 221.959 535.850 230.000 528.050 230.000 525.418 C 230.000 522.713 231.859 523.175 235.709 526.838 C 246.110 536.732 258.227 536.764 269.432 526.925 C 277.067 520.222 281.132 507.056 281.141 489.000 C 281.160 453.335 263.861 404.381 240.807 374.856 C 237.192 370.227 233.620 365.975 232.867 365.406 C 231.893 364.669 229.232 365.035 223.607 366.680 "/></g>
<g fill="#FDD37DFF" stroke="#FDD37DFF">
<path d="M 177.340 1.986 C 168.843 3.935 162.908 10.944 160.795 21.527 C 160.139 24.812 159.512 27.643 159.401 27.817 C 159.290 27.992 156.869 26.954 154.021 25.511 C 143.485 20.172 134.048 21.191 128.958 28.217 C 121.659 38.292 125.095 49.528 137.482 56.100 C 141.596 58.282 143.235 60.000 141.204 60.000 C 140.766 60.000 137.892 62.363 134.816 65.250 C 127.636 71.992 125.906 76.846 128.377 83.316 C 129.297 85.727 131.086 88.671 132.351 89.860 L 134.652 92.021 143.576 87.505 C 163.629 77.356 184.267 77.764 205.254 88.725 L 212.008 92.252 215.573 89.876 C 219.104 87.523 219.135 87.440 218.778 81.345 C 218.497 76.549 217.707 74.048 215.200 70.014 C 211.845 64.617 211.807 63.000 215.039 63.000 C 216.248 63.000 217.675 61.611 218.891 59.250 C 221.462 54.261 226.646 49.119 229.883 48.348 C 233.811 47.412 235.001 46.081 234.994 42.628 C 234.969 28.378 221.687 20.579 205.659 25.402 C 203.097 26.173 200.977 26.736 200.950 26.652 C 200.922 26.568 200.681 23.800 200.415 20.500 C 199.815 13.069 196.481 6.072 192.500 3.887 C 188.878 1.899 181.663 0.994 177.340 1.986 M 184.277 33.060 C 189.007 34.373 194.523 39.145 197.059 44.115 C 199.584 49.065 199.606 58.068 197.107 63.571 C 193.303 71.946 182.634 77.347 174.370 75.080 C 158.451 70.715 153.115 51.723 164.354 39.428 C 170.270 32.956 176.608 30.930 184.277 33.060 "/></g>
<g fill="#F66F6CFF" stroke="#F66F6CFF">
<path d="M 267.739 44.951 C 264.883 46.762 261.635 50.141 259.329 53.701 C 257.263 56.890 255.453 59.678 255.307 59.896 C 255.161 60.114 252.980 58.393 250.461 56.071 C 242.536 48.765 234.206 46.273 228.200 49.411 C 225.126 51.017 220.781 55.455 219.122 58.684 C 216.457 63.872 218.991 72.622 225.436 80.488 L 228.798 84.590 222.649 86.819 C 219.267 88.045 215.481 89.831 214.237 90.789 L 211.973 92.529 218.133 97.014 C 221.521 99.481 227.265 104.698 230.897 108.606 L 237.500 115.713 244.809 112.222 L 252.117 108.732 249.502 106.002 C 246.076 102.427 243.774 94.691 244.565 89.416 C 246.497 76.531 259.557 67.454 271.162 70.930 C 276.534 72.540 282.522 78.180 284.580 83.570 C 286.641 88.967 286.009 96.624 283.096 101.562 C 280.840 105.386 280.762 105.324 289.290 106.483 C 291.924 106.841 296.847 108.043 300.231 109.154 C 307.393 111.505 310.864 111.104 315.775 107.358 C 322.723 102.059 325.163 90.506 320.726 83.922 C 316.661 77.890 306.629 73.000 298.318 73.000 C 296.493 73.000 295.000 72.811 295.000 72.581 C 295.000 72.350 295.709 69.393 296.576 66.010 C 297.560 62.168 297.900 58.370 297.482 55.895 C 295.472 43.995 278.875 37.889 267.739 44.951 "/></g>
<g fill="#F66F6CFF" stroke="#F66F6CFF">
<path d="M 67.707 39.533 C 58.136 43.046 53.706 49.797 53.706 60.870 C 53.706 64.516 54.017 68.479 54.397 69.676 C 55.075 71.812 54.947 71.842 47.563 71.283 C 33.125 70.191 25.000 76.416 25.000 88.567 C 25.000 94.433 25.620 95.045 29.996 93.501 C 38.048 90.660 48.137 90.700 58.750 93.615 C 60.809 94.181 61.000 93.897 61.000 90.266 C 61.000 78.181 69.589 69.000 80.895 69.000 C 87.212 69.000 90.649 70.309 94.838 74.311 C 99.794 79.046 102.000 84.031 102.000 90.492 C 102.000 97.478 100.021 102.295 95.421 106.509 L 91.832 109.796 99.166 115.317 L 106.500 120.837 108.986 117.669 C 110.353 115.926 114.778 111.054 118.820 106.842 C 127.118 98.193 127.163 97.697 120.115 92.500 C 116.225 89.631 115.036 88.000 116.836 88.000 C 117.296 88.000 119.771 86.365 122.336 84.366 C 125.760 81.698 127.003 80.037 127.012 78.116 C 127.019 76.677 128.144 73.542 129.512 71.148 C 132.574 65.792 132.581 64.790 129.608 58.404 C 126.440 51.601 122.227 49.000 114.382 49.001 C 109.969 49.001 106.970 49.726 102.370 51.901 C 98.999 53.496 95.935 55.296 95.561 55.901 C 94.309 57.926 93.382 57.034 91.155 51.660 C 88.774 45.916 83.980 40.323 80.208 38.889 C 76.945 37.648 72.172 37.894 67.707 39.533 "/></g>
<g fill="#FDD37DFF" stroke="#FDD37DFF">
<path d="M 224.500 354.129 C 206.566 360.199 197.171 361.439 169.000 361.459 C 142.770 361.477 133.202 360.448 112.300 355.359 C 101.419 352.710 98.771 352.997 97.512 356.961 C 96.344 360.643 98.694 362.824 106.265 365.081 C 138.538 374.702 189.295 375.512 221.000 366.912 C 237.266 362.500 242.918 358.452 240.117 353.218 C 238.424 350.056 236.143 350.189 224.500 354.129 "/></g>
<g fill="#FEFEFEFF" stroke="#FEFEFEFF">
<path d="M 170.000 35.248 C 167.525 36.571 164.150 39.570 162.500 41.913 C 159.785 45.768 159.500 46.916 159.500 54.000 C 159.500 61.079 159.788 62.242 162.513 66.164 C 167.645 73.548 177.738 76.935 185.685 73.939 C 189.688 72.429 194.930 67.176 197.100 62.500 C 201.173 53.722 197.869 41.589 189.985 36.372 C 184.026 32.428 176.109 31.983 170.000 35.248 "/></g>
<g fill="#FEFEFEFF" stroke="#FEFEFEFF">
<path d="M 261.631 70.703 C 261.433 70.901 260.199 71.269 258.889 71.521 C 257.579 71.774 256.355 72.435 256.170 72.990 C 255.985 73.546 255.455 74.000 254.994 74.000 C 253.721 74.000 248.732 79.329 246.693 82.866 C 245.700 84.590 245.114 86.000 245.391 86.000 C 245.669 86.000 245.425 87.351 244.849 89.003 C 243.392 93.183 245.424 101.069 249.019 105.186 C 250.577 106.971 251.674 108.719 251.456 109.071 C 251.239 109.423 254.535 108.879 258.780 107.863 C 263.076 106.835 270.270 106.005 275.000 105.992 C 280.389 105.978 282.983 105.642 282.088 105.075 C 280.894 104.320 280.933 103.924 282.338 102.519 C 283.252 101.605 284.034 100.552 284.077 100.179 C 284.119 99.805 284.366 98.600 284.627 97.500 C 285.535 93.673 285.729 86.494 284.952 85.500 C 284.522 84.950 284.161 84.275 284.150 84.000 C 284.010 80.582 278.844 74.494 274.223 72.302 C 271.231 70.882 262.554 69.780 261.631 70.703 "/></g>
<g fill="#FEFEFEFF" stroke="#FEFEFEFF">
<path d="M 72.181 71.090 C 67.887 73.322 65.000 75.961 65.000 77.655 C 65.000 78.395 64.475 79.000 63.833 79.000 C 63.192 79.000 62.923 79.257 63.237 79.571 C 63.551 79.885 63.213 81.288 62.486 82.689 C 61.732 84.144 61.399 86.685 61.712 88.610 C 62.038 90.619 61.753 92.593 61.007 93.492 C 59.995 94.711 60.018 95.003 61.128 95.014 C 63.195 95.036 81.866 104.213 88.579 108.507 C 91.824 110.583 93.856 111.532 93.097 110.616 C 92.337 109.701 91.892 108.826 92.107 108.673 C 92.323 108.520 93.738 107.621 95.250 106.674 C 96.763 105.728 98.000 104.327 98.000 103.560 C 98.000 102.794 98.475 102.008 99.054 101.815 C 99.634 101.622 100.210 100.797 100.333 99.982 C 100.456 99.167 100.825 98.050 101.154 97.500 C 102.563 95.142 101.737 84.556 99.862 80.960 C 97.883 77.162 91.743 70.937 89.666 70.621 C 89.025 70.524 88.050 70.175 87.500 69.846 C 85.418 68.602 75.403 69.415 72.181 71.090 "/></g>
<g fill="#FEFEFEFF" stroke="#FEFEFEFF">
<path d="M 247.968 228.250 C 234.979 270.295 228.040 285.895 207.378 319.500 C 201.291 329.400 194.159 341.550 191.529 346.500 C 185.365 358.101 183.302 360.960 180.932 361.179 C 179.246 361.334 179.254 361.357 181.000 361.357 C 190.903 361.357 189.989 362.035 196.653 349.750 C 200.010 343.563 207.626 330.625 213.578 321.000 C 226.846 299.546 238.409 276.964 243.277 263.000 C 249.749 244.438 257.311 218.254 256.678 216.603 C 256.340 215.721 255.162 215.000 254.062 215.000 C 252.367 215.000 251.434 217.028 247.968 228.250 "/></g>
<g fill="#FEFEFEFF" stroke="#FEFEFEFF">
<path d="M 163.357 209.193 C 162.899 209.912 162.218 224.225 161.842 241.000 C 161.467 257.775 160.645 276.675 160.015 283.000 C 158.819 295.009 159.114 305.174 161.542 335.500 C 163.720 362.714 163.571 362.000 167.061 362.000 C 168.678 362.000 170.000 361.782 170.000 361.516 C 170.000 361.250 169.330 353.713 168.511 344.766 C 165.382 310.585 164.958 296.712 166.457 277.562 C 167.234 267.628 168.012 248.025 168.185 234.000 C 168.500 208.536 168.497 208.500 166.344 208.193 C 165.159 208.024 163.814 208.474 163.357 209.193 "/></g>
<g fill="#FEFEFEFF" stroke="#FEFEFEFF">
<path d="M 73.014 231.484 C 72.068 232.623 71.909 235.082 72.414 240.767 C 75.488 275.375 94.261 309.571 131.967 349.250 C 137.585 355.163 141.804 360.070 141.341 360.156 C 140.460 360.320 141.419 360.417 152.000 361.234 C 155.575 361.510 156.813 361.545 154.752 361.311 C 151.396 360.930 149.524 359.293 136.890 345.693 C 119.965 327.473 112.172 317.947 102.864 304.102 C 89.376 284.039 81.989 265.528 79.346 245.164 C 78.513 238.749 77.500 232.852 77.094 232.060 C 76.011 229.943 74.472 229.726 73.014 231.484 "/></g>
<g fill="#FEFEFEFF" stroke="#FEFEFEFF">
<path d="M 228.000 106.000 L 234.000 112.000 228.000 106.000 L 222.000 100.000 228.000 106.000 "/></g>
</svg>
