<?xml version="1.0" encoding="utf-8"?>
<!DOCTYPE svg PUBLIC "-//W3C//DTD SVG 20010904//EN" "http://www.w3.org/TR/2001/REC-SVG-20010904/DTD/svg10.dtd">
<svg version="1.0" xmlns="http://www.w3.org/2000/svg" width="602pt" height="289pt" viewBox="0 0 602 289" style="" preserveAspectRatio="xMidYMid meet">
<g fill="#FDD37DFF" stroke="#FDD37DFF">
<path d="M 521.487 33.738 C 508.879 38.251 496.799 47.983 480.264 66.947 L 477.259 70.394 471.379 64.022 C 468.146 60.517 461.191 54.209 455.924 50.004 C 446.844 42.755 432.272 33.000 430.523 33.000 C 428.489 33.000 433.318 76.223 437.394 94.500 C 441.034 110.820 443.938 119.323 457.710 154.000 C 470.922 187.266 481.157 210.000 482.922 210.000 C 483.505 210.000 484.998 208.431 486.241 206.512 C 487.483 204.594 488.851 203.019 489.279 203.012 C 489.708 203.006 492.385 204.839 495.228 207.086 C 509.604 218.450 526.634 222.363 544.945 218.512 C 548.837 217.693 554.182 215.928 556.824 214.589 C 570.195 207.814 576.920 191.508 574.175 172.522 C 573.499 167.847 572.718 163.428 572.439 162.702 C 572.132 161.902 574.016 160.038 577.216 157.975 C 595.759 146.021 603.857 125.674 598.421 104.695 C 595.420 93.112 584.976 81.780 574.566 78.810 C 568.681 77.131 568.000 76.311 568.000 70.900 C 568.000 65.129 564.303 54.754 560.036 48.553 C 550.877 35.240 534.679 29.015 521.487 33.738 "/></g>
<g fill="#FDD37DFF" stroke="#FDD37DFF">
<path d="M 61.610 33.408 C 47.210 38.785 35.410 54.667 34.239 70.251 L 33.731 77.002 28.989 78.411 C 16.148 82.224 6.765 92.409 3.558 106.014 C 0.850 117.505 2.161 129.514 7.202 139.395 C 9.884 144.653 19.003 154.152 25.165 158.106 C 28.540 160.272 29.905 161.750 29.567 162.873 C 27.009 171.363 27.176 187.413 29.919 196.785 C 33.120 207.722 42.865 215.527 57.043 218.509 C 78.453 223.013 97.219 217.189 114.843 200.572 C 119.599 196.087 120.313 195.719 121.343 197.217 C 121.979 198.143 124.693 202.339 127.374 206.542 C 132.867 215.154 146.741 230.127 156.795 238.292 C 164.390 244.461 175.242 252.091 175.729 251.604 C 175.907 251.426 174.708 247.632 173.064 243.174 C 166.316 224.871 158.170 194.129 152.615 166.000 C 148.685 146.099 142.956 110.224 142.315 101.500 C 141.991 97.100 141.398 93.050 140.997 92.500 C 140.595 91.950 139.478 87.000 138.514 81.500 C 137.551 76.000 136.609 71.331 136.422 71.124 C 136.235 70.918 134.883 72.174 133.417 73.916 C 131.951 75.658 130.417 76.953 130.008 76.792 C 129.598 76.631 126.542 73.105 123.215 68.955 C 110.477 53.063 98.421 42.278 86.419 36.034 C 79.029 32.191 67.999 31.023 61.610 33.408 "/></g>
<g fill="#FDD37DFF" stroke="#FDD37DFF">
<path d="M 253.500 7.042 C 245.800 8.634 235.675 11.111 231.000 12.546 C 226.325 13.982 220.813 15.664 218.750 16.285 C 214.187 17.658 214.213 17.303 217.045 39.500 C 225.675 107.164 231.896 139.465 243.862 178.741 C 254.695 214.301 266.009 241.079 283.841 273.369 L 291.500 287.238 311.500 286.664 C 331.394 286.094 349.796 284.428 351.275 283.064 C 351.702 282.671 349.705 278.108 346.839 272.925 C 326.806 236.700 306.111 179.146 293.108 123.500 C 284.157 85.195 279.493 55.533 275.458 11.250 L 274.797 4.000 271.149 4.073 C 269.142 4.114 261.200 5.450 253.500 7.042 "/></g>
<g fill="#FDD37DFF" stroke="#FDD37DFF">
<path d="M 291.000 4.878 C 291.000 11.047 295.085 47.718 297.478 63.037 C 306.643 121.696 324.317 184.657 345.122 232.762 C 350.702 245.663 365.090 274.204 367.792 277.730 L 369.500 279.960 378.000 277.561 C 390.331 274.081 412.000 266.371 412.000 265.464 C 412.000 265.309 409.032 260.303 405.404 254.341 C 381.728 215.427 363.403 161.457 353.040 100.120 C 348.574 73.689 344.074 29.401 344.021 11.355 L 344.000 4.210 339.750 3.637 C 337.413 3.323 325.488 2.760 313.250 2.388 L 291.000 1.711 291.000 4.878 "/></g>
<g fill="#FDD37DFF" stroke="#FDD37DFF">
<path d="M 187.925 29.823 C 176.951 35.809 160.888 46.594 154.620 52.186 L 149.741 56.540 152.841 72.520 C 156.006 88.836 156.638 92.613 162.051 127.500 C 170.120 179.510 180.988 222.221 194.203 253.854 L 198.511 264.168 207.538 268.015 C 223.131 274.659 248.098 281.453 267.669 284.375 L 271.837 284.998 266.251 274.749 C 239.164 225.057 219.154 163.042 209.057 97.500 C 206.255 79.313 202.177 49.554 200.699 36.509 C 199.760 28.220 199.091 25.473 197.977 25.333 C 197.165 25.230 192.641 27.251 187.925 29.823 "/></g>
<g fill="#FDD37DFF" stroke="#FDD37DFF">
<path d="M 360.004 12.731 C 360.010 20.721 361.721 43.757 363.553 60.500 C 372.411 141.464 394.849 212.044 426.117 257.295 C 427.854 259.808 452.272 243.016 467.295 228.978 L 472.135 224.456 467.519 216.248 C 461.231 205.066 456.138 193.357 441.424 156.249 C 428.497 123.649 424.537 111.676 420.987 94.459 C 417.900 79.486 414.998 55.295 414.307 38.786 L 413.692 24.071 405.096 20.468 C 396.298 16.780 377.276 10.701 369.081 8.959 C 366.561 8.423 363.488 7.755 362.250 7.473 C 360.117 6.989 360.000 7.263 360.004 12.731 "/></g>
<g fill="#F66F6CFF" stroke="#F66F6CFF">
<path d="M 281.500 2.918 L 275.500 3.500 275.779 11.000 C 277.846 66.525 298.350 158.025 322.501 219.500 C 334.243 249.388 350.766 283.000 353.716 283.000 C 354.485 283.000 357.001 282.576 359.307 282.058 C 361.613 281.539 364.741 280.855 366.258 280.537 L 369.016 279.958 365.958 274.729 C 364.276 271.853 360.054 263.875 356.576 257.000 C 324.454 193.507 299.917 103.273 292.332 20.750 C 290.887 5.034 290.357 2.027 289.054 2.168 C 288.199 2.261 284.800 2.598 281.500 2.918 "/></g>
<g fill="#F66F6CFF" stroke="#F66F6CFF">
<path d="M 206.660 20.994 C 202.898 22.563 199.693 23.993 199.537 24.173 C 198.875 24.936 205.705 76.691 210.020 103.615 C 217.052 147.487 229.703 192.746 246.048 232.500 C 251.523 245.817 269.134 281.520 271.318 283.731 C 272.337 284.763 291.000 287.184 291.000 286.285 C 291.000 286.121 288.132 280.927 284.626 274.743 C 259.360 230.176 241.033 179.298 229.534 121.803 C 225.655 102.409 219.907 63.874 216.326 33.250 C 215.345 24.863 214.307 18.032 214.021 18.070 C 213.734 18.109 210.422 19.425 206.660 20.994 "/></g>
<g fill="#F66F6CFF" stroke="#F66F6CFF">
<path d="M 344.021 11.183 C 344.074 29.385 348.554 73.572 353.040 100.120 C 363.236 160.471 381.457 214.575 404.524 253.000 C 412.591 266.436 411.563 265.840 419.806 261.863 L 426.803 258.488 420.809 248.994 C 387.849 196.785 366.189 116.869 360.836 27.721 C 360.168 16.600 359.166 7.192 358.609 6.816 C 358.052 6.440 355.324 5.845 352.548 5.494 C 349.772 5.143 346.713 4.633 345.750 4.360 C 344.196 3.921 344.002 4.686 344.021 11.183 "/></g>
<g fill="#F66F6CFF" stroke="#F66F6CFF">
<path d="M 414.311 39.250 C 415.428 64.850 419.845 93.358 425.988 114.619 C 432.743 137.994 466.767 219.072 471.454 222.962 C 472.344 223.700 474.039 222.289 477.733 217.735 L 482.794 211.498 477.131 199.999 C 470.816 187.178 446.684 127.208 442.525 114.000 C 436.703 95.515 432.011 67.935 430.391 42.686 L 429.697 31.873 422.874 28.436 C 419.121 26.546 415.519 25.000 414.869 25.000 C 413.988 25.000 413.846 28.612 414.311 39.250 "/></g>
<g fill="#F66F6CFF" stroke="#F66F6CFF">
<path d="M 142.618 63.261 L 136.321 69.940 138.211 80.220 C 139.250 85.874 140.493 91.400 140.972 92.500 C 141.451 93.600 142.094 97.946 142.401 102.157 C 143.470 116.834 151.887 164.728 158.101 191.500 C 163.708 215.655 174.457 249.889 177.306 252.663 C 178.882 254.198 198.000 264.335 198.000 263.636 C 198.000 263.338 196.011 258.236 193.579 252.297 C 180.481 220.308 170.050 179.024 162.047 127.500 C 160.338 116.500 158.230 103.000 157.363 97.500 C 155.280 84.297 150.056 57.722 149.418 57.085 C 149.141 56.808 146.081 59.587 142.618 63.261 "/></g>
</svg>
