<?xml version="1.0" encoding="utf-8"?>
<!DOCTYPE svg PUBLIC "-//W3C//DTD SVG 20010904//EN" "http://www.w3.org/TR/2001/REC-SVG-20010904/DTD/svg10.dtd">
<svg version="1.0" xmlns="http://www.w3.org/2000/svg" width="460pt" height="460pt" viewBox="0 0 460 460" style="" preserveAspectRatio="xMidYMid meet">
<g fill="#FDD37DFF" stroke="#FDD37DFF">
<path d="M 277.500 21.298 L 277.500 35.598 273.815 43.057 C 271.077 48.598 266.883 54.113 257.501 64.508 C 243.434 80.094 232.682 95.402 228.159 106.285 C 224.918 114.083 221.931 125.005 216.614 148.500 C 212.440 166.940 208.310 177.874 201.891 187.471 C 186.372 210.674 162.893 219.093 117.602 217.694 C 80.314 216.542 41.614 207.649 14.317 193.958 C 9.193 191.388 4.996 189.334 4.992 189.393 C 4.987 189.452 4.321 194.450 3.511 200.500 C 1.636 214.508 1.600 245.200 3.441 259.030 C 4.827 269.442 9.341 291.137 11.064 295.668 L 11.954 298.010 16.852 294.996 C 19.546 293.338 29.344 286.610 38.625 280.043 C 63.087 262.737 74.906 257.375 93.602 255.102 C 109.398 253.181 120.688 256.876 128.252 266.441 C 133.302 272.825 135.700 277.649 142.496 295.079 C 149.301 312.533 152.889 318.980 159.454 325.549 C 166.300 332.400 172.677 335.361 181.597 335.830 C 192.750 336.416 201.317 332.399 223.082 316.375 C 237.159 306.010 245.581 301.735 258.500 298.394 C 270.219 295.363 286.164 294.696 295.000 296.867 C 328.572 305.116 350.355 341.680 354.954 397.500 C 355.543 404.650 356.132 412.701 356.262 415.390 L 356.500 420.281 367.000 412.490 C 379.238 403.410 401.994 381.009 410.691 369.478 C 431.818 341.471 446.933 308.388 453.400 276.000 C 454.773 269.125 456.195 260.756 456.560 257.402 L 457.224 251.304 450.862 250.078 C 396.454 239.590 343.387 213.360 319.485 185.140 C 300.437 162.650 295.075 138.764 303.119 112.223 C 306.151 102.221 315.130 84.691 322.442 74.500 C 330.428 63.369 342.916 50.603 350.893 45.415 C 354.204 43.262 356.933 41.193 356.957 40.817 C 357.111 38.386 320.071 19.470 305.500 14.538 C 297.257 11.748 280.271 7.007 278.500 7.002 C 277.880 7.000 277.500 12.430 277.500 21.298 "/></g>
<g fill="#5EB082FF" stroke="#5EB082FF">
<path d="M 87.500 256.440 C 72.892 259.332 60.960 264.924 44.500 276.595 C 32.422 285.158 16.196 296.231 13.586 297.692 C 12.075 298.537 12.207 299.440 15.026 307.561 C 16.733 312.478 21.219 322.800 24.995 330.500 C 55.674 393.057 113.213 438.258 180.999 453.053 C 214.183 460.295 252.731 459.692 286.000 451.409 C 306.407 446.328 333.121 435.037 349.391 424.617 L 355.282 420.844 354.720 405.672 C 353.617 375.881 346.470 348.038 334.831 328.181 C 329.720 319.464 315.815 306.046 307.947 302.239 C 291.302 294.186 272.529 293.997 249.547 301.651 C 243.894 303.533 238.505 306.438 231.036 311.630 C 225.241 315.658 215.809 322.120 210.075 325.990 C 190.274 339.356 177.720 340.305 163.061 329.545 C 155.464 323.968 149.305 313.836 141.415 293.933 C 131.806 269.692 126.737 262.455 116.046 257.705 C 110.314 255.158 96.965 254.567 87.500 256.440 "/></g>
<g fill="#5EB082FF" stroke="#5EB082FF">
<path d="M 200.500 3.477 C 115.607 15.067 44.520 71.945 15.415 151.567 C 10.353 165.417 4.915 187.187 6.147 188.674 C 7.681 190.527 23.004 197.726 33.503 201.526 C 65.494 213.107 109.533 219.512 139.748 216.979 C 164.921 214.869 180.280 209.424 191.822 198.519 C 204.687 186.364 210.524 173.354 218.000 140.180 C 224.426 111.665 228.005 102.258 238.038 87.500 C 242.698 80.646 246.607 75.954 262.242 58.446 C 275.280 43.847 279.595 31.185 277.243 14.423 C 276.658 10.256 276.006 6.672 275.794 6.460 C 275.581 6.248 271.153 5.332 265.954 4.425 C 253.039 2.171 214.188 1.609 200.500 3.477 "/></g>
<g fill="#5EB082FF" stroke="#5EB082FF">
<path d="M 351.945 45.260 C 333.264 57.433 311.914 86.816 304.181 111.000 C 294.531 141.175 301.617 166.767 326.486 191.555 C 351.144 216.133 397.301 238.143 445.668 248.386 L 456.832 250.751 457.402 248.625 C 458.368 245.028 458.060 216.474 456.945 206.211 C 449.815 140.552 417.294 84.923 361.945 43.708 L 358.391 41.061 351.945 45.260 "/></g>
<g fill="#94BC80FF" stroke="#94BC80FF">
<path d="M 323.000 313.000 L 327.000 317.000 323.000 313.000 L 319.000 309.000 323.000 313.000 "/></g>
<g fill="#BDC57FFF" stroke="#BDC57FFF">
<path d="M 325.500 191.500 L 329.000 195.000 325.500 191.500 L 322.000 188.000 325.500 191.500 "/></g>
<g fill="#94BC80FF" stroke="#94BC80FF">
<path d="M 193.000 197.924 L 190.500 200.566 193.000 197.924 L 195.500 195.282 193.000 197.924 "/></g>
</svg>
