<?xml version="1.0" encoding="utf-8"?>
<!DOCTYPE svg PUBLIC "-//W3C//DTD SVG 20010904//EN" "http://www.w3.org/TR/2001/REC-SVG-20010904/DTD/svg10.dtd">
<svg version="1.0" xmlns="http://www.w3.org/2000/svg" width="332pt" height="497pt" viewBox="0 0 332 497" style="" preserveAspectRatio="xMidYMid meet">
<g fill="#76A7DFFF" stroke="#76A7DFFF">
<path d="M 247.500 210.604 C 243.100 210.795 213.175 211.416 181.000 211.983 C 75.114 213.852 48.214 216.385 4.104 228.644 L 1.708 229.310 2.319 243.905 C 3.770 278.614 9.419 289.444 28.146 293.424 L 30.791 293.986 31.348 308.243 C 31.655 316.084 32.388 337.038 32.978 354.807 C 35.199 421.716 40.238 466.600 47.031 480.000 C 53.920 493.589 70.831 496.605 127.500 494.348 C 220.368 490.649 279.990 482.517 289.242 472.287 C 293.747 467.304 297.621 448.337 298.898 425.000 C 299.696 410.404 300.507 355.288 300.491 316.708 L 300.483 295.917 302.991 295.371 C 317.848 292.139 323.911 288.850 327.154 282.264 C 329.376 277.751 329.517 276.281 329.816 254.350 C 330.026 238.914 329.743 229.760 328.966 226.875 C 326.736 218.592 320.214 214.857 303.000 212.004 C 296.225 210.882 261.362 210.002 247.500 210.604 M 235.000 309.159 C 242.701 310.574 247.408 313.882 249.495 319.347 C 250.878 322.970 251.131 326.424 250.848 337.830 C 250.346 358.050 249.167 359.284 228.164 361.569 C 221.199 362.327 211.225 363.455 206.000 364.077 C 199.011 364.909 189.891 364.922 171.500 364.127 C 157.750 363.532 139.525 363.146 131.000 363.269 C 113.271 363.525 106.625 362.073 100.561 356.617 C 95.406 351.981 93.924 345.704 93.271 325.750 L 92.723 309.000 97.612 308.865 C 100.300 308.790 109.700 308.413 118.500 308.027 C 140.476 307.063 228.234 307.916 235.000 309.159 "/></g>
<g fill="#5EB082FF" stroke="#5EB082FF">
<path d="M 119.045 2.040 C 107.597 4.419 98.567 11.767 95.409 21.275 C 92.930 28.739 93.853 44.421 97.259 52.686 C 102.273 64.855 111.723 76.603 125.310 87.560 C 133.320 94.019 164.271 115.257 166.999 116.166 C 168.049 116.516 167.280 119.107 163.765 127.063 C 157.221 141.872 150.354 164.126 148.605 176.191 C 147.783 181.861 146.800 192.238 146.420 199.250 L 145.729 212.000 163.712 212.000 L 181.695 212.000 182.339 200.720 C 183.674 177.348 189.058 156.850 199.183 136.597 C 201.959 131.043 204.400 126.315 204.609 126.090 C 204.817 125.864 208.028 126.862 211.744 128.308 C 233.017 136.584 253.759 136.990 272.215 129.491 C 285.819 123.963 299.933 111.757 304.660 101.432 C 306.815 96.724 307.154 94.744 306.842 88.679 C 306.392 79.936 303.944 74.742 298.194 70.334 C 290.724 64.606 284.106 62.778 269.000 62.269 C 253.448 61.744 245.625 63.017 233.577 68.032 C 224.749 71.707 206.947 82.164 200.440 87.496 C 197.437 89.956 195.870 90.712 195.617 89.820 C 195.412 89.094 194.483 84.225 193.553 79.000 C 189.813 57.987 177.638 31.567 165.506 18.139 C 154.746 6.228 133.808 -1.027 119.045 2.040 "/></g>
<g fill="#FEFEFEFF" stroke="#FEFEFEFF">
<path d="M 118.500 308.027 C 109.700 308.413 100.300 308.790 97.612 308.865 L 92.723 309.000 93.271 325.750 C 93.924 345.704 95.406 351.981 100.561 356.617 C 106.625 362.073 113.271 363.525 131.000 363.269 C 139.525 363.146 157.750 363.532 171.500 364.127 C 189.891 364.922 199.011 364.909 206.000 364.077 C 211.225 363.455 221.199 362.327 228.164 361.569 C 249.167 359.284 250.346 358.050 250.848 337.830 C 251.131 326.424 250.878 322.970 249.495 319.347 C 247.408 313.882 242.701 310.574 235.000 309.159 C 228.234 307.916 140.476 307.063 118.500 308.027 "/></g>
</svg>
