<?xml version="1.0" encoding="utf-8"?>
<!DOCTYPE svg PUBLIC "-//W3C//DTD SVG 20010904//EN" "http://www.w3.org/TR/2001/REC-SVG-20010904/DTD/svg10.dtd">
<svg version="1.0" xmlns="http://www.w3.org/2000/svg" width="441pt" height="372pt" viewBox="0 0 441 372" style="" preserveAspectRatio="xMidYMid meet">
<g fill="#488B4CFF" stroke="#488B4CFF">
<path d="M 396.944 18.259 C 394.345 20.010 391.782 24.113 385.541 36.509 C 361.968 83.335 332.989 123.436 293.500 163.873 C 275.251 182.560 255.154 201.487 254.381 200.714 C 252.811 199.144 244.712 124.430 243.029 96.000 C 241.906 77.033 241.250 74.936 235.565 72.150 C 229.539 69.197 221.336 71.515 218.517 76.967 C 215.029 83.712 217.774 121.309 226.695 189.000 C 228.688 204.125 230.360 217.593 230.410 218.929 C 230.483 220.910 228.016 223.258 217.000 231.685 C 200.664 244.182 182.529 257.000 181.184 257.000 C 179.932 257.000 171.844 235.092 167.417 219.712 C 165.551 213.229 163.300 202.429 162.414 195.712 C 161.528 188.995 160.601 182.028 160.353 180.229 C 159.738 175.775 154.677 170.218 150.526 169.439 C 145.241 168.447 138.320 171.994 136.341 176.709 C 132.139 186.716 139.015 220.708 152.519 256.685 C 155.534 264.716 158.000 271.659 158.000 272.113 C 158.000 272.846 139.310 284.230 116.500 297.391 C 102.518 305.459 75.898 318.589 64.000 323.287 C 57.675 325.784 42.655 331.256 30.622 335.447 C 18.589 339.638 7.965 343.484 7.013 343.993 C 4.050 345.579 1.667 350.263 1.667 354.500 C 1.667 361.497 7.059 367.000 13.915 367.000 C 17.133 367.000 52.675 354.761 75.000 345.965 C 98.149 336.844 140.673 314.280 171.463 294.779 L 182.426 287.836 193.463 291.440 C 211.671 297.386 238.237 302.124 273.000 305.626 C 294.579 307.799 337.384 308.114 341.000 306.125 C 345.447 303.679 348.000 300.714 349.066 296.756 C 350.319 292.100 348.191 286.865 343.714 283.593 C 341.121 281.697 339.708 281.576 323.214 281.844 C 294.045 282.317 256.954 278.886 226.000 272.852 C 217.475 271.190 210.371 269.702 210.214 269.545 C 210.056 269.389 215.906 264.820 223.214 259.393 C 230.521 253.966 240.020 246.690 244.322 243.225 L 252.144 236.925 257.756 237.963 C 271.441 240.492 293.526 238.828 317.812 233.435 C 352.551 225.722 406.935 202.608 413.750 192.660 C 418.225 186.129 415.962 176.634 409.162 173.407 C 404.296 171.097 400.487 172.046 390.500 178.057 C 367.241 192.056 326.722 206.302 295.387 211.498 C 278.906 214.231 278.902 214.213 293.034 201.000 C 330.709 165.776 367.277 120.562 392.360 78.191 C 407.849 52.027 416.000 34.644 416.000 27.775 C 416.000 18.075 405.212 12.687 396.944 18.259 "/></g>
<g fill="#5EB082FF" stroke="#5EB082FF">
<path d="M 321.500 3.610 C 284.024 10.311 250.932 34.382 238.423 64.041 C 235.352 71.323 235.294 71.702 237.077 72.816 C 241.264 75.431 241.956 78.135 243.025 96.063 C 244.724 124.557 252.818 199.152 254.381 200.714 C 255.154 201.487 275.251 182.560 293.500 163.873 C 336.870 119.461 368.902 73.466 393.798 19.852 C 394.321 18.725 379.751 10.193 372.898 7.614 C 358.388 2.152 338.373 0.593 321.500 3.610 "/></g>
<g fill="#5EB082FF" stroke="#5EB082FF">
<path d="M 168.500 296.479 C 161.350 301.028 148.852 308.579 140.726 313.259 L 125.952 321.768 133.193 328.472 C 152.712 346.544 181.351 360.931 210.133 367.124 C 223.970 370.101 250.466 370.803 264.116 368.555 C 295.566 363.375 319.549 348.708 330.431 327.999 C 333.192 322.745 336.898 311.434 336.983 308.000 C 336.990 307.725 326.309 307.445 313.248 307.378 C 270.809 307.161 220.351 300.442 193.304 291.406 C 187.696 289.533 182.746 288.047 182.304 288.104 C 181.862 288.161 175.650 291.930 168.500 296.479 "/></g>
<g fill="#5EB082FF" stroke="#5EB082FF">
<path d="M 184.275 85.539 C 159.340 92.255 143.981 114.634 144.008 144.208 C 144.014 151.666 145.258 162.788 146.572 167.145 C 146.846 168.053 148.587 169.075 150.458 169.426 C 154.678 170.218 159.733 175.736 160.353 180.229 C 160.601 182.028 161.528 188.995 162.414 195.712 C 163.300 202.429 165.551 213.229 167.417 219.712 C 171.866 235.167 179.935 257.000 181.198 257.000 C 183.071 257.000 228.981 223.458 230.522 220.964 C 230.837 220.454 230.630 217.442 230.061 214.269 C 226.581 194.840 218.465 121.777 217.204 98.515 L 216.500 85.529 212.500 84.822 C 205.813 83.640 189.817 84.046 184.275 85.539 "/></g>
<g fill="#5EB082FF" stroke="#5EB082FF">
<path d="M 408.615 48.750 C 398.123 70.017 377.544 103.060 361.480 124.435 C 341.954 150.416 315.568 179.932 293.034 201.000 C 278.902 214.213 278.906 214.231 295.387 211.498 C 326.722 206.302 367.241 192.056 390.500 178.057 C 400.541 172.014 404.418 171.057 409.163 173.449 L 412.500 175.131 416.000 171.193 C 421.385 165.133 428.927 151.934 432.616 142.115 C 442.147 116.738 440.795 91.954 428.413 65.117 C 424.931 57.569 414.449 41.000 413.156 41.000 C 412.761 41.000 410.718 44.488 408.615 48.750 "/></g>
<g fill="#5EB082FF" stroke="#5EB082FF">
<path d="M 402.500 201.057 C 384.459 212.040 343.302 227.775 317.812 233.435 C 293.526 238.828 271.441 240.492 257.756 237.963 L 252.144 236.925 244.322 243.225 C 240.020 246.690 230.521 253.966 223.214 259.393 C 215.906 264.820 210.056 269.389 210.214 269.545 C 210.371 269.702 217.475 271.190 226.000 272.852 C 256.954 278.886 294.045 282.317 323.214 281.844 C 343.465 281.515 344.779 281.931 348.495 289.845 C 350.460 294.030 350.549 294.083 354.495 293.427 C 378.513 289.433 405.243 265.231 414.645 238.964 C 416.936 232.566 417.324 229.858 417.366 220.000 C 417.408 209.994 417.095 207.730 414.957 202.574 C 413.606 199.315 412.050 196.545 411.500 196.418 C 410.950 196.291 406.900 198.378 402.500 201.057 "/></g>
<g fill="#5EB082FF" stroke="#5EB082FF">
<path d="M 127.185 187.949 C 121.228 193.967 118.972 197.213 115.039 205.420 C 107.020 222.154 104.452 238.441 106.117 262.000 C 106.908 273.181 111.029 297.363 112.374 298.707 C 113.322 299.655 158.000 273.606 158.000 272.106 C 158.000 271.656 155.534 264.716 152.519 256.685 C 142.681 230.474 136.847 207.639 135.234 189.029 L 134.500 180.557 127.185 187.949 "/></g>
</svg>
