<?xml version="1.0" encoding="utf-8"?>
<!DOCTYPE svg PUBLIC "-//W3C//DTD SVG 20010904//EN" "http://www.w3.org/TR/2001/REC-SVG-20010904/DTD/svg10.dtd">
<svg version="1.0" xmlns="http://www.w3.org/2000/svg" width="396pt" height="378pt" viewBox="0 0 396 378" style="" preserveAspectRatio="xMidYMid meet">
<g fill="#FEE2DDFF" stroke="#FEE2DDFF">
<path d="M 103.444 3.819 C 91.004 7.501 77.379 17.319 68.275 29.163 C 51.262 51.295 46.932 85.187 56.393 122.161 L 59.660 134.926 55.742 138.713 C 40.633 153.317 19.485 186.985 10.640 210.518 C 0.836 236.601 -0.622 263.060 6.577 284.227 C 18.488 319.247 55.352 348.070 109.039 364.340 C 140.337 373.825 172.050 377.646 205.000 375.903 C 287.447 371.541 353.992 334.367 382.939 276.500 C 398.831 244.731 398.294 211.478 381.341 177.508 C 379.417 173.654 376.482 168.363 374.817 165.750 L 371.792 161.000 366.092 161.000 C 360.958 161.000 360.075 160.673 357.196 157.702 C 354.591 155.015 354.000 153.596 354.000 150.031 C 354.000 147.551 354.648 144.941 355.497 144.003 C 356.854 142.504 356.223 141.604 348.747 134.378 C 344.211 129.994 338.995 125.258 337.155 123.854 L 333.810 121.300 336.817 111.900 C 349.235 73.079 347.006 36.921 331.080 18.828 C 326.452 13.571 316.858 8.226 306.000 4.856 C 295.479 1.591 279.529 1.548 269.325 4.756 C 255.221 9.191 240.264 21.782 230.510 37.431 C 221.896 51.253 214.441 71.657 212.409 86.975 C 212.039 89.764 211.314 92.306 210.797 92.626 C 210.280 92.945 203.852 92.381 196.512 91.373 L 183.168 89.540 178.517 76.628 C 167.978 47.365 155.808 24.570 145.244 14.303 C 142.830 11.957 137.485 8.372 133.366 6.336 C 126.887 3.134 124.773 2.594 117.688 2.331 C 111.969 2.118 107.673 2.567 103.444 3.819 M 158.624 259.060 C 166.253 262.753 169.075 272.658 164.491 279.654 C 162.510 282.678 157.218 285.991 154.361 285.996 C 152.707 285.999 152.073 286.798 151.562 289.521 C 149.476 300.640 130.345 309.007 113.654 306.100 C 100.966 303.891 93.341 299.078 90.423 291.439 C 88.084 285.312 89.524 280.616 95.404 275.196 C 104.110 267.170 123.910 264.381 136.155 269.455 C 137.414 269.977 137.964 269.441 138.454 267.211 C 139.175 263.926 143.221 259.623 147.000 258.121 C 150.893 256.573 154.007 256.825 158.624 259.060 M 237.624 259.060 C 240.733 260.565 242.443 262.284 243.972 265.441 L 246.063 269.762 251.162 268.268 C 259.277 265.889 272.918 266.896 280.777 270.455 C 287.384 273.447 292.540 278.318 293.609 282.579 C 295.004 288.135 293.352 293.274 288.785 297.589 C 282.337 303.682 274.687 306.269 263.000 306.311 C 252.900 306.348 246.355 304.557 239.552 299.895 C 233.328 295.631 229.569 287.187 233.750 286.865 C 234.713 286.791 233.574 286.570 231.219 286.375 C 222.013 285.611 217.010 280.314 217.004 271.327 C 217.001 267.162 217.526 265.528 219.700 262.944 C 224.727 256.970 230.654 255.686 237.624 259.060 "/></g>
<g fill="#F66F6CFF" stroke="#F66F6CFF">
<path d="M 250.500 268.304 C 246.867 269.447 246.450 269.931 245.959 273.583 C 245.662 275.795 244.433 278.988 243.229 280.679 C 241.196 283.534 235.641 287.000 233.099 287.000 C 231.274 287.000 231.862 291.175 234.160 294.528 C 236.855 298.461 241.228 301.495 248.142 304.228 C 255.864 307.280 270.190 307.164 278.472 303.984 C 286.717 300.817 292.948 294.805 293.686 289.305 C 293.995 287.004 293.960 283.977 293.609 282.579 C 292.541 278.322 287.387 273.449 280.777 270.445 C 275.436 268.017 273.009 267.551 264.500 267.319 C 258.473 267.154 252.911 267.546 250.500 268.304 "/></g>
<g fill="#F66F6CFF" stroke="#F66F6CFF">
<path d="M 105.546 269.357 C 100.300 271.192 97.554 272.888 94.366 276.262 C 89.013 281.928 88.075 286.121 90.789 292.256 C 94.643 300.969 105.623 306.271 120.000 306.364 C 136.422 306.469 149.068 299.809 151.541 289.750 C 152.081 287.553 151.871 287.000 150.495 287.000 C 144.939 287.000 137.000 278.557 137.000 272.649 C 137.000 268.860 133.874 267.705 122.500 267.290 C 113.888 266.976 111.535 267.263 105.546 269.357 "/></g>
<g fill="#7F4229FF" stroke="#7F4229FF">
<path d="M 225.450 258.407 C 223.773 259.137 221.186 261.179 219.700 262.944 C 214.439 269.197 216.778 280.766 224.067 284.535 C 236.807 291.123 250.249 278.409 244.060 265.625 C 240.601 258.479 232.499 255.337 225.450 258.407 "/></g>
<g fill="#7F4229FF" stroke="#7F4229FF">
<path d="M 146.500 258.412 C 134.321 263.825 134.885 281.140 147.379 285.406 C 159.759 289.633 170.737 277.351 165.060 265.625 C 161.605 258.487 153.456 255.320 146.500 258.412 "/></g>
</svg>
