<?xml version="1.0" encoding="utf-8"?>
<!DOCTYPE svg PUBLIC "-//W3C//DTD SVG 20010904//EN" "http://www.w3.org/TR/2001/REC-SVG-20010904/DTD/svg10.dtd">
<svg version="1.0" xmlns="http://www.w3.org/2000/svg" width="407pt" height="401pt" viewBox="0 0 407 401" style="" preserveAspectRatio="xMidYMid meet">
<g fill="#FDD37DFF" stroke="#FDD37DFF">
<path d="M 183.500 2.577 C 169.407 4.540 164.198 5.486 155.509 7.659 C 133.507 13.161 111.163 23.953 91.026 38.803 C 81.252 46.011 60.646 66.189 52.019 77.000 C 16.814 121.118 -2.569 181.681 1.968 233.380 C 4.725 264.788 13.411 290.324 29.669 314.818 C 38.135 327.573 58.627 347.735 72.480 356.940 C 90.551 368.948 117.143 381.096 141.552 388.495 C 204.129 407.463 263.998 400.534 313.349 368.612 C 335.998 353.961 357.986 331.305 372.917 307.230 C 392.434 275.762 403.374 239.706 404.708 202.452 C 406.368 156.079 393.277 113.524 366.115 77.000 C 353.748 60.371 331.225 39.503 312.480 27.308 C 303.471 21.446 297.002 19.359 277.376 15.981 C 270.294 14.763 259.444 12.253 253.264 10.405 C 236.199 5.300 220.884 2.919 202.500 2.513 C 193.700 2.319 185.150 2.348 183.500 2.577 M 275.857 165.100 C 279.822 166.482 280.403 168.717 279.031 177.307 C 276.054 195.940 267.518 206.051 246.206 216.191 C 217.626 229.789 182.833 228.809 160.350 213.772 C 151.773 208.035 146.128 201.447 141.437 191.699 C 137.682 183.898 135.035 171.565 136.748 169.852 C 137.670 168.930 166.820 167.304 228.500 164.736 C 248.904 163.886 272.904 164.071 275.857 165.100 M 265.890 97.308 C 276.782 104.516 276.382 119.618 264.997 131.003 C 257.274 138.726 246.299 141.382 240.607 136.905 C 236.650 133.793 233.799 127.367 233.230 120.279 C 232.784 114.717 233.079 113.282 235.807 107.740 C 240.991 97.211 246.119 93.833 256.160 94.333 C 260.306 94.539 262.908 95.335 265.890 97.308 M 171.298 95.351 C 175.577 97.139 180.624 103.012 182.092 107.912 C 184.298 115.276 180.370 124.819 172.031 132.353 C 157.519 145.464 142.068 138.587 142.032 119.000 C 142.012 108.439 148.682 97.316 156.371 95.087 C 161.087 93.720 167.674 93.837 171.298 95.351 M 327.674 143.706 C 329.658 147.092 330.528 150.107 330.776 154.456 C 331.241 162.620 329.032 166.569 321.885 170.346 C 317.225 172.809 315.717 173.124 310.683 172.685 C 303.490 172.057 297.848 168.583 295.020 163.039 C 291.275 155.698 292.695 150.999 300.294 145.596 C 305.745 141.720 313.358 139.362 321.208 139.116 C 324.614 139.009 325.140 139.383 327.674 143.706 M 110.660 142.812 C 115.302 149.723 115.637 159.327 111.458 165.704 C 109.368 168.895 100.547 172.978 95.718 172.990 C 84.949 173.018 74.570 162.787 76.492 154.038 C 77.679 148.630 86.367 142.540 96.000 140.364 C 104.750 138.387 108.060 138.940 110.660 142.812 "/></g>
<g fill="#070308FF" stroke="#070308FF">
<path d="M 228.500 164.736 C 166.820 167.304 137.670 168.930 136.748 169.852 C 135.035 171.565 137.682 183.898 141.437 191.699 C 146.128 201.447 151.773 208.035 160.350 213.772 C 173.445 222.530 190.499 226.734 208.532 225.649 C 227.135 224.530 246.468 217.939 260.669 207.873 C 271.602 200.123 276.757 191.543 279.031 177.307 C 280.403 168.717 279.822 166.482 275.857 165.100 C 272.904 164.071 248.904 163.886 228.500 164.736 M 273.727 169.810 C 275.643 171.028 273.476 182.405 269.942 189.685 C 266.132 197.531 259.939 203.131 248.409 209.155 C 203.048 232.854 152.615 218.952 142.643 180.000 C 141.869 176.975 141.425 174.294 141.658 174.043 C 142.335 173.310 235.789 169.273 255.000 169.146 C 264.625 169.083 273.052 169.382 273.727 169.810 "/></g>
<g fill="#FDD37DFF" stroke="#FDD37DFF">
<path d="M 189.790 171.424 C 163.550 172.613 141.890 173.792 141.658 174.043 C 140.881 174.883 144.020 185.436 146.703 191.000 C 148.223 194.154 152.157 199.308 155.927 203.084 C 177.089 224.281 214.728 226.751 248.409 209.155 C 259.939 203.131 266.132 197.531 269.942 189.685 C 273.476 182.405 275.643 171.028 273.727 169.810 C 271.708 168.528 240.419 169.129 189.790 171.424 "/></g>
<g fill="#FFFFFFFF" stroke="#FFFFFFFF">
<path d="M 154.000 96.752 C 149.920 98.790 144.511 106.390 142.906 112.343 C 140.701 120.518 144.170 133.099 149.612 136.666 C 155.787 140.712 165.939 138.102 173.521 130.521 C 184.268 119.773 184.786 105.204 174.681 97.884 C 171.250 95.398 169.789 95.000 164.100 95.002 C 159.820 95.003 156.269 95.618 154.000 96.752 M 172.344 104.288 C 177.387 109.044 177.976 113.485 174.504 120.582 C 169.947 129.895 160.679 134.954 154.256 131.633 C 147.406 128.090 145.896 115.289 151.354 107.041 C 154.575 102.174 156.688 101.149 163.679 101.063 C 168.204 101.008 169.298 101.415 172.344 104.288 "/></g>
<g fill="#FFFFFFFF" stroke="#FFFFFFFF">
<path d="M 245.678 96.484 C 235.873 101.598 230.837 118.166 235.758 129.116 C 238.884 136.072 242.186 138.509 248.403 138.451 C 259.100 138.349 270.805 127.542 273.439 115.334 C 274.858 108.755 270.333 99.775 263.931 96.464 C 260.243 94.557 249.350 94.569 245.678 96.484 M 261.960 102.636 C 267.264 105.769 269.474 112.992 267.067 119.324 C 265.501 123.443 259.737 129.229 255.201 131.235 C 248.099 134.377 242.728 131.833 240.139 124.101 C 237.839 117.235 239.620 110.145 244.992 104.773 C 248.391 101.374 249.282 101.000 253.978 101.000 C 257.009 101.000 260.351 101.685 261.960 102.636 "/></g>
<g fill="#F66F6CFF" stroke="#F66F6CFF">
<path d="M 315.500 139.649 C 308.300 141.148 304.411 142.669 300.294 145.596 C 292.695 150.999 291.275 155.698 295.020 163.039 C 297.848 168.583 303.490 172.057 310.683 172.685 C 315.717 173.124 317.225 172.809 321.885 170.346 C 329.032 166.569 331.241 162.620 330.776 154.456 C 330.528 150.107 329.658 147.092 327.674 143.706 C 325.140 139.383 324.614 139.009 321.208 139.116 C 319.169 139.180 316.600 139.419 315.500 139.649 "/></g>
<g fill="#F66F6CFF" stroke="#F66F6CFF">
<path d="M 96.000 140.364 C 86.367 142.540 77.679 148.630 76.492 154.038 C 74.570 162.787 84.949 173.018 95.718 172.990 C 100.547 172.978 109.368 168.895 111.458 165.704 C 115.637 159.327 115.302 149.723 110.660 142.812 C 108.060 138.940 104.750 138.387 96.000 140.364 "/></g>
<g fill="#070308FF" stroke="#070308FF">
<path d="M 247.841 102.524 C 244.654 104.255 241.063 109.788 239.964 114.661 C 238.911 119.329 241.143 127.888 244.021 130.218 C 248.995 134.246 258.089 131.431 263.709 124.124 C 269.417 116.703 269.298 109.903 263.360 104.304 C 260.404 101.515 259.128 101.006 255.179 101.040 C 252.605 101.062 249.304 101.730 247.841 102.524 "/></g>
<g fill="#070308FF" stroke="#070308FF">
<path d="M 157.500 101.954 C 150.479 104.858 146.064 116.759 149.067 124.685 C 151.681 131.585 158.215 134.035 164.800 130.585 C 168.485 128.654 173.651 123.101 174.939 119.685 C 176.360 115.915 176.223 110.029 174.647 107.190 C 171.772 102.008 163.486 99.478 157.500 101.954 "/></g>
</svg>
