<svg xmlns="http://www.w3.org/2000/svg" viewBox="0 0 100.4853 93.88611"><defs><style>.cls-1{fill:#b2ce5b;}.cls-2{fill:#f0869e;}.cls-3{fill:#ee7264;}.cls-4{fill:#ffe600;}</style></defs><g id="图层_2" data-name="图层 2"><g id="OBJECTS"><path class="cls-1" d="M30.46727,69.11514c-2.25493,1.29453.35064-5.35037.26971-6.4724q-2.11322,1.0797-4.22161,2.1706c.053,4.11605-2.40094,6.28765-1.07339.5539-2.4998,1.2081-22.14715,12.35937-11.61311,5.0959-11.88124-.265-5.43568-3.44425,1.2785-.823q2.82135-1.799,5.7295-3.552c-13.6602-.51956-7.2972-3.12584,1.4119-.8488,3.4978-2.0767,7.0743-4.0732,10.701-5.9408-13.08011-2.44008-6.99808-4.68209,1.0133-.518a142.43021,142.43021,0,0,1,13.3297-5.9484C38.06165,43.1964-.08935,65.14869.00409,76.35557c-.30045,6.54839,16.03107,6.30878,28.83876-.11573,14.77131-7.693,18.08762-17.22946,18.78862-22.2962-5.2129,2.746-10.4526,5.4141-15.6886,8.0845A18.60758,18.60758,0,0,1,30.46727,69.11514Z"/><path class="cls-1" d="M47.44057,75.60934c-1.27751,1.595-1.66547-3.8953-2.2183-4.786-.7515,1.0464-7.9374,11.263-10.3746,15.0291a.3007.3007,0,0,1-.5145-.3107c.5121-.9143,4.0411-6.9659,5.007-8.5325-10.07407,4.71491-6.45312.46032.7056-1.1409,1.7577-2.8077,3.6023-5.5867,5.5313-8.2911-10.14968,3.0705-6.85865-.78369.5403-.7529a116.02148,116.02148,0,0,1,7.4314-9.2768C43.273,54.01456,23.841,84.13262,28.08788,92.21073c2.52041,4.80911,13.75258-1.33087,20.83359-10.8378,7.82439-11.07746,6.66912-19.21778,5.287-23.147-2.7497,3.9317-5.5479,7.8171-8.3424,11.7028A15.15345,15.15345,0,0,1,47.44057,75.60934Z"/><path class="cls-2" d="M52.796,76.16564c-5.08908-4.24441-7.31267-11.3695-6.53851-17.9538C23.367,59.23673,18.83928,28.02792,42.139,24.13084,36.11117,1.24825,68.673-11.147,75.24187,13.54764,96.26825.14355,111.05155,25.77258,90.95407,39.07154c16.97113,12.1778,5.42461,38.87368-15.1065,28.593C71.2413,77.72529,59.3258,81.59142,52.796,76.16564Z"/><path class="cls-3" d="M60.07647,57.72334a10.67555,10.67555,0,0,1-3.4101-9.3638c-11.84573.72246-14.22718-15.95327-2.148-17.775-3.31325-11.81168,14.0484-18.35687,17.2648-5.5196,10.74486-7.09626,18.72028,6.59276,8.1947,13.312,8.89053,6.15907,2.65275,20.39066-7.8788,14.9126C70.117,58.3237,62.98391,60.59154,60.07647,57.72334Z"/><path class="cls-4" d="M64.28277,33.14124c-7.014,1.42272-4.15648,13.76362,2.80559,11.6159C72.03361,44.47381,75.31871,31.13434,64.28277,33.14124Z"/></g></g></svg>