<?xml version="1.0" encoding="utf-8"?>
<!DOCTYPE svg PUBLIC "-//W3C//DTD SVG 20010904//EN" "http://www.w3.org/TR/2001/REC-SVG-20010904/DTD/svg10.dtd">
<svg version="1.0" xmlns="http://www.w3.org/2000/svg" width="376pt" height="371pt" viewBox="0 0 376 371" style="" preserveAspectRatio="xMidYMid meet">
<g fill="#FDD37DFF" stroke="#FDD37DFF">
<path d="M 173.328 72.250 C 169.428 76.377 167.663 79.425 165.080 86.500 C 156.548 109.871 149.059 151.686 144.483 201.500 C 143.574 211.400 142.659 219.672 142.449 219.882 C 142.240 220.093 135.641 214.066 127.784 206.491 C 103.200 182.785 79.191 163.770 63.726 155.756 C 47.509 147.352 36.901 147.709 33.915 156.758 C 32.206 161.936 33.389 177.470 36.426 189.731 C 44.745 223.318 67.645 280.999 98.965 347.261 L 103.107 356.023 107.582 352.944 C 117.721 345.968 131.743 341.635 150.171 339.784 C 180.507 336.738 226.226 345.761 271.320 363.696 C 278.922 366.719 285.285 369.037 285.461 368.846 C 286.111 368.143 297.350 332.794 304.011 310.500 C 323.369 245.720 333.522 201.692 334.684 177.500 C 335.586 158.702 332.860 154.787 321.385 158.405 C 318.442 159.333 314.113 161.538 311.766 163.305 C 309.420 165.072 306.302 167.049 304.837 167.698 C 297.303 171.036 270.519 197.000 250.624 220.250 C 245.094 226.713 240.321 232.000 240.018 232.000 C 239.715 232.000 238.428 226.938 237.157 220.750 C 235.887 214.563 232.354 198.925 229.305 186.000 C 211.809 111.830 193.731 67.000 181.316 67.000 C 178.962 67.000 177.188 68.166 173.328 72.250 "/></g>
<g fill="#FDD37DFF" stroke="#FDD37DFF">
<path d="M 348.500 108.400 C 346.850 109.128 344.199 111.023 342.610 112.611 C 326.726 128.488 347.120 152.977 366.336 141.101 C 375.451 135.468 377.350 122.323 370.265 113.903 C 365.160 107.836 355.387 105.365 348.500 108.400 "/></g>
<g fill="#FDD37DFF" stroke="#FDD37DFF">
<path d="M 174.500 3.662 C 167.296 7.460 164.000 12.714 164.000 20.403 C 164.000 31.396 171.525 39.000 182.403 39.000 C 190.356 39.000 195.463 35.877 199.097 28.790 C 202.480 22.195 200.660 11.499 195.355 6.788 C 190.151 2.167 180.172 0.671 174.500 3.662 "/></g>
<g fill="#FDD37DFF" stroke="#FDD37DFF">
<path d="M 7.975 112.750 C 1.577 119.199 0.178 123.235 2.000 129.998 C 3.320 134.903 8.327 140.821 12.702 142.649 C 20.649 145.969 31.092 142.840 35.799 135.727 C 37.957 132.466 38.469 130.520 38.483 125.529 C 38.514 114.240 31.049 107.000 19.380 107.000 C 13.769 107.000 13.591 107.090 7.975 112.750 "/></g>
</svg>
