<?xml version="1.0" encoding="utf-8"?>
<!DOCTYPE svg PUBLIC "-//W3C//DTD SVG 20010904//EN" "http://www.w3.org/TR/2001/REC-SVG-20010904/DTD/svg10.dtd">
<svg version="1.0" xmlns="http://www.w3.org/2000/svg" width="560pt" height="602pt" viewBox="0 0 560 602" style="" preserveAspectRatio="xMidYMid meet">
<g fill="#513736FF" stroke="#513736FF">
<path d="M 220.000 3.538 C 177.322 10.285 139.279 42.345 124.119 84.340 C 118.389 100.211 116.676 109.064 115.473 129.018 C 114.459 145.838 119.016 173.702 125.038 187.500 C 125.518 188.600 127.014 192.200 128.363 195.500 C 133.480 208.016 144.534 225.500 153.140 234.690 C 155.813 237.545 158.000 240.550 158.000 241.369 C 158.000 242.391 156.197 243.194 152.250 243.928 C 134.330 247.262 119.358 251.963 105.000 258.764 C 96.693 262.698 85.512 268.875 82.500 271.193 C 81.950 271.616 77.887 274.629 73.471 277.889 C 62.716 285.828 52.568 295.343 45.404 304.203 C 42.159 308.216 39.265 311.725 38.973 312.000 C 34.599 316.115 16.012 348.239 15.997 351.709 C 15.995 352.144 14.713 355.650 13.149 359.500 C 11.585 363.350 9.289 370.775 8.047 376.000 C 6.806 381.225 5.343 386.850 4.796 388.500 C 3.302 393.011 2.612 433.097 3.859 443.000 C 8.946 483.418 26.513 518.704 56.226 548.187 C 63.328 555.234 69.728 561.000 70.447 561.000 C 71.167 561.000 72.282 561.635 72.926 562.411 C 75.464 565.468 91.159 574.991 103.500 580.961 C 119.112 588.512 118.504 588.257 128.500 591.444 C 151.133 598.658 168.396 599.964 241.000 599.956 C 320.769 599.947 333.853 598.685 362.500 588.239 C 369.506 585.684 386.417 577.671 393.000 573.786 C 415.194 560.689 435.393 541.481 449.561 520.000 C 456.086 510.106 456.145 510.003 461.606 499.000 C 465.165 491.828 473.000 472.186 473.000 470.435 C 473.000 470.318 479.413 466.962 487.250 462.978 C 495.088 458.994 501.959 455.375 502.519 454.937 C 504.070 453.722 529.560 440.613 546.320 432.411 C 551.722 429.768 556.558 426.827 557.067 425.875 C 558.282 423.604 557.415 421.534 554.697 420.217 C 550.964 418.408 533.011 410.466 522.500 405.973 C 517.000 403.622 509.686 400.417 506.247 398.849 C 502.808 397.282 499.376 396.000 498.620 396.000 C 497.864 396.000 496.685 395.325 496.000 394.500 C 495.315 393.675 494.023 392.992 493.128 392.981 C 492.232 392.971 488.165 391.283 484.089 389.231 L 476.678 385.500 474.858 378.500 C 471.384 365.137 466.697 352.157 463.790 347.846 C 462.806 346.386 462.000 344.680 462.000 344.055 C 462.000 342.653 454.274 328.091 452.379 325.921 C 451.620 325.053 451.000 324.035 451.000 323.660 C 451.000 321.558 435.347 302.317 426.413 293.437 C 420.686 287.744 416.000 282.700 416.000 282.227 C 416.000 281.755 418.588 280.303 421.750 279.001 C 443.931 269.872 467.064 246.489 478.470 221.670 C 485.990 205.305 485.883 205.589 489.622 192.000 C 492.239 182.492 494.991 160.925 494.982 150.000 C 494.974 139.561 492.347 120.260 489.576 110.275 C 485.954 97.224 476.373 82.153 465.045 71.690 C 455.419 62.797 444.789 57.313 427.804 52.476 C 416.192 49.169 395.571 48.946 382.829 51.989 C 370.011 55.050 355.477 61.287 345.200 68.135 C 340.382 71.345 338.000 71.770 338.000 69.419 C 338.000 67.151 331.563 54.631 326.399 46.855 C 320.489 37.956 305.905 24.353 295.754 18.272 C 272.695 4.459 246.455 -0.645 220.000 3.538 M 353.021 258.969 C 366.242 263.137 384.211 271.700 395.066 279.006 C 421.898 297.063 444.019 323.614 456.717 353.000 C 460.069 360.755 466.000 377.721 466.000 379.552 C 466.000 379.798 464.907 380.000 463.571 380.000 C 462.236 380.000 460.412 380.731 459.518 381.625 C 456.790 384.353 458.057 387.285 463.000 389.683 C 465.475 390.884 483.047 398.584 502.048 406.795 C 521.050 415.007 537.908 422.412 539.510 423.251 L 542.424 424.778 523.409 434.295 C 512.952 439.530 502.770 444.725 500.784 445.841 C 498.797 446.956 488.021 452.470 476.836 458.094 C 451.264 470.952 449.000 472.359 449.000 475.390 C 449.000 479.528 451.482 480.623 456.578 478.735 C 459.010 477.833 461.000 477.283 461.000 477.511 C 461.000 480.238 450.117 502.632 444.476 511.512 C 431.128 532.524 409.630 553.508 388.280 566.363 C 376.224 573.622 348.832 585.000 343.412 585.000 C 342.187 585.000 341.860 583.990 337.577 567.000 C 336.121 561.225 334.514 554.925 334.005 553.000 C 329.810 537.126 323.675 499.501 320.471 470.000 C 318.353 450.496 317.473 398.375 318.854 374.239 C 321.124 334.566 326.678 297.768 336.208 259.250 C 336.894 256.479 337.812 255.000 338.846 255.000 C 339.718 255.000 346.097 256.786 353.021 258.969 M 177.000 251.895 C 177.000 252.387 176.141 255.649 175.092 259.145 C 168.297 281.781 161.031 315.462 156.572 345.000 C 149.162 394.082 148.970 449.763 156.053 495.000 C 160.805 525.347 168.790 554.732 179.557 581.500 C 181.326 585.900 182.600 589.795 182.387 590.155 C 182.174 590.515 179.187 590.621 175.750 590.389 C 147.757 588.500 129.718 584.099 108.005 573.860 C 81.048 561.148 56.417 539.699 39.264 514.000 C 0.704 456.227 2.119 379.188 42.790 322.077 C 72.759 279.994 122.175 252.824 171.750 251.175 C 174.638 251.079 177.000 251.403 177.000 251.895 M 423.143 60.443 C 437.906 63.572 455.551 73.196 464.074 82.767 C 476.997 97.279 482.846 112.740 484.981 138.034 C 487.311 165.629 481.871 195.685 470.544 217.798 C 455.711 246.757 435.814 265.426 411.227 273.454 L 405.955 275.176 397.543 269.727 C 387.069 262.942 371.015 255.053 360.500 251.523 C 338.783 244.234 325.852 242.303 292.750 241.407 C 263.370 240.612 265.891 241.721 268.431 230.706 C 269.218 227.292 270.579 221.125 271.455 217.000 C 285.588 150.446 307.217 108.330 340.500 82.557 C 344.900 79.149 350.750 75.012 353.500 73.362 C 363.362 67.446 379.256 61.493 390.000 59.692 C 396.109 58.667 417.000 59.141 423.143 60.443 M 256.676 12.951 C 272.657 16.126 282.027 19.961 295.416 28.805 C 303.009 33.821 314.258 44.607 318.827 51.251 C 322.942 57.235 328.626 68.725 329.950 73.735 L 331.069 77.970 323.926 84.708 C 301.549 105.818 284.599 135.731 272.437 175.578 C 268.039 189.983 260.218 223.070 258.504 234.520 C 258.173 236.732 257.575 239.069 257.176 239.715 C 256.643 240.578 245.234 240.936 213.976 241.068 L 171.500 241.248 164.220 233.374 C 144.681 212.239 132.359 188.191 126.913 160.557 C 124.165 146.615 124.165 121.384 126.913 107.442 C 134.478 69.059 158.288 37.426 191.196 22.038 C 201.164 17.377 209.408 14.582 217.500 13.122 C 220.800 12.526 224.400 11.857 225.500 11.635 C 231.252 10.475 247.710 11.170 256.676 12.951 "/></g>
<g fill="#FED966FF" stroke="#FED966FF">
<path d="M 336.208 259.250 C 326.677 297.772 321.123 334.574 318.855 374.239 C 317.479 398.299 318.364 450.472 320.480 470.031 C 323.656 499.388 329.805 537.108 334.005 553.000 C 334.514 554.925 336.121 561.225 337.577 567.000 C 341.860 583.990 342.187 585.000 343.412 585.000 C 346.113 585.000 363.602 578.734 372.479 574.586 C 401.639 560.959 427.402 538.389 444.476 511.512 C 450.117 502.632 461.000 480.238 461.000 477.511 C 461.000 477.283 459.010 477.833 456.578 478.735 C 451.482 480.623 449.000 479.528 449.000 475.390 C 449.000 472.488 451.507 470.851 471.000 461.032 C 478.975 457.015 491.350 450.696 498.500 446.989 C 505.650 443.282 518.457 436.768 526.961 432.513 L 542.421 424.777 539.509 423.251 C 537.907 422.411 521.050 415.007 502.048 406.795 C 483.047 398.584 465.475 390.884 463.000 389.683 C 458.057 387.285 456.790 384.353 459.518 381.625 C 460.412 380.731 462.236 380.000 463.571 380.000 C 464.907 380.000 466.000 379.798 466.000 379.552 C 466.000 377.721 460.069 360.755 456.717 353.000 C 437.286 308.032 398.463 273.057 351.928 258.596 C 345.563 256.618 339.659 255.000 338.808 255.000 C 337.818 255.000 336.881 256.533 336.208 259.250 "/></g>
<g fill="#FED966FF" stroke="#FED966FF">
<path d="M 162.000 251.706 C 154.260 252.320 138.550 255.857 127.519 259.471 C 48.798 285.258 -0.161 366.250 13.431 448.208 C 18.179 476.842 30.352 503.956 49.030 527.500 C 57.296 537.919 73.980 553.119 86.024 561.203 C 108.764 576.466 134.622 586.210 159.500 588.890 C 174.127 590.466 181.947 590.898 182.387 590.155 C 182.600 589.795 181.326 585.900 179.557 581.500 C 168.790 554.732 160.805 525.347 156.053 495.000 C 148.970 449.763 149.162 394.082 156.572 345.000 C 161.031 315.462 168.297 281.781 175.092 259.145 C 176.141 255.649 177.000 252.387 177.000 251.895 C 177.000 251.032 171.398 250.961 162.000 251.706 M 102.277 337.060 C 108.050 338.663 112.730 343.353 114.498 349.307 C 115.845 353.840 115.850 355.004 114.546 359.490 C 111.355 370.467 99.773 375.805 89.384 371.087 C 74.635 364.389 76.170 341.674 91.685 337.017 C 95.610 335.839 97.913 335.848 102.277 337.060 M 43.005 423.121 C 50.591 432.118 59.951 434.320 69.782 429.421 C 72.628 428.003 76.320 425.121 77.986 423.017 C 80.198 420.225 81.554 419.332 83.008 419.712 C 88.313 421.100 82.176 430.257 72.804 434.940 C 59.242 441.717 43.932 437.278 35.835 424.222 C 34.202 421.588 34.042 420.654 35.023 419.472 C 37.018 417.069 38.456 417.726 43.005 423.121 "/></g>
<g fill="#FFF3E2FF" stroke="#FFF3E2FF">
<path d="M 387.500 60.513 C 378.690 62.145 365.682 66.884 357.667 71.382 C 318.692 93.253 292.950 132.548 277.012 194.500 C 273.719 207.300 267.000 237.866 267.000 240.047 C 267.000 240.433 278.813 240.992 293.250 241.290 C 318.945 241.821 329.032 242.836 344.093 246.407 C 361.235 250.472 382.476 259.621 397.484 269.404 L 406.042 274.983 412.271 272.854 C 426.115 268.122 436.694 261.134 448.414 248.976 C 465.409 231.347 476.084 210.535 482.256 183.000 C 484.084 174.845 484.390 170.244 484.419 150.500 C 484.449 129.983 484.213 126.550 482.233 118.699 C 476.816 97.221 466.216 81.933 449.488 71.474 C 431.960 60.515 409.210 56.492 387.500 60.513 M 405.800 87.200 C 406.460 87.860 406.993 89.098 406.985 89.950 C 406.949 93.518 405.276 94.297 396.848 94.671 C 362.895 96.174 331.481 122.776 325.015 155.500 C 323.947 160.904 322.051 164.000 319.809 164.000 C 319.364 164.000 318.145 163.145 317.101 162.101 C 315.312 160.312 315.285 159.803 316.624 153.351 C 318.742 143.148 322.433 134.270 328.225 125.448 C 341.517 105.202 361.614 91.821 386.500 86.648 C 391.208 85.669 404.654 86.054 405.800 87.200 "/></g>
<g fill="#FFF3E2FF" stroke="#FFF3E2FF">
<path d="M 226.500 12.021 C 185.297 16.131 147.846 46.159 132.922 87.051 C 126.612 104.342 125.633 110.517 125.564 133.500 C 125.504 153.130 125.681 155.250 128.269 166.000 C 134.567 192.155 147.096 215.230 165.327 234.250 L 171.796 241.000 214.327 241.000 L 256.858 241.000 257.977 235.250 C 273.015 157.979 290.451 117.556 322.296 86.134 L 330.775 77.768 329.777 74.134 C 323.590 51.593 301.307 28.665 275.830 18.628 C 261.053 12.807 242.943 10.381 226.500 12.021 M 240.394 31.250 C 241.189 32.519 241.188 33.481 240.391 34.750 C 239.198 36.651 237.909 37.126 227.791 39.396 C 210.929 43.178 195.290 51.826 181.763 64.849 C 163.729 82.210 154.461 102.318 151.732 130.000 C 150.562 141.867 150.383 142.517 148.195 142.827 C 144.052 143.414 143.000 141.426 143.000 133.009 C 143.000 101.508 159.599 68.957 185.467 49.729 C 204.931 35.260 236.296 24.708 240.394 31.250 "/></g>
<g fill="#513736FF" stroke="#513736FF">
<path d="M 228.000 30.426 C 184.315 40.122 151.586 74.613 144.477 118.445 C 143.669 123.425 143.006 130.482 143.004 134.128 C 143.000 141.369 144.207 143.392 148.195 142.827 C 150.113 142.555 150.541 141.828 150.742 138.500 C 151.968 118.248 154.934 105.777 161.930 91.454 C 168.970 77.039 177.252 66.832 189.465 57.516 C 202.419 47.636 217.356 40.833 232.216 38.046 C 240.045 36.578 241.825 35.106 240.168 31.470 C 238.884 28.652 236.797 28.473 228.000 30.426 "/></g>
<g fill="#513736FF" stroke="#513736FF">
<path d="M 91.685 337.017 C 80.143 340.481 75.154 355.958 82.483 365.567 C 91.625 377.552 110.325 374.008 114.546 359.490 C 115.850 355.004 115.845 353.840 114.498 349.307 C 111.600 339.547 101.458 334.083 91.685 337.017 "/></g>
<g fill="#513736FF" stroke="#513736FF">
<path d="M 385.994 87.036 C 353.895 91.881 322.705 121.734 316.916 153.152 C 315.496 160.859 316.024 163.000 319.346 163.000 C 322.587 163.000 323.568 161.547 324.982 154.655 C 328.604 137.001 340.084 120.221 356.654 108.365 C 368.301 100.031 380.969 95.550 396.610 94.232 C 403.249 93.672 405.547 93.089 406.389 91.750 C 407.190 90.477 407.190 89.523 406.390 88.250 C 405.113 86.217 395.291 85.633 385.994 87.036 "/></g>
<g fill="#513736FF" stroke="#513736FF">
<path d="M 35.023 419.472 C 34.042 420.654 34.202 421.588 35.835 424.222 C 43.932 437.278 59.242 441.717 72.804 434.940 C 82.176 430.257 88.313 421.100 83.008 419.712 C 81.554 419.332 80.198 420.225 77.986 423.017 C 76.320 425.121 72.628 428.003 69.782 429.421 C 59.951 434.320 50.591 432.118 43.005 423.121 C 38.456 417.726 37.018 417.069 35.023 419.472 "/></g>
<g fill="#FED966FF" stroke="#FED966FF">
<path d="M 447.000 250.953 L 442.500 255.556 447.000 250.953 L 451.500 246.350 447.000 250.953 "/></g>
</svg>
