<?xml version="1.0" encoding="utf-8"?>
<!DOCTYPE svg PUBLIC "-//W3C//DTD SVG 20010904//EN" "http://www.w3.org/TR/2001/REC-SVG-20010904/DTD/svg10.dtd">
<svg version="1.0" xmlns="http://www.w3.org/2000/svg" width="602pt" height="602pt" viewBox="0 0 602 602" style="" preserveAspectRatio="xMidYMid meet">
<g fill="#513736FF" stroke="#513736FF">
<path d="M 288.500 3.046 C 285.750 3.474 280.575 3.881 277.000 3.950 C 270.945 4.066 251.302 6.746 241.000 8.861 C 238.525 9.369 233.800 10.316 230.500 10.964 C 227.200 11.613 223.719 12.561 222.764 13.072 C 221.809 13.582 220.234 14.014 219.264 14.032 C 218.294 14.049 216.626 14.724 215.559 15.532 C 214.491 16.339 212.605 17.000 211.368 17.000 C 210.130 17.000 208.840 17.450 208.500 18.000 C 208.160 18.550 206.777 19.000 205.427 19.000 C 202.974 19.000 202.413 19.202 196.169 22.331 C 194.337 23.249 191.927 24.000 190.813 24.000 C 189.700 24.000 187.452 25.125 185.818 26.500 C 184.184 27.875 181.839 29.000 180.608 29.000 C 178.134 29.000 163.682 36.048 160.510 38.801 C 159.405 39.761 154.611 42.471 149.858 44.825 C 145.105 47.178 140.423 49.980 139.453 51.052 C 138.483 52.123 137.085 53.000 136.345 53.000 C 135.605 53.000 135.000 53.398 135.000 53.883 C 135.000 54.369 134.213 55.039 133.250 55.372 C 129.949 56.513 118.144 65.230 111.239 71.626 C 108.938 73.757 104.906 77.300 102.278 79.500 C 93.094 87.188 74.275 106.914 67.500 115.952 C 65.300 118.887 62.263 122.745 60.750 124.526 C 59.238 126.307 58.000 128.040 58.000 128.378 C 58.000 128.716 55.837 132.032 53.193 135.746 C 50.550 139.461 48.072 143.175 47.687 144.000 C 47.302 144.825 45.871 147.300 44.508 149.500 C 43.144 151.700 41.120 155.300 40.010 157.500 C 38.899 159.700 35.968 165.284 33.495 169.908 C 31.023 174.533 29.000 179.175 29.000 180.225 C 29.000 181.275 27.875 183.608 26.500 185.411 C 25.125 187.214 24.000 189.706 24.000 190.949 C 24.000 192.193 22.650 195.210 21.000 197.655 C 19.350 200.100 18.000 203.003 18.000 204.107 C 18.000 206.994 15.882 215.331 14.864 216.450 C 14.389 216.973 14.000 218.216 14.000 219.214 C 14.000 220.211 13.582 221.809 13.072 222.764 C 12.561 223.719 11.617 227.200 10.973 230.500 C 10.329 233.800 9.393 238.300 8.893 240.500 C 6.840 249.528 3.996 271.506 2.888 286.912 C 1.980 299.532 1.981 306.348 2.890 316.412 C 4.490 334.130 6.869 353.738 7.937 358.000 C 8.419 359.925 9.556 364.875 10.464 369.000 C 13.203 381.441 18.027 397.959 20.584 403.651 C 21.363 405.384 22.000 407.077 22.000 407.412 C 22.000 407.747 22.945 410.154 24.100 412.761 C 25.254 415.367 26.698 418.625 27.308 420.000 C 27.918 421.375 28.861 423.102 29.404 423.838 C 29.947 424.574 31.175 427.402 32.133 430.122 C 36.502 442.529 53.727 470.283 68.231 488.288 C 85.247 509.410 112.698 534.960 130.912 546.628 C 134.536 548.949 138.625 551.717 140.000 552.780 C 141.375 553.842 145.650 556.416 149.500 558.501 C 153.350 560.585 156.950 562.628 157.500 563.041 C 159.743 564.726 176.241 572.999 177.328 572.984 C 177.973 572.976 180.750 574.065 183.500 575.405 C 190.983 579.052 194.522 580.434 205.500 583.995 C 211.000 585.779 216.918 587.860 218.651 588.620 C 220.384 589.379 222.567 590.000 223.501 590.000 C 224.435 590.000 229.317 591.072 234.350 592.382 C 242.686 594.553 252.547 596.183 274.322 598.991 C 278.625 599.546 290.550 599.996 300.822 599.991 C 348.392 599.969 393.925 589.308 435.000 568.575 C 444.797 563.630 460.304 554.952 462.000 553.466 C 462.825 552.743 466.875 549.885 471.000 547.114 C 487.743 535.868 508.476 517.966 520.546 504.334 C 535.685 487.233 555.121 461.060 557.730 454.261 C 558.101 453.293 559.611 450.700 561.084 448.500 C 562.558 446.300 566.321 439.100 569.447 432.500 C 572.574 425.900 575.529 419.756 576.014 418.847 C 579.484 412.344 587.442 388.515 591.660 372.000 C 596.506 353.022 599.957 323.542 599.972 301.000 C 599.996 264.434 593.324 229.086 579.506 192.574 C 574.944 180.521 559.272 149.637 553.157 140.650 C 551.604 138.368 548.369 133.575 545.969 130.000 C 533.895 112.012 510.672 86.934 491.000 70.640 C 469.425 52.770 442.964 36.668 418.500 26.522 C 400.768 19.168 401.137 19.297 380.000 13.088 C 364.327 8.484 341.762 4.878 317.000 3.018 C 301.976 1.890 295.881 1.896 288.500 3.046 M 331.390 13.533 C 384.582 18.641 439.397 40.918 481.000 74.334 C 490.416 81.898 504.000 94.071 504.000 94.946 C 504.000 95.309 500.738 96.643 496.750 97.910 C 472.037 105.764 455.144 125.650 451.936 150.664 C 450.817 159.391 451.127 164.502 453.632 178.602 L 454.184 181.705 447.482 182.392 C 439.684 183.191 424.116 188.028 418.862 191.284 C 409.840 196.876 401.313 207.322 399.096 215.500 C 397.668 220.766 397.706 229.850 399.174 234.101 C 399.819 235.970 402.294 240.638 404.674 244.474 C 410.608 254.041 410.370 257.754 403.552 261.968 C 400.249 264.009 399.081 264.100 379.789 263.807 C 360.089 263.509 359.372 263.568 355.073 265.860 C 348.131 269.562 340.596 277.338 337.225 284.278 C 322.149 315.322 340.026 347.854 385.000 371.218 C 403.392 380.773 422.644 387.591 443.500 391.936 C 465.167 396.450 475.550 397.314 500.912 396.715 C 521.105 396.239 525.090 395.851 538.500 393.057 C 546.750 391.339 559.074 388.134 565.887 385.936 C 572.699 383.738 578.464 382.131 578.698 382.364 C 579.352 383.019 575.119 396.397 570.744 407.500 C 546.922 467.957 502.835 519.055 445.668 552.467 C 414.842 570.483 373.891 584.247 338.500 588.488 C 323.504 590.284 292.585 591.615 288.669 590.632 C 286.089 589.984 286.341 589.632 296.818 579.232 C 314.619 561.561 323.713 545.084 326.689 525.108 C 331.442 493.209 317.927 464.301 292.500 451.976 C 282.572 447.164 277.815 446.056 266.960 446.024 C 251.208 445.979 243.083 449.351 223.500 464.060 C 201.120 480.870 195.506 482.293 174.940 476.370 C 152.922 470.030 138.546 471.118 122.000 480.378 C 114.782 484.418 103.820 495.448 100.488 502.024 L 97.837 507.256 93.342 502.878 C 90.871 500.470 85.713 494.822 81.881 490.326 C 29.558 428.946 5.648 352.485 13.451 271.500 C 15.323 252.073 21.921 220.000 24.046 220.000 C 24.476 220.000 26.148 222.138 27.762 224.750 C 34.038 234.914 47.651 246.283 60.363 251.977 C 67.561 255.201 80.705 258.000 88.646 258.000 C 91.730 258.000 98.494 257.277 103.678 256.393 C 121.452 253.364 130.055 255.082 142.076 264.062 C 145.059 266.290 150.408 269.547 153.963 271.299 C 159.586 274.070 161.420 274.476 168.089 274.420 C 174.293 274.368 176.799 273.844 181.247 271.667 C 192.751 266.039 201.723 255.301 205.978 242.070 C 208.045 235.640 208.204 233.713 207.694 221.242 C 207.271 210.923 206.386 204.386 204.138 195.000 C 200.504 179.825 198.121 168.938 193.412 146.000 C 189.478 126.843 186.156 116.217 180.749 105.500 C 171.325 86.821 155.933 73.085 139.250 68.467 C 135.813 67.515 133.002 66.458 133.005 66.118 C 133.008 65.778 138.338 62.050 144.851 57.833 C 199.773 22.270 263.868 7.048 331.390 13.533 M 517.879 109.558 C 534.182 127.397 549.733 150.798 562.331 176.450 C 582.820 218.169 593.429 271.818 590.123 316.995 C 588.762 335.588 586.699 351.448 584.283 361.877 C 582.596 369.160 582.517 369.278 578.037 371.239 C 568.459 375.430 553.323 380.024 538.707 383.175 L 523.500 386.454 494.000 386.477 C 465.588 386.499 463.983 386.396 450.500 383.685 C 399.960 373.524 359.118 350.223 346.260 324.213 C 342.706 317.026 342.500 316.084 342.500 307.054 C 342.500 295.978 343.772 290.999 348.265 284.485 C 355.248 274.362 363.527 271.278 378.717 273.142 C 390.691 274.612 401.449 273.872 406.595 271.225 C 411.872 268.510 416.591 263.098 418.113 258.017 C 419.666 252.832 418.523 248.926 412.548 239.000 C 408.424 232.149 408.034 230.937 408.039 225.000 C 408.054 206.324 425.583 193.655 454.546 191.386 C 462.548 190.759 467.000 189.066 467.000 186.649 C 467.000 185.932 465.861 182.543 464.470 179.117 C 461.408 171.583 460.214 157.509 461.873 148.500 C 463.699 138.580 469.957 127.205 477.438 120.207 C 486.375 111.846 499.854 105.584 512.150 104.079 C 512.507 104.036 515.085 106.501 517.879 109.558 M 137.217 77.985 C 154.592 83.352 168.982 98.867 177.025 120.907 C 179.761 128.402 187.000 158.689 187.000 162.637 C 187.000 163.598 189.458 175.016 192.462 188.011 C 195.465 201.007 198.208 215.208 198.556 219.570 C 199.304 228.936 197.443 239.239 193.670 246.626 C 189.181 255.413 179.618 263.485 172.417 264.565 C 164.295 265.783 159.821 264.378 149.299 257.306 C 132.120 245.759 125.776 243.959 109.500 246.013 C 92.553 248.152 82.021 248.325 74.624 246.587 C 57.210 242.494 40.185 229.114 32.271 213.301 L 28.171 205.110 31.122 197.305 C 35.880 184.721 49.304 158.352 57.396 145.695 C 68.698 128.018 80.802 113.082 96.940 96.901 C 115.514 78.276 118.629 76.000 125.545 76.000 C 128.429 76.000 133.682 76.893 137.217 77.985 M 275.566 456.089 C 278.830 456.688 284.978 458.983 289.230 461.190 C 311.007 472.493 321.578 497.220 316.937 526.000 C 313.552 546.986 296.486 570.853 274.353 585.552 L 269.206 588.970 257.853 587.407 C 227.354 583.209 189.720 570.575 162.500 555.397 C 139.320 542.472 106.000 517.758 106.000 513.491 C 106.000 508.073 115.882 496.037 125.428 489.827 C 139.012 480.990 151.750 479.843 171.863 485.646 C 196.326 492.704 204.156 490.689 231.000 470.426 C 249.329 456.591 259.853 453.205 275.566 456.089 "/></g>
<g fill="#4099DBFF" stroke="#4099DBFF">
<path d="M 280.500 13.101 C 233.403 16.969 189.073 31.185 151.614 54.431 C 136.840 63.600 134.089 65.430 134.042 66.122 C 134.019 66.464 135.688 67.017 137.750 67.351 C 142.771 68.163 154.339 73.933 160.465 78.682 C 168.391 84.826 176.529 95.345 181.910 106.399 C 186.435 115.696 191.978 132.527 193.538 141.706 C 195.287 152.000 201.386 181.317 203.065 187.500 C 206.016 198.366 209.000 217.443 209.000 225.439 C 209.000 246.237 198.305 264.274 181.223 272.282 C 175.648 274.896 173.305 275.429 167.500 275.403 C 159.461 275.367 153.891 272.965 139.923 263.508 C 135.498 260.512 130.217 257.599 128.188 257.036 C 122.872 255.559 113.417 255.764 102.239 257.598 C 83.789 260.625 65.810 257.052 50.000 247.215 C 41.702 242.052 31.828 232.603 27.388 225.575 C 25.800 223.061 24.275 221.008 24.000 221.014 C 23.045 221.035 17.959 243.572 15.992 256.500 C 12.539 279.187 11.478 299.723 12.833 317.655 C 17.217 375.691 33.720 422.925 65.361 468.000 C 72.475 478.134 77.546 484.353 88.859 496.816 L 97.315 506.132 100.343 500.816 C 104.726 493.120 115.227 483.165 123.592 478.777 C 133.055 473.813 140.656 471.938 151.518 471.887 C 161.676 471.840 162.777 472.034 176.000 476.200 C 183.867 478.679 186.703 479.118 192.500 478.753 C 201.326 478.197 206.809 475.524 221.500 464.612 C 236.878 453.190 241.395 450.505 250.176 447.568 C 265.438 442.463 283.386 445.047 298.623 454.544 C 311.295 462.443 320.789 475.456 325.583 491.500 C 327.878 499.182 328.272 502.330 328.272 513.000 C 328.272 523.662 327.879 526.807 325.601 534.386 C 320.199 552.359 312.293 565.054 297.270 579.881 L 286.751 590.263 309.126 589.731 C 334.656 589.124 352.890 586.568 376.000 580.357 C 456.140 558.821 522.625 504.480 559.950 430.009 C 567.884 414.179 579.114 384.780 577.748 383.415 C 577.372 383.039 574.463 383.689 571.283 384.859 C 565.916 386.834 552.482 390.798 545.500 392.469 C 525.387 397.280 489.681 399.221 469.000 396.628 C 448.506 394.058 443.041 393.091 431.500 389.995 C 408.345 383.783 385.687 373.866 368.605 362.469 C 340.597 343.782 327.400 319.732 332.335 296.374 C 335.233 282.657 343.833 270.763 354.694 265.449 C 361.994 261.877 366.732 261.446 381.902 262.975 C 396.116 264.407 401.475 263.616 405.615 259.476 C 409.206 255.885 408.745 251.627 403.993 244.500 C 398.100 235.662 396.697 231.301 397.173 223.302 C 397.717 214.135 401.341 206.555 408.983 198.596 C 416.993 190.255 426.227 185.869 442.266 182.787 C 451.835 180.948 453.921 180.244 453.435 179.013 C 453.107 178.181 452.164 174.125 451.340 170.000 C 446.942 147.980 457.362 121.399 475.704 107.849 C 482.319 102.963 493.800 97.379 499.059 96.490 C 501.227 96.124 503.000 95.453 503.000 94.998 C 503.000 93.650 480.338 74.431 470.038 67.044 C 432.763 40.312 389.129 22.397 345.823 16.044 C 320.080 12.268 301.074 11.411 280.500 13.101 M 319.016 37.418 C 330.781 39.290 351.009 45.703 361.000 50.728 C 367.754 54.125 368.531 54.817 368.809 57.688 C 369.053 60.207 368.572 61.234 366.521 62.578 C 364.000 64.230 363.699 64.175 356.212 60.710 C 344.306 55.199 341.324 54.112 329.501 50.972 C 305.002 44.467 279.594 44.313 254.328 50.519 C 238.870 54.316 226.849 59.420 208.457 69.996 C 203.818 72.664 199.526 72.234 198.499 68.998 C 197.320 65.283 199.101 63.040 207.172 58.073 C 223.257 48.175 245.438 40.070 263.500 37.492 C 269.000 36.706 274.850 35.862 276.500 35.614 C 282.236 34.754 309.558 35.913 319.016 37.418 M 464.628 464.598 C 465.799 464.913 467.280 466.319 467.920 467.723 C 469.281 470.711 468.155 472.716 458.107 485.207 C 436.037 512.642 401.859 533.735 366.611 541.675 C 354.855 544.323 351.764 544.030 350.754 540.169 C 349.573 535.650 352.036 533.629 360.985 531.773 C 379.565 527.921 400.139 519.170 416.765 508.050 C 427.319 500.990 445.851 483.682 452.526 474.650 C 457.677 467.680 460.910 463.994 461.855 464.014 C 462.210 464.021 463.458 464.284 464.628 464.598 "/></g>
<g fill="#239C93FF" stroke="#239C93FF">
<path d="M 502.124 106.578 C 487.890 110.406 473.429 121.799 467.243 134.059 C 462.407 143.644 460.390 155.161 461.758 165.383 C 462.357 169.863 463.600 175.547 464.519 178.014 C 468.637 189.067 467.705 190.245 453.500 191.952 C 435.402 194.127 425.479 197.752 417.506 205.102 C 411.331 210.793 408.801 215.972 408.272 224.000 C 407.871 230.090 408.068 230.847 411.394 236.000 C 413.347 239.025 415.693 243.075 416.608 245.000 C 422.501 257.398 416.059 269.285 401.064 273.685 C 396.245 275.099 394.088 275.162 384.954 274.159 C 363.999 271.856 358.684 273.007 351.245 281.459 C 346.097 287.307 342.992 295.296 342.288 304.500 C 341.844 310.309 342.180 312.727 344.264 318.716 C 350.546 336.764 366.986 351.550 396.145 365.377 C 412.162 372.973 426.478 377.984 442.000 381.430 C 459.042 385.214 465.651 386.009 485.500 386.668 C 516.430 387.693 542.191 383.927 568.469 374.536 C 581.756 369.788 582.629 369.124 583.924 362.777 C 589.254 336.670 591.444 299.639 589.087 275.500 C 583.102 214.235 560.806 160.952 521.821 114.750 C 512.648 103.878 512.456 103.799 502.124 106.578 "/></g>
<g fill="#239C93FF" stroke="#239C93FF">
<path d="M 121.000 76.737 C 118.135 77.269 109.091 84.893 97.502 96.545 C 73.616 120.561 57.068 143.578 42.176 173.500 C 33.529 190.874 28.685 203.589 29.475 206.839 C 31.849 216.604 47.638 234.265 59.220 240.111 C 73.910 247.527 84.230 249.129 100.926 246.587 C 123.668 243.125 131.624 244.665 147.133 255.532 C 155.914 261.685 163.161 265.000 167.833 265.000 C 177.480 265.000 187.888 257.052 193.734 245.222 L 197.500 237.601 197.428 223.550 C 197.360 210.225 197.092 208.391 192.223 188.000 C 189.399 176.175 186.372 162.225 185.495 157.000 C 182.679 140.217 177.245 121.095 172.548 111.441 C 163.390 92.616 149.928 81.000 133.144 77.443 C 126.324 75.997 125.301 75.938 121.000 76.737 "/></g>
<g fill="#239C93FF" stroke="#239C93FF">
<path d="M 262.500 455.733 C 252.354 456.756 245.078 460.323 229.746 471.787 C 215.528 482.418 208.496 486.463 200.936 488.356 C 190.723 490.914 185.176 490.282 166.698 484.459 C 153.972 480.448 143.128 481.394 130.123 487.649 C 121.039 492.018 112.791 499.876 108.471 508.278 L 105.500 514.055 110.000 518.081 C 148.856 552.838 201.117 577.839 252.000 586.009 C 270.607 588.997 268.708 589.294 278.706 581.829 C 297.989 567.429 311.005 549.251 315.718 530.136 C 317.964 521.025 317.910 503.506 315.609 495.000 C 311.972 481.559 302.283 468.742 290.788 462.164 C 283.144 457.791 270.530 454.923 262.500 455.733 "/></g>
<g fill="#513736FF" stroke="#513736FF">
<path d="M 272.000 36.609 C 241.999 42.003 227.564 46.956 207.316 58.807 C 200.108 63.025 198.333 65.323 199.484 68.949 C 200.640 72.590 203.679 72.382 210.288 68.208 C 225.137 58.830 241.496 52.394 260.984 48.264 C 271.954 45.939 275.724 45.617 291.500 45.658 C 307.008 45.699 311.161 46.064 321.500 48.299 C 334.859 51.186 344.318 54.303 355.753 59.585 C 362.024 62.482 363.841 62.938 365.712 62.085 C 367.363 61.333 368.000 60.200 368.000 58.014 C 368.000 55.292 367.366 54.674 361.750 51.919 C 351.564 46.922 337.272 42.022 325.000 39.317 C 315.328 37.186 310.400 36.733 294.000 36.471 C 283.275 36.300 273.375 36.362 272.000 36.609 "/></g>
<g fill="#513736FF" stroke="#513736FF">
<path d="M 457.362 469.750 C 455.288 472.363 452.139 476.300 450.364 478.500 C 440.922 490.207 428.757 501.086 414.953 510.167 C 399.259 520.492 385.744 526.315 365.676 531.398 C 355.217 534.047 352.509 535.096 351.903 536.732 C 350.830 539.633 353.470 543.000 356.816 543.000 C 360.799 543.000 383.346 536.602 392.000 533.017 C 420.336 521.276 447.818 499.744 463.504 476.995 C 468.174 470.222 468.241 470.017 466.615 467.536 C 464.159 463.787 461.613 464.396 457.362 469.750 "/></g>
<g fill="#507070FF" stroke="#507070FF">
<path d="M 91.500 500.500 L 97.000 506.000 91.500 500.500 L 86.000 495.000 91.500 500.500 "/></g>
<g fill="#507070FF" stroke="#507070FF">
<path d="M 506.000 505.953 L 501.500 510.556 506.000 505.953 L 510.500 501.350 506.000 505.953 "/></g>
<g fill="#507070FF" stroke="#507070FF">
<path d="M 44.000 229.000 L 49.000 234.000 44.000 229.000 L 39.000 224.000 44.000 229.000 "/></g>
<g fill="#5A83A8FF" stroke="#5A83A8FF">
<path d="M 166.000 84.000 L 171.000 89.000 166.000 84.000 L 161.000 79.000 166.000 84.000 "/></g>
</svg>
