<?xml version="1.0" encoding="utf-8"?>
<!DOCTYPE svg PUBLIC "-//W3C//DTD SVG 20010904//EN" "http://www.w3.org/TR/2001/REC-SVG-20010904/DTD/svg10.dtd">
<svg version="1.0" xmlns="http://www.w3.org/2000/svg" width="602pt" height="471pt" viewBox="0 0 602 471" style="" preserveAspectRatio="xMidYMid meet">
<g fill="#513736FF" stroke="#513736FF">
<path d="M 338.156 3.312 C 337.336 4.300 337.754 5.476 339.843 8.062 C 343.671 12.802 347.065 21.229 347.726 27.636 L 348.280 33.000 338.950 33.000 C 313.338 33.000 280.038 43.891 255.663 60.241 C 243.596 68.335 243.962 68.028 230.947 80.992 C 214.950 96.927 206.251 110.253 196.021 134.500 C 193.700 140.000 191.442 144.882 191.002 145.349 C 189.742 146.686 186.427 145.194 183.103 141.794 C 178.995 137.592 176.671 130.379 177.545 124.546 C 178.693 116.891 177.484 113.233 173.204 111.414 C 164.862 107.870 153.359 114.041 146.285 125.856 C 143.827 129.961 143.504 131.487 143.502 139.000 C 143.500 148.848 145.352 154.688 150.702 161.696 C 153.373 165.196 153.874 166.442 152.845 167.019 C 152.105 167.434 149.383 169.285 146.795 171.134 C 128.400 184.276 138.368 209.179 158.787 201.094 C 165.370 198.487 169.181 198.438 171.436 200.930 C 173.048 202.711 173.067 203.270 171.685 208.180 C 170.174 213.548 168.041 223.803 165.379 238.500 C 163.043 251.396 161.043 274.472 161.021 288.789 C 160.947 336.589 174.928 377.548 202.000 408.837 C 223.598 433.800 263.551 453.625 309.000 461.930 C 329.640 465.702 331.323 465.947 347.141 467.482 C 374.128 470.101 422.453 468.869 442.500 465.051 C 445.250 464.527 451.775 463.366 457.000 462.470 C 476.050 459.205 496.493 453.849 517.500 446.619 C 533.444 441.131 534.396 440.785 536.441 439.738 C 537.508 439.192 542.008 437.247 546.441 435.416 C 550.873 433.585 561.475 428.487 570.000 424.086 C 578.525 419.686 587.330 415.156 589.566 414.019 C 591.803 412.882 595.134 410.699 596.970 409.166 L 600.308 406.379 598.538 398.940 C 590.919 366.926 574.258 334.374 551.223 306.500 C 548.042 302.650 543.453 296.800 541.026 293.500 C 537.076 288.129 489.267 239.532 473.164 224.518 C 467.022 218.793 466.844 218.486 467.363 214.555 C 471.064 186.532 469.942 160.181 463.994 135.500 C 459.804 118.114 449.687 95.096 440.480 82.000 C 435.507 74.927 421.102 59.873 414.500 54.851 C 412.850 53.596 411.275 52.328 411.000 52.034 C 409.656 50.598 404.027 47.653 387.967 39.986 C 387.124 39.584 384.874 38.919 382.967 38.510 C 377.960 37.434 377.704 37.101 379.628 34.164 C 386.116 24.263 400.810 16.000 411.931 16.000 C 418.372 16.000 421.704 14.277 420.638 11.498 C 420.025 9.902 418.995 9.769 411.181 10.275 C 397.080 11.189 384.597 17.997 375.898 29.518 C 372.565 33.934 371.199 35.000 368.880 35.000 C 367.296 35.000 366.000 34.503 366.000 33.896 C 366.000 30.712 373.751 18.623 379.067 13.517 C 382.330 10.383 385.000 7.464 385.000 7.032 C 385.000 6.599 384.354 5.709 383.564 5.053 C 381.526 3.362 379.386 4.750 372.414 12.290 C 366.894 18.258 363.476 23.665 361.059 30.250 C 360.277 32.380 359.400 33.000 357.167 33.000 C 354.382 33.000 354.264 32.799 353.659 27.015 C 352.876 19.523 348.158 8.945 343.841 5.002 C 340.128 1.610 339.679 1.477 338.156 3.312 M 361.026 40.062 C 418.128 47.221 455.455 93.239 462.651 165.351 C 464.258 181.454 464.253 183.335 462.561 201.802 L 460.777 221.274 473.139 232.781 C 492.055 250.390 524.516 283.280 534.547 295.000 C 553.288 316.898 566.245 335.814 576.620 356.427 C 583.197 369.495 591.546 392.408 592.641 400.397 L 593.237 404.744 583.368 410.555 C 535.266 438.880 473.023 457.723 413.500 461.981 C 352.141 466.370 291.715 457.114 250.500 437.012 C 233.345 428.645 223.975 422.099 211.924 410.063 C 189.462 387.630 176.416 361.169 169.822 324.677 C 166.899 308.496 166.649 271.052 169.341 252.500 C 175.745 208.359 189.194 162.585 206.965 124.448 C 227.551 80.269 274.675 46.612 325.084 40.084 C 334.533 38.861 351.361 38.851 361.026 40.062 M 170.711 116.800 C 171.519 117.314 171.864 120.240 171.750 125.607 C 171.598 132.707 171.924 134.338 174.539 139.573 C 177.194 144.888 183.133 150.878 187.039 152.180 C 187.821 152.440 187.120 155.860 184.850 162.858 L 181.511 173.152 178.505 172.552 C 168.496 170.554 156.386 161.597 151.958 152.918 C 149.215 147.540 148.332 138.456 149.982 132.566 C 152.647 123.046 165.344 113.389 170.711 116.800 M 165.517 174.154 C 168.276 175.608 172.438 177.310 174.767 177.937 C 177.095 178.564 179.000 179.552 179.000 180.133 C 179.000 180.714 178.048 184.325 176.884 188.157 C 175.151 193.861 174.471 194.992 173.134 194.392 C 169.318 192.682 163.348 192.892 158.206 194.919 C 151.589 197.527 148.956 197.539 146.201 194.972 C 139.853 189.059 143.674 178.833 154.190 173.593 C 157.075 172.155 159.675 171.098 159.968 171.245 C 160.261 171.392 162.758 172.701 165.517 174.154 "/></g>
<g fill="#FED966FF" stroke="#FED966FF">
<path d="M 325.084 40.084 C 274.675 46.612 227.551 80.269 206.965 124.448 C 189.194 162.585 175.745 208.359 169.341 252.500 C 166.649 271.052 166.899 308.496 169.822 324.677 C 176.416 361.169 189.462 387.630 211.924 410.063 C 223.975 422.099 233.345 428.645 250.500 437.012 C 291.715 457.114 352.141 466.370 413.500 461.981 C 473.023 457.723 535.266 438.880 583.368 410.555 L 593.237 404.744 592.641 400.397 C 591.546 392.408 583.197 369.495 576.620 356.427 C 566.245 335.814 553.288 316.898 534.547 295.000 C 524.516 283.280 492.055 250.390 473.139 232.781 L 460.777 221.274 462.561 201.802 C 464.253 183.335 464.258 181.454 462.651 165.351 C 456.187 100.583 424.877 55.963 376.865 43.098 C 362.464 39.239 341.179 38.000 325.084 40.084 M 291.644 229.515 C 291.964 230.348 291.054 234.736 289.622 239.265 C 284.823 254.444 283.624 263.082 283.689 282.000 C 283.895 341.061 307.366 380.608 344.052 383.704 C 360.424 385.086 375.803 374.505 380.522 358.614 C 382.416 352.237 382.387 348.492 380.400 342.660 C 378.510 337.113 379.093 334.731 382.231 335.180 C 383.681 335.387 385.339 337.078 386.934 339.976 C 390.447 346.355 397.230 352.758 403.530 355.642 C 423.376 364.728 445.555 348.835 438.566 330.535 C 436.737 325.745 431.439 320.399 427.554 319.424 C 423.105 318.308 423.243 313.000 427.721 313.000 C 431.905 313.000 437.815 317.085 441.617 322.605 C 444.587 326.918 445.309 328.981 445.744 334.397 C 446.519 344.057 444.695 349.414 438.524 355.596 C 426.742 367.402 408.713 368.166 393.853 357.490 C 391.076 355.495 388.690 354.006 388.550 354.181 C 388.410 354.357 387.757 356.698 387.099 359.384 C 385.356 366.506 382.435 371.660 376.713 377.710 C 369.451 385.388 361.186 389.127 350.073 389.759 C 339.205 390.378 331.984 388.879 322.206 383.976 C 301.962 373.824 288.580 353.839 281.376 323.000 C 278.343 310.020 278.260 309.304 277.409 288.896 C 276.473 266.473 278.474 250.413 284.113 235.066 C 285.211 232.077 286.337 229.264 286.614 228.816 C 287.474 227.424 291.032 227.919 291.644 229.515 M 220.903 371.780 C 237.187 404.917 269.936 429.085 305.927 434.529 C 315.980 436.049 317.405 436.719 316.810 439.644 C 316.481 441.265 315.535 441.476 309.332 441.307 C 292.166 440.841 267.326 430.753 249.517 417.013 C 236.437 406.922 223.754 391.737 216.270 377.209 C 211.540 368.025 211.221 366.535 213.690 365.154 C 216.352 363.664 217.378 364.607 220.903 371.780 M 282.021 106.511 C 286.347 108.748 290.000 114.688 289.998 119.482 C 289.995 128.321 283.511 135.000 274.933 135.000 C 264.848 135.000 259.496 128.698 259.889 117.285 C 260.009 113.806 264.831 107.423 268.445 105.959 C 271.798 104.601 278.885 104.889 282.021 106.511 M 354.643 438.995 C 358.936 439.000 360.508 440.513 359.352 443.526 C 358.857 444.816 356.502 445.009 344.146 444.776 C 330.992 444.528 329.490 444.320 329.180 442.702 C 328.990 441.713 329.428 440.190 330.152 439.317 C 331.259 437.983 332.991 437.830 340.985 438.359 C 346.218 438.706 352.364 438.992 354.643 438.995 "/></g>
<g fill="#513736FF" stroke="#513736FF">
<path d="M 286.534 228.945 C 286.213 229.464 285.241 231.827 284.374 234.195 C 273.219 264.653 275.003 314.197 288.368 345.109 C 293.721 357.490 297.843 363.784 306.004 372.039 C 318.769 384.951 333.127 390.724 350.073 389.759 C 361.186 389.127 369.451 385.388 376.713 377.710 C 382.435 371.660 385.356 366.506 387.099 359.384 C 387.757 356.698 388.410 354.357 388.550 354.181 C 388.690 354.006 391.076 355.495 393.853 357.490 C 408.713 368.166 426.742 367.402 438.524 355.596 C 444.695 349.414 446.519 344.057 445.744 334.397 C 445.309 328.981 444.587 326.918 441.617 322.605 C 437.815 317.085 431.905 313.000 427.721 313.000 C 423.243 313.000 423.105 318.308 427.554 319.424 C 431.439 320.399 436.737 325.745 438.566 330.535 C 445.555 348.835 423.376 364.728 403.530 355.642 C 397.230 352.758 390.447 346.355 386.934 339.976 C 385.339 337.078 383.681 335.387 382.231 335.180 C 379.093 334.731 378.510 337.113 380.400 342.660 C 382.387 348.492 382.416 352.237 380.522 358.614 C 375.803 374.505 360.424 385.086 344.052 383.704 C 307.366 380.608 283.895 341.061 283.689 282.000 C 283.624 263.082 284.823 254.444 289.622 239.265 C 291.054 234.736 291.964 230.348 291.644 229.515 C 291.004 227.846 287.458 227.450 286.534 228.945 "/></g>
<g fill="#FE973BFF" stroke="#FE973BFF">
<path d="M 161.214 119.098 C 152.664 123.380 147.909 134.396 150.076 144.904 C 152.307 155.727 159.160 163.840 170.585 169.187 C 179.891 173.541 180.778 173.140 184.164 163.045 C 187.535 152.995 187.585 152.321 185.024 151.508 C 181.579 150.414 175.918 144.064 173.310 138.366 C 171.160 133.670 170.842 131.733 171.145 125.181 L 171.500 117.500 168.500 117.226 C 166.850 117.075 163.571 117.918 161.214 119.098 "/></g>
<g fill="#513736FF" stroke="#513736FF">
<path d="M 213.690 365.154 C 211.221 366.535 211.540 368.025 216.270 377.209 C 223.754 391.737 236.437 406.922 249.517 417.013 C 267.326 430.753 292.166 440.841 309.332 441.307 C 315.535 441.476 316.481 441.265 316.810 439.644 C 317.405 436.719 315.980 436.049 305.927 434.529 C 269.936 429.085 237.187 404.917 220.903 371.780 C 217.378 364.607 216.352 363.664 213.690 365.154 "/></g>
<g fill="#513736FF" stroke="#513736FF">
<path d="M 268.445 105.959 C 264.831 107.423 260.009 113.806 259.889 117.285 C 259.684 123.239 260.149 125.486 262.220 128.563 C 268.513 137.910 283.206 137.016 288.248 126.980 C 291.945 119.622 289.065 110.153 282.021 106.511 C 278.885 104.889 271.798 104.601 268.445 105.959 "/></g>
<g fill="#FE973BFF" stroke="#FE973BFF">
<path d="M 156.030 173.113 C 148.933 175.945 144.000 182.189 144.000 188.340 C 144.000 195.607 150.336 198.463 157.844 194.581 C 161.443 192.720 167.078 192.209 171.625 193.332 L 174.750 194.104 176.513 187.589 C 177.483 184.006 178.327 180.799 178.388 180.461 C 178.450 180.123 176.025 178.987 173.000 177.936 C 169.975 176.885 165.864 175.120 163.864 174.013 C 159.796 171.761 159.501 171.727 156.030 173.113 "/></g>
<g fill="#513736FF" stroke="#513736FF">
<path d="M 330.152 439.317 C 329.428 440.190 328.990 441.713 329.180 442.702 C 329.490 444.320 330.992 444.528 344.146 444.776 C 356.502 445.009 358.857 444.816 359.352 443.526 C 360.508 440.513 358.936 439.000 354.643 438.995 C 352.364 438.992 346.218 438.706 340.985 438.359 C 332.991 437.830 331.259 437.983 330.152 439.317 "/></g>
</svg>
