<?xml version="1.0" encoding="utf-8"?>
<!DOCTYPE svg PUBLIC "-//W3C//DTD SVG 20010904//EN" "http://www.w3.org/TR/2001/REC-SVG-20010904/DTD/svg10.dtd">
<svg version="1.0" xmlns="http://www.w3.org/2000/svg" width="445pt" height="602pt" viewBox="0 0 445 602" style="" preserveAspectRatio="xMidYMid meet">
<g fill="#503636FE" stroke="#503636FE">
<path d="M 237.169 2.716 C 235.886 2.961 231.559 6.274 227.552 10.080 C 223.546 13.886 219.842 17.000 219.321 17.000 C 218.800 17.000 217.052 15.609 215.437 13.908 C 208.383 6.483 196.121 4.246 187.357 8.785 C 180.183 12.502 173.126 22.483 171.483 31.237 C 169.786 40.284 179.307 57.884 189.858 65.204 C 192.504 67.040 192.014 68.664 188.399 70.038 C 185.567 71.115 169.062 82.099 164.597 85.879 C 157.312 92.044 140.450 108.969 136.080 114.500 C 122.676 131.467 111.885 154.426 106.615 177.189 C 106.077 179.512 105.346 179.967 101.246 180.527 C 86.515 182.540 62.192 188.311 53.000 191.973 C 37.731 198.056 24.918 203.538 21.124 205.610 C 18.717 206.925 16.185 208.000 15.496 208.000 C 14.808 208.000 13.685 208.675 13.000 209.500 C 12.315 210.325 10.798 211.014 9.628 211.032 C 8.457 211.049 6.600 211.744 5.500 212.574 C 3.549 214.049 3.500 215.256 3.500 262.252 L 3.500 310.419 6.898 312.710 C 8.767 313.969 11.242 315.002 12.398 315.005 C 13.554 315.008 15.749 316.020 17.276 317.255 C 20.011 319.467 20.074 319.770 21.561 338.000 C 22.392 348.175 23.725 364.150 24.524 373.500 C 25.323 382.850 26.668 398.600 27.514 408.500 C 28.359 418.400 29.679 434.150 30.446 443.500 C 32.671 470.606 33.949 484.814 35.080 495.000 C 35.660 500.225 36.532 510.350 37.018 517.500 C 38.057 532.793 39.897 551.991 40.489 553.708 C 40.934 555.000 51.901 560.435 56.281 561.534 C 57.731 561.898 59.442 562.827 60.081 563.598 C 60.721 564.369 62.006 565.000 62.935 565.000 C 63.865 565.000 66.918 566.106 69.720 567.458 C 72.522 568.809 76.094 570.222 77.657 570.596 C 79.221 570.970 80.950 571.625 81.500 572.052 C 82.797 573.058 105.323 580.518 115.000 583.146 C 158.508 594.964 194.821 599.932 238.000 599.975 C 290.604 600.028 345.653 589.976 367.179 576.387 C 369.259 575.074 371.389 574.000 371.914 574.000 C 372.806 574.000 382.904 568.134 384.000 566.979 C 384.275 566.689 387.514 564.081 391.197 561.182 C 394.881 558.283 399.432 553.794 401.312 551.206 C 404.323 547.059 404.797 545.550 405.305 538.500 C 406.035 528.358 407.604 512.150 409.468 495.500 C 410.269 488.350 411.634 475.075 412.503 466.000 C 413.371 456.925 414.718 443.875 415.496 437.000 C 416.274 430.125 417.619 417.075 418.485 408.000 C 419.351 398.925 420.512 387.450 421.064 382.500 C 421.617 377.550 422.529 368.550 423.092 362.500 C 423.654 356.450 424.507 347.675 424.986 343.000 C 425.466 338.325 425.890 332.837 425.929 330.804 C 425.998 327.217 426.176 327.043 431.950 324.938 C 435.222 323.745 438.537 322.033 439.315 321.134 C 440.451 319.823 440.960 310.694 441.887 275.000 L 443.043 230.500 439.271 227.242 C 436.058 224.465 428.355 219.497 423.000 216.747 C 422.175 216.323 420.150 215.088 418.500 214.003 C 416.850 212.918 414.600 211.619 413.500 211.117 C 412.400 210.615 408.575 208.855 405.000 207.206 C 397.711 203.843 385.987 199.867 375.500 197.202 C 368.624 195.454 368.495 195.361 368.232 191.961 C 367.738 185.586 364.789 169.571 362.807 162.500 C 361.728 158.650 360.408 153.925 359.875 152.000 C 359.342 150.075 358.488 147.600 357.978 146.500 C 357.468 145.400 356.082 141.800 354.896 138.500 C 353.711 135.200 352.125 131.790 351.371 130.921 C 350.617 130.053 350.000 128.883 350.000 128.322 C 350.000 126.644 343.174 114.301 337.728 106.134 C 331.551 96.869 311.658 76.656 303.750 71.609 C 300.588 69.590 298.000 67.687 298.000 67.379 C 298.000 67.071 299.972 64.497 302.382 61.659 C 309.296 53.519 311.500 47.317 311.500 36.000 C 311.500 24.972 310.377 22.146 303.114 14.893 C 296.672 8.461 292.065 6.500 283.401 6.500 C 276.358 6.500 273.109 7.504 268.115 11.224 C 264.480 13.931 262.689 13.426 257.134 8.127 C 251.061 2.335 246.153 1.005 237.169 2.716 M 44.770 327.603 C 90.077 342.837 132.136 351.594 183.500 356.489 C 205.385 358.575 264.615 358.575 286.500 356.489 C 330.200 352.324 368.011 345.157 404.917 334.042 C 412.297 331.820 418.471 330.138 418.638 330.305 C 418.805 330.472 418.319 336.434 417.557 343.554 C 416.795 350.674 415.447 363.700 414.562 372.500 C 411.088 407.049 409.864 419.019 408.480 432.000 C 407.688 439.425 406.350 452.250 405.508 460.500 C 404.665 468.750 403.307 482.025 402.490 490.000 C 401.177 502.807 398.899 525.922 397.513 540.487 C 397.071 545.124 396.562 545.923 390.269 551.850 C 381.331 560.268 373.843 565.275 361.594 571.024 C 349.631 576.638 339.194 580.227 326.665 583.034 C 321.624 584.163 315.607 585.519 313.294 586.047 C 310.981 586.575 301.981 587.995 293.294 589.204 C 279.211 591.163 273.222 591.401 238.000 591.401 C 193.075 591.401 183.683 590.558 147.500 583.282 C 117.587 577.267 82.351 565.901 55.457 553.592 L 47.414 549.911 45.647 529.705 C 44.676 518.592 43.252 502.525 42.484 494.000 C 41.715 485.475 40.368 469.950 39.490 459.500 C 38.611 449.050 37.258 433.300 36.482 424.500 C 35.706 415.700 34.366 400.175 33.504 390.000 C 32.642 379.825 31.289 364.075 30.499 355.000 C 27.508 320.662 27.534 321.606 29.632 322.418 C 30.660 322.816 37.471 325.149 44.770 327.603 M 103.628 192.696 C 103.274 195.278 102.509 197.685 101.928 198.045 C 101.347 198.404 96.962 199.272 92.185 199.975 C 75.182 202.474 54.885 207.997 36.243 215.196 C 24.972 219.549 22.378 221.936 25.650 224.946 C 28.951 227.983 71.328 240.912 96.000 246.409 C 100.125 247.328 106.425 248.736 110.000 249.537 C 129.930 254.001 170.528 259.652 201.000 262.203 C 223.536 264.089 280.798 263.796 304.000 261.675 C 342.219 258.182 376.275 252.565 405.971 244.856 C 418.180 241.687 420.000 240.793 420.000 237.971 C 420.000 233.042 388.903 216.103 373.975 212.901 C 369.037 211.842 369.000 211.805 369.000 207.917 C 369.000 203.330 368.835 203.360 379.500 206.046 C 395.447 210.062 421.430 222.500 432.404 231.371 L 435.038 233.500 434.269 274.986 L 433.500 316.472 419.567 321.155 C 411.904 323.730 404.704 326.046 403.567 326.301 C 402.430 326.556 394.975 328.560 387.000 330.755 C 337.504 344.376 292.211 350.295 236.500 350.424 C 178.390 350.558 132.730 344.505 75.961 329.143 C 58.698 324.472 28.775 314.197 14.730 308.119 L 9.961 306.054 10.628 262.277 C 11.217 223.650 11.484 218.386 12.898 217.531 C 21.204 212.511 52.901 199.578 66.866 195.511 C 77.294 192.474 96.936 188.258 101.386 188.102 C 104.259 188.000 104.269 188.022 103.628 192.696 M 239.462 66.750 C 239.841 69.363 240.760 74.200 241.505 77.500 C 242.249 80.800 243.531 87.100 244.354 91.500 C 254.424 145.360 255.354 153.993 255.396 194.000 C 255.428 224.353 255.221 228.697 253.189 240.239 C 251.955 247.245 250.659 253.725 250.308 254.640 C 249.734 256.136 247.917 256.239 232.085 255.668 C 209.136 254.841 183.894 253.023 182.000 252.061 C 177.792 249.923 176.496 203.550 179.967 179.264 C 184.511 147.460 191.748 121.173 203.989 92.000 C 212.849 70.886 214.911 66.986 217.813 65.858 C 221.685 64.353 231.972 62.172 235.636 62.079 C 238.630 62.004 238.804 62.216 239.462 66.750 M 262.500 62.420 C 275.865 64.789 275.120 64.128 283.129 80.698 C 293.393 101.931 302.296 124.519 307.487 142.500 C 308.440 145.800 309.811 150.525 310.535 153.000 C 311.971 157.910 315.146 173.156 317.200 185.000 C 319.231 196.717 318.711 233.251 316.359 244.000 L 314.500 252.500 308.000 253.167 C 295.985 254.401 259.918 256.252 259.331 255.665 C 259.011 255.345 259.690 249.327 260.838 242.292 C 268.039 198.188 264.088 143.272 248.550 71.500 C 246.322 61.206 246.365 61.000 250.750 61.001 C 252.813 61.002 258.100 61.641 262.500 62.420 M 200.590 79.250 C 189.636 103.347 179.641 134.714 175.020 159.495 C 170.448 184.013 169.750 192.884 170.352 218.789 C 170.667 232.380 171.223 245.238 171.585 247.362 L 172.245 251.225 165.873 250.566 C 156.952 249.644 139.812 247.111 131.500 245.487 C 127.650 244.735 122.582 243.827 120.237 243.469 C 117.799 243.098 115.603 242.109 115.107 241.160 C 114.630 240.247 113.453 235.087 112.492 229.693 C 111.100 221.887 110.856 216.584 111.297 203.693 C 111.602 194.787 112.366 185.475 112.997 183.000 C 113.627 180.525 114.869 175.575 115.756 172.000 C 117.804 163.751 122.973 150.779 128.265 140.607 C 141.707 114.770 165.761 91.028 194.000 75.724 C 203.947 70.333 204.508 70.633 200.590 79.250 M 298.405 77.408 C 336.620 102.835 360.967 154.607 360.995 210.500 C 361.003 226.346 359.065 244.078 357.088 246.246 C 356.714 246.657 353.953 247.440 350.954 247.987 C 344.814 249.106 323.597 251.919 323.321 251.650 C 323.222 251.554 323.857 248.106 324.731 243.988 C 326.809 234.192 327.108 194.974 325.187 184.000 C 320.237 155.712 316.489 141.497 307.785 118.000 C 302.143 102.769 300.376 98.556 292.471 81.500 C 290.432 77.100 288.565 73.163 288.323 72.750 C 287.122 70.706 291.081 72.535 298.405 77.408 M 249.253 11.135 C 254.622 14.009 257.962 20.335 256.022 23.959 C 255.392 25.136 255.017 27.314 255.188 28.799 C 255.432 30.914 256.103 31.569 258.276 31.819 C 260.708 32.098 261.293 31.592 263.001 27.730 C 266.898 18.920 274.339 14.000 283.764 14.000 C 291.330 14.000 297.580 17.727 301.662 24.672 C 304.067 28.764 304.494 30.567 304.458 36.500 C 304.423 42.217 303.873 44.573 301.458 49.352 C 298.509 55.185 292.168 62.000 289.689 62.000 C 288.970 62.000 284.584 60.611 279.941 58.914 C 257.268 50.625 234.034 51.197 208.707 60.667 C 200.320 63.804 198.442 63.233 190.086 55.005 C 182.309 47.348 178.528 39.632 179.312 33.018 C 181.497 14.566 201.942 7.275 212.116 21.319 C 213.702 23.509 215.000 26.527 215.000 28.028 C 215.000 29.528 215.669 31.310 216.487 31.989 C 218.417 33.591 223.000 32.452 223.000 30.371 C 223.000 28.100 228.784 17.551 231.343 15.153 C 236.487 10.335 244.429 8.553 249.253 11.135 M 103.187 218.271 C 103.564 224.656 104.349 231.595 104.931 233.690 C 106.366 238.859 106.273 240.000 104.418 240.000 C 98.172 240.000 41.000 223.825 41.000 222.058 C 41.000 221.461 53.634 217.111 65.500 213.621 C 74.335 211.023 99.560 205.985 101.500 206.431 C 102.050 206.558 102.809 211.886 103.187 218.271 M 377.645 222.102 C 387.519 225.130 407.077 235.256 405.704 236.629 C 404.314 238.019 365.997 245.947 366.001 244.844 C 366.002 244.655 366.677 240.675 367.500 236.000 C 368.323 231.325 368.998 225.813 368.999 223.750 C 368.999 221.688 369.403 220.000 369.895 220.000 C 370.387 220.000 373.874 220.946 377.645 222.102 "/></g>
<g fill="#FCA08CFE" stroke="#FCA08CFE">
<path d="M 28.413 330.098 C 28.770 334.719 29.709 345.925 30.499 355.000 C 31.289 364.075 32.642 379.825 33.504 390.000 C 34.366 400.175 35.706 415.700 36.482 424.500 C 37.258 433.300 38.611 449.050 39.490 459.500 C 40.368 469.950 41.715 485.475 42.484 494.000 C 43.252 502.525 44.676 518.592 45.647 529.705 L 47.414 549.911 55.457 553.592 C 82.351 565.901 117.587 577.267 147.500 583.282 C 162.913 586.382 166.624 587.009 182.500 589.196 C 196.765 591.162 202.784 591.401 238.000 591.401 C 273.222 591.401 279.211 591.163 293.294 589.204 C 301.981 587.995 310.981 586.575 313.294 586.047 C 315.607 585.519 321.624 584.163 326.665 583.034 C 339.194 580.227 349.631 576.638 361.594 571.024 C 373.843 565.275 381.331 560.268 390.269 551.850 C 396.562 545.923 397.071 545.124 397.513 540.487 C 398.899 525.922 401.177 502.807 402.490 490.000 C 403.307 482.025 404.665 468.750 405.508 460.500 C 406.350 452.250 407.688 439.425 408.480 432.000 C 409.864 419.019 411.088 407.049 414.562 372.500 C 415.447 363.700 416.795 350.674 417.557 343.554 C 418.319 336.434 418.805 330.472 418.638 330.305 C 418.471 330.138 412.297 331.820 404.917 334.042 C 368.011 345.157 330.200 352.324 286.500 356.489 C 264.615 358.575 205.385 358.575 183.500 356.489 C 132.136 351.594 90.077 342.837 44.770 327.603 C 37.471 325.149 30.660 322.816 29.632 322.418 C 27.870 321.737 27.801 322.169 28.413 330.098 M 372.429 537.571 C 376.026 541.169 373.780 543.335 361.569 548.036 C 319.407 564.272 275.626 571.888 231.325 570.694 C 219.538 570.376 210.287 569.689 209.075 569.040 C 206.752 567.797 206.288 563.836 208.273 562.188 C 209.163 561.450 213.905 561.439 224.023 562.150 C 246.910 563.760 279.650 561.241 305.500 555.880 C 324.078 552.028 352.061 543.518 364.000 538.090 C 369.452 535.611 370.409 535.552 372.429 537.571 M 175.500 557.608 C 193.747 559.688 197.324 561.418 193.555 566.342 C 192.200 568.112 191.647 568.120 179.323 566.566 C 149.196 562.766 149.000 562.718 149.000 559.078 C 149.000 555.868 151.215 554.787 156.500 555.417 C 159.250 555.744 167.800 556.730 175.500 557.608 "/></g>
<g fill="#FCA08CFE" stroke="#FCA08CFE">
<path d="M 87.366 190.495 C 72.736 193.502 59.999 197.259 46.500 202.549 C 36.139 206.609 16.425 215.400 12.898 217.531 C 11.484 218.386 11.217 223.650 10.628 262.277 L 9.961 306.054 14.730 308.119 C 28.775 314.197 58.698 324.472 75.961 329.143 C 132.730 344.505 178.390 350.558 236.500 350.424 C 274.934 350.335 301.508 348.162 334.500 342.408 C 354.532 338.915 378.860 333.605 381.458 332.158 C 381.984 331.865 383.396 331.521 384.595 331.393 C 387.635 331.069 402.925 326.556 419.500 321.091 L 433.500 316.475 434.269 274.987 L 435.038 233.500 432.404 231.371 C 421.430 222.500 395.447 210.062 379.500 206.046 C 368.835 203.360 369.000 203.330 369.000 207.917 C 369.000 211.805 369.037 211.842 373.975 212.901 C 388.903 216.103 420.000 233.042 420.000 237.971 C 420.000 240.793 418.180 241.687 405.971 244.856 C 376.275 252.565 342.219 258.182 304.000 261.675 C 280.798 263.796 223.536 264.089 201.000 262.203 C 169.099 259.532 128.002 253.626 105.000 248.405 C 100.875 247.469 96.600 246.603 95.500 246.480 C 94.400 246.358 92.825 246.013 92.000 245.716 C 88.365 244.403 62.329 237.654 60.750 237.615 C 59.788 237.591 59.000 237.268 59.000 236.897 C 59.000 236.301 53.165 234.691 50.500 234.552 C 49.950 234.523 49.275 234.264 49.000 233.975 C 48.296 233.235 33.952 228.667 32.335 228.667 C 31.601 228.667 31.000 228.292 31.000 227.833 C 31.000 227.375 30.170 227.000 29.155 227.000 C 28.140 227.000 26.529 226.137 25.575 225.083 C 23.237 222.500 24.842 219.548 29.501 217.864 C 31.425 217.168 33.000 216.314 33.000 215.966 C 33.000 215.618 33.563 215.320 34.250 215.303 C 34.938 215.286 40.210 213.617 45.967 211.594 C 58.490 207.194 80.180 201.741 92.185 199.975 C 96.962 199.273 101.347 198.404 101.928 198.045 C 102.509 197.685 103.261 195.378 103.598 192.917 C 104.198 188.536 104.151 188.439 101.356 188.324 C 99.785 188.260 93.490 189.237 87.366 190.495 "/></g>
<g fill="#229C92FE" stroke="#229C92FE">
<path d="M 228.500 63.447 C 215.519 66.061 215.836 65.803 210.187 78.284 C 195.514 110.700 185.896 142.289 180.864 174.592 C 179.080 186.041 178.691 192.921 178.665 213.500 C 178.637 234.590 179.681 250.014 181.240 251.573 C 182.238 252.571 204.843 254.153 225.693 254.683 L 249.887 255.299 250.417 252.899 C 258.113 218.086 257.574 168.475 248.958 118.500 C 245.918 100.865 239.517 67.781 238.365 63.750 C 237.801 61.776 236.931 61.749 228.500 63.447 "/></g>
<g fill="#229C92FE" stroke="#229C92FE">
<path d="M 247.004 61.750 C 247.006 62.163 248.546 69.925 250.426 79.000 C 255.578 103.870 259.593 128.304 262.666 153.500 C 265.284 174.965 265.017 218.966 262.158 237.000 C 260.981 244.425 259.737 251.513 259.392 252.750 C 258.770 254.987 258.832 255.000 269.987 255.000 C 283.824 255.000 309.766 253.203 312.580 252.050 C 316.776 250.331 319.802 221.449 318.092 199.441 C 315.275 163.204 303.945 124.950 283.229 81.730 L 275.670 65.960 270.585 64.497 C 261.710 61.944 246.996 60.230 247.004 61.750 "/></g>
<g fill="#229C92FE" stroke="#229C92FE">
<path d="M 194.404 76.093 C 173.566 86.951 154.704 102.998 141.030 121.500 C 126.861 140.671 119.741 156.090 114.246 179.500 C 111.940 189.326 111.671 192.475 111.731 209.000 C 111.783 223.535 112.196 229.093 113.658 234.935 L 115.518 242.369 123.009 243.665 C 145.736 247.595 171.078 251.255 171.645 250.689 C 171.789 250.544 171.209 244.592 170.355 237.463 C 167.918 217.112 169.448 186.421 174.140 161.582 C 179.054 135.563 188.374 106.334 200.915 77.608 C 202.089 74.918 202.883 72.550 202.679 72.346 C 202.475 72.142 198.751 73.828 194.404 76.093 "/></g>
<g fill="#229C92FE" stroke="#229C92FE">
<path d="M 289.000 72.753 C 289.000 73.257 290.538 76.829 292.417 80.690 C 320.873 139.161 332.793 198.707 324.969 243.305 C 324.313 247.047 324.041 250.375 324.366 250.699 C 324.982 251.315 338.627 249.754 350.252 247.737 C 354.734 246.959 357.148 246.050 357.433 245.033 C 359.848 236.416 360.445 229.381 360.408 210.000 C 360.365 187.513 359.556 181.319 353.876 160.000 C 344.109 123.341 321.355 91.365 292.750 74.100 C 290.688 72.855 289.000 72.249 289.000 72.753 "/></g>
<g fill="#E84E5CFE" stroke="#E84E5CFE">
<path d="M 236.900 11.991 C 231.993 14.585 227.603 19.821 225.453 25.645 C 223.306 31.462 221.316 34.000 218.902 34.000 C 216.563 34.000 214.000 30.264 214.000 26.854 C 214.000 23.650 209.981 18.559 205.707 16.349 C 204.028 15.480 200.434 14.769 197.721 14.769 C 185.132 14.769 176.230 30.041 181.486 42.620 C 183.728 47.986 188.749 53.820 195.238 58.596 L 201.065 62.886 207.428 60.491 C 231.277 51.514 255.373 50.323 276.000 57.102 C 281.225 58.819 286.210 60.598 287.079 61.056 C 288.768 61.945 294.416 59.066 296.755 56.123 C 299.334 52.879 302.042 46.935 303.509 41.302 C 304.852 36.149 304.846 34.982 303.454 30.195 C 299.675 17.194 285.437 10.586 273.974 16.514 C 270.535 18.292 265.179 23.837 264.396 26.429 C 263.611 29.027 260.035 33.000 258.481 33.000 C 257.837 33.000 256.504 32.110 255.519 31.021 C 253.935 29.271 253.870 28.535 254.957 24.652 C 256.008 20.900 255.948 19.800 254.545 17.087 C 252.529 13.189 247.515 9.994 243.500 10.048 C 241.850 10.070 238.880 10.945 236.900 11.991 "/></g>
<g fill="#503636FE" stroke="#503636FE">
<path d="M 364.000 538.090 C 352.061 543.518 324.078 552.028 305.500 555.880 C 279.650 561.241 246.910 563.760 224.023 562.150 C 213.905 561.439 209.163 561.450 208.273 562.188 C 206.288 563.836 206.752 567.797 209.075 569.040 C 210.287 569.689 219.538 570.376 231.325 570.694 C 275.626 571.888 319.407 564.272 361.569 548.036 C 373.780 543.335 376.026 541.169 372.429 537.571 C 370.409 535.552 369.452 535.611 364.000 538.090 "/></g>
<g fill="#F8BA42FE" stroke="#F8BA42FE">
<path d="M 89.500 208.930 C 73.225 211.806 43.741 219.993 42.515 221.976 C 42.272 222.368 47.345 224.304 53.787 226.278 C 77.795 233.634 104.295 240.210 104.804 238.936 C 104.971 238.518 104.409 233.466 103.554 227.709 C 102.699 221.953 102.000 214.939 102.000 212.122 C 102.000 208.647 101.598 207.026 100.750 207.082 C 100.063 207.127 95.000 207.959 89.500 208.930 "/></g>
<g fill="#F8BA42FE" stroke="#F8BA42FE">
<path d="M 370.000 221.234 C 370.000 221.450 369.326 226.737 368.502 232.983 C 367.679 239.228 367.116 244.447 367.252 244.581 C 367.941 245.255 404.000 236.915 404.000 236.081 C 404.000 234.886 389.970 227.256 383.000 224.660 C 376.413 222.206 370.000 220.516 370.000 221.234 "/></g>
<g fill="#503636FE" stroke="#503636FE">
<path d="M 150.250 556.110 C 148.620 557.793 148.656 560.470 150.329 561.858 C 151.653 562.957 154.949 563.492 179.323 566.566 C 191.647 568.120 192.200 568.112 193.555 566.342 C 197.324 561.418 193.747 559.688 175.500 557.608 C 167.800 556.730 159.250 555.744 156.500 555.417 C 153.051 555.006 151.112 555.221 150.250 556.110 "/></g>
<g fill="#FCA08CFE" stroke="#FCA08CFE">
<path d="M 100.975 206.658 C 101.539 206.938 102.098 210.054 102.219 213.583 L 102.438 220.000 102.469 213.333 C 102.490 208.712 102.109 206.587 101.225 206.408 C 100.524 206.266 100.411 206.379 100.975 206.658 "/></g>
<g fill="#FCA08CFE" stroke="#FCA08CFE">
<path d="M 376.000 243.000 C 374.020 243.634 373.916 243.801 375.500 243.801 C 376.600 243.801 378.625 243.440 380.000 243.000 C 381.980 242.366 382.084 242.199 380.500 242.199 C 379.400 242.199 377.375 242.560 376.000 243.000 "/></g>
<g fill="#FCA08CFE" stroke="#FCA08CFE">
<path d="M 315.000 91.000 L 319.000 95.000 315.000 91.000 L 311.000 87.000 315.000 91.000 "/></g>
<g fill="#FCA08CFE" stroke="#FCA08CFE">
<path d="M 403.553 235.250 C 404.028 236.507 403.715 237.000 402.440 237.000 C 401.465 237.000 400.933 237.266 401.258 237.591 C 401.583 237.917 402.833 237.870 404.036 237.489 C 406.075 236.841 406.110 236.683 404.557 235.147 C 403.010 233.617 402.939 233.624 403.553 235.250 "/></g>
<g fill="#FCA08CFE" stroke="#FCA08CFE">
<path d="M 302.452 45.539 C 301.604 49.240 301.627 49.309 302.805 46.599 C 303.498 45.003 303.907 43.220 303.712 42.637 C 303.518 42.054 302.951 43.360 302.452 45.539 "/></g>
<g fill="#FCA08CFE" stroke="#FCA08CFE">
<path d="M 215.872 32.250 C 217.335 34.115 220.513 34.596 221.442 33.093 C 221.751 32.595 221.100 32.423 219.996 32.711 C 218.892 33.000 217.204 32.620 216.245 31.868 C 214.665 30.629 214.629 30.665 215.872 32.250 "/></g>
</svg>
