<svg width="21" height="96" viewBox="0 0 21 96" fill="none" xmlns="http://www.w3.org/2000/svg">
<path fill-rule="evenodd" clip-rule="evenodd" d="M17.4324 95.3014C20.2432 94.9146 20.7367 94.2482 20.0577 92.0953C19.945 91.7509 19.8822 91.3616 19.5157 91.1117C19.5644 91.0233 19.5618 90.9365 19.508 90.8511C19.5042 90.7209 19.4491 90.5921 19.4452 90.4619C19.5159 89.3733 18.7277 88.7446 17.6845 88.1669C16.4849 87.5068 15.3853 86.7569 14.2857 86.007C13.7628 85.6747 13.5988 85.3318 14.4652 85.1325C17.9027 85.1184 18.6039 84.5328 18.0146 81.9427C17.8391 81.209 17.5111 80.5233 17.2343 79.8361C16.4027 77.7311 14.265 76.5772 12.1785 75.4217C12.2119 74.8123 12.8797 74.8361 13.3373 74.6923C16.8441 73.5462 17.1364 73.0161 15.7704 70.188C15.4362 67.5469 12.7845 66.3646 10.5366 64.9531C10.2111 64.3542 8.83073 64.5252 9.05899 63.5624C10.0395 63.7509 10.8957 63.2042 11.8685 63.1321C15.6894 62.1941 16.3329 61.3929 15.0784 58.8658C14.4481 56.6245 12.7115 55.1545 9.91625 54.3241C13.4527 52.4383 13.9385 51.5114 12.6828 48.9409C11.9729 47.4841 11.1118 46.1188 9.59179 45.0336C10.0468 44.8029 10.2981 44.6217 10.6018 44.4824C13.4884 43.1807 13.6294 42.742 12.3236 40.2163C11.6163 38.8465 10.5552 37.6608 9.03908 36.7059C11.9384 35.8384 12.3781 35.0867 11.649 32.9786C11.0315 31.1716 9.90634 29.5532 8.22364 28.1686C9.34388 27.8749 10.259 27.5872 11.2793 27.3834C12.8084 27.0342 13.1468 26.329 12.601 25.2151C11.9475 23.9306 11.294 22.646 10.6404 21.3615C13.1872 20.7217 13.3334 20.4566 12.4544 18.4834C12.1238 17.7109 11.8445 16.9368 11.2601 16.2587C10.5681 15.4099 10.9167 15.052 11.9357 14.8047C13.8724 14.3566 14.0994 13.3504 13.4459 12.0659C12.9551 11.0808 12.3618 10.0987 11.7198 9.20496C11.293 8.65255 11.3341 8.30368 11.9404 7.98164C13.8105 7.01404 13.1082 5.81786 12.4598 4.70701C11.5398 3.08265 9.96344 1.82525 8.33583 0.569359C7.91547 0.234053 7.60787 0.243097 7.09902 0.388431C3.53451 1.31893 2.74103 2.25488 3.13545 5.19844C3.14055 5.37212 3.19693 5.5443 3.14949 5.67607C2.52769 7.21539 2.62108 8.64676 3.48477 10.0989C3.91534 10.7816 3.88578 11.5213 3.13973 12.3255C2.09502 13.4426 1.62064 14.7603 2.94064 16.0252C3.52118 16.5731 3.53778 17.1376 2.78918 17.8549C1.04204 19.5143 1.45708 21.4142 2.38225 23.2123C2.70901 23.8545 2.72178 24.2887 2.22825 24.9551C-0.0945425 27.9786 0.503669 30.8727 3.74228 32.82C0.823429 36.5128 0.783652 36.9051 3.62213 40.9502C3.94378 41.4188 3.64256 41.6449 3.39388 41.913C2.45298 43.0706 2.28492 44.3358 2.52829 45.6324C2.54106 46.0666 2.4013 46.5487 2.8742 46.9259C3.38816 46.9543 3.54834 47.1669 3.40603 47.5622L3.35476 47.5637C3.8366 48.2449 4.06465 49.0204 5.25147 49.2462C6.23195 49.4347 6.04219 49.9618 5.49229 50.456C4.44247 51.3995 3.54773 52.3819 3.38096 53.6905C3.2463 54.3463 3.06165 55.0471 3.59221 55.6399C3.95491 55.7596 4.06511 56.0171 4.07277 56.2777L4.02022 56.2358C3.90599 57.5863 4.90562 58.4261 6.15647 59.0846C6.2922 60.2106 4.61057 60.6077 4.53867 61.6528C3.45929 63.3359 3.66032 64.938 4.73419 66.5578C5.00458 67.0279 5.27624 67.5414 5.59789 68.01C6.27841 68.468 6.95894 68.926 7.69073 69.3826C7.9124 69.941 7.61756 70.3843 7.11637 70.7901C6.16525 71.6003 5.68066 72.5707 5.5075 73.6622C4.85613 75.9412 6.03764 77.7317 7.78055 79.4188C8.19708 79.6238 8.31621 80.1853 9.03013 80.0339C9.50814 80.5848 9.7798 81.0983 9.07992 81.7273C8.68127 82.1301 8.54278 82.6557 8.30048 83.1409C7.63252 84.8554 7.68103 86.5054 8.80489 88.0803C9.8928 90.1777 12.2945 91.5847 13.2812 93.7286C13.6643 94.543 14.7101 95.2076 16.0456 95.2553C16.3571 95.3765 16.871 95.4048 17.4324 95.3014Z" fill="#D8474B"/>
</svg>
