<svg xmlns="http://www.w3.org/2000/svg" viewBox="0 0 150.79 130.3"><defs><style>.cls-1{fill:#e4e4e4;}</style></defs><title>资源 1</title><g id="图层_2" data-name="图层 2"><g id="图层_1-2" data-name="图层 1"><path d="M92.08,130.17c-20.41,0-39.65-1.24-58-8.35-4-1.53-7.69-3.5-11.52-5.28C9.14,110.31,1.7,99.9.43,85.34-1.52,62.87,3.11,41.81,15.84,23,24.61,10.06,37.91,4.11,53,1.71S83.14.15,98.24.11a5.36,5.36,0,0,1,2.45.7c16,8.74,30.64,19.1,42,33.52,5.39,6.83,8.32,14.38,8.07,23.36-.42,14.67-.59,29.31-5.41,43.4-6,17.61-19.49,27.75-38.2,28.9A138.25,138.25,0,0,1,92.08,130.17Z"/><path class="cls-1" d="M87.88,126.09c-18.39-.48-36.63-1.8-53.93-8.85a127.75,127.75,0,0,1-14-7C9.7,104.46,5.52,95.05,4.54,84.07,3,67,6.43,50.75,13.49,35.21,22,16.5,37.33,7.6,57.21,5.39,70.15,4,83.14,4.11,96.12,4.36a8.62,8.62,0,0,1,4.28,1.08C114,13.15,126.65,22.17,137,34c6.66,7.59,10.21,16,9.46,26.52-.78,11-.67,22.08-3.32,32.91-5.35,21.88-18.47,32.33-41.06,32.64C97.37,126.14,92.63,126.09,87.88,126.09Z"/><path d="M27.77,71.31c1.22-3.84-1.08-6.73-4.38-9.2-1.09-.82-2.13-1.71-3.19-2.58-5.81-4.77-6-6-1.49-11.83,3.52-4.58,8.05-8.39,9.77-14.33.73-2.49,3.15-3.55,6-1.56a30.06,30.06,0,0,0,8.11,4.54c4.26,1.32,6.23.75,8.5-3,1.71-2.87,3-6,4.62-8.91,2.1-3.83,4.08-4.24,7.35-1.27C67.3,27,71.37,31,75.41,35.06c1.87,1.88,3.07,1.77,4.65-.41a85.09,85.09,0,0,0,6-10.25c.81-1.53,1.62-3.23,3.8-3s2.28,2.07,2.79,3.55c1,2.81,1.84,5.65,2.83,8.45.4,1.13.42,2.81,1.7,3.1s1.8-1.43,2.59-2.31c1.24-1.38,2.29-2.95,3.6-4.26,3.28-3.27,5.43-2.94,7.46,1.12a38.42,38.42,0,0,1,3.82,12.37c.85,6.63.91,6.63,7.36,5.43a30.55,30.55,0,0,1,7.42-.7c4.93.3,7,3.59,5.49,8.26a25,25,0,0,1-6.55,9.82c-6.28,6.29-6.22,7,.42,12.7,2.13,1.82,5.17,3.53,4.16,6.85-1.11,3.65-4.84,3.43-7.86,3.79-4.82.59-9.72.48-14.52,1.45-2.13.43-3.4,1.18-3.7,3.75-.47,4-2.9,5.35-7,4.43-3.36-.75-6.67-3.25-10.08-1.86s-4.09,5.42-6.07,8.22c-4,5.68-5.69,6-11.47,1.89-3.45-2.44-7.09-4.64-10.35-7.32-2.16-1.78-3.29-1.14-4.72.68a36.41,36.41,0,0,1-4,4.38c-3,2.76-4.57,2.56-6.89-.8-1.76-2.55-3.35-5.23-5.19-7.73s-4.23-3.36-7.48-1.9c-5.26,2.36-7.56.75-7.29-5C26.57,83.8,27.23,77.87,27.77,71.31Z"/><path class="cls-1" d="M128.22,84.76c-5.67,1.36-11.21.81-16.6,1.78-4.46.81-8.74,1.69-9,7.51-.06,1.65-1.33,1.12-2.23.87-2.17-.58-4.28-1.34-6.46-1.84-4.42-1-7.45.17-10,3.93-1.52,2.26-3,4.58-4.33,6.94-1.17,2-2.4,2-4.16.66-3.9-2.86-8-5.55-11.89-8.37-3.69-2.64-5.39-2.51-8.71.75-1.66,1.63-2.92,4.9-4.91,4.59-1.58-.26-2.66-3.53-4-5.44C41.42,89.62,39,88.8,30.75,91a48.68,48.68,0,0,1,1-14.78c1.67-8.31-.62-14.4-7.73-19.17-4.9-3.29-4.65-3.61-.85-8.12,3.19-3.78,7-7.16,8.55-12.07.5-1.54,1.31-.92,2.23-.33a30.57,30.57,0,0,0,7.59,3.93c6.09,1.86,9.71.6,13.05-4.78a71.56,71.56,0,0,0,4-7.55c.85-1.85,1.5-2.21,3.09-.59C65.33,31.29,69,35,73,38.44c4.67,4.08,6.57,3.81,10.32-1.16,2-2.66,3.72-5.56,5.63-8.45,1.74,2.42,2.09,5.44,3.32,8.09,2.45,5.31,6.33,5.8,10,1.24,1.39-1.72,2.7-3.51,4.32-5.63,2.77,4.43,3.61,9,4.25,13.56.94,6.72,3.51,8.63,10.08,7.36,2.08-.4,4.17-.81,6.27-1,1.3-.13,2.93-.63,3.78.81s-.15,2.72-.81,3.82a53.45,53.45,0,0,1-3.95,5.41c-.61.78-1.41,1.41-2.09,2.13-6.44,6.73-6.3,10.08.62,16.42C125.84,82.1,127.42,82.78,128.22,84.76Z"/></g></g></svg>