<svg xmlns="http://www.w3.org/2000/svg" viewBox="0 0 150.94 130.35"><defs><style>.cls-1{fill:#e4e4e4;}</style></defs><title>资源 2</title><g id="图层_2" data-name="图层 2"><g id="图层_1-2" data-name="图层 1"><path d="M91.91,130.15c-18.88,0-36.64-1.09-53.79-6.87a101.3,101.3,0,0,1-22.77-11C5.77,106,1.58,96.58.52,85.88-1.6,64.41,2.74,44.11,14.07,25.61,22.94,11.13,36.82,4.25,53.18,1.67,68.07-.68,83.08.18,98.05.06a5.65,5.65,0,0,1,2.83.82c15.45,8.38,29.39,18.63,40.89,32.06,7.93,9.25,9.79,19.9,9,31.63C149.9,78,149.46,91.36,144.27,104c-6.61,16.14-19,24.26-36.12,25.89A106.42,106.42,0,0,1,91.91,130.15Z"/><path class="cls-1" d="M88.12,126.08c-17.76-.48-35.4-1.65-52.23-8.1a104.76,104.76,0,0,1-17.63-8.89C9.83,103.86,6,95.73,4.88,86.45c-2.41-20.08,1.74-39,11.61-56.64C25.36,14,40.08,7.35,57.43,5.38,70,4,82.6,4.14,95.21,4.32a12.66,12.66,0,0,1,6.37,1.73C114.83,13.68,127,22.6,137.17,34.13c6.62,7.51,10,15.89,9.4,26.19-.65,10.78-.79,21.57-3.12,32.19-4.85,22.08-18.34,33.14-41.1,33.56C97.61,126.15,92.86,126.08,88.12,126.08Z"/></g></g></svg>