<svg xmlns="http://www.w3.org/2000/svg" version="1.1" width="300" height="225" viewBox="0 0 300 225">
<path transform="matrix(1,0,0,-1,90,195.95606)" d="M18.56236 108.4541C18.56236 117.01452 11.622775 123.9541 3.062361 123.9541-5.498053 123.9541-12.437639 117.01452-12.437639 108.4541H3.062361 18.56236ZM2.631279 62.477098-11.729918 56.64563 2.631279 62.477098ZM40.592359 37.391649 45.71061 52.022218 40.592359 37.391649ZM85.933719 40.456056 92.347667 26.345376 85.933719 40.456056ZM107.57169 107.00372 121.45983 113.886287C121.08114 114.65044 120.64002 115.382038 120.140979 116.07363L107.57169 107.00372ZM101.84949 135.55883C95.99374 141.8031 86.18474 142.11806 79.94047 136.2623 73.6962 130.40656 73.38124 120.59756 79.236988 114.35329L90.543239 124.956058 101.84949 135.55883ZM3.062361 108.4541H-12.437639C-12.437639 108.46643-12.438041 108.3259-12.464526 107.98159-12.49021 107.6477-12.53345 107.21002-12.600632 106.64463-12.738303 105.486-12.939579 104.09173-13.201887 102.33348-13.705264 98.95934-14.400316 94.48312-14.883877 89.745578-15.80221 80.74845-16.3302 67.97478-11.729918 56.64563L2.631279 62.477098 16.992476 68.30856C15.430592 72.15503 15.118143 78.39015 15.955892 86.59778 16.350373 90.4626 16.918498 94.13775 17.458786 97.75931 17.918103 100.8381 18.56236 105.05573 18.56236 108.4541H3.062361ZM2.631279 62.477098-11.729918 56.64563C-6.592629 43.993989 3.76239 36.48356 12.461973 31.900864 21.060065 27.371628 30.601918 24.46553 35.474107 22.761078L40.592359 37.391649 45.71061 52.022218C39.144689 54.31919 32.857217 56.195299 26.909905 59.32817 21.064084 62.407587 18.157618 65.43916 16.992476 68.30856L2.631279 62.477098ZM40.592359 37.391649 35.474107 22.761078C50.560125 17.483498 72.14433 17.16204 92.347667 26.345376L85.933719 40.456056 79.51977 54.566736C66.7231 48.75007 53.406965 49.32978 45.71061 52.022218L40.592359 37.391649ZM85.933719 40.456056 92.347667 26.345376C94.487 27.317803 96.36101 27.975365 100.180309 29.552536 103.47224 30.911934 107.490398 32.690904 111.49097 35.09955 119.70191 40.043169 128.57996 48.132898 131.97093 61.69675L116.933719 65.456058 101.89651 69.21536C101.13947 66.187229 99.34126 63.969564 95.501079 61.657476 93.476078 60.43827 91.124958 59.352319 88.34805 58.205598 86.098529 57.276659 82.20417 55.78692 79.51977 54.566736L85.933719 40.456056ZM116.933719 65.456058 131.97093 61.69675C134.4091 71.44945 132.8525 81.78512 130.64019 90.10602 128.33818 98.76425 124.797359 107.15157 121.45983 113.886287L107.57169 107.00372 93.683559 100.12117C96.4337 94.57171 99.0739 88.185199 100.68099 82.14064 102.37777 75.75874 102.458339 71.46266 101.89651 69.21536L116.933719 65.456058ZM107.57169 107.00372 120.140979 116.07363C117.72164 119.42641 115.16493 122.237049 112.62064 124.70984L101.81778 113.59462 91.014919 102.4794C92.56239 100.9754 93.85724 99.52083 95.00241 97.93382L107.57169 107.00372ZM101.81778 113.59462 112.62064 124.70984C110.375598 126.8918 108.65095 128.30609 101.84949 135.55883L90.543239 124.956058 79.236988 114.35329C86.67756 106.41904 89.1682 104.27422 91.014919 102.4794L101.81778 113.59462Z" fill="#00a0d7"/>
<path transform="matrix(1,0,0,-1,172,111.62012)" d="M9.213755 28.74276C17.579493 30.558005 22.889716 38.811326 21.074469 47.17706 19.259222 55.542798 11.005904 60.85302 2.640167 59.037775L5.92696 43.890268 9.213755 28.74276ZM.227453 39.91897 12.35675 30.26857 .227453 39.91897ZM.770286 37.596197 12.027781 48.250719 .770286 37.596197ZM12.628584 35.44667 15.916327 20.29937 12.628584 35.44667ZM15.434964 38.13654 28.274382 29.453259 15.434964 38.13654ZM14.852574 46.923559 28.809824 53.66486 14.852574 46.923559ZM3.47851 48.053773 .815709 63.32333 3.47851 48.053773ZM.707966 44.93299-12.414889 53.18167-12.41489 53.181669 .707966 44.93299ZM.159919 41.14797 15.43527 43.77735 .159919 41.14797ZM5.552153 34.5196-3.864462 22.207924H-3.864461L5.552153 34.5196ZM14.32564 34.674077 18.433724 19.728386 14.32564 34.674077ZM16.150525 35.867788 27.409724 25.215067C28.937485 26.829806 30.10005 28.754269 30.818547 30.857884L16.150525 35.867788ZM16.548073 44.96537 30.693646 51.302C30.588118 51.53757 30.47672 51.770475 30.359562 52.000486L16.548073 44.96537ZM27.204766 56.83937C21.983613 63.62319 12.251656 64.889987 5.467834 59.66883-1.315987 54.447679-2.58278 44.71572 2.638373 37.9319L14.921569 47.385637 27.204766 56.83937ZM5.92696 43.890268 2.640167 59.037775C.730977 58.62351-.879808 57.885416-1.407381 57.64314-2.343347 57.213319-3.382066 56.67144-4.457708 56.01889-6.46694 54.799966-9.395639 52.719339-11.901843 49.569364L.227453 39.91897 12.35675 30.26857C12.023921 29.850247 11.766657 29.63211 11.693673 29.572108 11.611465 29.50452 11.587378 29.494244 11.621297 29.514822 11.656141 29.535962 11.643811 29.524067 11.529709 29.471669 11.473977 29.446076 11.325825 29.379475 11.088391 29.289452 10.969271 29.244288 10.776779 29.173886 10.525308 29.093163 10.316649 29.02618 9.844831 28.879694 9.213755 28.74276L5.92696 43.890268ZM.227453 39.91897-11.901843 49.569364C-15.880772 44.568368-15.896405 38.911607-15.038261 35.281244-14.187129 31.680548-12.329689 28.888428-10.487209 26.941676L.770286 37.596197 12.027781 48.250719C13.111306 47.10587 14.473042 45.193235 15.130352 42.4125 15.794675 39.602098 15.887102 34.705766 12.35675 30.26857L.227453 39.91897ZM.770286 37.596197-10.487209 26.941676C-.3871 16.269967 12.958265 19.657319 15.916327 20.29937L12.628584 35.44667 9.340841 50.59397C8.538832 50.419897 8.103982 50.341455 7.796635 50.302659 7.503594 50.26567 7.589331 50.3018 7.926592 50.27414 8.297362 50.243738 9.00305 50.13343 9.85797 49.75626 10.753431 49.361204 11.497409 48.811105 12.027781 48.250719L.770286 37.596197ZM12.628584 35.44667 15.916327 20.29937C20.958113 21.393696 24.132708 24.337719 25.674059 26.034176 27.062926 27.562806 28.208783 29.35626 28.274382 29.453259L15.434964 38.13654 2.595546 46.81982C2.352334 46.460199 2.487589 46.65838 2.307051 46.39186 2.273909 46.342939 2.250562 46.308794 2.233319 46.283807 2.224977 46.271715 2.218865 46.26293 2.214683 46.256956 2.210509 46.250989 2.208628 46.248346 2.2088 46.248586 2.208844 46.248647 2.219034 46.262987 2.237966 46.2885 2.256923 46.314054 2.28715 46.35419 2.327725 46.40598 2.406327 46.5063 2.541424 46.67297 2.729978 46.880498 3.373966 47.58929 5.537701 49.768495 9.340841 50.59397L12.628584 35.44667ZM15.434964 38.13654 28.274382 29.453259C31.717085 34.543767 31.93723 40.027765 31.663409 43.378274 31.362475 47.060548 30.28797 50.604497 28.809824 53.66486L14.852574 46.923559 .895326 40.18225C.884367 40.204938 .872906 40.230958 .856943 40.287179 .843017 40.336225 .793651 40.51997 .766417 40.853216 .740972 41.164564 .716197 41.832895 .890903 42.76705 1.063967 43.692434 1.494323 45.19151 2.595546 46.81982L15.434964 38.13654ZM14.852574 46.923559 28.809824 53.66486C25.782732 59.932176 20.213829 62.19239 17.776562 62.964166 14.983976 63.84845 12.316959 64.053638 10.527529 64.105068 6.820715 64.21161 3.12602 63.72622 .815709 63.32333L3.47851 48.053773 6.141311 32.78421C7.419364 33.007085 8.839743 33.140775 9.63689 33.117864 10.099441 33.10457 9.531626 33.05789 8.418239 33.410455 7.814206 33.601724 6.639043 34.037977 5.29318 34.980199 3.886312 35.96513 2.129009 37.62802 .895326 40.18225L14.852574 46.923559ZM3.47851 48.053773 .815709 63.32333C-5.919517 62.1488-9.505295 57.479455-10.496015 56.145799-11.173296 55.234075-11.690458 54.386556-11.952559 53.952489-12.36264 53.273347-12.295886 53.37099-12.414889 53.18167L.707966 44.93299 13.830821 36.684316C14.027787 36.99767 14.200249 37.28474 14.31783 37.481508 14.467343 37.731706 14.505132 37.796548 14.584834 37.928544 14.729893 38.168779 14.627288 37.980466 14.38902 37.65972 14.165739 37.35915 13.483103 36.470895 12.294813 35.52639 11.028323 34.519727 8.964006 33.276449 6.141311 32.78421L3.47851 48.053773ZM.707966 44.93299-12.41489 53.181669C-15.942728 47.569219-15.69399 41.879709-15.115432 38.518587L.159919 41.14797 15.43527 43.77735C15.546569 43.130765 15.941466 40.042154 13.830821 36.684316L.707966 44.93299ZM.159919 41.14797-15.115432 38.518587C-13.314907 28.058468-4.460204 22.663578-3.864461 22.207924L5.552153 34.5196 14.968767 46.831277C14.641768 47.081384 14.237808 47.385267 14.025467 47.546167 13.759895 47.747404 13.582127 47.88434 13.439982 47.99743 13.141198 48.235139 13.198069 48.213159 13.39053 48.011445 13.608137 47.783376 14.049033 47.276334 14.483235 46.48702 14.937431 45.661359 15.270928 44.732095 15.43527 43.77735L.159919 41.14797ZM5.552153 34.5196-3.864461 22.207924C1.105704 18.40648 6.49284 17.960083 10.023525 18.160658 13.284796 18.345927 16.416413 19.173892 18.433724 19.728384L14.32564 34.674077 10.217555 49.619768C9.336151 49.377496 8.757994 49.234994 8.355284 49.150857 7.940456 49.06419 7.960967 49.093469 8.265282 49.110757 8.573976 49.128293 9.471148 49.152467 10.702377 48.863504 12.027403 48.55253 13.54129 47.923086 14.968767 46.831277L5.552153 34.5196ZM14.32564 34.674077 18.433724 19.728386C23.693455 21.174115 26.616717 24.376912 27.409724 25.215067L16.150525 35.867788 4.891324 46.520505C4.601257 46.213926 5.264406 46.96438 6.258609 47.69382 7.445332 48.564516 8.802917 49.230928 10.217555 49.619768L14.32564 34.674077ZM16.150525 35.867788 30.818547 30.857884C32.076635 34.541318 32.455278 38.21476 32.496149 40.9905 32.517564 42.445077 32.450685 43.944944 32.27076 45.396085 32.13586 46.484045 31.795504 48.842264 30.693646 51.302L16.548073 44.96537 2.402503 38.628747C2.138385 39.21835 1.967732 39.711206 1.863044 40.04426 1.754734 40.388837 1.683362 40.670289 1.637971 40.867074 1.549897 41.248907 1.5164 41.500429 1.506334 41.58161 1.486666 41.74024 1.502982 41.68305 1.499505 41.446878 1.496288 41.228345 1.477998 41.005769 1.451881 40.83038 1.423453 40.63947 1.409986 40.665376 1.482501 40.877687L16.150525 35.867788ZM16.548073 44.96537 30.359562 52.000486C29.407113 53.870355 28.363865 55.33336 27.204766 56.83937L14.921569 47.385637 2.638373 37.9319C2.724457 37.820055 2.796628 37.725168 2.857122 37.64473 2.917631 37.564279 2.964265 37.501195 2.999508 37.452878 3.071273 37.35449 3.086697 37.329774 3.066857 37.359529 3.056127 37.37562 3.036321 37.40578 3.00964 37.44829 2.982671 37.491266 2.951157 37.5429 2.916572 37.60193 2.881829 37.661226 2.847938 37.721235 2.815671 37.780424 2.78354 37.839365 2.756923 37.89033 2.736586 37.93026L16.548073 44.96537Z" fill="#ffd966"/>
<path transform="matrix(-1,0,0,-1,259,182.45117)" d="M-9.5 21.451172C-9.5 15.652184-4.79899 10.951172 1 10.951172 6.79899 10.951172 11.5 15.652184 11.5 21.451172H1-9.5ZM.446054 54.968324 10.94458 55.144395 10.944471 55.150636 .446054 54.968324ZM10.462717 68.33523C9.974465 74.11363 4.894341 78.40214-.884058 77.91389-6.662457 77.42564-10.950969 72.34551-10.462717 66.567119L0 67.45117 10.462717 68.33523ZM1 21.451172H11.5C11.5 21.720234 11.282804 34.977239 10.944578 55.144395L.446054 54.968324-10.052469 54.79225C-9.882456 44.655-9.743987 36.31469-9.648026 30.49007-9.550271 24.556477-9.5 21.411789-9.5 21.451172H1ZM.446054 54.968324 10.944471 55.150636C10.820018 62.31727 10.785676 63.67269 10.726345 64.82681L.240192 64.28774-10.245961 63.74868C-10.209835 63.045949-10.180246 62.150167-10.052363 54.78601L.446054 54.968324ZM.240192 64.28774 10.726345 64.82681C10.667579 65.96998 10.58619 66.87394 10.462717 68.33523L0 67.45117-10.462717 66.567119C-10.326303 64.95268-10.28265 64.462368-10.245961 63.74868L.240192 64.28774Z" fill="#00a0d7"/>
<path transform="matrix(1,0,0,-1,243.42212,101.021488)" d="M16.124512 25.865448C19.16196 25.892184 21.602625 28.376196 21.575888 31.413645 21.549153 34.45109 19.06514 36.891759 16.02769 36.86502L16.076102 31.365235 16.124512 25.865448ZM.558207 26.689965 4.620698 22.982382 .558207 26.689965ZM.288266 23.346306-4.990082 21.800652-4.990081 21.80065 .288266 23.346306ZM9.700159 12.079597 13.359478 16.185616 9.700159 12.079597ZM16.422213 11.256968 16.760783 5.767399 16.422213 11.256968ZM22.685982 14.552265 19.051037 18.679879V18.679877L22.685982 14.552265ZM24.763768 20.597897 19.264618 20.694622 24.763768 20.597897ZM20.96578 26.104426 17.615643 21.74248 20.96578 26.104426ZM10.42449 28.585967 11.505371 23.193222 10.42449 28.585967ZM7.814793 26.514962 12.479525 23.601155 7.814793 26.514962ZM7.873851 20.392792 12.834976 22.767079 7.873851 20.392792ZM20.26356 17.066246 19.800253 22.546696 20.26356 17.066246ZM23.028834 22.576523 28.527 22.434542 23.028834 22.576523ZM17.640112 25.928359 18.727887 31.319718 17.640112 25.928359ZM24.392626 18.407958C26.39478 20.692294 26.166026 24.16718 23.88169 26.169333 21.597355 28.171486 18.122469 27.942734 16.120314 25.658398L20.25647 22.033177 24.392626 18.407958ZM16.076102 31.365235 16.02769 36.86502C13.861589 36.845956 10.373305 36.51087 6.921001 35.68696 3.759476 34.93244-.693734 33.47714-3.504284 30.397547L.558207 26.689965 4.620698 22.982382C5.025712 23.426167 6.564464 24.292944 9.474504 24.987442 12.093763 25.612544 14.756645 25.853407 16.124512 25.865448L16.076102 31.365235ZM.558207 26.689965-3.504284 30.397547C-5.05325 28.700306-5.465186 26.724108-5.497737 25.261195-5.528853 23.862763-5.229562 22.618466-4.990082 21.800652L.288266 23.346306 5.566613 24.89196C5.461152 25.252106 5.504772 25.251603 5.499541 25.016493 5.492875 24.7169 5.388381 23.823552 4.620698 22.982382L.558207 26.689965ZM.288266 23.346306-4.990081 21.80065C-3.895102 18.06134-1.754547 15.249147 .331539 13.096315 2.238584 11.128252 4.738614 9.134134 6.040841 7.973579L9.700159 12.079597 13.359478 16.185616C11.255586 18.060624 9.802279 19.129729 8.231211 20.751065 6.839185 22.18763 5.976852 23.491009 5.566613 24.89196L.288266 23.346306ZM9.700159 12.079597 6.040841 7.973579C8.242909 6.011076 10.872767 5.660772 12.506361 5.592186 14.065956 5.526707 15.943721 5.717007 16.760783 5.767399L16.422213 11.256968 16.083643 16.746537C15.737114 16.725165 15.39262 16.699322 15.087286 16.676407 14.769885 16.652585 14.491652 16.631688 14.219484 16.61452 13.667 16.579667 13.272671 16.569705 12.967788 16.582505 12.24134 16.613005 12.727232 16.749077 13.359478 16.185616L9.700159 12.079597ZM16.422213 11.256968 16.760783 5.767399C20.978415 6.027521 24.313397 8.65674 26.320927 10.424654L22.685982 14.552265 19.051037 18.679877C17.179883 17.03206 16.29614 16.759644 16.083643 16.746537L16.422213 11.256968ZM22.685982 14.552265 26.320927 10.424654C29.911108 13.586315 30.221653 18.155209 30.262917 20.501172L24.763768 20.597897 19.264618 20.694622C19.24894 19.803223 19.16816 19.212239 19.058117 18.832818 18.960846 18.497426 18.907416 18.553399 19.051037 18.679879L22.685982 14.552265ZM24.763768 20.597897 30.262917 20.501172C30.311697 23.274533 29.143923 25.46782 27.96384 26.986477 26.815316 28.464526 25.40357 29.631014 24.315918 30.466372L20.96578 26.104426 17.615643 21.74248C18.03665 21.419129 18.388237 21.130152 18.680724 20.861817 18.975188 20.591668 19.163464 20.384346 19.277926 20.237042 19.512232 19.93551 19.254773 20.134875 19.264618 20.694622L24.763768 20.597897ZM20.96578 26.104426 24.315918 30.466372C18.277678 35.103967 12.399853 34.59128 9.343609 33.97871L10.42449 28.585967 11.505371 23.193222C12.904088 23.47357 15.072499 23.695708 17.615643 21.74248L20.96578 26.104426ZM10.42449 28.585967 9.343609 33.97871C6.068264 33.322225 4.089689 30.933026 3.150062 29.42877L7.814793 26.514962 12.479525 23.601155C12.54222 23.701523 12.560238 23.695408 12.475323 23.623574 12.386975 23.548836 12.06708 23.305806 11.505371 23.193222L10.42449 28.585967ZM7.814793 26.514962 3.150062 29.428772C.529593 25.233649 1.673609 20.607668 2.912725 18.018507L7.873851 20.392792 12.834976 22.767079C12.756432 22.931199 12.68959 23.10867 12.641996 23.283324 12.59423 23.45861 12.574061 23.600689 12.568771 23.700959 12.558091 23.903388 12.60773 23.806399 12.479525 23.601155L7.814793 26.514962ZM7.873851 20.392792 2.912725 18.018507C4.962301 13.735872 9.095581 12.262197 12.067958 11.738249 15.115408 11.201065 18.369357 11.386494 20.726866 11.585794L20.26356 17.066246 19.800253 22.546696C17.545382 22.356076 15.516044 22.300034 13.977519 22.571236 12.36392 22.855668 12.608537 23.240229 12.834976 22.767079L7.873851 20.392792ZM20.26356 17.066246 20.726866 11.585794C25.095328 11.955095 26.973929 15.46976 27.626786 17.246708 28.336049 19.177182 28.495196 21.20287 28.527 22.434542L23.028834 22.576523 17.530667 22.718504C17.522179 22.389855 17.496132 22.0318 17.447079 21.696906 17.395842 21.34711 17.335198 21.131642 17.301608 21.040217 17.257002 20.91881 17.327996 21.191567 17.690592 21.563809 17.889639 21.76815 18.180195 22.004937 18.571919 22.19978 18.971739 22.398652 19.394564 22.512402 19.800253 22.546696L20.26356 17.066246ZM23.028834 22.576523 28.527 22.434542C28.642666 26.913647 25.13027 29.082453 23.581709 29.82884 21.814507 30.680609 19.828783 31.097598 18.727887 31.319718L17.640112 25.928359 16.552338 20.536999C17.067114 20.433136 17.536635 20.329495 17.961857 20.211422 18.400452 20.089634 18.669768 19.985285 18.805666 19.919783 18.976895 19.837254 18.716435 19.923218 18.370306 20.322098 18.177042 20.544816 17.947966 20.87666 17.775273 21.322968 17.59821 21.780568 17.518843 22.260632 17.530667 22.718504L23.028834 22.576523ZM17.640112 25.928359 18.727887 31.319718C16.943697 31.679699 14.642385 31.765324 12.403932 30.880452L14.42586 25.76559 16.44779 20.65073C16.342305 20.609032 16.264525 20.59038 16.223889 20.58242 16.183398 20.574492 16.17136 20.575495 16.191376 20.576325 16.211106 20.57714 16.253397 20.577418 16.318057 20.571785 16.382397 20.56618 16.461232 20.555382 16.552338 20.536999L17.640112 25.928359ZM14.42586 25.76559 12.403932 30.880452C9.934959 29.904456 7.813588 27.737582 7.194136 24.796095L12.576089 23.6627 17.958043 22.529309C17.736094 21.47538 17.034817 20.882786 16.44779 20.65073L14.42586 25.76559ZM12.576089 23.6627 7.194136 24.796095C6.585868 21.907717 7.654542 19.338395 8.66667 17.762238L13.294641 20.734087 17.922612 23.705937C17.895445 23.74824 17.925894 23.718472 17.96148 23.583073 17.995684 23.452923 18.072567 23.073132 17.958043 22.529309L12.576089 23.6627ZM13.294641 20.734087 8.66667 17.762238C9.727912 16.1096 11.694405 14.062763 14.719383 13.530659L15.672225 18.947493 16.625067 24.364327C17.170723 24.268345 17.536784 24.04411 17.718644 23.90237 17.891173 23.767905 17.940468 23.67813 17.922612 23.705937L13.294641 20.734087ZM15.672225 18.947493 14.719383 13.530659C16.635355 13.193632 18.50034 13.585323 20.254006 14.657227 21.691876 15.536105 23.037003 16.861275 24.392626 18.407958L20.25647 22.033177 16.120314 25.658398C15.574257 25.03538 15.16893 24.620669 14.877262 24.350377 14.579339 24.074288 14.468418 24.012988 14.517203 24.042807 14.583191 24.08314 14.869661 24.245553 15.342181 24.34225 15.847967 24.445755 16.304114 24.420784 16.625067 24.364327L15.672225 18.947493Z" fill="#00a0d7"/>
<path transform="matrix(1,0,0,-1,68,120.06055)" d="M19.003748 49.346784C20.502518 50.567506 20.72792 52.77209 19.507199 54.27086 18.286475 55.76963 16.08189 55.995035 14.58312 54.77431L16.793435 52.060548 19.003748 49.346784ZM5.883625 41.776464 3.452085 44.293928 5.883625 41.776464ZM.204259 31.988417 3.662187 31.447367 .204259 31.988417ZM2.577009 18.431305-.890166 17.953083 2.577009 18.431305ZM3.242908 16.365914 .261635 14.532333 3.242908 16.365914ZM19.160653 8.91748 20.657149 12.081417 19.160653 8.91748ZM23.430039 7.560131 23.16408 4.070251 23.430039 7.560131ZM34.263364 17.768322 36.62964 15.189419 34.263364 17.768322ZM43.27002 26.416493 40.40431 28.425898 43.27002 26.416493ZM40.99937 40.523328 44.484296 40.847818C44.37577 42.013349 43.691766 43.047464 42.661638 43.603406L40.99937 40.523328ZM19.829743 49.090318 20.794627 52.45469C20.728674 52.473604 20.66218 52.490575 20.59523 52.50558L19.829743 49.090318ZM15.578772 53.496377C13.684771 53.88269 11.83621 52.66047 11.449895 50.76647 11.063581 48.87247 12.2858 47.02391 14.1798 46.637598L14.879286 50.066987 15.578772 53.496377ZM16.793435 52.060548 14.58312 54.77431C13.393305 53.805227 7.316036 48.025999 3.452085 44.293928L5.883625 41.776464 8.315164 39.259004C12.326852 43.133768 18.109908 48.618768 19.003748 49.346784L16.793435 52.060548ZM5.883625 41.776464 3.452085 44.293928C.784193 41.71709-2.448606 37.674737-3.253669 32.529466L.204259 31.988417 3.662187 31.447367C4.121941 34.385717 6.09075 37.110509 8.315164 39.259004L5.883625 41.776464ZM.204259 31.988417-3.253669 32.529466C-3.859444 28.657874-3.249401 25.463252-2.49032 22.935845-2.127058 21.72634-1.698985 20.581009-1.411693 19.760262-1.09023 18.841897-.9403 18.316559-.890166 17.953083L2.577009 18.431305 6.044184 18.909527C5.8878 20.043328 5.513216 21.164526 5.195238 22.072937 4.843089 23.078967 4.516795 23.94065 4.213837 24.94937 3.640476 26.858408 3.270661 28.945069 3.662187 31.447367L.204259 31.988417ZM2.577009 18.431305-.890166 17.953083C-.755499 16.976727-.460977 15.707253 .261635 14.532333L3.242908 16.365914 6.224181 18.199494C6.226648 18.19548 6.195671 18.246113 6.154736 18.37893 6.114266 18.510235 6.074976 18.686276 6.044184 18.909527L2.577009 18.431305ZM3.242908 16.365914 .261635 14.532333C1.163387 13.066147 2.700806 12.104671 3.850771 11.4814 5.135677 10.784992 6.671699 10.138103 8.209332 9.532963 11.446299 8.259052 14.756717 7.128719 17.664156 5.753544L19.160653 8.91748 20.657149 12.081417C17.473845 13.587074 13.589824 14.938046 10.772819 16.046685 9.283467 16.63282 8.077621 17.15252 7.186298 17.635609 6.160033 18.191834 6.086862 18.422764 6.224181 18.199494L3.242908 16.365914ZM19.160653 8.91748 17.664156 5.753544C19.35151 4.955448 21.218649 4.21851 23.16408 4.070251L23.430039 7.560131 23.695998 11.050011C23.072937 11.097496 22.15763 11.371712 20.657149 12.081417L19.160653 8.91748ZM23.430039 7.560131 23.16408 4.070251C24.944706 3.934551 26.400498 4.562035 27.541689 5.409889 28.561793 6.167782 29.450173 7.193779 30.203753 8.100033 31.811 10.032898 33.591955 12.402187 36.62964 15.189419L34.263364 17.768322 31.897088 20.347226C28.419245 17.156125 26.2625 14.308609 24.82145 12.575607 24.050879 11.648926 23.637459 11.229725 23.36706 11.028828 23.217749 10.917896 23.394333 11.073002 23.695998 11.050011L23.430039 7.560131ZM34.263364 17.768322 36.62964 15.189419C38.46778 16.87601 39.864294 18.020653 41.70922 19.687657 43.315587 21.139101 44.96221 22.733479 46.13573 24.407088L43.27002 26.416493 40.40431 28.425898C39.7179 27.446974 38.5859 26.299769 37.016267 24.881512 35.6852 23.678816 33.508348 21.825638 31.897088 20.347224L34.263364 17.768322ZM43.27002 26.416493 46.13573 24.407088C47.319959 26.095974 47.543779 27.968323 47.443544 29.548563 47.345724 31.09071 46.922315 32.632074 46.502687 33.950494 46.28727 34.627298 46.05134 35.30881 45.830587 35.946466 45.604795 36.598676 45.393636 37.20854 45.201288 37.809068 44.809576 39.031984 44.561044 40.02359 44.484296 40.847818L40.99937 40.523328 37.514448 40.198839C37.662805 38.60553 38.09866 37.03575 38.534914 35.673776 38.756544 34.98185 38.99526 34.29339 39.215768 33.65644 39.44132 33.004934 39.648118 32.40645 39.832399 31.82746 40.212163 30.634295 40.416006 29.760897 40.45758 29.105437 40.47702 28.799019 40.45488 28.614243 40.433557 28.516932 40.423444 28.470784 40.41398 28.446305 40.410058 28.437123 40.406507 28.428795 40.40485 28.426667 40.40431 28.425898L43.27002 26.416493ZM40.99937 40.523328 42.661638 43.603406C36.690984 46.82566 27.020567 50.66912 20.794627 52.45469L19.829743 49.090318 18.864859 45.725946C24.647364 44.06755 33.84524 40.407114 39.337106 37.44325L40.99937 40.523328ZM19.829743 49.090318 20.59523 52.50558C19.266007 52.80351 18.170626 52.96772 15.578772 53.496377L14.879286 50.066987 14.1798 46.637598C17.263792 46.00856 17.706469 45.97938 19.064255 45.675054L19.829743 49.090318Z" fill="#fad941"/>
<path transform="matrix(1,0,0,-1,94,99.96094)" d="M1.558313 7.496247C3.49131 7.496247 5.058313 9.063251 5.058313 10.996247 5.058313 12.929244 3.49131 14.496247 1.558313 14.496247V10.996247 7.496247ZM.131698 9.480853 2.958126 7.416561H2.958127L.131698 9.480853ZM2.497081 7.083033 2.4245 3.583786 2.497081 7.083033ZM6.314616 9.036573 8.986275 6.775547 6.314616 9.036573ZM6.291038 11.229765 3.338034 9.350998 6.291038 11.229765ZM2.034468 11.633873 2.856065 8.23167 2.034468 11.633873ZM7.781547 7.817722C9.078746 9.250813 8.968584 11.46415 7.535493 12.76135 6.102403 14.05855 3.889065 13.948388 2.591866 12.515297L5.186706 10.16651 7.781547 7.817722ZM1.558313 10.996247V14.496247C1.004231 14.496247 .586161 14.362524 .441537 14.314157 .248171 14.24949 .098009 14.180538 .010466 14.137946-.166105 14.052038-.301951 13.96796-.373815 13.921974-.528514 13.822981-.658366 13.724826-.748686 13.653543-.940934 13.501819-1.138554 13.3254-1.334047 13.134647-1.73142 12.746909-2.201787 12.220082-2.694731 11.545145L.131698 9.480853 2.958127 7.416561C3.226776 7.784396 3.442606 8.015266 3.554588 8.124533 3.613772 8.182281 3.626618 8.189192 3.587945 8.15867 3.574412 8.14799 3.507125 8.094906 3.399183 8.025832 3.350696 7.994805 3.234277 7.9219 3.072982 7.843424 2.993077 7.804548 2.849514 7.738378 2.661688 7.675563 2.565185 7.64329 2.429674 7.60266 2.264353 7.568462 2.106111 7.535729 1.860803 7.496247 1.558313 7.496247V10.996247ZM.131698 9.480853-2.69473 11.545145C-3.877454 9.925761-3.496272 8.19652-3.174786 7.366614-2.836478 6.493285-2.293722 5.797409-1.823627 5.326497L.653392 7.799223 3.130412 10.271949C3.143179 10.25916 3.248883 10.16284 3.352574 9.895165 3.439444 9.670916 3.788442 8.553429 2.958126 7.416561L.131698 9.480853ZM.653392 7.799223-1.823627 5.326497C-.598306 4.099048 .999382 3.613346 2.4245 3.583786L2.497081 7.083033 2.569663 10.58228C2.574239 10.582186 2.630077 10.580786 2.726337 10.543966 2.825084 10.506195 2.976176 10.426453 3.130412 10.271949L.653392 7.799223ZM2.497081 7.083033 2.4245 3.583786C5.330151 3.523517 7.637202 5.181465 8.986275 6.775547L6.314616 9.036573 3.642957 11.2976C3.418931 11.032887 3.16709 10.829721 2.942558 10.707506 2.723497 10.588268 2.600541 10.58164 2.569663 10.58228L2.497081 7.083033ZM6.314616 9.036573 8.986275 6.775547C10.031838 8.011 10.164409 9.454768 10.111759 10.351337 10.057343 11.278011 9.776054 12.272327 9.244042 13.108533L6.291038 11.229765 3.338034 9.350998C3.227959 9.524012 3.182777 9.652292 3.164322 9.712502 3.143531 9.780334 3.128966 9.852976 3.123798 9.940986 3.118982 10.022989 3.089418 10.643531 3.642957 11.2976L6.314616 9.036573ZM6.291038 11.229765 9.244042 13.108533C7.901097 15.219344 5.555247 15.438569 4.551548 15.459075 3.312737 15.484385 2.072627 15.243696 1.212871 15.036075L2.034468 11.633873 2.856065 8.23167C3.156997 8.304342 3.46105 8.366186 3.746365 8.407633 4.038681 8.450097 4.260325 8.463564 4.408565 8.460535 4.576323 8.457108 4.524898 8.434921 4.345916 8.501009 4.137357 8.578016 3.683306 8.808308 3.338034 9.350998L6.291038 11.229765ZM2.034468 11.633873 1.212871 15.036075C-1.158523 14.463408-1.830888 12.3712-1.94254 11.333547-2.055531 10.283447-1.821863 9.246836-1.425414 8.435564L1.719195 9.97226 4.863803 11.508957C4.982825 11.265398 5.060232 10.983789 5.017286 10.584667 4.993455 10.363192 4.909326 9.912476 4.574924 9.421062 4.195028 8.862797 3.591336 8.409231 2.856065 8.23167L2.034468 11.633873ZM1.719195 9.97226-1.425414 8.435564C-.560493 6.66564 1.26977 5.529938 3.216423 5.51611L3.241285 9.016022 3.266147 12.515933C3.649426 12.51321 3.967322 12.399037 4.20743 12.248544 4.448046 12.097731 4.692903 11.858679 4.863803 11.508957L1.719195 9.97226ZM3.241285 9.016022 3.216423 5.51611C5.392533 5.500651 6.906829 6.851371 7.781547 7.817722L5.186706 10.16651 2.591866 12.515297C2.377979 12.279004 2.311644 12.256943 2.390748 12.304312 2.439809 12.333691 2.543671 12.388931 2.699417 12.436031 2.859898 12.484564 3.052835 12.517448 3.266147 12.515933L3.241285 9.016022Z" fill="#fad941"/>
</svg>
