<svg width="10" height="10" viewBox="0 0 10 10" fill="none" xmlns="http://www.w3.org/2000/svg">
<path d="M7.91699 4.58317V3.74984C7.91699 3.52882 7.82919 3.31686 7.67291 3.16058C7.51663 3.0043 7.30467 2.9165 7.08366 2.9165H3.75033C3.52931 2.9165 3.31735 3.0043 3.16107 3.16058C3.00479 3.31686 2.91699 3.52882 2.91699 3.74984V7.08317C2.91699 7.30418 3.00479 7.51615 3.16107 7.67243C3.31735 7.82871 3.52931 7.9165 3.75033 7.9165H4.58366" stroke="#8F8B8B" stroke-width="0.833333" stroke-linecap="round" stroke-linejoin="round"/>
<path d="M1.25 1.25V1.25417M2.91667 1.25V1.25417M4.58333 1.25V1.25417M6.25 1.25V1.25417M1.25 2.91667V2.92083M1.25 4.58333V4.5875M1.25 6.25V6.25417M5.41667 5.41667L9.16667 6.66667L7.5 7.5L6.66667 9.16667L5.41667 5.41667Z" stroke="#8F8B8B" stroke-width="0.833333" stroke-linecap="round" stroke-linejoin="round"/>
</svg>
