<svg width="54" height="43" viewBox="0 0 54 43" fill="none" xmlns="http://www.w3.org/2000/svg">
<path d="M3.84052 8C9.29361 2.21542 19.3357 1 26.7979 1C32.2685 1 37.2446 3 42.7682 3C50.5328 3 51.7515 7.1455 51.7515 14.5C51.7515 21.2205 52.7497 27.5957 52.7497 34.2222C52.7497 37.3739 54.2158 42 50.2543 42H38.7756H12.3248C4.36698 42 6.11411 37.6667 3.34145 31.5556C0.804972 25.9649 -0.508513 12.6134 3.84052 8Z" fill="#0d99ff" stroke="black" stroke-opacity="0.43" stroke-linecap="round"/>
<path d="M15.7064 21.1783C15.7064 13.9324 25.7091 13.2388 30.8969 13.2388C36.4499 15.0369 36.4935 16.9181 36.4935 22.1707C36.4935 26.2121 32.1887 33.4328 27.2992 33.4328C24.1399 33.4328 21.4092 33.2928 18.9044 31.1027C15.2435 27.9019 15.7064 25.8302 15.7064 21.1783Z" fill="#FDFDFD" stroke="black" stroke-opacity="0.43" stroke-linecap="round"/>
</svg>
